<?xml version="1.0" encoding="utf-8"?>
<!-- Generator: Adobe Illustrator 16.0.4, SVG Export Plug-In . SVG Version: 6.00 Build 0)  -->
<!DOCTYPE svg PUBLIC "-//W3C//DTD SVG 1.1//EN" "http://www.w3.org/Graphics/SVG/1.1/DTD/svg11.dtd">
<svg version="1.1" xmlns="http://www.w3.org/2000/svg" xmlns:xlink="http://www.w3.org/1999/xlink" x="0px" y="0px" width="613px"
	 height="289px" viewBox="0 0 613 289" enable-background="new 0 0 613 289" xml:space="preserve">
<g id="Layer_1">
	<g id="Artwork">
		<g id="Guides" display="none">
		</g>
		<g id="BG">
		</g>
		<g id="_x31_920">
		</g>
		<g id="_x31_366">
		</g>
		<g id="_x37_68">
			<g>
				<line fill="none" stroke="#FF7070" stroke-miterlimit="10" x1="0.2" y1="0" x2="613.1" y2="0"/>
				<line fill="none" stroke="#FF7070" stroke-miterlimit="10" x1="0.2" y1="16.1" x2="613.1" y2="16.1"/>
				<line fill="none" stroke="#FF7070" stroke-miterlimit="10" x1="0.2" y1="32.1" x2="613.1" y2="32.1"/>
				<line fill="none" stroke="#FF7070" stroke-miterlimit="10" x1="0.2" y1="48.2" x2="613.1" y2="48.2"/>
				<line fill="none" stroke="#FF7070" stroke-miterlimit="10" x1="0.2" y1="64.2" x2="613.1" y2="64.2"/>
				<line fill="none" stroke="#FF7070" stroke-miterlimit="10" x1="0.2" y1="80.3" x2="613.1" y2="80.3"/>
				<line fill="none" stroke="#FF7070" stroke-miterlimit="10" x1="0.2" y1="96.3" x2="613.1" y2="96.3"/>
				<line fill="none" stroke="#FF7070" stroke-miterlimit="10" x1="0.2" y1="112.4" x2="613.1" y2="112.4"/>
				<line fill="none" stroke="#FF7070" stroke-miterlimit="10" x1="0.2" y1="128.4" x2="613.1" y2="128.4"/>
				<line fill="none" stroke="#FF7070" stroke-miterlimit="10" x1="0.2" y1="144.5" x2="613.1" y2="144.5"/>
				<line fill="none" stroke="#FF7070" stroke-miterlimit="10" x1="0.2" y1="160.6" x2="613.1" y2="160.6"/>
				<line fill="none" stroke="#FF7070" stroke-miterlimit="10" x1="0.2" y1="176.6" x2="613.1" y2="176.6"/>
				<line fill="none" stroke="#FF7070" stroke-miterlimit="10" x1="0.2" y1="192.7" x2="613.1" y2="192.7"/>
				<line fill="none" stroke="#FF7070" stroke-miterlimit="10" x1="0.2" y1="208.7" x2="613.1" y2="208.7"/>
				<line fill="none" stroke="#FF7070" stroke-miterlimit="10" x1="0.2" y1="224.8" x2="613.1" y2="224.8"/>
				<line fill="none" stroke="#FF7070" stroke-miterlimit="10" x1="0.2" y1="240.8" x2="613.1" y2="240.8"/>
				<line fill="none" stroke="#FF7070" stroke-miterlimit="10" x1="0.2" y1="256.9" x2="613.1" y2="256.9"/>
				<line fill="none" stroke="#FF7070" stroke-miterlimit="10" x1="0.2" y1="272.9" x2="613.1" y2="272.9"/>
				<line fill="none" stroke="#FF7070" stroke-miterlimit="10" x1="0.2" y1="289" x2="613.1" y2="289"/>
			</g>
			<g>
				<rect x="57.5" y="16" fill="none" stroke="#000000" stroke-miterlimit="10" width="112.4" height="112.4"/>
				<rect x="186.1" y="16" fill="none" stroke="#000000" stroke-miterlimit="10" width="112.4" height="112.4"/>
				<rect x="314.6" y="16" fill="none" stroke="#000000" stroke-miterlimit="10" width="112.4" height="112.4"/>
				<rect x="443.1" y="16" fill="none" stroke="#000000" stroke-miterlimit="10" width="112.4" height="112.4"/>
			</g>
			<g>
				<rect x="57.5" y="144.5" fill="none" stroke="#000000" stroke-miterlimit="10" width="112.4" height="112.4"/>
				<rect x="186.1" y="144.5" fill="none" stroke="#000000" stroke-miterlimit="10" width="112.4" height="112.4"/>
				<rect x="314.6" y="144.5" fill="none" stroke="#000000" stroke-miterlimit="10" width="112.4" height="112.4"/>
				<rect x="443.1" y="144.5" fill="none" stroke="#000000" stroke-miterlimit="10" width="112.4" height="112.4"/>
			</g>
			<g>
				<rect x="57.5" y="273" fill="none" stroke="#000000" stroke-miterlimit="10" width="112.4" height="112.4"/>
				<rect x="186.1" y="273" fill="none" stroke="#000000" stroke-miterlimit="10" width="112.4" height="112.4"/>
				<rect x="314.6" y="273" fill="none" stroke="#000000" stroke-miterlimit="10" width="112.4" height="112.4"/>
				<rect x="443.1" y="273" fill="none" stroke="#000000" stroke-miterlimit="10" width="112.4" height="112.4"/>
			</g>
		</g>
	</g>
</g>
<g id="Layer_2">
	<g id="Artwork_copy">
		<g id="Guides_copy" display="none">
		</g>
		<g id="BG_copy">
		</g>
		<g id="_x31_920_copy">
		</g>
		<g id="_x31_366_copy">
		</g>
		<g id="_x37_68_copy">
		</g>
	</g>
</g>
<g id="Layer_3">
	<g id="BG_1_">
	</g>
	<g id="Guides_2_" display="none">
	</g>
	<g id="Artwork_1_">
	</g>
</g>
<g id="Layer_4">
	<g id="BG_2_" display="none">
	</g>
	<g id="Guides_4_">
	</g>
	<g id="Artwork_2_">
	</g>
</g>
<g id="Layer_5">
	<g id="BG_3_">
	</g>
	<g id="Artwork_3_">
	</g>
	<g id="Guides_5_">
	</g>
</g>
<g id="Examples" display="none">
</g>
</svg>
