<?xml version="1.0" encoding="utf-8"?>
<!-- Generator: Adobe Illustrator 16.0.4, SVG Export Plug-In . SVG Version: 6.00 Build 0)  -->
<!DOCTYPE svg PUBLIC "-//W3C//DTD SVG 1.1//EN" "http://www.w3.org/Graphics/SVG/1.1/DTD/svg11.dtd">
<svg version="1.1" xmlns="http://www.w3.org/2000/svg" xmlns:xlink="http://www.w3.org/1999/xlink" x="0px" y="0px" width="612px"
	 height="288px" viewBox="0 0 612 288" enable-background="new 0 0 612 288" xml:space="preserve">
<g id="_x31_">
</g>
<g id="_x32_">
</g>
<g id="_x33_">
</g>
<g id="_x34_">
	<g>
		<g>
			<rect fill="#FF7070" width="612" height="1"/>
		</g>
		<g>
			<rect y="15.9" fill="#FF7070" width="612" height="1"/>
		</g>
		<g>
			<rect y="31.9" fill="#FF7070" width="612" height="1"/>
		</g>
		<g>
			<rect y="47.8" fill="#FF7070" width="612" height="1"/>
		</g>
		<g>
			<rect y="63.8" fill="#FF7070" width="612" height="1"/>
		</g>
		<g>
			<rect y="79.7" fill="#FF7070" width="612" height="1"/>
		</g>
		<g>
			<rect y="95.7" fill="#FF7070" width="612" height="1"/>
		</g>
		<g>
			<rect y="111.6" fill="#FF7070" width="612" height="1"/>
		</g>
		<g>
			<rect y="127.6" fill="#FF7070" width="612" height="1"/>
		</g>
		<g>
			<rect y="143.5" fill="#FF7070" width="612" height="1"/>
		</g>
		<g>
			<rect y="159.4" fill="#FF7070" width="612" height="1"/>
		</g>
		<g>
			<rect y="175.4" fill="#FF7070" width="612" height="1"/>
		</g>
		<g>
			<rect y="191.3" fill="#FF7070" width="612" height="1"/>
		</g>
		<g>
			<rect y="207.3" fill="#FF7070" width="612" height="1"/>
		</g>
		<g>
			<rect y="223.2" fill="#FF7070" width="612" height="1"/>
		</g>
		<g>
			<rect y="239.2" fill="#FF7070" width="612" height="1"/>
		</g>
		<g>
			<rect y="255.1" fill="#FF7070" width="612" height="1"/>
		</g>
		<g>
			<rect y="271.1" fill="#FF7070" width="612" height="1"/>
		</g>
		<g>
			<rect y="287" fill="#FF7070" width="612" height="1"/>
		</g>
	</g>
	<g>
		<g>
			<path d="M170.9,128.5H58.3V15.9h112.6V128.5z M59.3,127.5h110.6V16.9H59.3V127.5z"/>
		</g>
		<g>
			<path d="M298.5,128.5H185.9V15.9h112.6V128.5z M186.9,127.5h110.6V16.9H186.9V127.5z"/>
		</g>
		<g>
			<path d="M426.1,128.5H313.5V15.9h112.6V128.5z M314.5,127.5h110.6V16.9H314.5V127.5z"/>
		</g>
		<g>
			<path d="M553.7,128.5H441.1V15.9h112.6V128.5z M442.1,127.5h110.6V16.9H442.1V127.5z"/>
		</g>
	</g>
	<g>
		<g>
			<path d="M170.9,256H58.3V143.5h112.6V256z M59.3,255.1h110.6V144.5H59.3V255.1z"/>
		</g>
		<g>
			<path d="M298.5,256H185.9V143.5h112.6V256z M186.9,255.1h110.6V144.5H186.9V255.1z"/>
		</g>
		<g>
			<path d="M426.1,256H313.5V143.5h112.6V256z M314.5,255.1h110.6V144.5H314.5V255.1z"/>
		</g>
		<g>
			<path d="M553.7,256H441.1V143.5h112.6V256z M442.1,255.1h110.6V144.5H442.1V255.1z"/>
		</g>
	</g>
	<g>
		<g>
			<path d="M170.9,383.6H58.3V271h112.6V383.6z M59.3,382.6h110.6V272H59.3V382.6z"/>
		</g>
		<g>
			<path d="M298.5,383.6H185.9V271h112.6V383.6z M186.9,382.6h110.6V272H186.9V382.6z"/>
		</g>
		<g>
			<path d="M426.1,383.6H313.5V271h112.6V383.6z M314.5,382.6h110.6V272H314.5V382.6z"/>
		</g>
		<g>
			<path d="M553.7,383.6H441.1V271h112.6V383.6z M442.1,382.6h110.6V272H442.1V382.6z"/>
		</g>
	</g>
</g>
<g id="_x35_">
</g>
<g id="_x36_">
</g>
</svg>
