<?xml version="1.0" encoding="utf-8"?>
<!-- Generator: Adobe Illustrator 16.0.4, SVG Export Plug-In . SVG Version: 6.00 Build 0)  -->
<!DOCTYPE svg PUBLIC "-//W3C//DTD SVG 1.1//EN" "http://www.w3.org/Graphics/SVG/1.1/DTD/svg11.dtd">
<svg version="1.1" xmlns="http://www.w3.org/2000/svg" xmlns:xlink="http://www.w3.org/1999/xlink" x="0px" y="0px" width="613px"
	 height="289px" viewBox="0 0 613 289" enable-background="new 0 0 613 289" xml:space="preserve">
<g id="Layer_1">
	<g id="Artwork">
		<g id="Guides" display="none">
		</g>
		<g id="BG">
		</g>
		<g id="_x31_920">
		</g>
		<g id="_x31_366">
		</g>
		<g id="_x37_68">
		</g>
	</g>
</g>
<g id="Layer_2">
	<g id="Artwork_copy">
		<g id="Guides_copy" display="none">
		</g>
		<g id="BG_copy">
		</g>
		<g id="_x31_920_copy">
		</g>
		<g id="_x31_366_copy">
		</g>
		<g id="_x37_68_copy">
		</g>
	</g>
</g>
<g id="Layer_3">
	<g id="BG_1_">
	</g>
	<g id="Guides_2_" display="none">
	</g>
	<g id="Artwork_1_">
		<text transform="matrix(1 0 0 1 96.9512 195.7485)"><tspan x="0" y="0" font-family='"Helvetica Neue", Helvetica, Arial, sans-serif' font-size="146.3741">A</tspan><tspan x="94.8" y="0" fill="#CCCCCC" font-family='"Helvetica Neue", Helvetica, Arial, sans-serif' font-size="146.3741">djust</tspan></text>
		<rect x="-52.4" y="69.5" fill="none" stroke="#CCCCCC" stroke-miterlimit="10" width="717.9" height="148"/>
		<rect x="-52.4" y="48.2" fill="none" stroke="#CCCCCC" stroke-miterlimit="10" width="717.9" height="148"/>
		<rect x="-52.4" y="90.8" fill="none" stroke="#CCCCCC" stroke-miterlimit="10" width="717.9" height="148"/>
		<line fill="none" stroke="#FF0000" stroke-miterlimit="10" x1="0" y1="90.8" x2="613" y2="90.8"/>
		<line fill="none" stroke="#FF0000" stroke-miterlimit="10" x1="0" y1="196.2" x2="613" y2="196.2"/>
		<text transform="matrix(1 0 0 1 536.0762 63.293)" font-family='"Helvetica Neue", Helvetica, Arial, sans-serif' font-size="12">Font size</text>
		<text transform="matrix(1 0 0 1 74 83.9595)" font-family='"Helvetica Neue", Helvetica, Arial, sans-serif' font-size="12">Cap height</text>
		<text transform="matrix(1 0 0 1 390.5225 39.293)" font-family='"Helvetica Neue", Helvetica, Arial, sans-serif' font-size="12">Line height</text>
		<line fill="none" stroke="#000000" stroke-miterlimit="10" x1="536.8" y1="69.5" x2="536.8" y2="217.5"/>
		<line fill="none" stroke="#000000" stroke-miterlimit="10" x1="74" y1="90.8" x2="74" y2="196.6"/>
		<line fill="none" stroke="#000000" stroke-miterlimit="10" x1="391.8" y1="48.2" x2="391.8" y2="238.8"/>
		<line fill="none" stroke="#000000" stroke-miterlimit="10" x1="67.8" y1="90.8" x2="80" y2="90.8"/>
		<line fill="none" stroke="#000000" stroke-miterlimit="10" x1="385.6" y1="48.2" x2="397.9" y2="48.2"/>
		<line fill="none" stroke="#000000" stroke-miterlimit="10" x1="385.6" y1="238.8" x2="397.9" y2="238.8"/>
		<line fill="none" stroke="#000000" stroke-miterlimit="10" x1="530.6" y1="217.5" x2="542.9" y2="217.5"/>
		<line fill="none" stroke="#000000" stroke-miterlimit="10" x1="530.6" y1="69.5" x2="542.9" y2="69.5"/>
		<line fill="none" stroke="#000000" stroke-miterlimit="10" x1="67.8" y1="196.2" x2="80" y2="196.2"/>
	</g>
</g>
<g id="Layer_4">
	<g id="BG_2_" display="none">
	</g>
	<g id="Guides_4_">
	</g>
	<g id="Artwork_2_">
	</g>
</g>
<g id="Layer_5">
	<g id="BG_3_">
	</g>
	<g id="Artwork_3_">
	</g>
	<g id="Guides_5_">
	</g>
</g>
<g id="Examples" display="none">
</g>
</svg>
