<?xml version="1.0" encoding="utf-8"?>
<!-- Generator: Adobe Illustrator 16.0.4, SVG Export Plug-In . SVG Version: 6.00 Build 0)  -->
<!DOCTYPE svg PUBLIC "-//W3C//DTD SVG 1.1//EN" "http://www.w3.org/Graphics/SVG/1.1/DTD/svg11.dtd">
<svg version="1.1" xmlns="http://www.w3.org/2000/svg" xmlns:xlink="http://www.w3.org/1999/xlink" x="0px" y="0px" width="612px"
	 height="288px" viewBox="0 0 612 288" enable-background="new 0 0 612 288" xml:space="preserve">
<g id="_x31_">
</g>
<g id="_x32_">
	<g>
		<text transform="matrix(1 0 0 1 96.4512 195.7485)"><tspan x="0" y="0" font-family='"Helvetica Neue", Helvetica, Arial, sans-serif' font-size="146.3741">A</tspan><tspan x="94.8" y="0" fill="#CCCCCC" font-family='"Helvetica Neue", Helvetica, Arial, sans-serif' font-size="146.3741">djust</tspan></text>
		<rect x="-52.9" y="69.5" fill="none" stroke="#CCCCCC" stroke-miterlimit="10" width="717.9" height="148"/>
		<rect x="-52.9" y="48.2" fill="none" stroke="#CCCCCC" stroke-miterlimit="10" width="717.9" height="148"/>
		<rect x="-52.9" y="90.8" fill="none" stroke="#CCCCCC" stroke-miterlimit="10" width="717.9" height="148"/>
		<line fill="none" stroke="#FF0000" stroke-miterlimit="10" x1="-0.5" y1="90.8" x2="612.5" y2="90.8"/>
		<line fill="none" stroke="#FF0000" stroke-miterlimit="10" x1="-0.5" y1="196.2" x2="612.5" y2="196.2"/>
		<text transform="matrix(1 0 0 1 535.5762 63.293)" font-family='"Helvetica Neue", Helvetica, Arial, sans-serif' font-size="12">Font size</text>
		<text transform="matrix(1 0 0 1 73.5 83.9595)" font-family='"Helvetica Neue", Helvetica, Arial, sans-serif' font-size="12">Cap height</text>
		<text transform="matrix(1 0 0 1 390.0225 39.293)" font-family='"Helvetica Neue", Helvetica, Arial, sans-serif' font-size="12">Line height</text>
		<line fill="none" stroke="#000000" stroke-miterlimit="10" x1="536.3" y1="69.5" x2="536.3" y2="217.5"/>
		<line fill="none" stroke="#000000" stroke-miterlimit="10" x1="73.5" y1="90.8" x2="73.5" y2="196.6"/>
		<line fill="none" stroke="#000000" stroke-miterlimit="10" x1="391.2" y1="48.2" x2="391.2" y2="238.8"/>
		<line fill="none" stroke="#000000" stroke-miterlimit="10" x1="67.3" y1="90.8" x2="79.5" y2="90.8"/>
		<line fill="none" stroke="#000000" stroke-miterlimit="10" x1="385.1" y1="48.2" x2="397.4" y2="48.2"/>
		<line fill="none" stroke="#000000" stroke-miterlimit="10" x1="385.1" y1="238.8" x2="397.4" y2="238.8"/>
		<line fill="none" stroke="#000000" stroke-miterlimit="10" x1="530.1" y1="217.5" x2="542.4" y2="217.5"/>
		<line fill="none" stroke="#000000" stroke-miterlimit="10" x1="530.1" y1="69.5" x2="542.4" y2="69.5"/>
		<line fill="none" stroke="#000000" stroke-miterlimit="10" x1="67.3" y1="196.2" x2="79.5" y2="196.2"/>
	</g>
</g>
<g id="_x33_">
</g>
<g id="_x34_">
</g>
<g id="_x35_">
</g>
<g id="_x36_">
</g>
</svg>
