<?xml version="1.0" encoding="utf-8"?>
<!-- Generator: Adobe Illustrator 16.0.4, SVG Export Plug-In . SVG Version: 6.00 Build 0)  -->
<!DOCTYPE svg PUBLIC "-//W3C//DTD SVG 1.1//EN" "http://www.w3.org/Graphics/SVG/1.1/DTD/svg11.dtd">
<svg version="1.1" xmlns="http://www.w3.org/2000/svg" xmlns:xlink="http://www.w3.org/1999/xlink" x="0px" y="0px" width="612px"
	 height="288px" viewBox="0 0 612 288" enable-background="new 0 0 612 288" xml:space="preserve">
<g id="_x31_">
	<g>
		<g>
			<g>
				<path d="M192.8,50.6v186.8H0.8V50.6H192.8 M193.5,49.8H0v188.3h193.5V49.8L193.5,49.8z"/>
			</g>
			<g>
				<path d="M402,50.6v186.8H210V50.6H402 M402.8,49.8H209.2v188.3h193.5V49.8L402.8,49.8z"/>
			</g>
			<g>
				<path d="M611.2,50.6v186.8h-192V50.6H611.2 M612,49.8H418.5v188.3H612V49.8L612,49.8z"/>
			</g>
		</g>
		<rect x="210.4" y="51.1" fill="none" width="401.5" height="174.7"/>
		<text transform="matrix(1 0 0 1 210.418 60.7285)"><tspan x="0" y="0" fill="#FF7070" font-family='"Helvetica Neue", Helvetica, Arial, sans-serif' font-size="13.4532">Whilst using and documenting Interior simultaneously it became </tspan><tspan x="0" y="23.5" fill="#FF7070" font-family='"Helvetica Neue", Helvetica, Arial, sans-serif' font-size="13.4532">increasingly apparent that keeping up with the development of </tspan><tspan x="0" y="47.1" fill="#FF7070" font-family='"Helvetica Neue", Helvetica, Arial, sans-serif' font-size="13.4532">new specifications would be a never ending task. What&apos;s more, if I </tspan><tspan x="0" y="70.6" fill="#FF7070" font-family='"Helvetica Neue", Helvetica, Arial, sans-serif' font-size="13.4532">want to change methodologies I&apos;d have to refactor lots of code, </tspan><tspan x="0" y="94.2" fill="#FF7070" font-family='"Helvetica Neue", Helvetica, Arial, sans-serif' font-size="13.4532">why tie things together? Separating the fundamental design </tspan><tspan x="0" y="117.7" fill="#FF7070" font-family='"Helvetica Neue", Helvetica, Arial, sans-serif' font-size="13.4532">system—which can apply to a design created with any </tspan><tspan x="0" y="141.3" fill="#FF7070" font-family='"Helvetica Neue", Helvetica, Arial, sans-serif' font-size="13.4532">spec—from the ever-changing is not only logical, but efficient.</tspan></text>
		<rect x="0.9" y="51.1" fill="none" width="191.7" height="161.2"/>
		<text transform="matrix(1 0 0 1 0.9316 59.5278)"><tspan x="0" y="0" fill="#FF7070" font-family='"Helvetica Neue", Helvetica, Arial, sans-serif' font-weight="bold" font-size="11.7715">Design principles</tspan><tspan x="0" y="23.5" fill="#FF7070" font-family='"Helvetica Neue", Helvetica, Arial, sans-serif' font-size="10.0899">The fundamentals of Interior. Each </tspan><tspan x="0" y="35.3" fill="#FF7070" font-family='"Helvetica Neue", Helvetica, Arial, sans-serif' font-size="10.0899">principle is essential in order to create </tspan><tspan x="0" y="47.1" fill="#FF7070" font-family='"Helvetica Neue", Helvetica, Arial, sans-serif' font-size="10.0899">consistent web layouts.</tspan></text>
	</g>
</g>
<g id="_x32_">
</g>
<g id="_x33_">
</g>
<g id="_x34_">
</g>
<g id="_x35_">
</g>
<g id="_x36_">
</g>
</svg>
