<?xml version="1.0" encoding="utf-8"?>
<!-- Generator: Adobe Illustrator 16.0.4, SVG Export Plug-In . SVG Version: 6.00 Build 0)  -->
<!DOCTYPE svg PUBLIC "-//W3C//DTD SVG 1.1//EN" "http://www.w3.org/Graphics/SVG/1.1/DTD/svg11.dtd">
<svg version="1.1" xmlns="http://www.w3.org/2000/svg" xmlns:xlink="http://www.w3.org/1999/xlink" x="0px" y="0px" width="612px"
	 height="288px" viewBox="0 0 612 288" enable-background="new 0 0 612 288" xml:space="preserve">
<g id="_x31_">
</g>
<g id="_x32_">
</g>
<g id="_x33_">
	<rect opacity="0.1" fill="#FF7070" width="612" height="288"/>
	<g>
		<g>
			<rect x="12.8" y="12.6" fill="#FFFFFF" width="336" height="189.4"/>
			<path d="M348.3,13.1v188.4h-335V13.1H348.3 M349.3,12.1h-1h-335h-1v1v188.4v1h1h335h1v-1V13.1V12.1L349.3,12.1z"/>
		</g>
		<g>
			<defs>
				<rect id="SVGID_1_" x="17.5" y="18.1" width="306.7" height="183.4"/>
			</defs>
			<clipPath id="SVGID_2_">
				<use xlink:href="#SVGID_1_"  overflow="visible"/>
			</clipPath>
			<g clip-path="url(#SVGID_2_)">
				<g>
					<g>
						<path fill="#FF7070" d="M74.1,187.8V238H24v-50.2H74.1 M74.6,187.3h-0.5H24h-0.5v0.5V238v0.5H24h50.2h0.5V238v-50.2V187.3
							L74.6,187.3z"/>
					</g>
					<g>
						<path fill="#FF7070" d="M74.1,133.5v50.2H24v-50.2H74.1 M74.6,133h-0.5H24h-0.5v0.5v50.2v0.5H24h50.2h0.5v-0.5v-50.2V133
							L74.6,133z"/>
					</g>
					<g>
						<path fill="#FF7070" d="M74.1,79.3v50.2H24V79.3H74.1 M74.6,78.8h-0.5H24h-0.5v0.5v50.2v0.5H24h50.2h0.5v-0.5V79.3V78.8
							L74.6,78.8z"/>
					</g>
					<g>
						<path fill="#FF7070" d="M74.1,25v50.2H24V25H74.1 M74.6,24.5h-0.5H24h-0.5V25v50.2v0.5H24h50.2h0.5v-0.5V25V24.5L74.6,24.5z"
							/>
					</g>
				</g>
				<g>
					<g>
						<path fill="#FF7070" d="M128.4,187.8V238H78.2v-50.2H128.4 M128.9,187.3h-0.5H78.2h-0.5v0.5V238v0.5h0.5h50.2h0.5V238v-50.2
							V187.3L128.9,187.3z"/>
					</g>
					<g>
						<path fill="#FF7070" d="M128.4,133.5v50.2H78.2v-50.2H128.4 M128.9,133h-0.5H78.2h-0.5v0.5v50.2v0.5h0.5h50.2h0.5v-0.5v-50.2
							V133L128.9,133z"/>
					</g>
					<g>
						<path fill="#FF7070" d="M128.4,79.3v50.2H78.2V79.3H128.4 M128.9,78.8h-0.5H78.2h-0.5v0.5v50.2v0.5h0.5h50.2h0.5v-0.5V79.3
							V78.8L128.9,78.8z"/>
					</g>
					<g>
						<path fill="#FF7070" d="M128.4,25v50.2H78.2V25H128.4 M128.9,24.5h-0.5H78.2h-0.5V25v50.2v0.5h0.5h50.2h0.5v-0.5V25V24.5
							L128.9,24.5z"/>
					</g>
				</g>
				<g>
					<g>
						<path fill="#FF7070" d="M182.7,187.8V238h-50.2v-50.2H182.7 M183.2,187.3h-0.5h-50.2H132v0.5V238v0.5h0.5h50.2h0.5V238v-50.2
							V187.3L183.2,187.3z"/>
					</g>
					<g>
						<path fill="#FF7070" d="M182.7,133.5v50.2h-50.2v-50.2H182.7 M183.2,133h-0.5h-50.2H132v0.5v50.2v0.5h0.5h50.2h0.5v-0.5v-50.2
							V133L183.2,133z"/>
					</g>
					<g>
						<path fill="#FF7070" d="M182.7,79.3v50.2h-50.2V79.3H182.7 M183.2,78.8h-0.5h-50.2H132v0.5v50.2v0.5h0.5h50.2h0.5v-0.5V79.3
							V78.8L183.2,78.8z"/>
					</g>
					<g>
						<path fill="#FF7070" d="M182.7,25v50.2h-50.2V25H182.7 M183.2,24.5h-0.5h-50.2H132V25v50.2v0.5h0.5h50.2h0.5v-0.5V25V24.5
							L183.2,24.5z"/>
					</g>
				</g>
				<g>
					<g>
						<path fill="#FF7070" d="M236.9,187.8V238h-50.2v-50.2H236.9 M237.4,187.3h-0.5h-50.2h-0.5v0.5V238v0.5h0.5h50.2h0.5V238v-50.2
							V187.3L237.4,187.3z"/>
					</g>
					<g>
						<path fill="#FF7070" d="M236.9,133.5v50.2h-50.2v-50.2H236.9 M237.4,133h-0.5h-50.2h-0.5v0.5v50.2v0.5h0.5h50.2h0.5v-0.5
							v-50.2V133L237.4,133z"/>
					</g>
					<g>
						<path fill="#FF7070" d="M236.9,79.3v50.2h-50.2V79.3H236.9 M237.4,78.8h-0.5h-50.2h-0.5v0.5v50.2v0.5h0.5h50.2h0.5v-0.5V79.3
							V78.8L237.4,78.8z"/>
					</g>
					<g>
						<path fill="#FF7070" d="M236.9,25v50.2h-50.2V25H236.9 M237.4,24.5h-0.5h-50.2h-0.5V25v50.2v0.5h0.5h50.2h0.5v-0.5V25V24.5
							L237.4,24.5z"/>
					</g>
				</g>
				<g>
					<g>
						<path fill="#FF7070" d="M291.2,187.8V238H241v-50.2H291.2 M291.7,187.3h-0.5H241h-0.5v0.5V238v0.5h0.5h50.2h0.5V238v-50.2
							V187.3L291.7,187.3z"/>
					</g>
					<g>
						<path fill="#FF7070" d="M291.2,133.5v50.2H241v-50.2H291.2 M291.7,133h-0.5H241h-0.5v0.5v50.2v0.5h0.5h50.2h0.5v-0.5v-50.2
							V133L291.7,133z"/>
					</g>
					<g>
						<path fill="#FF7070" d="M291.2,79.3v50.2H241V79.3H291.2 M291.7,78.8h-0.5H241h-0.5v0.5v50.2v0.5h0.5h50.2h0.5v-0.5V79.3V78.8
							L291.7,78.8z"/>
					</g>
					<g>
						<path fill="#FF7070" d="M291.2,25v50.2H241V25H291.2 M291.7,24.5h-0.5H241h-0.5V25v50.2v0.5h0.5h50.2h0.5v-0.5V25V24.5
							L291.7,24.5z"/>
					</g>
				</g>
			</g>
		</g>
	</g>
	<g>
		<g>
			<rect x="368.1" y="12.7" fill="#FFFFFF" width="232.6" height="131.2"/>
			<path d="M600.2,13.2v130.2H368.6V13.2H600.2 M601.2,12.2h-1H368.6h-1v1v130.2v1h1h231.6h1v-1V13.2V12.2L601.2,12.2z"/>
		</g>
		<g>
			<defs>
				<rect id="SVGID_3_" x="368.6" y="13.2" width="231.6" height="130.2"/>
			</defs>
			<clipPath id="SVGID_4_">
				<use xlink:href="#SVGID_3_"  overflow="visible"/>
			</clipPath>
			<g clip-path="url(#SVGID_4_)">
				<g>
					<g>
						<path fill="#FF7070" d="M428.1,26.9v50.2h-50.2V26.9H428.1 M428.6,26.4h-0.5h-50.2h-0.5v0.5v50.2v0.5h0.5h50.2h0.5v-0.5V26.9
							V26.4L428.6,26.4z"/>
					</g>
					<g>
						<path fill="#FF7070" d="M482.4,26.9v50.2h-50.2V26.9H482.4 M482.9,26.4h-0.5h-50.2h-0.5v0.5v50.2v0.5h0.5h50.2h0.5v-0.5V26.9
							V26.4L482.9,26.4z"/>
					</g>
					<g>
						<path fill="#FF7070" d="M536.6,26.9v50.2h-50.2V26.9H536.6 M537.1,26.4h-0.5h-50.2h-0.5v0.5v50.2v0.5h0.5h50.2h0.5v-0.5V26.9
							V26.4L537.1,26.4z"/>
					</g>
					<g>
						<path fill="#FF7070" d="M590.9,26.9v50.2h-50.2V26.9H590.9 M591.4,26.4h-0.5h-50.2h-0.5v0.5v50.2v0.5h0.5h50.2h0.5v-0.5V26.9
							V26.4L591.4,26.4z"/>
					</g>
				</g>
				<g>
					<g>
						<path fill="#FF7070" d="M428.1,81.2v50.2h-50.2V81.2H428.1 M428.6,80.7h-0.5h-50.2h-0.5v0.5v50.2v0.5h0.5h50.2h0.5v-0.5V81.2
							V80.7L428.6,80.7z"/>
					</g>
					<g>
						<path fill="#FF7070" d="M482.4,81.2v50.2h-50.2V81.2H482.4 M482.9,80.7h-0.5h-50.2h-0.5v0.5v50.2v0.5h0.5h50.2h0.5v-0.5V81.2
							V80.7L482.9,80.7z"/>
					</g>
					<g>
						<path fill="#FF7070" d="M536.6,81.2v50.2h-50.2V81.2H536.6 M537.1,80.7h-0.5h-50.2h-0.5v0.5v50.2v0.5h0.5h50.2h0.5v-0.5V81.2
							V80.7L537.1,80.7z"/>
					</g>
					<g>
						<path fill="#FF7070" d="M590.9,81.2v50.2h-50.2V81.2H590.9 M591.4,80.7h-0.5h-50.2h-0.5v0.5v50.2v0.5h0.5h50.2h0.5v-0.5V81.2
							V80.7L591.4,80.7z"/>
					</g>
				</g>
				<g>
					<g>
						<path fill="#FF7070" d="M428.1,135.5v50.2h-50.2v-50.2H428.1 M428.6,135h-0.5h-50.2h-0.5v0.5v50.2v0.5h0.5h50.2h0.5v-0.5
							v-50.2V135L428.6,135z"/>
					</g>
					<g>
						<path fill="#FF7070" d="M482.4,135.5v50.2h-50.2v-50.2H482.4 M482.9,135h-0.5h-50.2h-0.5v0.5v50.2v0.5h0.5h50.2h0.5v-0.5
							v-50.2V135L482.9,135z"/>
					</g>
					<g>
						<path fill="#FF7070" d="M536.6,135.5v50.2h-50.2v-50.2H536.6 M537.1,135h-0.5h-50.2h-0.5v0.5v50.2v0.5h0.5h50.2h0.5v-0.5
							v-50.2V135L537.1,135z"/>
					</g>
					<g>
						<path fill="#FF7070" d="M590.9,135.5v50.2h-50.2v-50.2H590.9 M591.4,135h-0.5h-50.2h-0.5v0.5v50.2v0.5h0.5h50.2h0.5v-0.5
							v-50.2V135L591.4,135z"/>
					</g>
				</g>
				<g>
					<g>
						<path fill="#FF7070" d="M428.1,189.7v50.2h-50.2v-50.2H428.1 M428.6,189.2h-0.5h-50.2h-0.5v0.5v50.2v0.5h0.5h50.2h0.5v-0.5
							v-50.2V189.2L428.6,189.2z"/>
					</g>
					<g>
						<path fill="#FF7070" d="M482.4,189.7v50.2h-50.2v-50.2H482.4 M482.9,189.2h-0.5h-50.2h-0.5v0.5v50.2v0.5h0.5h50.2h0.5v-0.5
							v-50.2V189.2L482.9,189.2z"/>
					</g>
					<g>
						<path fill="#FF7070" d="M536.6,189.7v50.2h-50.2v-50.2H536.6 M537.1,189.2h-0.5h-50.2h-0.5v0.5v50.2v0.5h0.5h50.2h0.5v-0.5
							v-50.2V189.2L537.1,189.2z"/>
					</g>
					<g>
						<path fill="#FF7070" d="M590.9,189.7v50.2h-50.2v-50.2H590.9 M591.4,189.2h-0.5h-50.2h-0.5v0.5v50.2v0.5h0.5h50.2h0.5v-0.5
							v-50.2V189.2L591.4,189.2z"/>
					</g>
				</g>
				<g>
					<g>
						<path fill="#FF7070" d="M428.1,244v50.2h-50.2V244H428.1 M428.6,243.5h-0.5h-50.2h-0.5v0.5v50.2v0.5h0.5h50.2h0.5v-0.5V244
							V243.5L428.6,243.5z"/>
					</g>
					<g>
						<path fill="#FF7070" d="M482.4,244v50.2h-50.2V244H482.4 M482.9,243.5h-0.5h-50.2h-0.5v0.5v50.2v0.5h0.5h50.2h0.5v-0.5V244
							V243.5L482.9,243.5z"/>
					</g>
					<g>
						<path fill="#FF7070" d="M536.6,244v50.2h-50.2V244H536.6 M537.1,243.5h-0.5h-50.2h-0.5v0.5v50.2v0.5h0.5h50.2h0.5v-0.5V244
							V243.5L537.1,243.5z"/>
					</g>
					<g>
						<path fill="#FF7070" d="M590.9,244v50.2h-50.2V244H590.9 M591.4,243.5h-0.5h-50.2h-0.5v0.5v50.2v0.5h0.5h50.2h0.5v-0.5V244
							V243.5L591.4,243.5z"/>
					</g>
				</g>
			</g>
		</g>
	</g>
	<g>
		<g>
			<rect x="368.1" y="157.4" fill="#FFFFFF" width="131.2" height="174.6"/>
			<path d="M498.8,157.9v173.6H368.6V157.9H498.8 M499.8,156.9h-1H368.6h-1v1v173.6v1h1h130.2h1v-1V157.9V156.9L499.8,156.9z"/>
		</g>
		<g>
			<defs>
				<rect id="SVGID_5_" x="368.6" y="157.9" width="130.2" height="173.6"/>
			</defs>
			<clipPath id="SVGID_6_">
				<use xlink:href="#SVGID_5_"  overflow="visible"/>
			</clipPath>
			<g clip-path="url(#SVGID_6_)">
				<g>
					<g>
						<path fill="#FF7070" d="M425.8,169.7v50.2h-50.2v-50.2H425.8 M426.3,169.2h-0.5h-50.2h-0.5v0.5v50.2v0.5h0.5h50.2h0.5v-0.5
							v-50.2V169.2L426.3,169.2z"/>
					</g>
					<g>
						<path fill="#FF7070" d="M480,169.7v50.2h-50.2v-50.2H480 M480.5,169.2H480h-50.2h-0.5v0.5v50.2v0.5h0.5H480h0.5v-0.5v-50.2
							V169.2L480.5,169.2z"/>
					</g>
				</g>
				<g>
					<g>
						<path fill="#FF7070" d="M425.8,224v50.2h-50.2V224H425.8 M426.3,223.5h-0.5h-50.2h-0.5v0.5v50.2v0.5h0.5h50.2h0.5v-0.5V224
							V223.5L426.3,223.5z"/>
					</g>
					<g>
						<path fill="#FF7070" d="M480,224v50.2h-50.2V224H480 M480.5,223.5H480h-50.2h-0.5v0.5v50.2v0.5h0.5H480h0.5v-0.5V224V223.5
							L480.5,223.5z"/>
					</g>
				</g>
				<g>
					<g>
						<path fill="#FF7070" d="M425.8,278.2v50.2h-50.2v-50.2H425.8 M426.3,277.7h-0.5h-50.2h-0.5v0.5v50.2v0.5h0.5h50.2h0.5v-0.5
							v-50.2V277.7L426.3,277.7z"/>
					</g>
					<g>
						<path fill="#FF7070" d="M480,278.2v50.2h-50.2v-50.2H480 M480.5,277.7H480h-50.2h-0.5v0.5v50.2v0.5h0.5H480h0.5v-0.5v-50.2
							V277.7L480.5,277.7z"/>
					</g>
				</g>
			</g>
		</g>
	</g>
</g>
<g id="_x34_">
</g>
<g id="_x35_">
</g>
<g id="_x36_">
</g>
</svg>
