<?xml version="1.0" encoding="utf-8"?>
<!-- Generator: Adobe Illustrator 16.0.4, SVG Export Plug-In . SVG Version: 6.00 Build 0)  -->
<!DOCTYPE svg PUBLIC "-//W3C//DTD SVG 1.1//EN" "http://www.w3.org/Graphics/SVG/1.1/DTD/svg11.dtd">
<svg version="1.1" xmlns="http://www.w3.org/2000/svg" xmlns:xlink="http://www.w3.org/1999/xlink" x="0px" y="0px" width="612px"
	 height="288px" viewBox="0 0 612 288" enable-background="new 0 0 612 288" xml:space="preserve">
<g id="_x31_">
</g>
<g id="_x32_">
</g>
<g id="_x33_">
</g>
<g id="_x34_">
</g>
<g id="_x35_">
</g>
<g id="_x36_">
	<rect opacity="0.1" fill="#FF7070" width="612" height="288"/>
	<g>
		<g>
			<rect x="12.8" y="12.6" fill="#FFFFFF" width="336" height="189.4"/>
			<path d="M348.3,13.1v188.4h-335V13.1H348.3 M349.3,12.1h-1h-335h-1v1v188.4v1h1h335h1v-1V13.1V12.1L349.3,12.1z"/>
		</g>
		<g>
			<defs>
				<rect id="SVGID_7_" x="17.5" y="18.1" width="306.7" height="183.4"/>
			</defs>
			<clipPath id="SVGID_2_">
				<use xlink:href="#SVGID_7_"  overflow="visible"/>
			</clipPath>
			<g id="Dummy_artwork_6_" clip-path="url(#SVGID_2_)">
				<g>
					<rect x="186.8" y="48.9" fill="#CCCCCC" width="104.4" height="6.2"/>
					<rect x="186.8" y="59" fill="#CCCCCC" width="50.2" height="6.2"/>
				</g>
				<g>
					<rect x="186.8" y="79.2" fill="#CCCCCC" width="104.5" height="1.7"/>
					<rect x="186.8" y="84.2" fill="#CCCCCC" width="94.5" height="1.7"/>
					<rect x="186.8" y="89.2" fill="#CCCCCC" width="104.5" height="1.7"/>
					<rect x="186.8" y="94.2" fill="#CCCCCC" width="94.5" height="1.7"/>
					<rect x="186.8" y="99.1" fill="#CCCCCC" width="104.5" height="1.7"/>
					<rect x="186.8" y="104.1" fill="#CCCCCC" width="94.5" height="1.7"/>
					<rect x="186.8" y="109.1" fill="#CCCCCC" width="104.5" height="1.7"/>
					<rect x="186.8" y="114" fill="#CCCCCC" width="94.5" height="1.7"/>
					<rect x="186.8" y="119" fill="#CCCCCC" width="104.5" height="1.7"/>
					<rect x="186.8" y="124" fill="#CCCCCC" width="94.5" height="1.7"/>
				</g>
				<g>
					<rect x="24.1" y="133.4" fill="#CCCCCC" width="50.2" height="1.7"/>
					<rect x="24.1" y="138.4" fill="#CCCCCC" width="43.9" height="1.7"/>
					<rect x="24.1" y="143.4" fill="#CCCCCC" width="50.2" height="1.7"/>
					<rect x="24.1" y="148.3" fill="#CCCCCC" width="43.9" height="1.7"/>
					<rect x="24.1" y="153.3" fill="#CCCCCC" width="50.2" height="1.7"/>
					<rect x="24.1" y="158.3" fill="#CCCCCC" width="43.9" height="1.7"/>
				</g>
				<g>
					<rect x="78.3" y="133.4" fill="#CCCCCC" width="50.2" height="40.4"/>
					<g>
						<polygon fill="#E6E6E6" points="126.5,172.3 80.2,135.1 80.3,134.9 126.7,172.1 						"/>
						<polygon fill="#E6E6E6" points="80.3,172.3 80.2,172.1 126.5,134.9 126.7,135.1 						"/>
					</g>
				</g>
				<g>
					<rect x="132.6" y="133.4" fill="#CCCCCC" width="50.2" height="40.4"/>
					<g>
						<polygon fill="#E6E6E6" points="180.8,172.3 134.4,135.1 134.5,134.9 180.9,172.1 						"/>
						<polygon fill="#E6E6E6" points="134.5,172.3 134.4,172.1 180.8,134.9 180.9,135.1 						"/>
					</g>
				</g>
				<g>
					<rect x="24.1" y="187.6" fill="#CCCCCC" width="50.2" height="1.7"/>
					<rect x="24.1" y="192.6" fill="#CCCCCC" width="43.9" height="1.7"/>
					<rect x="24.1" y="197.6" fill="#CCCCCC" width="50.2" height="1.7"/>
					<rect x="24.1" y="202.5" fill="#CCCCCC" width="43.9" height="1.7"/>
					<rect x="24.1" y="207.5" fill="#CCCCCC" width="50.2" height="1.7"/>
					<rect x="24.1" y="212.5" fill="#CCCCCC" width="43.9" height="1.7"/>
				</g>
				<g>
					<rect x="78.3" y="187.6" fill="#CCCCCC" width="50.2" height="40.4"/>
					<g>
						<polygon fill="#E6E6E6" points="126.5,226.5 80.2,189.3 80.3,189.1 126.7,226.3 						"/>
						<polygon fill="#E6E6E6" points="80.3,226.5 80.2,226.3 126.5,189.1 126.7,189.3 						"/>
					</g>
				</g>
				<g>
					<rect x="132.6" y="187.6" fill="#CCCCCC" width="50.2" height="40.4"/>
					<g>
						<polygon fill="#E6E6E6" points="180.8,226.5 134.4,189.3 134.5,189.1 180.9,226.3 						"/>
						<polygon fill="#E6E6E6" points="134.5,226.5 134.4,226.3 180.8,189.1 180.9,189.3 						"/>
					</g>
				</g>
				<g>
					<rect x="186.8" y="133.4" fill="#CCCCCC" width="50.2" height="40.4"/>
					<g>
						<polygon fill="#E6E6E6" points="235,172.3 188.7,135.1 188.8,134.9 235.2,172.1 						"/>
						<polygon fill="#E6E6E6" points="188.8,172.3 188.7,172.1 235,134.9 235.2,135.1 						"/>
					</g>
				</g>
				<g>
					<rect x="241.1" y="133.4" fill="#CCCCCC" width="50.2" height="40.4"/>
					<g>
						<polygon fill="#E6E6E6" points="289.3,172.3 242.9,135.1 243,134.9 289.4,172.1 						"/>
						<polygon fill="#E6E6E6" points="243,172.3 242.9,172.1 289.3,134.9 289.4,135.1 						"/>
					</g>
				</g>
				<rect x="78.3" y="179.9" fill="#CCCCCC" width="43.9" height="1.7"/>
				<rect x="132.6" y="179.9" fill="#CCCCCC" width="43.9" height="1.7"/>
				<rect x="186.8" y="179.9" fill="#CCCCCC" width="43.9" height="1.7"/>
				<rect x="241.1" y="179.9" fill="#CCCCCC" width="43.9" height="1.7"/>
			</g>
			<g clip-path="url(#SVGID_2_)">
				<g>
					<g>
						<path fill="#FF7070" d="M74.1,187.8V238H24v-50.2H74.1 M74.6,187.3h-0.5H24h-0.5v0.5V238v0.5H24h50.2h0.5V238v-50.2V187.3
							L74.6,187.3z"/>
					</g>
					<g>
						<path fill="#FF7070" d="M74.1,133.5v50.2H24v-50.2H74.1 M74.6,133h-0.5H24h-0.5v0.5v50.2v0.5H24h50.2h0.5v-0.5v-50.2V133
							L74.6,133z"/>
					</g>
					<g>
						<path fill="#FF7070" d="M74.1,79.3v50.2H24V79.3H74.1 M74.6,78.8h-0.5H24h-0.5v0.5v50.2v0.5H24h50.2h0.5v-0.5V79.3V78.8
							L74.6,78.8z"/>
					</g>
					<g>
						<path fill="#FF7070" d="M74.1,25v50.2H24V25H74.1 M74.6,24.5h-0.5H24h-0.5V25v50.2v0.5H24h50.2h0.5v-0.5V25V24.5L74.6,24.5z"
							/>
					</g>
				</g>
				<g>
					<g>
						<path fill="#FF7070" d="M128.4,187.8V238H78.2v-50.2H128.4 M128.9,187.3h-0.5H78.2h-0.5v0.5V238v0.5h0.5h50.2h0.5V238v-50.2
							V187.3L128.9,187.3z"/>
					</g>
					<g>
						<path fill="#FF7070" d="M128.4,133.5v50.2H78.2v-50.2H128.4 M128.9,133h-0.5H78.2h-0.5v0.5v50.2v0.5h0.5h50.2h0.5v-0.5v-50.2
							V133L128.9,133z"/>
					</g>
					<g>
						<path fill="#FF7070" d="M128.4,79.3v50.2H78.2V79.3H128.4 M128.9,78.8h-0.5H78.2h-0.5v0.5v50.2v0.5h0.5h50.2h0.5v-0.5V79.3
							V78.8L128.9,78.8z"/>
					</g>
					<g>
						<path fill="#FF7070" d="M128.4,25v50.2H78.2V25H128.4 M128.9,24.5h-0.5H78.2h-0.5V25v50.2v0.5h0.5h50.2h0.5v-0.5V25V24.5
							L128.9,24.5z"/>
					</g>
				</g>
				<g>
					<g>
						<path fill="#FF7070" d="M182.7,187.8V238h-50.2v-50.2H182.7 M183.2,187.3h-0.5h-50.2H132v0.5V238v0.5h0.5h50.2h0.5V238v-50.2
							V187.3L183.2,187.3z"/>
					</g>
					<g>
						<path fill="#FF7070" d="M182.7,133.5v50.2h-50.2v-50.2H182.7 M183.2,133h-0.5h-50.2H132v0.5v50.2v0.5h0.5h50.2h0.5v-0.5v-50.2
							V133L183.2,133z"/>
					</g>
					<g>
						<path fill="#FF7070" d="M182.7,79.3v50.2h-50.2V79.3H182.7 M183.2,78.8h-0.5h-50.2H132v0.5v50.2v0.5h0.5h50.2h0.5v-0.5V79.3
							V78.8L183.2,78.8z"/>
					</g>
					<g>
						<path fill="#FF7070" d="M182.7,25v50.2h-50.2V25H182.7 M183.2,24.5h-0.5h-50.2H132V25v50.2v0.5h0.5h50.2h0.5v-0.5V25V24.5
							L183.2,24.5z"/>
					</g>
				</g>
				<g>
					<g>
						<path fill="#FF7070" d="M236.9,187.8V238h-50.2v-50.2H236.9 M237.4,187.3h-0.5h-50.2h-0.5v0.5V238v0.5h0.5h50.2h0.5V238v-50.2
							V187.3L237.4,187.3z"/>
					</g>
					<g>
						<path fill="#FF7070" d="M236.9,133.5v50.2h-50.2v-50.2H236.9 M237.4,133h-0.5h-50.2h-0.5v0.5v50.2v0.5h0.5h50.2h0.5v-0.5
							v-50.2V133L237.4,133z"/>
					</g>
					<g>
						<path fill="#FF7070" d="M236.9,79.3v50.2h-50.2V79.3H236.9 M237.4,78.8h-0.5h-50.2h-0.5v0.5v50.2v0.5h0.5h50.2h0.5v-0.5V79.3
							V78.8L237.4,78.8z"/>
					</g>
					<g>
						<path fill="#FF7070" d="M236.9,25v50.2h-50.2V25H236.9 M237.4,24.5h-0.5h-50.2h-0.5V25v50.2v0.5h0.5h50.2h0.5v-0.5V25V24.5
							L237.4,24.5z"/>
					</g>
				</g>
				<g>
					<g>
						<path fill="#FF7070" d="M291.2,187.8V238H241v-50.2H291.2 M291.7,187.3h-0.5H241h-0.5v0.5V238v0.5h0.5h50.2h0.5V238v-50.2
							V187.3L291.7,187.3z"/>
					</g>
					<g>
						<path fill="#FF7070" d="M291.2,133.5v50.2H241v-50.2H291.2 M291.7,133h-0.5H241h-0.5v0.5v50.2v0.5h0.5h50.2h0.5v-0.5v-50.2
							V133L291.7,133z"/>
					</g>
					<g>
						<path fill="#FF7070" d="M291.2,79.3v50.2H241V79.3H291.2 M291.7,78.8h-0.5H241h-0.5v0.5v50.2v0.5h0.5h50.2h0.5v-0.5V79.3V78.8
							L291.7,78.8z"/>
					</g>
					<g>
						<path fill="#FF7070" d="M291.2,25v50.2H241V25H291.2 M291.7,24.5h-0.5H241h-0.5V25v50.2v0.5h0.5h50.2h0.5v-0.5V25V24.5
							L291.7,24.5z"/>
					</g>
				</g>
			</g>
		</g>
	</g>
	<g>
		<g>
			<rect x="368.1" y="12.7" fill="#FFFFFF" width="232.6" height="131.2"/>
			<path d="M600.2,13.2v130.2H368.6V13.2H600.2 M601.2,12.2h-1H368.6h-1v1v130.2v1h1h231.6h1v-1V13.2V12.2L601.2,12.2z"/>
		</g>
		<g>
			<defs>
				<rect id="SVGID_9_" x="368.6" y="13.2" width="231.6" height="130.2"/>
			</defs>
			<clipPath id="SVGID_4_">
				<use xlink:href="#SVGID_9_"  overflow="visible"/>
			</clipPath>
			<g id="Dummy_artwork_7_" clip-path="url(#SVGID_4_)">
				<g>
					<rect x="486.4" y="50.7" fill="#CCCCCC" width="104.4" height="6.2"/>
					<rect x="486.4" y="60.8" fill="#CCCCCC" width="50.2" height="6.2"/>
				</g>
				<g>
					<rect x="486.4" y="81.1" fill="#CCCCCC" width="104.5" height="1.7"/>
					<rect x="486.4" y="86.1" fill="#CCCCCC" width="94.5" height="1.7"/>
					<rect x="486.4" y="91" fill="#CCCCCC" width="104.5" height="1.7"/>
					<rect x="486.4" y="96" fill="#CCCCCC" width="94.5" height="1.7"/>
					<rect x="486.4" y="101" fill="#CCCCCC" width="104.5" height="1.7"/>
					<rect x="486.4" y="105.9" fill="#CCCCCC" width="94.5" height="1.7"/>
					<rect x="486.4" y="110.9" fill="#CCCCCC" width="104.5" height="1.7"/>
					<rect x="486.4" y="115.9" fill="#CCCCCC" width="94.5" height="1.7"/>
					<rect x="486.4" y="120.8" fill="#CCCCCC" width="104.5" height="1.7"/>
					<rect x="486.4" y="125.8" fill="#CCCCCC" width="94.5" height="1.7"/>
				</g>
				<g>
					<rect x="377.9" y="135.3" fill="#CCCCCC" width="50.2" height="1.7"/>
					<rect x="377.9" y="140.2" fill="#CCCCCC" width="43.9" height="1.7"/>
					<rect x="377.9" y="145.2" fill="#CCCCCC" width="50.2" height="1.7"/>
					<rect x="377.9" y="150.2" fill="#CCCCCC" width="43.9" height="1.7"/>
					<rect x="377.9" y="155.1" fill="#CCCCCC" width="50.2" height="1.7"/>
					<rect x="377.9" y="160.1" fill="#CCCCCC" width="43.9" height="1.7"/>
				</g>
				<g>
					<rect x="432.2" y="135.3" fill="#CCCCCC" width="50.2" height="40.4"/>
					<g>
						<polygon fill="#E6E6E6" points="480.4,174.2 434,137 434.1,136.7 480.5,174 						"/>
						<polygon fill="#E6E6E6" points="434.1,174.2 434,174 480.4,136.7 480.5,137 						"/>
					</g>
				</g>
				<g>
					<rect x="486.4" y="135.3" fill="#CCCCCC" width="50.2" height="40.4"/>
					<g>
						<polygon fill="#E6E6E6" points="534.7,174.2 488.3,137 488.4,136.7 534.8,174 						"/>
						<polygon fill="#E6E6E6" points="488.4,174.2 488.3,174 534.7,136.7 534.8,137 						"/>
					</g>
				</g>
				<g>
					<rect x="377.9" y="189.5" fill="#CCCCCC" width="50.2" height="1.7"/>
					<rect x="377.9" y="194.4" fill="#CCCCCC" width="43.9" height="1.7"/>
					<rect x="377.9" y="199.4" fill="#CCCCCC" width="50.2" height="1.7"/>
					<rect x="377.9" y="204.4" fill="#CCCCCC" width="43.9" height="1.7"/>
					<rect x="377.9" y="209.3" fill="#CCCCCC" width="50.2" height="1.7"/>
					<rect x="377.9" y="214.3" fill="#CCCCCC" width="43.9" height="1.7"/>
				</g>
				<g>
					<rect x="432.2" y="189.5" fill="#CCCCCC" width="50.2" height="40.4"/>
					<g>
						<polygon fill="#E6E6E6" points="480.4,228.4 434,191.2 434.1,190.9 480.5,228.2 						"/>
						<polygon fill="#E6E6E6" points="434.1,228.4 434,228.2 480.4,190.9 480.5,191.2 						"/>
					</g>
				</g>
				<g>
					<rect x="486.4" y="189.5" fill="#CCCCCC" width="50.2" height="40.4"/>
					<g>
						<polygon fill="#E6E6E6" points="534.7,228.4 488.3,191.2 488.4,190.9 534.8,228.2 						"/>
						<polygon fill="#E6E6E6" points="488.4,228.4 488.3,228.2 534.7,190.9 534.8,191.2 						"/>
					</g>
				</g>
				<g>
					<rect x="540.7" y="135.3" fill="#CCCCCC" width="50.2" height="40.4"/>
					<g>
						<polygon fill="#E6E6E6" points="588.9,174.2 542.5,137 542.6,136.7 589,174 						"/>
						<polygon fill="#E6E6E6" points="542.6,174.2 542.5,174 588.9,136.7 589,137 						"/>
					</g>
				</g>
				<rect x="432.3" y="181.7" fill="#CCCCCC" width="43.9" height="1.7"/>
				<rect x="486.4" y="181.7" fill="#CCCCCC" width="43.9" height="1.7"/>
				<rect x="540.6" y="181.7" fill="#CCCCCC" width="43.9" height="1.7"/>
			</g>
			<g clip-path="url(#SVGID_4_)">
				<g>
					<g>
						<path fill="#FF7070" d="M428.1,26.9v50.2h-50.2V26.9H428.1 M428.6,26.4h-0.5h-50.2h-0.5v0.5v50.2v0.5h0.5h50.2h0.5v-0.5V26.9
							V26.4L428.6,26.4z"/>
					</g>
					<g>
						<path fill="#FF7070" d="M482.4,26.9v50.2h-50.2V26.9H482.4 M482.9,26.4h-0.5h-50.2h-0.5v0.5v50.2v0.5h0.5h50.2h0.5v-0.5V26.9
							V26.4L482.9,26.4z"/>
					</g>
					<g>
						<path fill="#FF7070" d="M536.6,26.9v50.2h-50.2V26.9H536.6 M537.1,26.4h-0.5h-50.2h-0.5v0.5v50.2v0.5h0.5h50.2h0.5v-0.5V26.9
							V26.4L537.1,26.4z"/>
					</g>
					<g>
						<path fill="#FF7070" d="M590.9,26.9v50.2h-50.2V26.9H590.9 M591.4,26.4h-0.5h-50.2h-0.5v0.5v50.2v0.5h0.5h50.2h0.5v-0.5V26.9
							V26.4L591.4,26.4z"/>
					</g>
				</g>
				<g>
					<g>
						<path fill="#FF7070" d="M428.1,81.2v50.2h-50.2V81.2H428.1 M428.6,80.7h-0.5h-50.2h-0.5v0.5v50.2v0.5h0.5h50.2h0.5v-0.5V81.2
							V80.7L428.6,80.7z"/>
					</g>
					<g>
						<path fill="#FF7070" d="M482.4,81.2v50.2h-50.2V81.2H482.4 M482.9,80.7h-0.5h-50.2h-0.5v0.5v50.2v0.5h0.5h50.2h0.5v-0.5V81.2
							V80.7L482.9,80.7z"/>
					</g>
					<g>
						<path fill="#FF7070" d="M536.6,81.2v50.2h-50.2V81.2H536.6 M537.1,80.7h-0.5h-50.2h-0.5v0.5v50.2v0.5h0.5h50.2h0.5v-0.5V81.2
							V80.7L537.1,80.7z"/>
					</g>
					<g>
						<path fill="#FF7070" d="M590.9,81.2v50.2h-50.2V81.2H590.9 M591.4,80.7h-0.5h-50.2h-0.5v0.5v50.2v0.5h0.5h50.2h0.5v-0.5V81.2
							V80.7L591.4,80.7z"/>
					</g>
				</g>
				<g>
					<g>
						<path fill="#FF7070" d="M428.1,135.5v50.2h-50.2v-50.2H428.1 M428.6,135h-0.5h-50.2h-0.5v0.5v50.2v0.5h0.5h50.2h0.5v-0.5
							v-50.2V135L428.6,135z"/>
					</g>
					<g>
						<path fill="#FF7070" d="M482.4,135.5v50.2h-50.2v-50.2H482.4 M482.9,135h-0.5h-50.2h-0.5v0.5v50.2v0.5h0.5h50.2h0.5v-0.5
							v-50.2V135L482.9,135z"/>
					</g>
					<g>
						<path fill="#FF7070" d="M536.6,135.5v50.2h-50.2v-50.2H536.6 M537.1,135h-0.5h-50.2h-0.5v0.5v50.2v0.5h0.5h50.2h0.5v-0.5
							v-50.2V135L537.1,135z"/>
					</g>
					<g>
						<path fill="#FF7070" d="M590.9,135.5v50.2h-50.2v-50.2H590.9 M591.4,135h-0.5h-50.2h-0.5v0.5v50.2v0.5h0.5h50.2h0.5v-0.5
							v-50.2V135L591.4,135z"/>
					</g>
				</g>
				<g>
					<g>
						<path fill="#FF7070" d="M428.1,189.7v50.2h-50.2v-50.2H428.1 M428.6,189.2h-0.5h-50.2h-0.5v0.5v50.2v0.5h0.5h50.2h0.5v-0.5
							v-50.2V189.2L428.6,189.2z"/>
					</g>
					<g>
						<path fill="#FF7070" d="M482.4,189.7v50.2h-50.2v-50.2H482.4 M482.9,189.2h-0.5h-50.2h-0.5v0.5v50.2v0.5h0.5h50.2h0.5v-0.5
							v-50.2V189.2L482.9,189.2z"/>
					</g>
					<g>
						<path fill="#FF7070" d="M536.6,189.7v50.2h-50.2v-50.2H536.6 M537.1,189.2h-0.5h-50.2h-0.5v0.5v50.2v0.5h0.5h50.2h0.5v-0.5
							v-50.2V189.2L537.1,189.2z"/>
					</g>
					<g>
						<path fill="#FF7070" d="M590.9,189.7v50.2h-50.2v-50.2H590.9 M591.4,189.2h-0.5h-50.2h-0.5v0.5v50.2v0.5h0.5h50.2h0.5v-0.5
							v-50.2V189.2L591.4,189.2z"/>
					</g>
				</g>
				<g>
					<g>
						<path fill="#FF7070" d="M428.1,244v50.2h-50.2V244H428.1 M428.6,243.5h-0.5h-50.2h-0.5v0.5v50.2v0.5h0.5h50.2h0.5v-0.5V244
							V243.5L428.6,243.5z"/>
					</g>
					<g>
						<path fill="#FF7070" d="M482.4,244v50.2h-50.2V244H482.4 M482.9,243.5h-0.5h-50.2h-0.5v0.5v50.2v0.5h0.5h50.2h0.5v-0.5V244
							V243.5L482.9,243.5z"/>
					</g>
					<g>
						<path fill="#FF7070" d="M536.6,244v50.2h-50.2V244H536.6 M537.1,243.5h-0.5h-50.2h-0.5v0.5v50.2v0.5h0.5h50.2h0.5v-0.5V244
							V243.5L537.1,243.5z"/>
					</g>
					<g>
						<path fill="#FF7070" d="M590.9,244v50.2h-50.2V244H590.9 M591.4,243.5h-0.5h-50.2h-0.5v0.5v50.2v0.5h0.5h50.2h0.5v-0.5V244
							V243.5L591.4,243.5z"/>
					</g>
				</g>
			</g>
		</g>
	</g>
	<g>
		<g>
			<rect x="368.1" y="157.4" fill="#FFFFFF" width="131.2" height="174.6"/>
			<path d="M498.8,157.9v173.6H368.6V157.9H498.8 M499.8,156.9h-1H368.6h-1v1v173.6v1h1h130.2h1v-1V157.9V156.9L499.8,156.9z"/>
		</g>
		<g>
			<defs>
				<rect id="SVGID_11_" x="368.6" y="157.9" width="130.2" height="173.6"/>
			</defs>
			<clipPath id="SVGID_6_">
				<use xlink:href="#SVGID_11_"  overflow="visible"/>
			</clipPath>
			<g id="Dummy_artwork_8_" clip-path="url(#SVGID_6_)">
				<g>
					<rect x="375.6" y="169.7" fill="#CCCCCC" width="104.4" height="6.2"/>
					<rect x="375.6" y="179.8" fill="#CCCCCC" width="50.2" height="6.2"/>
				</g>
				<g>
					<rect x="375.6" y="198.3" fill="#CCCCCC" width="104.5" height="1.7"/>
					<rect x="375.6" y="203.3" fill="#CCCCCC" width="94.5" height="1.7"/>
					<rect x="375.6" y="208.2" fill="#CCCCCC" width="104.5" height="1.7"/>
					<rect x="375.6" y="213.2" fill="#CCCCCC" width="94.5" height="1.7"/>
					<rect x="375.6" y="218.2" fill="#CCCCCC" width="104.5" height="1.7"/>
				</g>
				<g>
					<rect x="375.6" y="257.5" fill="#CCCCCC" width="50.2" height="1.7"/>
					<rect x="375.6" y="262.5" fill="#CCCCCC" width="43.9" height="1.7"/>
					<rect x="375.6" y="267.4" fill="#CCCCCC" width="50.2" height="1.7"/>
					<rect x="375.6" y="272.4" fill="#CCCCCC" width="43.9" height="1.7"/>
				</g>
				<g>
					<rect x="375.6" y="278.2" fill="#CCCCCC" width="50.2" height="40.4"/>
					<g>
						<polygon fill="#E6E6E6" points="423.8,317.2 377.4,279.9 377.5,279.7 423.9,316.9 						"/>
						<polygon fill="#E6E6E6" points="377.5,317.2 377.4,316.9 423.8,279.7 423.9,279.9 						"/>
					</g>
				</g>
				<g>
					<rect x="429.8" y="278.2" fill="#CCCCCC" width="50.2" height="40.4"/>
					<g>
						<polygon fill="#E6E6E6" points="478,317.2 431.7,279.9 431.8,279.7 478.2,316.9 						"/>
						<polygon fill="#E6E6E6" points="431.8,317.2 431.7,316.9 478,279.7 478.2,279.9 						"/>
					</g>
				</g>
			</g>
			<g clip-path="url(#SVGID_6_)">
				<g>
					<g>
						<path fill="#FF7070" d="M425.8,169.7v50.2h-50.2v-50.2H425.8 M426.3,169.2h-0.5h-50.2h-0.5v0.5v50.2v0.5h0.5h50.2h0.5v-0.5
							v-50.2V169.2L426.3,169.2z"/>
					</g>
					<g>
						<path fill="#FF7070" d="M480,169.7v50.2h-50.2v-50.2H480 M480.5,169.2H480h-50.2h-0.5v0.5v50.2v0.5h0.5H480h0.5v-0.5v-50.2
							V169.2L480.5,169.2z"/>
					</g>
				</g>
				<g>
					<g>
						<path fill="#FF7070" d="M425.8,224v50.2h-50.2V224H425.8 M426.3,223.5h-0.5h-50.2h-0.5v0.5v50.2v0.5h0.5h50.2h0.5v-0.5V224
							V223.5L426.3,223.5z"/>
					</g>
					<g>
						<path fill="#FF7070" d="M480,224v50.2h-50.2V224H480 M480.5,223.5H480h-50.2h-0.5v0.5v50.2v0.5h0.5H480h0.5v-0.5V224V223.5
							L480.5,223.5z"/>
					</g>
				</g>
				<g>
					<g>
						<path fill="#FF7070" d="M425.8,278.2v50.2h-50.2v-50.2H425.8 M426.3,277.7h-0.5h-50.2h-0.5v0.5v50.2v0.5h0.5h50.2h0.5v-0.5
							v-50.2V277.7L426.3,277.7z"/>
					</g>
					<g>
						<path fill="#FF7070" d="M480,278.2v50.2h-50.2v-50.2H480 M480.5,277.7H480h-50.2h-0.5v0.5v50.2v0.5h0.5H480h0.5v-0.5v-50.2
							V277.7L480.5,277.7z"/>
					</g>
				</g>
			</g>
		</g>
	</g>
</g>
</svg>
