<?xml version="1.0" encoding="utf-8"?>
<!-- Generator: Adobe Illustrator 16.0.4, SVG Export Plug-In . SVG Version: 6.00 Build 0)  -->
<!DOCTYPE svg PUBLIC "-//W3C//DTD SVG 1.1//EN" "http://www.w3.org/Graphics/SVG/1.1/DTD/svg11.dtd">
<svg version="1.1" xmlns="http://www.w3.org/2000/svg" xmlns:xlink="http://www.w3.org/1999/xlink" x="0px" y="0px" width="612px"
	 height="288px" viewBox="0 0 612 288" enable-background="new 0 0 612 288" xml:space="preserve">
<g id="_x31_">
</g>
<g id="_x32_">
</g>
<g id="_x33_">
</g>
<g id="_x34_">
</g>
<g id="_x35_">
	<g>
		<line fill="none" stroke="#FF7070" stroke-miterlimit="10" x1="0" y1="267.2" x2="612" y2="267.2"/>
		<line fill="none" stroke="#FF7070" stroke-miterlimit="10" x1="0" y1="221.2" x2="612" y2="221.2"/>
		<line fill="none" stroke="#FF7070" stroke-miterlimit="10" x1="0" y1="179.2" x2="612" y2="179.2"/>
		<line fill="none" stroke="#FF7070" stroke-miterlimit="10" x1="0" y1="149.2" x2="612" y2="149.2"/>
		<line fill="none" stroke="#FF7070" stroke-miterlimit="10" x1="0" y1="125.2" x2="612" y2="125.2"/>
		<line fill="none" stroke="#FF7070" stroke-miterlimit="10" x1="0" y1="105.2" x2="612" y2="105.2"/>
		<line fill="none" stroke="#FF7070" stroke-miterlimit="10" x1="0" y1="87.2" x2="612" y2="87.2"/>
		<line fill="none" stroke="#FF7070" stroke-miterlimit="10" x1="0" y1="71.2" x2="612" y2="71.2"/>
		<line fill="none" stroke="#FF7070" stroke-miterlimit="10" x1="0" y1="57.2" x2="612" y2="57.2"/>
		<line fill="none" stroke="#FF7070" stroke-miterlimit="10" x1="0" y1="45.1" x2="612" y2="45.1"/>
		<g>
			<text transform="matrix(1 0 0 1 343.543 55.4399)" font-family='"Helvetica Neue", Helvetica, Arial, sans-serif' font-size="12">1</text>
		</g>
		<g>
			<text transform="matrix(1 0 0 1 343.6055 69.1646)" font-family='"Helvetica Neue", Helvetica, Arial, sans-serif' font-size="14">1.167</text>
		</g>
		<g>
			<text transform="matrix(1 0 0 1 343.543 84.8755)" font-family='"Helvetica Neue", Helvetica, Arial, sans-serif' font-size="16">1.333</text>
		</g>
		<g>
			<text transform="matrix(1 0 0 1 343.5195 102.5864)" font-family='"Helvetica Neue", Helvetica, Arial, sans-serif' font-size="18">1.5</text>
		</g>
		<g>
			<text transform="matrix(1 0 0 1 343.543 122.2935)" font-family='"Helvetica Neue", Helvetica, Arial, sans-serif' font-size="20">1.667</text>
		</g>
		<g>
			<text transform="matrix(1 0 0 1 343.543 145.7134)" font-family='"Helvetica Neue", Helvetica, Arial, sans-serif' font-size="24">2</text>
		</g>
		<g>
			<text transform="matrix(1 0 0 1 343.5215 174.8188)" font-family='"Helvetica Neue", Helvetica, Arial, sans-serif' font-size="30">2.5</text>
		</g>
		<g>
			<text transform="matrix(1 0 0 1 343.543 215.1665)" font-family='"Helvetica Neue", Helvetica, Arial, sans-serif' font-size="42">3.5</text>
		</g>
		<g>
			<text transform="matrix(1 0 0 1 343.543 260.5688)" font-family='"Helvetica Neue", Helvetica, Arial, sans-serif' font-size="46">3.833</text>
		</g>
		<text transform="matrix(1 0 0 1 343.543 26.6362)" font-family='"Helvetica Neue", Helvetica, Arial, sans-serif' font-weight="bold" font-size="16">rem</text>
		<text transform="matrix(1 0 0 1 23.8779 55.4399)" font-family='"Helvetica Neue", Helvetica, Arial, sans-serif' font-size="12">12</text>
		<text transform="matrix(1 0 0 1 23.9404 69.1646)" font-family='"Helvetica Neue", Helvetica, Arial, sans-serif' font-size="14">14</text>
		<text transform="matrix(1 0 0 1 23.8779 84.8755)" font-family='"Helvetica Neue", Helvetica, Arial, sans-serif' font-size="16">16</text>
		<text transform="matrix(1 0 0 1 23.8779 102.5864)" font-family='"Helvetica Neue", Helvetica, Arial, sans-serif' font-size="18">18</text>
		<text transform="matrix(1 0 0 1 23.8779 122.2935)" font-family='"Helvetica Neue", Helvetica, Arial, sans-serif' font-size="20">20</text>
		<text transform="matrix(1 0 0 1 23.8779 145.7134)" font-family='"Helvetica Neue", Helvetica, Arial, sans-serif' font-size="24">24</text>
		<text transform="matrix(1 0 0 1 23.9609 174.8188)" font-family='"Helvetica Neue", Helvetica, Arial, sans-serif' font-size="30">30</text>
		<text transform="matrix(1 0 0 1 23.8779 215.1665)" font-family='"Helvetica Neue", Helvetica, Arial, sans-serif' font-size="42">42</text>
		<text transform="matrix(1 0 0 1 23.8779 260.6313)" font-family='"Helvetica Neue", Helvetica, Arial, sans-serif' font-size="46">46</text>
		<text transform="matrix(1 0 0 1 23.8779 26.6362)" font-family='"Helvetica Neue", Helvetica, Arial, sans-serif' font-weight="bold" font-size="16">px</text>
	</g>
</g>
<g id="_x36_">
</g>
</svg>
