<?xml version="1.0" encoding="utf-8"?>
<!-- Generator: Adobe Illustrator 16.0.4, SVG Export Plug-In . SVG Version: 6.00 Build 0)  -->
<!DOCTYPE svg PUBLIC "-//W3C//DTD SVG 1.1//EN" "http://www.w3.org/Graphics/SVG/1.1/DTD/svg11.dtd">
<svg version="1.1" id="Layer_1" xmlns="http://www.w3.org/2000/svg" xmlns:xlink="http://www.w3.org/1999/xlink" x="0px" y="0px"
	 width="612px" height="600px" viewBox="0 0 612 600" enable-background="new 0 0 612 600" xml:space="preserve">
<g>
	<rect fill="#F2F2F2" width="612" height="598"/>
	<g>
		<rect x="195.7" y="30.5" fill="#CCCCCC" width="309.5" height="202.8"/>
		<rect x="88.9" y="137.3" fill="#E6E6E6" width="96" height="96"/>
		<rect x="302.5" y="244" fill="#B3B3B3" width="96" height="96"/>
		<rect x="409.2" y="244" fill="#E6E6E6" width="96" height="96"/>
		<rect x="516" y="137.3" fill="#B3B3B3" width="96" height="96"/>
		<rect x="302.5" y="350.8" fill="#E6E6E6" width="96" height="96"/>
		<rect x="409.2" y="350.8" fill="#B3B3B3" width="96" height="96"/>
		<g>
			<rect x="195.7" y="244" fill="#CCCCCC" width="96" height="3.5"/>
			<rect x="195.7" y="254.3" fill="#CCCCCC" width="77.2" height="3.5"/>
			<rect x="195.7" y="264.6" fill="#CCCCCC" width="96" height="3.5"/>
			<rect x="195.7" y="274.9" fill="#CCCCCC" width="77.2" height="3.5"/>
			<rect x="195.7" y="285.1" fill="#CCCCCC" width="96" height="3.5"/>
			<rect x="195.7" y="295.4" fill="#CCCCCC" width="77.2" height="3.5"/>
			<rect x="195.7" y="305.7" fill="#CCCCCC" width="96" height="3.5"/>
			<rect x="195.7" y="316" fill="#CCCCCC" width="77.2" height="3.5"/>
			<rect x="195.7" y="326.2" fill="#CCCCCC" width="96" height="3.5"/>
			<rect x="195.7" y="336.5" fill="#CCCCCC" width="77.2" height="3.5"/>
		</g>
		<g>
			<rect x="88.9" y="244" fill="#CCCCCC" width="96" height="3.5"/>
			<rect x="88.9" y="254.3" fill="#CCCCCC" width="77.2" height="3.5"/>
			<rect x="88.9" y="264.6" fill="#CCCCCC" width="96" height="3.5"/>
			<rect x="88.9" y="274.9" fill="#CCCCCC" width="77.2" height="3.5"/>
			<rect x="88.9" y="285.1" fill="#CCCCCC" width="96" height="3.5"/>
			<rect x="88.9" y="295.4" fill="#CCCCCC" width="77.2" height="3.5"/>
			<rect x="88.9" y="305.7" fill="#CCCCCC" width="96" height="3.5"/>
			<rect x="88.9" y="316" fill="#CCCCCC" width="77.2" height="3.5"/>
			<rect x="88.9" y="326.2" fill="#CCCCCC" width="96" height="3.5"/>
			<rect x="88.9" y="336.5" fill="#CCCCCC" width="77.2" height="3.5"/>
		</g>
		<g>
			<rect x="88.9" y="350.8" fill="#CCCCCC" width="96" height="3.5"/>
			<rect x="88.9" y="361.1" fill="#CCCCCC" width="77.2" height="3.5"/>
			<rect x="88.9" y="371.4" fill="#CCCCCC" width="96" height="3.5"/>
			<rect x="88.9" y="381.6" fill="#CCCCCC" width="77.2" height="3.5"/>
			<rect x="88.9" y="391.9" fill="#CCCCCC" width="96" height="3.5"/>
			<rect x="88.9" y="402.2" fill="#CCCCCC" width="77.2" height="3.5"/>
			<rect x="88.9" y="412.5" fill="#CCCCCC" width="96" height="3.5"/>
			<rect x="88.9" y="422.7" fill="#CCCCCC" width="77.2" height="3.5"/>
			<rect x="88.9" y="433" fill="#CCCCCC" width="96" height="3.5"/>
			<rect x="88.9" y="443.3" fill="#CCCCCC" width="77.2" height="3.5"/>
		</g>
		<rect x="88.9" y="30.5" fill="#CCCCCC" width="96" height="12.7"/>
		<rect x="88.9" y="51.3" fill="#CCCCCC" width="96" height="12.7"/>
		<rect x="88.9" y="72.1" fill="#CCCCCC" width="48" height="12.7"/>
		
			<rect x="179.9" y="131.2" transform="matrix(0.8365 0.548 -0.548 0.8365 129.5674 -170.4735)" fill="#E6E6E6" width="341.1" height="1.3"/>
		
			<rect x="349.8" y="-38.7" transform="matrix(0.5475 0.8368 -0.8368 0.5475 268.9484 -233.5847)" fill="#E6E6E6" width="1.3" height="341.1"/>
	</g>
</g>
</svg>
