<?xml version="1.0" encoding="utf-8"?>
<!-- Generator: Adobe Illustrator 16.0.4, SVG Export Plug-In . SVG Version: 6.00 Build 0)  -->
<!DOCTYPE svg PUBLIC "-//W3C//DTD SVG 1.1//EN" "http://www.w3.org/Graphics/SVG/1.1/DTD/svg11.dtd">
<svg version="1.1" id="Layer_1" xmlns="http://www.w3.org/2000/svg" xmlns:xlink="http://www.w3.org/1999/xlink" x="0px" y="0px"
	 width="612px" height="438px" viewBox="0 0 612 438" enable-background="new 0 0 612 438" xml:space="preserve">
<g>
	<rect fill="#F2F2F2" width="612" height="438"/>
	<g>
		<rect x="183.6" y="27.6" fill="#CCCCCC" width="280.2" height="183.6"/>
		<rect x="86.9" y="124.3" fill="#E6E6E6" width="86.9" height="86.9"/>
		<rect x="280.2" y="220.9" fill="#B3B3B3" width="86.9" height="86.9"/>
		<rect x="376.9" y="220.9" fill="#E6E6E6" width="86.9" height="86.9"/>
		<rect x="473.6" y="124.3" fill="#B3B3B3" width="86.9" height="86.9"/>
		<rect x="280.2" y="317.6" fill="#E6E6E6" width="86.9" height="86.9"/>
		<rect x="376.9" y="317.6" fill="#B3B3B3" width="86.9" height="86.9"/>
		<g>
			<rect x="183.6" y="220.9" fill="#CCCCCC" width="86.9" height="3.2"/>
			<rect x="183.6" y="230.2" fill="#CCCCCC" width="69.9" height="3.2"/>
			<rect x="183.6" y="239.5" fill="#CCCCCC" width="86.9" height="3.2"/>
			<rect x="183.6" y="248.8" fill="#CCCCCC" width="69.9" height="3.2"/>
			<rect x="183.6" y="258.1" fill="#CCCCCC" width="86.9" height="3.2"/>
			<rect x="183.6" y="267.4" fill="#CCCCCC" width="69.9" height="3.2"/>
			<rect x="183.6" y="276.7" fill="#CCCCCC" width="86.9" height="3.2"/>
			<rect x="183.6" y="286" fill="#CCCCCC" width="69.9" height="3.2"/>
			<rect x="183.6" y="295.3" fill="#CCCCCC" width="86.9" height="3.2"/>
			<rect x="183.6" y="304.6" fill="#CCCCCC" width="69.9" height="3.2"/>
		</g>
		<g>
			<rect x="86.9" y="220.9" fill="#CCCCCC" width="86.9" height="3.2"/>
			<rect x="86.9" y="230.2" fill="#CCCCCC" width="69.9" height="3.2"/>
			<rect x="86.9" y="239.5" fill="#CCCCCC" width="86.9" height="3.2"/>
			<rect x="86.9" y="248.8" fill="#CCCCCC" width="69.9" height="3.2"/>
			<rect x="86.9" y="258.1" fill="#CCCCCC" width="86.9" height="3.2"/>
			<rect x="86.9" y="267.4" fill="#CCCCCC" width="69.9" height="3.2"/>
			<rect x="86.9" y="276.7" fill="#CCCCCC" width="86.9" height="3.2"/>
			<rect x="86.9" y="286" fill="#CCCCCC" width="69.9" height="3.2"/>
			<rect x="86.9" y="295.3" fill="#CCCCCC" width="86.9" height="3.2"/>
			<rect x="86.9" y="304.6" fill="#CCCCCC" width="69.9" height="3.2"/>
		</g>
		<g>
			<rect x="86.9" y="317.6" fill="#CCCCCC" width="86.9" height="3.2"/>
			<rect x="86.9" y="326.9" fill="#CCCCCC" width="69.9" height="3.2"/>
			<rect x="86.9" y="336.2" fill="#CCCCCC" width="86.9" height="3.2"/>
			<rect x="86.9" y="345.5" fill="#CCCCCC" width="69.9" height="3.2"/>
			<rect x="86.9" y="354.8" fill="#CCCCCC" width="86.9" height="3.2"/>
			<rect x="86.9" y="364.1" fill="#CCCCCC" width="69.9" height="3.2"/>
			<rect x="86.9" y="373.4" fill="#CCCCCC" width="86.9" height="3.2"/>
			<rect x="86.9" y="382.7" fill="#CCCCCC" width="69.9" height="3.2"/>
			<rect x="86.9" y="392" fill="#CCCCCC" width="86.9" height="3.2"/>
			<rect x="86.9" y="401.3" fill="#CCCCCC" width="69.9" height="3.2"/>
		</g>
		<rect x="86.9" y="27.6" fill="#CCCCCC" width="86.9" height="11.5"/>
		<rect x="86.9" y="46.5" fill="#CCCCCC" width="86.9" height="11.5"/>
		<rect x="86.9" y="65.3" fill="#CCCCCC" width="43.5" height="11.5"/>
		
			<rect x="169.3" y="118.8" transform="matrix(0.8365 0.548 -0.548 0.8365 118.3491 -157.8491)" fill="#E6E6E6" width="308.8" height="1.2"/>
		
			<rect x="323.1" y="-35" transform="matrix(0.5471 0.8371 -0.8371 0.5471 246.5421 -216.8735)" fill="#E6E6E6" width="1.2" height="308.8"/>
	</g>
</g>
</svg>
