<?xml version="1.0" encoding="utf-8"?>
<!-- Generator: Adobe Illustrator 16.0.4, SVG Export Plug-In . SVG Version: 6.00 Build 0)  -->
<!DOCTYPE svg PUBLIC "-//W3C//DTD SVG 1.1//EN" "http://www.w3.org/Graphics/SVG/1.1/DTD/svg11.dtd">
<svg version="1.1" id="Layer_1" xmlns="http://www.w3.org/2000/svg" xmlns:xlink="http://www.w3.org/1999/xlink" x="0px" y="0px"
	 width="612px" height="438px" viewBox="0 0 612 438" enable-background="new 0 0 612 438" xml:space="preserve">
<g>
	<defs>
		<rect id="SVGID_15_" x="-844.6" y="290.1" width="612" height="129.8"/>
	</defs>
	<clipPath id="SVGID_2_">
		<use xlink:href="#SVGID_15_"  overflow="visible"/>
	</clipPath>
	<g clip-path="url(#SVGID_2_)">
		<text transform="matrix(1 0 0 1 -843.5303 396.7109)" fill="#4D6D94" font-family="'HelveticaNeue-Bold'" font-size="108.6915">Vertical alignment</text>
	</g>
</g>
<rect fill="#F2F2F2" width="612" height="438"/>
<g>
	<g>
		<path fill="#FF7070" d="M261.2,237.9c10.7,3.3,18.1,8.7,22.4,16.2c4.3,7.5,6.4,20.1,6.4,37.8v23.7c0,11.1,1.2,18.5,3.5,22.2
			c2.3,3.7,6.6,6.3,12.8,7.8c1.4,0.3,3.4,0.6,5.9,1c9.4,1.3,14.1,5.6,14.1,13.1c0,3.6-1.2,6.5-3.7,8.5c-2.5,2-5.9,3-10.4,3
			c-18,0-30.7-4.5-38.1-13.4c-7.4-9-11-25.8-11-50.5v-18.6c0-12.5-1.8-21.3-5.3-26.5c-3.5-5.2-12.2-8.9-25.9-11.3
			c-4.2-0.6-7.1-1.9-9-3.9c-1.8-2-2.7-5-2.7-9.2c0-3.4,0.7-6.1,2.2-8c1.5-1.9,3.9-3.3,7.2-4.2c1.6-0.3,3.9-0.9,6.9-1.6
			c17.7-3.7,26.6-15.9,26.6-36.6v-19c0-24.6,3.7-41.5,11.2-50.5c7.5-9.1,20.2-13.6,38.2-13.6c4.4,0,7.8,1,10.2,3.1
			c2.4,2.1,3.6,4.9,3.6,8.6c0,7.4-4.7,11.6-14.1,12.8c-1.8,0.3-3.3,0.5-4.3,0.6c-6.7,1.3-11.4,3.9-14,7.9c-2.6,4-3.9,11.8-3.9,23.3
			v23.5c0,17.8-2.1,30.4-6.4,37.9C279.3,229.5,271.8,234.8,261.2,237.9z"/>
		<path fill="#FF7070" d="M481.9,237.9c-10.8-3.1-18.3-8.4-22.6-15.9c-4.3-7.5-6.5-20.1-6.5-37.8v-23.5c0-11.3-1.2-18.9-3.5-22.8
			c-2.3-3.9-6.5-6.6-12.5-8.1c-1.4-0.3-3.5-0.6-6.2-1c-9.2-1.3-13.8-5.3-13.8-12.2c0-4.1,1.1-7.1,3.4-9.2c2.2-2.1,5.6-3.1,10.1-3.1
			c18,0,30.8,4.5,38.2,13.6c7.5,9.1,11.2,25.9,11.2,50.5v19c0,20.8,8.6,33,25.9,36.6c3.3,0.6,5.8,1.2,7.5,1.6c3.4,1,5.9,2.4,7.4,4.2
			c1.5,1.9,2.3,4.5,2.3,7.9c0,3.6-0.8,6.5-2.5,8.6c-1.7,2.1-4.2,3.5-7.6,4.2c-1.2,0.2-2.8,0.5-5,1c-18.8,3.6-28.2,16-28.2,37.1v18.6
			c0,24.7-3.7,41.6-11,50.5s-20,13.4-38.1,13.4c-4.6,0-8-1-10.3-3.1c-2.3-2.1-3.4-5.2-3.4-9.4c0-6.8,4.6-10.9,13.8-12.2
			c1.9-0.2,3.3-0.4,4.2-0.6c6.9-1.2,11.7-3.6,14.2-7.4c2.6-3.7,3.8-11.4,3.8-23V292c0-17.5,2.2-30,6.5-37.7
			C463.6,246.7,471.1,241.2,481.9,237.9z"/>
	</g>
	<g>
		<circle fill="#FF7070" cx="341.7" cy="234.6" r="15.7"/>
		<circle fill="#FF7070" cx="401.3" cy="234.6" r="15.7"/>
	</g>
	<g>
		<path fill="#FF7070" d="M418.1,274.3l9.5,2.6L418.1,274.3L418.1,274.3l9.5,2.6L418.1,274.3L418.1,274.3l3.9,1L418.1,274.3
			L418.1,274.3l3.9,1L418.1,274.3c0,0,0,0.1-0.1,0.3c-0.3,0.9-1.2,3.5-2.8,7c-2.5,5.2-6.7,12.4-13.1,18.9c-3.2,3.3-7,6.4-11.4,9.2
			c-4.4,2.7-9.5,5.1-15.4,6.8c-5.3,1.5-8.4,7.1-6.9,12.4c1.5,5.3,7.1,8.4,12.4,6.9c11.2-3.2,20.5-8.4,28-14.2
			c5.6-4.4,10.2-9.2,13.9-13.9c5.6-7.1,9.2-13.9,11.5-19.1c2.3-5.2,3.3-8.7,3.4-9.1c1.4-5.4-1.7-10.9-7.1-12.3
			C425,265.8,419.5,269,418.1,274.3L418.1,274.3z"/>
	</g>
</g>
</svg>
