<?xml version="1.0" encoding="utf-8"?>
<!-- Generator: Adobe Illustrator 16.0.4, SVG Export Plug-In . SVG Version: 6.00 Build 0)  -->
<!DOCTYPE svg PUBLIC "-//W3C//DTD SVG 1.1//EN" "http://www.w3.org/Graphics/SVG/1.1/DTD/svg11.dtd">
<svg version="1.1" id="Layer_1" xmlns="http://www.w3.org/2000/svg" xmlns:xlink="http://www.w3.org/1999/xlink" x="0px" y="0px"
	 width="612px" height="600px" viewBox="0 0 612 600" enable-background="new 0 0 612 600" xml:space="preserve">
<pattern  x="-1646.4" y="-112.9" width="61" height="68.3" patternUnits="userSpaceOnUse" id="New_Pattern_Swatch_1" viewBox="0 -68.3 61 68.3" overflow="visible">
	<g>
		<polygon fill="none" points="0,0 61,0 61,-68.3 0,-68.3 		"/>
		<polygon fill="#FFF0F0" points="61,0 0,0 0,-68.3 61,-68.3 		"/>
	</g>
</pattern>
<g id="Heading">
	<defs>
		<rect id="SVGID_7_" x="-807.5" width="612" height="600"/>
	</defs>
	<clipPath id="SVGID_2_">
		<use xlink:href="#SVGID_7_"  overflow="visible"/>
	</clipPath>
	<g opacity="0.8" clip-path="url(#SVGID_2_)">
		<text transform="matrix(1 0 0 1 -812.1807 430.0376)" fill="#FF7070" font-family="'HelveticaNeue-Bold'" font-size="151.3675">Grid systems</text>
	</g>
</g>
<g>
	<defs>
		<rect id="SVGID_9_" x="-807.5" y="754" width="612" height="438"/>
	</defs>
	<clipPath id="SVGID_4_">
		<use xlink:href="#SVGID_9_"  overflow="visible"/>
	</clipPath>
</g>
<g>
	<rect fill="url(#New_Pattern_Swatch_1)" width="612" height="600"/>
	<g>
		<g>
			<g>
				<rect x="157.5" y="175.8" fill="#FFFFFF" width="215.7" height="17.6"/>
				<rect x="157.5" y="206.1" fill="#FFFFFF" width="215.7" height="17.6"/>
				<rect x="157.5" y="236.3" fill="#FFFFFF" width="215.7" height="17.6"/>
				<rect x="157.5" y="266.6" fill="#FFFFFF" width="215.7" height="17.6"/>
				<rect x="157.5" y="296.8" fill="#FFFFFF" width="215.7" height="17.6"/>
				<rect x="157.5" y="327.1" fill="#FFFFFF" width="215.7" height="17.6"/>
				<rect x="157.5" y="357.4" fill="#FFFFFF" width="215.7" height="17.6"/>
				<rect x="157.5" y="387.7" fill="#FFFFFF" width="215.7" height="17.6"/>
				<rect x="157.5" y="417.9" fill="#FFFFFF" width="215.7" height="17.6"/>
				<rect x="157.5" y="448.2" fill="#FFFFFF" width="215.7" height="17.6"/>
			</g>
			<g>
				<rect x="212.1" y="133.7" fill="#FFFFFF" width="215.7" height="290"/>
				<path fill="#B3B3B3" d="M432,427.9H207.9V129.5H432V427.9z M216.3,419.5h207.2V137.9H216.3V419.5z"/>
			</g>
			<g>
				<rect x="251.8" y="171.4" fill="#CCCCCC" width="136.4" height="6.6"/>
				<rect x="251.8" y="190.4" fill="#CCCCCC" width="109.6" height="6.6"/>
				<rect x="251.8" y="209.5" fill="#CCCCCC" width="136.4" height="6.6"/>
				<rect x="251.8" y="228.6" fill="#CCCCCC" width="109.6" height="6.6"/>
				<rect x="251.8" y="247.7" fill="#CCCCCC" width="136.4" height="6.6"/>
				<rect x="251.8" y="266.8" fill="#CCCCCC" width="109.6" height="6.6"/>
				<rect x="251.8" y="285.9" fill="#CCCCCC" width="136.4" height="6.6"/>
				<rect x="251.8" y="304.9" fill="#CCCCCC" width="109.6" height="6.6"/>
				<rect x="251.8" y="324" fill="#CCCCCC" width="136.4" height="6.6"/>
				<rect x="251.8" y="343.1" fill="#CCCCCC" width="109.6" height="6.6"/>
			</g>
		</g>
		<g>
			<path fill="none" d="M537.4,414.4l74.6-46.9v-52.8h-75.8v-94.4H612v-56.6h-28.6c-26,0-47.2-21.2-47.2-47.2
				c0-26,21.2-47.2,47.2-47.2H612v-4.8h-89.1v456.1H612v-59.3L537.4,414.4z"/>
			<path fill="#FFFFFF" d="M544.6,116.5c0,21.4,17.4,38.8,38.8,38.8H612V77.7h-28.6C562,77.7,544.6,95.1,544.6,116.5z"/>
			<path fill="#B3B3B3" d="M536.2,116.5c0,26,21.2,47.2,47.2,47.2H612v-4.2h-28.6c-23.6,0-43-19.3-43-43c0-23.6,19.3-43,43-43H612
				v-4.2h-28.6C557.4,69.3,536.2,90.5,536.2,116.5z"/>
			<path fill="#B3B3B3" d="M540.4,116.5c0,23.6,19.3,43,43,43H612v-4.2h-28.6c-21.4,0-38.8-17.4-38.8-38.8
				c0-21.4,17.4-38.8,38.8-38.8H612v-4.2h-28.6C559.8,73.5,540.4,92.9,540.4,116.5z"/>
			<rect x="544.6" y="228.7" fill="#FFFFFF" width="67.4" height="77.5"/>
			<polygon fill="#B3B3B3" points="536.2,314.7 612,314.7 612,310.5 540.4,310.5 540.4,224.5 612,224.5 612,220.3 536.2,220.3 			
				"/>
			<polygon fill="#B3B3B3" points="540.4,310.5 612,310.5 612,306.3 544.6,306.3 544.6,228.7 612,228.7 612,224.5 540.4,224.5 			
				"/>
			<polygon fill="#FFFFFF" points="612,451.3 612,377.4 553.2,414.4 			"/>
			<polygon fill="#B3B3B3" points="612,461.3 612,456.3 545.3,414.4 612,372.4 612,367.4 537.4,414.4 			"/>
			<polygon fill="#B3B3B3" points="612,456.3 612,451.3 553.2,414.4 612,377.4 612,372.4 545.3,414.4 			"/>
		</g>
		<g>
			<path fill="none" d="M0,89.8V147l59.6,37.5L0,222v62.2h60.8v94.4H0v56.6h13.6c26,0,47.2,21.2,47.2,47.2c0,26-21.2,47.2-47.2,47.2
				H0v5.9h89.1V89.8H0z"/>
			<path fill="#FFFFFF" d="M52.4,482.4c0-21.4-17.4-38.8-38.8-38.8H0v77.5h13.6C35,521.1,52.4,503.7,52.4,482.4z"/>
			<path fill="#B3B3B3" d="M60.8,482.4c0-26-21.2-47.2-47.2-47.2H0v4.2h13.6c23.6,0,43,19.3,43,43c0,23.6-19.3,43-43,43H0v4.2h13.6
				C39.6,529.5,60.8,508.4,60.8,482.4z"/>
			<path fill="#B3B3B3" d="M56.6,482.4c0-23.6-19.3-43-43-43H0v4.2h13.6c21.4,0,38.8,17.4,38.8,38.8S35,521.1,13.6,521.1H0v4.2h13.6
				C37.3,525.3,56.6,506,56.6,482.4z"/>
			<rect y="292.6" fill="#FFFFFF" width="52.4" height="77.5"/>
			<polygon fill="#B3B3B3" points="60.8,284.2 0,284.2 0,288.4 56.6,288.4 56.6,374.3 0,374.3 0,378.6 60.8,378.6 			"/>
			<polygon fill="#B3B3B3" points="56.6,288.4 0,288.4 0,292.6 52.4,292.6 52.4,370.1 0,370.1 0,374.3 56.6,374.3 			"/>
			<polygon fill="#FFFFFF" points="0,156.9 0,212.1 43.8,184.5 			"/>
			<polygon fill="#B3B3B3" points="0,147 0,152 51.7,184.5 0,217 0,222 59.6,184.5 			"/>
			<polygon fill="#B3B3B3" points="0,152 0,156.9 43.8,184.5 0,212.1 0,217 51.7,184.5 			"/>
		</g>
	</g>
</g>
</svg>
