<?xml version="1.0" encoding="utf-8"?>
<!-- Generator: Adobe Illustrator 16.0.4, SVG Export Plug-In . SVG Version: 6.00 Build 0)  -->
<!DOCTYPE svg PUBLIC "-//W3C//DTD SVG 1.1//EN" "http://www.w3.org/Graphics/SVG/1.1/DTD/svg11.dtd">
<svg version="1.1" id="Layer_1" xmlns="http://www.w3.org/2000/svg" xmlns:xlink="http://www.w3.org/1999/xlink" x="0px" y="0px"
	 width="612px" height="600px" viewBox="0 0 612 600" enable-background="new 0 0 612 600" xml:space="preserve">
<rect y="201.1" fill="#F6C992" width="612" height="157.5"/>
<rect y="520.2" fill="#F6C992" width="612" height="37.9"/>
<rect y="360.5" fill="#C5D8AE" width="612" height="78.7"/>
<rect y="440.5" fill="#A3BFE6" width="612" height="77.8"/>
<g>
	<line fill="none" stroke="#FF7070" stroke-width="2" stroke-miterlimit="10" x1="300.3" y1="556.5" x2="300.3" y2="522"/>
	<path fill="none" stroke="#FF7070" stroke-width="2" stroke-miterlimit="10" d="M306.1,548.3l-5.8,8.2l-5.8-8.2"/>
	<path fill="none" stroke="#FF7070" stroke-width="2" stroke-miterlimit="10" d="M294.5,530.2l5.8-8.2l5.8,8.2"/>
</g>
<g>
	<line fill="none" stroke="#FF7070" stroke-width="2" stroke-miterlimit="10" x1="82.6" y1="436.8" x2="82.6" y2="203"/>
	<path fill="none" stroke="#FF7070" stroke-width="2" stroke-miterlimit="10" d="M70.5,220.5L82.6,203l12.2,17.4"/>
	<path fill="none" stroke="#FF7070" stroke-width="2" stroke-miterlimit="10" d="M94.8,419.4l-12.2,17.4l-12.2-17.4"/>
</g>
<g id="Baseline">
	<g>
		<rect y="478.4" fill="#FF7070" width="612" height="1.9"/>
	</g>
	<g>
		<rect y="438.5" fill="#FF7070" width="612" height="1.9"/>
	</g>
	<g>
		<rect y="398.7" fill="#FF7070" width="612" height="1.9"/>
	</g>
	<g>
		<rect y="598" fill="#FF7070" width="612" height="1.9"/>
	</g>
	<g>
		<rect y="558.1" fill="#FF7070" width="612" height="1.9"/>
	</g>
	<g>
		<rect y="518.3" fill="#FF7070" width="612" height="1.9"/>
	</g>
	<g>
		<rect y="358.8" fill="#FF7070" width="612" height="1.9"/>
	</g>
	<g>
		<rect y="318.9" fill="#FF7070" width="612" height="1.9"/>
	</g>
	<g>
		<rect y="279.1" fill="#FF7070" width="612" height="1.9"/>
	</g>
	<g>
		<rect y="239.2" fill="#FF7070" width="612" height="1.9"/>
	</g>
	<g>
		<rect y="199.3" fill="#FF7070" width="612" height="1.9"/>
	</g>
	<g>
		<rect y="159.5" fill="#FF7070" width="612" height="1.9"/>
	</g>
	<g>
		<rect y="119.6" fill="#FF7070" width="612" height="1.9"/>
	</g>
	<g>
		<rect y="79.7" fill="#FF7070" width="612" height="1.9"/>
	</g>
	<g>
		<rect y="39.9" fill="#FF7070" width="612" height="1.9"/>
	</g>
	<g>
		<rect fill="#FF7070" width="612" height="1.9"/>
	</g>
</g>
<g>
	<defs>
		<rect id="SVGID_17_" y="412.3" width="612" height="129.3"/>
	</defs>
	<clipPath id="SVGID_2_">
		<use xlink:href="#SVGID_17_"  overflow="visible"/>
	</clipPath>
	<g clip-path="url(#SVGID_2_)">
		<text transform="matrix(1 0 0 1 0.8022 518.2559)" fill="#4D6D94" font-family='"Helvetica Neue", Helvetica, Arial, sans-serif' font-weight='bold' font-size="109">Vertical alignment</text>
	</g>
</g>
</svg>
