<?xml version="1.0" encoding="utf-8"?>
<!-- Generator: Adobe Illustrator 16.0.4, SVG Export Plug-In . SVG Version: 6.00 Build 0)  -->
<!DOCTYPE svg PUBLIC "-//W3C//DTD SVG 1.1//EN" "http://www.w3.org/Graphics/SVG/1.1/DTD/svg11.dtd">
<svg version="1.1" id="Layer_1" xmlns="http://www.w3.org/2000/svg" xmlns:xlink="http://www.w3.org/1999/xlink" x="0px" y="0px"
	 width="288px" height="228px" viewBox="0 0 288 228" enable-background="new 0 0 288 228" xml:space="preserve">
<g>
	<rect fill="#F2F2F2" width="288" height="228"/>
	<g>
		<rect x="86.6" y="5.4" fill="#CCCCCC" width="149.7" height="98.1"/>
		<rect x="35" y="57" fill="#E6E6E6" width="46.4" height="46.4"/>
		<rect x="138.3" y="108.7" fill="#B3B3B3" width="46.4" height="46.4"/>
		<rect x="189.9" y="108.7" fill="#E6E6E6" width="46.4" height="46.4"/>
		<rect x="241.6" y="57" fill="#B3B3B3" width="46.4" height="46.4"/>
		<rect x="138.3" y="160.3" fill="#E6E6E6" width="46.4" height="46.4"/>
		<rect x="189.9" y="160.3" fill="#B3B3B3" width="46.4" height="46.4"/>
		<g>
			<rect x="86.6" y="108.7" fill="#CCCCCC" width="46.4" height="1.7"/>
			<rect x="86.6" y="113.6" fill="#CCCCCC" width="37.3" height="1.7"/>
			<rect x="86.6" y="118.6" fill="#CCCCCC" width="46.4" height="1.7"/>
			<rect x="86.6" y="123.6" fill="#CCCCCC" width="37.3" height="1.7"/>
			<rect x="86.6" y="128.5" fill="#CCCCCC" width="46.4" height="1.7"/>
			<rect x="86.6" y="133.5" fill="#CCCCCC" width="37.3" height="1.7"/>
			<rect x="86.6" y="138.5" fill="#CCCCCC" width="46.4" height="1.7"/>
			<rect x="86.6" y="143.4" fill="#CCCCCC" width="37.3" height="1.7"/>
			<rect x="86.6" y="148.4" fill="#CCCCCC" width="46.4" height="1.7"/>
			<rect x="86.6" y="153.4" fill="#CCCCCC" width="37.3" height="1.7"/>
		</g>
		<g>
			<rect x="35" y="108.7" fill="#CCCCCC" width="46.4" height="1.7"/>
			<rect x="35" y="113.6" fill="#CCCCCC" width="37.3" height="1.7"/>
			<rect x="35" y="118.6" fill="#CCCCCC" width="46.4" height="1.7"/>
			<rect x="35" y="123.6" fill="#CCCCCC" width="37.3" height="1.7"/>
			<rect x="35" y="128.5" fill="#CCCCCC" width="46.4" height="1.7"/>
			<rect x="35" y="133.5" fill="#CCCCCC" width="37.3" height="1.7"/>
			<rect x="35" y="138.5" fill="#CCCCCC" width="46.4" height="1.7"/>
			<rect x="35" y="143.4" fill="#CCCCCC" width="37.3" height="1.7"/>
			<rect x="35" y="148.4" fill="#CCCCCC" width="46.4" height="1.7"/>
			<rect x="35" y="153.4" fill="#CCCCCC" width="37.3" height="1.7"/>
		</g>
		<g>
			<rect x="35" y="160.3" fill="#CCCCCC" width="46.4" height="1.7"/>
			<rect x="35" y="165.3" fill="#CCCCCC" width="37.3" height="1.7"/>
			<rect x="35" y="170.2" fill="#CCCCCC" width="46.4" height="1.7"/>
			<rect x="35" y="175.2" fill="#CCCCCC" width="37.3" height="1.7"/>
			<rect x="35" y="180.2" fill="#CCCCCC" width="46.4" height="1.7"/>
			<rect x="35" y="185.1" fill="#CCCCCC" width="37.3" height="1.7"/>
			<rect x="35" y="190.1" fill="#CCCCCC" width="46.4" height="1.7"/>
			<rect x="35" y="195.1" fill="#CCCCCC" width="37.3" height="1.7"/>
			<rect x="35" y="200" fill="#CCCCCC" width="46.4" height="1.7"/>
			<rect x="35" y="205" fill="#CCCCCC" width="37.3" height="1.7"/>
		</g>
		<rect x="35" y="5.4" fill="#CCCCCC" width="46.4" height="6.2"/>
		<rect x="35" y="15.4" fill="#CCCCCC" width="46.4" height="6.2"/>
		<rect x="35" y="25.5" fill="#CCCCCC" width="23.2" height="6.2"/>
		
			<rect x="79" y="54.1" transform="matrix(0.8365 0.548 -0.548 0.8365 56.2213 -79.6003)" fill="#E6E6E6" width="165" height="0.7"/>
		
			<rect x="161.2" y="-28.1" transform="matrix(0.5474 0.8369 -0.8369 0.5474 118.6286 -110.5272)" fill="#E6E6E6" width="0.7" height="165"/>
	</g>
</g>
<g>
	<defs>
		<rect id="SVGID_5_" x="-210.6" y="78.2" width="182.6" height="172.8"/>
	</defs>
	<clipPath id="SVGID_2_">
		<use xlink:href="#SVGID_5_"  overflow="visible"/>
	</clipPath>
	<g clip-path="url(#SVGID_2_)">
		<text transform="matrix(1.0013 0 0 1 -203.7485 179.0923)" fill="#FF7070" font-family="'HelveticaNeue'" font-size="101.6087">Typo</text>
	</g>
</g>
</svg>
