<?xml version="1.0" encoding="utf-8"?>
<!-- Generator: Adobe Illustrator 16.0.4, SVG Export Plug-In . SVG Version: 6.00 Build 0)  -->
<!DOCTYPE svg PUBLIC "-//W3C//DTD SVG 1.1//EN" "http://www.w3.org/Graphics/SVG/1.1/DTD/svg11.dtd">
<svg version="1.1" id="Layer_1" xmlns="http://www.w3.org/2000/svg" xmlns:xlink="http://www.w3.org/1999/xlink" x="0px" y="0px"
	 width="288px" height="228px" viewBox="0 0 288 228" enable-background="new 0 0 288 228" xml:space="preserve">
<g>
	<defs>
		<rect id="SVGID_1_" x="-316" y="-256" width="288" height="227.7"/>
	</defs>
	<clipPath id="SVGID_2_">
		<use xlink:href="#SVGID_1_"  overflow="visible"/>
	</clipPath>
</g>
<g>
	<rect fill="#F2F2F2" width="288" height="228"/>
	<g>
		<g>
			<path fill="#FF7070" d="M119.5,121.4c5.2,1.6,8.8,4.2,10.8,7.9c2.1,3.6,3.1,9.7,3.1,18.3V159c0,5.4,0.6,8.9,1.7,10.8
				c1.1,1.8,3.2,3.1,6.2,3.8c0.7,0.2,1.6,0.3,2.9,0.5c4.5,0.6,6.8,2.7,6.8,6.3c0,1.8-0.6,3.1-1.8,4.1c-1.2,1-2.9,1.5-5,1.5
				c-8.7,0-14.9-2.2-18.4-6.5c-3.6-4.3-5.3-12.5-5.3-24.4v-9c0-6-0.9-10.3-2.6-12.8s-5.9-4.3-12.5-5.5c-2-0.3-3.5-0.9-4.3-1.9
				c-0.9-1-1.3-2.4-1.3-4.4c0-1.7,0.4-2.9,1.1-3.9c0.7-0.9,1.9-1.6,3.5-2c0.8-0.2,1.9-0.4,3.3-0.8c8.6-1.8,12.8-7.7,12.8-17.7v-9.2
				c0-11.9,1.8-20.1,5.4-24.4c3.6-4.4,9.8-6.6,18.5-6.6c2.1,0,3.8,0.5,4.9,1.5c1.2,1,1.7,2.4,1.7,4.1c0,3.6-2.3,5.6-6.8,6.2
				c-0.9,0.2-1.6,0.3-2.1,0.3c-3.2,0.6-5.5,1.9-6.8,3.8c-1.3,1.9-1.9,5.7-1.9,11.3v11.4c0,8.6-1,14.7-3.1,18.3
				C128.2,117.3,124.6,119.9,119.5,121.4z"/>
			<path fill="#FF7070" d="M226.2,121.4c-5.2-1.5-8.9-4.1-10.9-7.7c-2.1-3.6-3.1-9.7-3.1-18.3V84c0-5.5-0.6-9.1-1.7-11
				c-1.1-1.9-3.1-3.2-6-3.9c-0.7-0.2-1.7-0.3-3-0.5c-4.4-0.6-6.7-2.6-6.7-5.9c0-2,0.5-3.4,1.6-4.4c1.1-1,2.7-1.5,4.9-1.5
				c8.7,0,14.9,2.2,18.5,6.6c3.6,4.4,5.4,12.5,5.4,24.4V97c0,10.1,4.2,16,12.5,17.7c1.6,0.3,2.8,0.6,3.6,0.8
				c1.7,0.5,2.8,1.1,3.6,2.1c0.7,0.9,1.1,2.2,1.1,3.8c0,1.8-0.4,3.1-1.2,4.2c-0.8,1-2,1.7-3.7,2c-0.6,0.1-1.4,0.3-2.4,0.5
				c-9.1,1.8-13.6,7.7-13.6,17.9v9c0,12-1.8,20.1-5.3,24.4s-9.7,6.5-18.4,6.5c-2.2,0-3.9-0.5-5-1.5c-1.1-1-1.7-2.5-1.7-4.5
				c0-3.3,2.2-5.3,6.7-5.9c0.9-0.1,1.6-0.2,2-0.3c3.4-0.6,5.6-1.8,6.9-3.6c1.2-1.8,1.9-5.5,1.9-11.1v-11.5c0-8.5,1-14.5,3.1-18.2
				C217.4,125.6,221,123,226.2,121.4z"/>
		</g>
		<g>
			<circle fill="#FF7070" cx="158.5" cy="119.8" r="7.6"/>
			<circle fill="#FF7070" cx="187.3" cy="119.8" r="7.6"/>
		</g>
		<g>
			<path fill="#FF7070" d="M195.4,139l4.6,1.2L195.4,139L195.4,139l4.6,1.2L195.4,139L195.4,139l1.9,0.5L195.4,139L195.4,139
				l1.9,0.5L195.4,139c0,0,0,0,0,0.2c-0.1,0.5-0.6,1.7-1.4,3.4c-1.2,2.5-3.2,6-6.3,9.2c-1.6,1.6-3.4,3.1-5.5,4.4
				c-2.1,1.3-4.6,2.5-7.5,3.3c-2.6,0.7-4.1,3.4-3.3,6c0.7,2.6,3.4,4.1,6,3.3c5.4-1.5,9.9-4,13.5-6.9c2.7-2.1,4.9-4.5,6.7-6.7
				c2.7-3.4,4.5-6.7,5.6-9.2c1.1-2.5,1.6-4.2,1.6-4.4c0.7-2.6-0.8-5.3-3.4-6C198.7,134.9,196.1,136.4,195.4,139L195.4,139z"/>
		</g>
	</g>
</g>
<g>
	<defs>
		<rect id="SVGID_7_" x="-316" y="139" width="288" height="61.6"/>
	</defs>
	<clipPath id="SVGID_4_">
		<use xlink:href="#SVGID_7_"  overflow="visible"/>
	</clipPath>
	<g clip-path="url(#SVGID_4_)">
		<text transform="matrix(1 0 0 1 -309.6172 189.4189)" fill="#4D6D94" font-family="'HelveticaNeue-Bold'" font-size="51.9175">Vertical alignment</text>
	</g>
</g>
</svg>
