<?xml version="1.0" encoding="utf-8"?>
<!-- Generator: Adobe Illustrator 16.0.4, SVG Export Plug-In . SVG Version: 6.00 Build 0)  -->
<!DOCTYPE svg PUBLIC "-//W3C//DTD SVG 1.1//EN" "http://www.w3.org/Graphics/SVG/1.1/DTD/svg11.dtd">
<svg version="1.1" id="Layer_1" xmlns="http://www.w3.org/2000/svg" xmlns:xlink="http://www.w3.org/1999/xlink" x="0px" y="0px"
	 width="288px" height="228px" viewBox="0 0 288 228" enable-background="new 0 0 288 228" xml:space="preserve">
<pattern  x="-636" y="-256" width="61" height="68.3" patternUnits="userSpaceOnUse" id="New_Pattern_Swatch_1" viewBox="0 -68.3 61 68.3" overflow="visible">
	<g>
		<polygon fill="none" points="0,0 61,0 61,-68.3 0,-68.3 		"/>
		<polygon fill="#FFF0F0" points="61,0 0,0 0,-68.3 61,-68.3 		"/>
	</g>
</pattern>
<rect fill="url(#New_Pattern_Swatch_1)" width="288" height="228"/>
<g>
	<rect x="67.4" y="54.9" fill="#FFFFFF" width="99.7" height="8.2"/>
	<rect x="67.4" y="68.9" fill="#FFFFFF" width="99.7" height="8.2"/>
	<rect x="67.4" y="82.9" fill="#FFFFFF" width="99.7" height="8.2"/>
	<rect x="67.4" y="96.9" fill="#FFFFFF" width="99.7" height="8.2"/>
	<rect x="67.4" y="110.9" fill="#FFFFFF" width="99.7" height="8.2"/>
	<rect x="67.4" y="124.8" fill="#FFFFFF" width="99.7" height="8.2"/>
	<rect x="67.4" y="138.8" fill="#FFFFFF" width="99.7" height="8.2"/>
	<rect x="67.4" y="152.8" fill="#FFFFFF" width="99.7" height="8.2"/>
	<rect x="67.4" y="166.8" fill="#FFFFFF" width="99.7" height="8.2"/>
	<rect x="67.4" y="180.8" fill="#FFFFFF" width="99.7" height="8.2"/>
</g>
<rect x="94.6" y="37.4" fill="#FFFFFF" width="95.8" height="130.2"/>
<path fill="#B3B3B3" d="M194.2,171.4H90.7v-138h103.6V171.4z M94.6,167.5h95.8V37.4H94.6V167.5z"/>
<g>
	<rect x="110.9" y="52.9" fill="#CCCCCC" width="63" height="3"/>
	<rect x="110.9" y="61.7" fill="#CCCCCC" width="50.7" height="3"/>
	<rect x="110.9" y="70.5" fill="#CCCCCC" width="63" height="3"/>
	<rect x="110.9" y="79.3" fill="#CCCCCC" width="50.7" height="3"/>
	<rect x="110.9" y="88.1" fill="#CCCCCC" width="63" height="3"/>
	<rect x="110.9" y="96.9" fill="#CCCCCC" width="50.7" height="3"/>
	<rect x="110.9" y="105.8" fill="#CCCCCC" width="63" height="3"/>
	<rect x="110.9" y="114.6" fill="#CCCCCC" width="50.7" height="3"/>
	<rect x="110.9" y="123.4" fill="#CCCCCC" width="63" height="3"/>
	<rect x="110.9" y="132.2" fill="#CCCCCC" width="50.7" height="3"/>
</g>
<path fill="none" d="M253.5,170.4l34.5-21.7v-24.4h-35V80.7h35V54.5h-13.2c-12,0-21.8-9.8-21.8-21.8c0-12,9.8-21.8,21.8-21.8H288
	V8.7h-41.2v210.8H288v-27.4L253.5,170.4z"/>
<path fill="#FFFFFF" d="M256.9,32.7c0,9.9,8,17.9,17.9,17.9H288V14.8h-13.2C264.9,14.8,256.9,22.8,256.9,32.7z"/>
<path fill="#B3B3B3" d="M274.8,10.9c-12,0-21.8,9.8-21.8,21.8c0,12,9.8,21.8,21.8,21.8H288v-1.9v-1.9h-13.2c-9.9,0-17.9-8-17.9-17.9
	s8-17.9,17.9-17.9H288v-1.9v-1.9H274.8z"/>
<rect x="256.9" y="84.6" fill="#FFFFFF" width="31.1" height="35.8"/>
<polygon fill="#B3B3B3" points="253,80.7 253,124.3 288,124.3 288,122.3 288,120.4 256.9,120.4 256.9,84.6 288,84.6 288,82.6 
	288,80.7 "/>
<polygon fill="#FFFFFF" points="288,187.5 288,153.3 260.8,170.4 "/>
<polygon fill="#B3B3B3" points="253.5,170.4 288,192.1 288,189.8 288,187.5 260.8,170.4 288,153.3 288,151 288,148.7 "/>
<path fill="none" d="M0,20.4v26.4l27.6,17.3L0,81.5v28.7h28.1v43.6H0V180h6.3c12,0,21.8,9.8,21.8,21.8c0,12-9.8,21.8-21.8,21.8H0
	v2.7h41.2v-206H0z"/>
<path fill="#FFFFFF" d="M24.2,201.8c0-9.9-8-17.9-17.9-17.9H0v35.8h6.3C16.2,219.7,24.2,211.7,24.2,201.8z"/>
<path fill="#B3B3B3" d="M6.3,180H0v1.9v1.9h6.3c9.9,0,17.9,8,17.9,17.9c0,9.9-8,17.9-17.9,17.9H0v1.9v1.9h6.3
	c12,0,21.8-9.8,21.8-21.8C28.1,189.8,18.3,180,6.3,180z"/>
<rect y="114.1" fill="#FFFFFF" width="24.2" height="35.8"/>
<polygon fill="#B3B3B3" points="0,110.2 0,112.1 0,114.1 24.2,114.1 24.2,149.9 0,149.9 0,151.9 0,153.8 28.1,153.8 28.1,110.2 "/>
<polygon fill="#FFFFFF" points="0,51.4 0,76.9 20.3,64.1 "/>
<polygon fill="#B3B3B3" points="0,46.8 0,49.1 0,51.4 20.3,64.1 0,76.9 0,79.2 0,81.5 27.6,64.1 "/>
</svg>
