<?xml version="1.0" encoding="utf-8"?>
<!-- Generator: Adobe Illustrator 16.0.4, SVG Export Plug-In . SVG Version: 6.00 Build 0)  -->
<!DOCTYPE svg PUBLIC "-//W3C//DTD SVG 1.1//EN" "http://www.w3.org/Graphics/SVG/1.1/DTD/svg11.dtd">
<svg version="1.1" id="Layer_1" xmlns="http://www.w3.org/2000/svg" xmlns:xlink="http://www.w3.org/1999/xlink" x="0px" y="0px"
	 width="288px" height="228px" viewBox="0 0 288 228" enable-background="new 0 0 288 228" xml:space="preserve">
<pattern  x="-4" y="-256" width="23" height="23" patternUnits="userSpaceOnUse" id="New_Pattern_Swatch_2" viewBox="0 -23 23 23" overflow="visible">
	<g>
		<polygon fill="none" points="0,0 23,0 23,-23 0,-23 		"/>
		<g>
			<polygon fill="#FF7070" points="23,0 0,0 0,-23 23,-23 			"/>
		</g>
	</g>
</pattern>
<g>
	<defs>
		<rect id="SVGID_1_" y="-256" width="288" height="227.7"/>
	</defs>
	<clipPath id="SVGID_2_">
		<use xlink:href="#SVGID_1_"  overflow="visible"/>
	</clipPath>
	<g clip-path="url(#SVGID_2_)">
		<defs>
			<rect id="SVGID_3_" y="-256" width="288" height="228"/>
		</defs>
		<clipPath id="SVGID_4_">
			<use xlink:href="#SVGID_3_"  overflow="visible"/>
		</clipPath>
		<g clip-path="url(#SVGID_4_)">

				<rect x="138.5" y="-340.6" fill="none" stroke="#666666" stroke-width="0.5" stroke-miterlimit="10" width="11.2" height="342.4"/>
			<rect x="40" y="-340.6" fill="none" stroke="#666666" stroke-width="0.5" stroke-miterlimit="10" width="11.2" height="342.4"/>
			<rect x="237" y="-340.6" fill="none" stroke="#666666" stroke-width="0.5" stroke-miterlimit="10" width="11.2" height="342.4"/>
		</g>
	</g>
</g>
<rect y="95.5" fill="#F6C992" width="288" height="36.9"/>
<rect y="199.2" fill="#F6C992" width="288" height="9"/>
<rect y="133.4" fill="#C5D8AE" width="288" height="9.2"/>
<rect y="142.6" fill="#A3BFE6" width="288" height="56.6"/>
<g>
	<line fill="none" stroke="#FF7070" stroke-miterlimit="10" x1="141.3" y1="207.3" x2="141.3" y2="191"/>
	<path fill="none" stroke="#FF7070" stroke-miterlimit="10" d="M144,203.4l-2.7,3.8l-2.7-3.8"/>
	<path fill="none" stroke="#FF7070" stroke-miterlimit="10" d="M138.6,194.9l2.7-3.8l2.7,3.8"/>
</g>
<g>
	<line fill="none" stroke="#FF7070" stroke-miterlimit="10" x1="38.9" y1="150.4" x2="38.9" y2="96.4"/>
	<path fill="none" stroke="#FF7070" stroke-miterlimit="10" d="M33.2,104.7l5.7-8.3l5.7,8.3"/>
	<path fill="none" stroke="#FF7070" stroke-miterlimit="10" d="M44.6,142.1l-5.7,8.3l-5.7-8.3"/>
</g>
<g id="Baseline_1_">
	<g>
		<rect y="170.3" fill="#FF7070" width="288" height="0.9"/>
	</g>
	<g>
		<rect y="151.4" fill="#FF7070" width="288" height="0.9"/>
	</g>
	<g>
		<rect y="132.5" fill="#FF7070" width="288" height="0.9"/>
	</g>
	<g>
		<rect y="227.1" fill="#FF7070" width="288" height="0.9"/>
	</g>
	<g>
		<rect y="208.2" fill="#FF7070" width="288" height="0.9"/>
	</g>
	<g>
		<rect y="189.2" fill="#FF7070" width="288" height="0.9"/>
	</g>
	<g>
		<rect y="113.5" fill="#FF7070" width="288" height="0.9"/>
	</g>
	<g>
		<rect y="94.6" fill="#FF7070" width="288" height="0.9"/>
	</g>
	<g>
		<rect y="75.7" fill="#FF7070" width="288" height="0.9"/>
	</g>
	<g>
		<rect y="56.8" fill="#FF7070" width="288" height="0.9"/>
	</g>
	<g>
		<rect y="37.8" fill="#FF7070" width="288" height="0.9"/>
	</g>
	<g>
		<rect y="18.9" fill="url(#New_Pattern_Swatch_2)" width="288" height="0.9"/>
	</g>
	<g>
		<rect fill="#FF7070" width="288" height="0.9"/>
	</g>
</g>
<g>
	<defs>
		<rect id="SVGID_7_" y="139" width="288" height="61.6"/>
	</defs>
	<clipPath id="SVGID_6_">
		<use xlink:href="#SVGID_7_"  overflow="visible"/>
	</clipPath>
	<g clip-path="url(#SVGID_6_)">
		<text transform="matrix(1 0 0 1 6.3828 189.4189)" fill="#4D6D94" font-family='"Helvetica Neue", Helvetica, Arial, sans-serif' font-weight="bold" font-size="51.9175">Vertical alignment</text>
	</g>
</g>
</svg>
