<?xml version="1.0" encoding="utf-8"?>
<!-- Generator: Adobe Illustrator 16.0.4, SVG Export Plug-In . SVG Version: 6.00 Build 0)  -->
<!DOCTYPE svg PUBLIC "-//W3C//DTD SVG 1.1//EN" "http://www.w3.org/Graphics/SVG/1.1/DTD/svg11.dtd">
<svg version="1.1" id="Layer_1" xmlns="http://www.w3.org/2000/svg" xmlns:xlink="http://www.w3.org/1999/xlink" x="0px" y="0px"
	 width="296px" height="236px" viewBox="0 0 296 236" enable-background="new 0 0 296 236" xml:space="preserve">
<g>
	<rect fill="#FFF0F0" width="296" height="236"/>
	<g>
		<g>
			<path fill="#FF7070" d="M18.6,11c-0.1-0.1-0.2-0.1-0.3-0.1c-0.1,0-0.2,0-0.3,0.1c-0.1,0.1-0.1,0.1-0.2,0.2s-0.1,0.2-0.1,0.3
				s0,0.2,0,0.3l0,0c0.1-0.1,0.2-0.2,0.3-0.3c0.1-0.1,0.2-0.1,0.4-0.1c0.1,0,0.2,0,0.3,0.1c0.1,0,0.2,0.1,0.3,0.2
				c0.1,0.1,0.1,0.2,0.2,0.3s0.1,0.2,0.1,0.3c0,0.1,0,0.2,0,0.3c0,0.1-0.1,0.2-0.1,0.3c-0.1,0.1-0.2,0.2-0.3,0.2s-0.3,0.1-0.4,0.1
				c-0.2,0-0.4,0-0.5-0.1c-0.1-0.1-0.2-0.2-0.3-0.3s-0.1-0.3-0.1-0.4c0-0.1,0-0.3,0-0.4c0-0.2,0-0.4,0-0.5s0.1-0.3,0.2-0.5
				c0.1-0.1,0.2-0.2,0.3-0.3c0.1-0.1,0.3-0.1,0.5-0.1c0.2,0,0.4,0.1,0.5,0.2C19,10.9,19,11,19,11.2h-0.3C18.7,11.1,18.7,11,18.6,11z
				 M18,11.8c-0.1,0-0.1,0.1-0.2,0.1c0,0.1-0.1,0.1-0.1,0.2s0,0.2,0,0.2s0,0.2,0,0.2c0,0.1,0.1,0.1,0.1,0.2c0,0.1,0.1,0.1,0.2,0.1
				s0.1,0,0.2,0s0.2,0,0.2,0c0.1,0,0.1-0.1,0.2-0.1s0.1-0.1,0.1-0.2c0-0.1,0-0.1,0-0.2c0-0.1,0-0.2,0-0.2S18.7,12,18.7,12
				s-0.1-0.1-0.2-0.1s-0.1,0-0.2,0C18.2,11.8,18.1,11.8,18,11.8z"/>
			<path fill="#FF7070" d="M17.6,16.2c0.1-0.1,0.1-0.2,0.2-0.3c0.1-0.1,0.2-0.1,0.3-0.2s0.3-0.1,0.4-0.1c0.2,0,0.4,0,0.5,0.1
				c0.1,0.1,0.2,0.1,0.3,0.2c0.1,0.1,0.1,0.2,0.2,0.3c0,0.1,0.1,0.2,0.1,0.3c0,0.2,0,0.3-0.1,0.4s-0.2,0.2-0.4,0.3
				c0.2,0.1,0.4,0.2,0.5,0.3c0.1,0.2,0.2,0.3,0.2,0.6c0,0.2,0,0.3-0.1,0.5s-0.1,0.2-0.2,0.3c-0.1,0.1-0.2,0.2-0.4,0.2
				c-0.1,0-0.3,0.1-0.5,0.1c-0.2,0-0.3,0-0.5-0.1c-0.1,0-0.3-0.1-0.4-0.2c-0.1-0.1-0.2-0.2-0.3-0.3c-0.1-0.1-0.1-0.3-0.1-0.5
				c0-0.2,0.1-0.4,0.2-0.5c0.1-0.2,0.3-0.3,0.5-0.3c-0.1-0.1-0.3-0.2-0.4-0.3c-0.1-0.1-0.1-0.3-0.1-0.4
				C17.5,16.4,17.5,16.3,17.6,16.2z M18,18.7c0.1,0.1,0.3,0.2,0.5,0.2c0.1,0,0.2,0,0.3-0.1s0.2-0.1,0.2-0.1c0.1-0.1,0.1-0.1,0.1-0.2
				c0-0.1,0.1-0.2,0.1-0.3c0-0.1,0-0.2-0.1-0.3s-0.1-0.2-0.2-0.2c-0.1-0.1-0.1-0.1-0.2-0.1c-0.1,0-0.2-0.1-0.3-0.1
				c-0.1,0-0.2,0-0.3,0c-0.1,0-0.2,0.1-0.2,0.1c-0.1,0.1-0.1,0.1-0.2,0.2s-0.1,0.2-0.1,0.3C17.8,18.4,17.9,18.6,18,18.7z M18,16.8
				c0,0.1,0.1,0.1,0.1,0.2c0.1,0,0.1,0.1,0.2,0.1s0.2,0,0.2,0c0.2,0,0.3,0,0.4-0.1c0.1-0.1,0.2-0.2,0.2-0.4s-0.1-0.3-0.2-0.4
				c-0.1-0.1-0.3-0.1-0.4-0.1c-0.1,0-0.2,0-0.2,0s-0.1,0.1-0.2,0.1S18,16.3,18,16.3s0,0.1,0,0.2C18,16.7,18,16.7,18,16.8z"/>
			<path fill="#FF7070" d="M18.2,25.4c0.1,0.1,0.3,0.2,0.5,0.2c0.3,0,0.5-0.1,0.7-0.4c0.1-0.3,0.2-0.6,0.2-1.2l0,0
				c-0.1,0.2-0.2,0.3-0.4,0.4c-0.2,0.1-0.3,0.1-0.5,0.1c-0.2,0-0.4,0-0.5-0.1c-0.2-0.1-0.3-0.2-0.4-0.3c-0.1-0.1-0.2-0.3-0.2-0.4
				c-0.1-0.2-0.1-0.3-0.1-0.5c0-0.2,0-0.4,0.1-0.5s0.2-0.3,0.3-0.4c0.1-0.1,0.3-0.2,0.4-0.3c0.2-0.1,0.3-0.1,0.5-0.1
				c0.2,0,0.4,0,0.5,0.1c0.2,0.1,0.3,0.2,0.4,0.3s0.2,0.3,0.3,0.6c0.1,0.2,0.1,0.6,0.1,0.9c0,0.7-0.1,1.2-0.3,1.6s-0.6,0.6-1,0.6
				c-0.3,0-0.6-0.1-0.8-0.3c-0.2-0.2-0.3-0.4-0.4-0.8h0.5C18,25.1,18,25.3,18.2,25.4z M19.4,22.9c0-0.1-0.1-0.2-0.2-0.3
				s-0.2-0.2-0.3-0.2c-0.1,0-0.2-0.1-0.4-0.1c-0.1,0-0.3,0-0.4,0.1c-0.1,0.1-0.2,0.1-0.2,0.2s-0.1,0.2-0.1,0.3c0,0.1,0,0.2,0,0.4
				c0,0.1,0,0.2,0.1,0.3s0.1,0.2,0.2,0.3c0.1,0.1,0.2,0.1,0.2,0.2c0.1,0,0.2,0.1,0.3,0.1c0.1,0,0.2,0,0.3-0.1c0.1,0,0.2-0.1,0.3-0.2
				c0.1-0.1,0.1-0.2,0.2-0.3c0-0.1,0.1-0.2,0.1-0.3C19.5,23.1,19.5,23,19.4,22.9z"/>
			<path fill="#FF7070" d="M18.9,33.3v-3.2h-1.1v-0.4c0.1,0,0.3,0,0.4,0s0.3-0.1,0.4-0.1c0.1-0.1,0.2-0.1,0.3-0.3
				c0.1-0.1,0.1-0.2,0.2-0.4h0.4v4.4H18.9z"/>
			<path fill="#FF7070" d="M20.9,30.7c0-0.2,0-0.3,0.1-0.5c0-0.2,0.1-0.3,0.1-0.5c0.1-0.1,0.1-0.3,0.3-0.4c0.1-0.1,0.2-0.2,0.4-0.3
				c0.2-0.1,0.4-0.1,0.6-0.1c0.2,0,0.4,0,0.6,0.1c0.2,0.1,0.3,0.2,0.4,0.3c0.1,0.1,0.2,0.2,0.3,0.4c0.1,0.1,0.1,0.3,0.1,0.5
				c0,0.2,0.1,0.3,0.1,0.5c0,0.2,0,0.3,0,0.5c0,0.2,0,0.3,0,0.5c0,0.2,0,0.3-0.1,0.5c0,0.2-0.1,0.3-0.1,0.5
				c-0.1,0.1-0.1,0.3-0.3,0.4c-0.1,0.1-0.2,0.2-0.4,0.3c-0.2,0.1-0.4,0.1-0.6,0.1c-0.2,0-0.4,0-0.6-0.1c-0.2-0.1-0.3-0.2-0.4-0.3
				c-0.1-0.1-0.2-0.2-0.3-0.4c-0.1-0.1-0.1-0.3-0.1-0.5c0-0.2-0.1-0.3-0.1-0.5c0-0.2,0-0.3,0-0.5C20.9,31,20.9,30.8,20.9,30.7z
				 M21.5,31.7c0,0.2,0,0.4,0.1,0.6c0.1,0.2,0.1,0.3,0.3,0.5c0.1,0.1,0.3,0.2,0.5,0.2s0.4-0.1,0.5-0.2c0.1-0.1,0.2-0.3,0.3-0.5
				c0.1-0.2,0.1-0.4,0.1-0.6c0-0.2,0-0.4,0-0.6c0-0.1,0-0.2,0-0.4s0-0.3,0-0.4c0-0.1,0-0.3-0.1-0.4c0-0.1-0.1-0.2-0.2-0.3
				c-0.1-0.1-0.2-0.2-0.3-0.2c-0.1-0.1-0.2-0.1-0.4-0.1c-0.1,0-0.3,0-0.4,0.1s-0.2,0.1-0.3,0.2c-0.1,0.1-0.1,0.2-0.2,0.3
				s-0.1,0.3-0.1,0.4c0,0.1,0,0.3,0,0.4s0,0.2,0,0.4C21.5,31.3,21.5,31.5,21.5,31.7z"/>
			<path fill="#FF7070" d="M19.2,42.3v-3.8h-1.4V38c0.2,0,0.4,0,0.5,0s0.3-0.1,0.5-0.2c0.1-0.1,0.3-0.2,0.3-0.3
				c0.1-0.1,0.2-0.3,0.2-0.5h0.5v5.3H19.2z"/>
			<path fill="#FF7070" d="M21.7,38.1c0.1-0.2,0.2-0.4,0.3-0.6c0.1-0.2,0.3-0.3,0.5-0.4c0.2-0.1,0.5-0.1,0.7-0.1
				c0.2,0,0.4,0,0.6,0.1c0.2,0.1,0.4,0.2,0.5,0.3c0.1,0.1,0.3,0.3,0.4,0.5c0.1,0.2,0.1,0.4,0.1,0.7c0,0.2,0,0.4-0.1,0.6
				c-0.1,0.2-0.2,0.3-0.3,0.5c-0.1,0.1-0.3,0.3-0.4,0.4c-0.2,0.1-0.3,0.2-0.5,0.3c-0.2,0.1-0.3,0.2-0.5,0.3
				c-0.2,0.1-0.3,0.2-0.5,0.3s-0.3,0.2-0.3,0.4c-0.1,0.1-0.2,0.3-0.2,0.4H25v0.6h-3.5c0-0.3,0.1-0.6,0.2-0.8
				c0.1-0.2,0.2-0.4,0.3-0.6c0.1-0.2,0.3-0.3,0.5-0.4s0.3-0.2,0.5-0.4c0.2-0.1,0.4-0.3,0.6-0.4c0.2-0.1,0.3-0.2,0.4-0.4
				c0.1-0.1,0.2-0.2,0.3-0.4c0.1-0.1,0.1-0.3,0.1-0.5c0-0.1,0-0.3-0.1-0.4c-0.1-0.1-0.1-0.2-0.2-0.3c-0.1-0.1-0.2-0.1-0.3-0.2
				s-0.3-0.1-0.4-0.1c-0.2,0-0.3,0-0.5,0.1c-0.1,0.1-0.2,0.2-0.3,0.3c-0.1,0.1-0.1,0.3-0.2,0.4c0,0.2-0.1,0.3,0,0.5h-0.6
				C21.6,38.6,21.7,38.4,21.7,38.1z"/>
			<path fill="#FF7070" d="M19.5,52.7v-4.4h-1.6v-0.6c0.2,0,0.4,0,0.6,0c0.2,0,0.4-0.1,0.5-0.2s0.3-0.2,0.4-0.4
				c0.1-0.2,0.2-0.3,0.2-0.6h0.6v6.2H19.5z"/>
			<path fill="#FF7070" d="M26.5,50.6v0.7h-0.8v1.4H25v-1.4h-2.7v-0.7l2.8-4h0.6v4.1H26.5z M25,47.6L25,47.6l-2.1,3H25V47.6z"/>
			<path fill="#FF7070" d="M20.2,66.1v-5.7h-2.1v-0.8c0.3,0,0.5,0,0.8-0.1c0.3,0,0.5-0.1,0.7-0.2c0.2-0.1,0.4-0.3,0.5-0.5
				c0.1-0.2,0.2-0.4,0.3-0.7h0.7v7.9H20.2z"/>
			<path fill="#FF7070" d="M24.3,59.4c0.1-0.2,0.3-0.5,0.5-0.6c0.2-0.2,0.5-0.3,0.7-0.4s0.6-0.1,0.9-0.1c0.4,0,0.8,0.1,1.1,0.2
				s0.6,0.3,0.7,0.5c0.2,0.2,0.3,0.4,0.4,0.6c0.1,0.2,0.1,0.5,0.1,0.7c0,0.4-0.1,0.7-0.3,1c-0.2,0.3-0.5,0.5-0.8,0.7
				c0.5,0.1,0.8,0.4,1.1,0.7c0.2,0.3,0.3,0.8,0.3,1.2c0,0.4-0.1,0.7-0.2,1c-0.1,0.3-0.3,0.5-0.6,0.8c-0.2,0.2-0.5,0.4-0.8,0.5
				c-0.3,0.1-0.7,0.2-1,0.2c-0.4,0-0.7,0-1.1-0.1s-0.6-0.2-0.9-0.4s-0.4-0.5-0.6-0.8s-0.2-0.7-0.2-1.1c0-0.5,0.1-0.9,0.4-1.2
				c0.2-0.3,0.6-0.6,1-0.8c-0.3-0.1-0.6-0.4-0.8-0.7c-0.2-0.3-0.3-0.6-0.3-1C24.1,59.9,24.2,59.6,24.3,59.4z M25.3,65
				c0.3,0.3,0.7,0.4,1.2,0.4c0.2,0,0.5,0,0.7-0.1c0.2-0.1,0.4-0.2,0.5-0.3c0.1-0.1,0.3-0.3,0.3-0.5s0.1-0.4,0.1-0.6
				c0-0.2,0-0.4-0.1-0.6s-0.2-0.3-0.4-0.5c-0.1-0.1-0.3-0.2-0.5-0.3s-0.4-0.1-0.6-0.1c-0.2,0-0.4,0-0.7,0.1
				c-0.2,0.1-0.4,0.2-0.5,0.3c-0.2,0.1-0.3,0.3-0.4,0.5s-0.1,0.4-0.1,0.6C24.9,64.4,25,64.8,25.3,65z M25.2,60.8
				c0.1,0.2,0.2,0.3,0.3,0.4c0.1,0.1,0.3,0.2,0.4,0.2c0.2,0.1,0.4,0.1,0.5,0.1c0.4,0,0.7-0.1,0.9-0.3c0.2-0.2,0.4-0.5,0.4-0.9
				c0-0.4-0.1-0.7-0.4-0.9c-0.2-0.2-0.6-0.3-1-0.3c-0.2,0-0.4,0-0.5,0.1c-0.2,0.1-0.3,0.1-0.4,0.2s-0.2,0.2-0.3,0.4
				c-0.1,0.1-0.1,0.3-0.1,0.5C25.1,60.5,25.2,60.7,25.2,60.8z"/>
			<path fill="#FF7070" d="M18,75.7c0.1-0.5,0.4-0.9,0.6-1.2s0.7-0.6,1.1-0.8c0.4-0.2,0.9-0.3,1.5-0.3c0.5,0,0.9,0.1,1.3,0.2
				c0.4,0.1,0.8,0.3,1.1,0.6c0.3,0.3,0.5,0.6,0.7,0.9c0.2,0.4,0.3,0.8,0.3,1.3c0,0.5-0.1,0.9-0.2,1.2c-0.1,0.4-0.3,0.7-0.6,1
				s-0.5,0.5-0.8,0.8c-0.3,0.2-0.6,0.4-1,0.7c-0.3,0.2-0.7,0.4-1,0.6c-0.3,0.2-0.6,0.4-0.9,0.6s-0.5,0.5-0.7,0.7
				c-0.2,0.3-0.3,0.5-0.4,0.9h5.4V84h-6.9c0-0.6,0.2-1.2,0.3-1.6s0.4-0.8,0.7-1.2c0.3-0.3,0.6-0.6,0.9-0.9c0.3-0.2,0.7-0.5,1.1-0.7
				c0.4-0.3,0.8-0.5,1.2-0.8s0.6-0.5,0.8-0.7s0.4-0.5,0.5-0.8s0.2-0.6,0.2-1c0-0.3-0.1-0.5-0.2-0.8s-0.3-0.4-0.4-0.6
				c-0.2-0.2-0.4-0.3-0.6-0.4c-0.2-0.1-0.5-0.1-0.8-0.1c-0.4,0-0.7,0.1-0.9,0.2s-0.5,0.4-0.6,0.6c-0.2,0.2-0.3,0.5-0.4,0.8
				c-0.1,0.3-0.1,0.6-0.1,0.9h-1.3C17.8,76.7,17.9,76.2,18,75.7z"/>
			<path fill="#FF7070" d="M33.2,80.4v1.1h-1.4V84h-1.2v-2.5h-4.6v-1.2l4.8-6.9h1v7H33.2z M30.5,75.3L30.5,75.3L27,80.4h3.5V75.3z"
				/>
			<path fill="#FF7070" d="M21.4,98.9c0.1,0,0.1,0,0.2,0h0.3c0.3,0,0.7,0,1-0.1c0.3-0.1,0.6-0.2,0.8-0.4c0.2-0.2,0.4-0.4,0.5-0.7
				c0.1-0.3,0.2-0.6,0.2-0.9c0-0.7-0.2-1.2-0.7-1.6c-0.4-0.4-1-0.5-1.7-0.5c-0.4,0-0.8,0.1-1.1,0.2c-0.3,0.2-0.6,0.4-0.8,0.6
				c-0.2,0.3-0.4,0.6-0.5,0.9c-0.1,0.3-0.1,0.7-0.1,1.1H18c0-0.6,0.1-1.2,0.3-1.7c0.2-0.5,0.4-1,0.8-1.3c0.3-0.4,0.8-0.7,1.3-0.9
				c0.5-0.2,1.1-0.3,1.7-0.3c0.6,0,1.1,0.1,1.6,0.2c0.5,0.1,0.9,0.4,1.3,0.6c0.4,0.3,0.6,0.7,0.8,1.1s0.3,1,0.3,1.6
				c0,0.6-0.2,1.1-0.5,1.6c-0.3,0.5-0.8,0.8-1.3,1v0c0.8,0.2,1.4,0.6,1.8,1.1c0.4,0.6,0.6,1.3,0.6,2.1c0,0.7-0.1,1.2-0.4,1.7
				s-0.6,0.9-1,1.3c-0.4,0.3-0.9,0.6-1.4,0.8c-0.6,0.2-1.1,0.3-1.8,0.3c-0.7,0-1.3-0.1-1.8-0.3s-1-0.5-1.4-0.8
				c-0.4-0.4-0.7-0.8-0.9-1.4s-0.3-1.1-0.3-1.8h1.6c0,0.9,0.3,1.6,0.7,2.1c0.5,0.5,1.2,0.8,2.1,0.8c0.4,0,0.8-0.1,1.1-0.2
				c0.3-0.1,0.7-0.3,0.9-0.5c0.3-0.2,0.5-0.5,0.6-0.8c0.2-0.3,0.2-0.7,0.2-1.1c0-0.4-0.1-0.8-0.2-1.1c-0.1-0.3-0.3-0.6-0.6-0.8
				c-0.2-0.2-0.5-0.4-0.9-0.5s-0.7-0.2-1.1-0.2c-0.3,0-0.7,0-1,0.1v-1.3C21.3,98.9,21.4,98.9,21.4,98.9z"/>
			<path fill="#FF7070" d="M28.4,98.4c0-0.5,0.1-1,0.2-1.5c0.1-0.5,0.2-1,0.4-1.4c0.2-0.4,0.4-0.8,0.8-1.2c0.3-0.3,0.7-0.6,1.2-0.8
				c0.5-0.2,1.1-0.3,1.8-0.3c0.7,0,1.3,0.1,1.8,0.3c0.5,0.2,0.9,0.5,1.2,0.8c0.3,0.3,0.6,0.7,0.8,1.2c0.2,0.4,0.3,0.9,0.4,1.4
				s0.2,1,0.2,1.5c0,0.5,0,1,0,1.5c0,0.5,0,1,0,1.5c0,0.5-0.1,1-0.2,1.5c-0.1,0.5-0.2,1-0.4,1.4c-0.2,0.4-0.4,0.8-0.8,1.2
				c-0.3,0.3-0.7,0.6-1.2,0.8c-0.5,0.2-1.1,0.3-1.8,0.3c-0.7,0-1.3-0.1-1.8-0.3c-0.5-0.2-0.9-0.5-1.2-0.8c-0.3-0.3-0.6-0.7-0.8-1.2
				c-0.2-0.4-0.3-0.9-0.4-1.4c-0.1-0.5-0.2-1-0.2-1.5c0-0.5,0-1,0-1.5C28.3,99.4,28.3,98.9,28.4,98.4z M30.1,101.6
				c0,0.6,0.1,1.2,0.3,1.7c0.2,0.5,0.4,1,0.8,1.4c0.4,0.4,0.9,0.6,1.6,0.6s1.2-0.2,1.6-0.6c0.4-0.4,0.6-0.8,0.8-1.4
				c0.2-0.5,0.3-1.1,0.3-1.7c0-0.6,0-1.2,0-1.7c0-0.3,0-0.7,0-1.1s0-0.8-0.1-1.2s-0.1-0.8-0.2-1.1c-0.1-0.4-0.3-0.7-0.5-1
				c-0.2-0.3-0.5-0.5-0.8-0.7c-0.3-0.2-0.7-0.3-1.1-0.3s-0.8,0.1-1.1,0.3s-0.6,0.4-0.8,0.7c-0.2,0.3-0.4,0.6-0.5,1
				c-0.1,0.4-0.2,0.8-0.2,1.1S30,98.4,30,98.8c0,0.4,0,0.7,0,1.1C30,100.4,30,100.9,30.1,101.6z"/>
			<path fill="#FF7070" d="M22.3,124.2c0.1,0,0.1,0,0.2,0h0.4c0.4,0,0.8-0.1,1.2-0.2c0.4-0.1,0.7-0.3,1-0.5c0.3-0.2,0.5-0.5,0.7-0.8
				c0.2-0.3,0.2-0.7,0.2-1.1c0-0.8-0.3-1.5-0.8-1.9s-1.2-0.6-2-0.6c-0.5,0-1,0.1-1.3,0.3c-0.4,0.2-0.7,0.4-0.9,0.7
				c-0.2,0.3-0.4,0.7-0.5,1.1c-0.1,0.4-0.2,0.9-0.2,1.3h-1.9c0-0.8,0.2-1.5,0.4-2.1c0.2-0.6,0.5-1.2,0.9-1.6s0.9-0.8,1.5-1.1
				c0.6-0.3,1.3-0.4,2.1-0.4c0.7,0,1.3,0.1,1.9,0.3c0.6,0.2,1.1,0.4,1.5,0.8c0.4,0.3,0.8,0.8,1,1.3c0.2,0.5,0.4,1.2,0.4,1.9
				c0,0.7-0.2,1.3-0.6,1.9c-0.4,0.6-0.9,1-1.6,1.3v0c1,0.2,1.7,0.7,2.2,1.4c0.5,0.7,0.7,1.5,0.7,2.5c0,0.8-0.1,1.5-0.4,2.1
				c-0.3,0.6-0.7,1.1-1.2,1.5s-1.1,0.7-1.7,0.9c-0.7,0.2-1.4,0.3-2.1,0.3c-0.8,0-1.5-0.1-2.2-0.3s-1.2-0.6-1.7-1
				c-0.5-0.4-0.8-1-1.1-1.6c-0.2-0.6-0.4-1.4-0.3-2.2h1.9c0,1,0.3,1.9,0.9,2.5c0.6,0.6,1.4,1,2.5,1c0.5,0,0.9-0.1,1.3-0.2
				c0.4-0.1,0.8-0.3,1.1-0.6c0.3-0.3,0.6-0.6,0.7-1c0.2-0.4,0.3-0.8,0.3-1.3c0-0.5-0.1-0.9-0.3-1.3c-0.2-0.4-0.4-0.7-0.7-1
				c-0.3-0.3-0.7-0.5-1.1-0.6s-0.9-0.2-1.3-0.2c-0.4,0-0.8,0-1.1,0.1v-1.6C22.1,124.2,22.2,124.2,22.3,124.2z"/>
			<path fill="#FF7070" d="M38.1,119.7c-0.5-0.4-1.1-0.6-1.8-0.6c-0.8,0-1.5,0.2-1.9,0.6c-0.5,0.4-0.9,0.9-1.2,1.5
				c-0.3,0.6-0.5,1.3-0.6,2s-0.2,1.4-0.2,2l0,0c0.4-0.7,1-1.3,1.7-1.6c0.7-0.3,1.4-0.5,2.3-0.5c0.8,0,1.4,0.1,2,0.4
				c0.6,0.3,1.1,0.6,1.5,1.1c0.4,0.5,0.7,1,1,1.6c0.2,0.6,0.3,1.3,0.3,2c0,0.6-0.1,1.2-0.3,1.8c-0.2,0.6-0.5,1.2-0.9,1.7
				c-0.4,0.5-1,0.9-1.6,1.3c-0.7,0.3-1.5,0.5-2.5,0.5c-1.2,0-2.1-0.2-2.8-0.7c-0.7-0.5-1.3-1.1-1.7-1.8c-0.4-0.7-0.6-1.6-0.8-2.5
				c-0.1-0.9-0.2-1.8-0.2-2.6c0-1.1,0.1-2.1,0.3-3.2c0.2-1,0.5-1.9,1-2.7c0.4-0.8,1-1.4,1.8-1.9c0.7-0.5,1.7-0.7,2.8-0.7
				c1.3,0,2.4,0.3,3.1,1c0.8,0.7,1.2,1.7,1.3,3h-1.9C38.8,120.7,38.5,120.1,38.1,119.7z M34.6,125c-0.4,0.2-0.7,0.4-1,0.8
				c-0.3,0.3-0.5,0.7-0.6,1.1c-0.1,0.4-0.2,0.9-0.2,1.4s0.1,1,0.2,1.4s0.4,0.8,0.6,1.1c0.3,0.3,0.6,0.6,1,0.7s0.9,0.3,1.4,0.3
				c0.5,0,1-0.1,1.4-0.3s0.7-0.4,1-0.8s0.5-0.7,0.6-1.1s0.2-0.9,0.2-1.3c0-0.5-0.1-1-0.2-1.4c-0.1-0.4-0.3-0.8-0.6-1.1
				c-0.3-0.3-0.6-0.6-1-0.8c-0.4-0.2-0.9-0.3-1.4-0.3C35.5,124.7,35,124.8,34.6,125z"/>
			<path fill="#FF7070" d="M32.5,161.8v2.2h-2.9v5h-2.4v-5H18v-2.4l9.6-13.7h2v14H32.5z M27.3,151.5L27.3,151.5l-7.1,10.3h7.1V151.5
				z"/>
			<path fill="#FF7070" d="M36.2,151c0.3-0.7,0.8-1.2,1.4-1.7c0.6-0.5,1.2-0.8,2-1s1.5-0.4,2.3-0.4c1.2,0,2.1,0.2,3,0.5
				c0.8,0.3,1.5,0.7,2,1.2c0.5,0.5,0.9,1.1,1.1,1.7c0.2,0.6,0.4,1.3,0.4,2c0,1-0.3,1.8-0.8,2.6c-0.5,0.8-1.2,1.4-2.1,1.8
				c1.3,0.4,2.2,1,2.8,2c0.6,0.9,0.9,2,0.9,3.3c0,1-0.2,1.9-0.6,2.7c-0.4,0.8-0.9,1.5-1.5,2c-0.6,0.5-1.4,1-2.2,1.2
				c-0.9,0.3-1.8,0.4-2.7,0.4c-1,0-2-0.1-2.8-0.4c-0.9-0.3-1.6-0.7-2.3-1.2c-0.6-0.5-1.2-1.2-1.5-2c-0.4-0.8-0.6-1.7-0.6-2.8
				c0-1.3,0.3-2.3,1-3.3c0.6-0.9,1.5-1.6,2.7-2c-0.9-0.4-1.6-0.9-2.1-1.7c-0.5-0.8-0.8-1.7-0.8-2.6C35.7,152.4,35.9,151.6,36.2,151z
				 M38.9,166c0.8,0.7,1.9,1.1,3.2,1.1c0.6,0,1.2-0.1,1.7-0.3c0.5-0.2,1-0.5,1.4-0.9c0.4-0.4,0.7-0.8,0.9-1.3c0.2-0.5,0.3-1,0.3-1.6
				c0-0.6-0.1-1.1-0.3-1.6c-0.2-0.5-0.5-0.9-0.9-1.3c-0.4-0.4-0.9-0.6-1.4-0.8c-0.5-0.2-1.1-0.3-1.7-0.3c-0.6,0-1.2,0.1-1.7,0.3
				c-0.5,0.2-1,0.5-1.4,0.8c-0.4,0.4-0.7,0.8-1,1.3c-0.2,0.5-0.3,1.1-0.3,1.7C37.6,164.3,38.1,165.3,38.9,166z M38.7,154.9
				c0.2,0.4,0.5,0.8,0.8,1.1c0.3,0.3,0.7,0.5,1.2,0.6c0.5,0.1,0.9,0.2,1.5,0.2c1,0,1.8-0.3,2.5-0.9c0.7-0.6,1-1.4,1-2.5
				s-0.3-1.9-1-2.4s-1.5-0.8-2.5-0.8c-0.5,0-1,0.1-1.4,0.2c-0.5,0.1-0.9,0.3-1.2,0.6c-0.3,0.3-0.6,0.6-0.8,1
				c-0.2,0.4-0.3,0.9-0.3,1.4C38.4,153.9,38.5,154.4,38.7,154.9z"/>
			<path fill="#FF7070" d="M31.2,191.2c-0.8-0.7-1.8-1.1-3.1-1.1c-1.3,0-2.4,0.3-3.2,1c-0.8,0.7-1.5,1.5-1.9,2.5
				c-0.5,1-0.8,2.1-1,3.3s-0.3,2.3-0.3,3.3l0.1,0.1c0.7-1.2,1.7-2.1,2.8-2.6c1.1-0.5,2.4-0.8,3.8-0.8c1.3,0,2.4,0.2,3.4,0.7
				c1,0.4,1.9,1,2.5,1.8c0.7,0.8,1.2,1.7,1.6,2.7c0.4,1,0.6,2.2,0.6,3.4c0,1-0.1,2-0.4,3c-0.3,1-0.8,2-1.5,2.9
				c-0.7,0.9-1.6,1.6-2.7,2.1c-1.1,0.6-2.5,0.8-4.2,0.8c-2,0-3.5-0.4-4.7-1.2c-1.2-0.8-2.1-1.8-2.8-3.1c-0.6-1.2-1.1-2.6-1.3-4.1
				c-0.2-1.5-0.3-2.9-0.3-4.3c0-1.8,0.2-3.6,0.5-5.3c0.3-1.7,0.8-3.2,1.6-4.5c0.7-1.3,1.7-2.4,3-3.2s2.8-1.2,4.7-1.2
				c2.2,0,3.9,0.6,5.2,1.7s2,2.8,2.2,5h-3.2C32.5,192.9,32,191.9,31.2,191.2z M25.5,200c-0.7,0.3-1.2,0.7-1.7,1.3
				c-0.5,0.5-0.8,1.2-1.1,1.9c-0.2,0.7-0.4,1.5-0.4,2.3c0,0.8,0.1,1.6,0.4,2.3c0.2,0.7,0.6,1.3,1.1,1.9c0.5,0.5,1,0.9,1.7,1.2
				c0.7,0.3,1.5,0.5,2.3,0.5s1.6-0.2,2.3-0.5c0.7-0.3,1.2-0.7,1.7-1.3c0.4-0.5,0.8-1.2,1-1.9c0.2-0.7,0.4-1.4,0.4-2.2
				c0-0.8-0.1-1.6-0.3-2.3c-0.2-0.7-0.5-1.4-1-1.9c-0.4-0.5-1-1-1.7-1.3c-0.7-0.3-1.5-0.5-2.3-0.5S26.2,199.7,25.5,200z"/>
			<path fill="#FF7070" d="M39.5,197.8c0-1,0.2-2.1,0.4-3.1c0.2-1,0.5-1.9,0.9-2.8s0.9-1.7,1.5-2.3c0.6-0.7,1.5-1.2,2.4-1.6
				c1-0.4,2.2-0.6,3.5-0.6c1.4,0,2.5,0.2,3.5,0.6c1,0.4,1.8,0.9,2.4,1.6c0.6,0.7,1.2,1.5,1.5,2.3s0.7,1.8,0.9,2.8
				c0.2,1,0.3,2,0.4,3.1c0,1,0.1,2,0.1,3c0,1,0,2-0.1,3s-0.2,2.1-0.4,3.1c-0.2,1-0.5,1.9-0.9,2.8s-0.9,1.7-1.5,2.3
				c-0.6,0.7-1.5,1.2-2.4,1.6s-2.1,0.6-3.5,0.6c-1.4,0-2.5-0.2-3.5-0.6c-1-0.4-1.8-0.9-2.4-1.6c-0.6-0.7-1.2-1.4-1.5-2.3
				s-0.7-1.8-0.9-2.8c-0.2-1-0.3-2-0.4-3.1s-0.1-2-0.1-3C39.5,199.8,39.5,198.8,39.5,197.8z M42.9,204.1c0.1,1.2,0.3,2.4,0.6,3.5
				c0.3,1.1,0.9,2,1.6,2.7c0.7,0.7,1.8,1.1,3.1,1.1s2.4-0.4,3.1-1.1c0.7-0.7,1.3-1.7,1.6-2.7c0.3-1.1,0.5-2.2,0.6-3.5
				c0.1-1.2,0.1-2.3,0.1-3.3c0-0.6,0-1.4,0-2.1c0-0.8-0.1-1.6-0.2-2.3c-0.1-0.8-0.3-1.5-0.5-2.3c-0.2-0.7-0.5-1.4-0.9-2
				c-0.4-0.6-0.9-1-1.5-1.4c-0.6-0.3-1.4-0.5-2.3-0.5s-1.7,0.2-2.3,0.5c-0.6,0.3-1.1,0.8-1.5,1.4c-0.4,0.6-0.7,1.2-0.9,2
				c-0.2,0.7-0.4,1.5-0.5,2.3c-0.1,0.8-0.2,1.6-0.2,2.3c0,0.8,0,1.5,0,2.1C42.8,201.7,42.9,202.8,42.9,204.1z"/>
		</g>
		<g>
			<rect x="17.2" y="87.9" fill="#FF7070" width="65.5" height="0.5"/>
			<rect x="17.2" y="89.8" fill="#FF7070" width="65.5" height="0.5"/>
		</g>
		<g>
			<rect x="17.2" y="69.1" fill="#FF7070" width="65.5" height="0.5"/>
			<rect x="17.2" y="70.9" fill="#FF7070" width="65.5" height="0.5"/>
		</g>
		<g>
			<rect x="17.2" y="54.4" fill="#FF7070" width="65.5" height="0.5"/>
			<rect x="17.2" y="56.3" fill="#FF7070" width="65.5" height="0.5"/>
		</g>
		<g>
			<rect x="17.2" y="43.4" fill="#FF7070" width="65.5" height="0.5"/>
			<rect x="17.2" y="45.2" fill="#FF7070" width="65.5" height="0.5"/>
		</g>
		<g>
			<rect x="17.2" y="34" fill="#FF7070" width="65.5" height="0.5"/>
			<rect x="17.2" y="35.8" fill="#FF7070" width="65.5" height="0.5"/>
		</g>
		<g>
			<rect x="17.2" y="26.3" fill="#FF7070" width="65.5" height="0.5"/>
			<rect x="17.2" y="28.1" fill="#FF7070" width="65.5" height="0.5"/>
		</g>
		<g>
			<rect x="17.2" y="19.4" fill="#FF7070" width="65.5" height="0.5"/>
			<rect x="17.2" y="21.2" fill="#FF7070" width="65.5" height="0.5"/>
		</g>
		<g>
			<rect x="17.2" y="13.3" fill="#FF7070" width="65.5" height="0.5"/>
			<rect x="17.2" y="15.1" fill="#FF7070" width="65.5" height="0.5"/>
		</g>
		<g>
			<rect x="17.2" y="9.8" fill="#FF7070" width="65.5" height="0.5"/>
		</g>
		<g>
			<rect x="17.2" y="111.3" fill="#FF7070" width="65.5" height="0.5"/>
			<rect x="17.2" y="113.2" fill="#FF7070" width="65.5" height="0.5"/>
		</g>
		<g>
			<rect x="17.2" y="140.8" fill="#FF7070" width="65.5" height="0.5"/>
			<rect x="17.2" y="142.6" fill="#FF7070" width="65.5" height="0.5"/>
		</g>
		<g>
			<rect x="17.2" y="179.9" fill="#FF7070" width="65.5" height="0.5"/>
			<rect x="17.2" y="181.7" fill="#FF7070" width="65.5" height="0.5"/>
		</g>
		<g>
			<rect x="17.2" y="223.5" fill="#FF7070" width="65.5" height="0.5"/>
		</g>
	</g>
	<g>
		<path fill="none" d="M249.9,146.3c-1.1-1.5-2.4-2.6-4.1-3.5s-3.7-1.3-6.1-1.3c-2.3,0-4.3,0.5-5.9,1.4c-1.6,0.9-2.9,2.1-3.9,3.6
			c-1,1.5-1.7,3.2-2.1,5.2c-0.4,1.9-0.6,3.9-0.6,6c0,1.9,0.3,3.8,0.8,5.7c0.5,1.9,1.3,3.5,2.3,5c1.1,1.5,2.4,2.6,4.1,3.5
			c1.6,0.9,3.6,1.3,5.8,1.3c2.3,0,4.3-0.5,5.9-1.4c1.6-0.9,2.9-2.1,4-3.6c1-1.5,1.8-3.2,2.2-5.1c0.5-1.9,0.7-3.8,0.7-5.8
			c0-2.1-0.2-4-0.7-6C251.7,149.5,251,147.8,249.9,146.3z"/>
		<path fill="none" d="M203,145.6c-1.2-1.3-2.6-2.4-4.2-3.1c-1.6-0.7-3.3-1.1-5.1-1.1c-1.8,0-3.5,0.4-5.1,1.1
			c-1.6,0.7-3,1.7-4.2,3.1s-2.1,3-2.8,5c-0.7,2-1,4.2-1,6.8c0,2.5,0.3,4.8,1,6.8c0.7,2,1.6,3.6,2.8,4.9c1.2,1.3,2.6,2.3,4.2,3
			c1.6,0.7,3.3,1.1,5.1,1.1c1.8,0,3.5-0.4,5.1-1.1c1.6-0.7,3-1.7,4.2-3c1.2-1.3,2.1-3,2.8-4.9c0.7-2,1-4.2,1-6.8
			c0-2.5-0.3-4.8-1-6.8C205.1,148.6,204.2,147,203,145.6z"/>
		<path fill="none" d="M292.6,177.3c-2.3,1.2-4.9,1.8-8,1.8c-2.8,0-5.1-0.4-6.9-1.1c-1.8-0.7-3.3-1.8-4.5-3.1
			c-1.1-1.3-1.9-3-2.4-4.8s-0.7-3.9-0.7-6.2v-27.5h6.9v28.3c0,2.6,0.8,4.6,2.3,6.2c1.5,1.5,3.6,2.3,6.2,2.3c2.1,0,3.9-0.3,5.5-1
			c1.5-0.6,2.8-1.6,3.8-2.8c0.4-0.5,0.8-1,1.1-1.5V97.8H94.5v137.8H296v-60.9C295,175.8,293.9,176.7,292.6,177.3z M164,178.3h-7.3
			v-48.1h-0.2l-18.1,48.1h-6.6l-18.1-48.1h-0.2v48.1h-7.3v-57.8H117l18.2,48.6l18.3-48.6H164V178.3z M212.8,165.9
			c-0.9,2.6-2.2,5-3.9,6.9c-1.7,2-3.8,3.5-6.4,4.6s-5.4,1.7-8.8,1.7c-3.3,0-6.2-0.6-8.7-1.7c-2.5-1.1-4.7-2.6-6.4-4.6
			c-1.7-2-3-4.3-3.9-6.9s-1.3-5.5-1.3-8.6c0-3.1,0.4-6,1.3-8.6s2.2-5,3.9-7c1.7-2,3.9-3.5,6.4-4.7c2.5-1.1,5.5-1.7,8.7-1.7
			c3.3,0,6.3,0.6,8.8,1.7c2.5,1.1,4.6,2.7,6.4,4.7c1.7,2,3,4.3,3.9,7s1.3,5.5,1.3,8.6C214.1,160.4,213.6,163.3,212.8,165.9z
			 M259.6,178.3h-6.9v-5.7h-0.2c-1.1,2.3-2.9,4-5.3,5c-2.4,1-5.1,1.5-8,1.5c-3.2,0-6.1-0.6-8.5-1.8c-2.4-1.2-4.4-2.8-6-4.8
			c-1.6-2-2.8-4.3-3.6-7c-0.8-2.6-1.2-5.5-1.2-8.4s0.4-5.8,1.2-8.4c0.8-2.6,2-5,3.6-6.9c1.6-2,3.6-3.5,6-4.7
			c2.4-1.2,5.2-1.7,8.4-1.7c1.1,0,2.2,0.1,3.5,0.3c1.2,0.2,2.5,0.6,3.7,1.1c1.2,0.5,2.4,1.2,3.5,2c1.1,0.8,2,1.9,2.8,3.1h0.2v-21.5
			h6.9V178.3z"/>
		<polygon fill="#FF7070" points="135.2,169 117,120.4 106.4,120.4 106.4,178.3 113.7,178.3 113.7,130.1 113.9,130.1 131.9,178.3 
			138.5,178.3 156.6,130.1 156.7,130.1 156.7,178.3 164,178.3 164,120.4 153.5,120.4 		"/>
		<path fill="#FF7070" d="M208.9,141.8c-1.7-2-3.8-3.5-6.4-4.7c-2.5-1.1-5.4-1.7-8.8-1.7c-3.3,0-6.2,0.6-8.7,1.7
			c-2.5,1.1-4.7,2.7-6.4,4.7c-1.7,2-3,4.3-3.9,7s-1.3,5.5-1.3,8.6c0,3.1,0.4,5.9,1.3,8.6s2.2,5,3.9,6.9c1.7,2,3.9,3.5,6.4,4.6
			c2.5,1.1,5.5,1.7,8.7,1.7c3.3,0,6.3-0.6,8.8-1.7s4.6-2.6,6.4-4.6c1.7-2,3-4.3,3.9-6.9s1.3-5.5,1.3-8.6c0-3.1-0.4-6-1.3-8.6
			S210.6,143.7,208.9,141.8z M205.8,164.1c-0.7,2-1.6,3.6-2.8,4.9c-1.2,1.3-2.6,2.3-4.2,3c-1.6,0.7-3.3,1.1-5.1,1.1
			c-1.8,0-3.5-0.4-5.1-1.1c-1.6-0.7-3-1.7-4.2-3c-1.2-1.3-2.1-3-2.8-4.9c-0.7-2-1-4.2-1-6.8c0-2.5,0.3-4.8,1-6.8
			c0.7-2,1.6-3.6,2.8-5s2.6-2.4,4.2-3.1c1.6-0.7,3.3-1.1,5.1-1.1c1.8,0,3.5,0.4,5.1,1.1c1.6,0.7,3,1.7,4.2,3.1s2.1,3,2.8,5
			c0.7,2,1,4.2,1,6.8C206.8,159.9,206.4,162.2,205.8,164.1z"/>
		<path fill="#FF7070" d="M252.7,142h-0.2c-0.8-1.2-1.7-2.3-2.8-3.1c-1.1-0.8-2.3-1.5-3.5-2c-1.2-0.5-2.5-0.9-3.7-1.1
			c-1.2-0.2-2.4-0.3-3.5-0.3c-3.2,0-6,0.6-8.4,1.7c-2.4,1.2-4.4,2.7-6,4.7c-1.6,2-2.8,4.3-3.6,6.9c-0.8,2.6-1.2,5.5-1.2,8.4
			s0.4,5.8,1.2,8.4c0.8,2.6,2,5,3.6,7c1.6,2,3.6,3.6,6,4.8c2.4,1.2,5.2,1.8,8.5,1.8c2.9,0,5.6-0.5,8-1.5c2.4-1,4.2-2.7,5.3-5h0.2
			v5.7h6.9v-57.8h-6.9V142z M252.3,163.1c-0.5,1.9-1.2,3.6-2.2,5.1c-1,1.5-2.3,2.7-4,3.6c-1.6,0.9-3.6,1.4-5.9,1.4
			c-2.2,0-4.1-0.4-5.8-1.3c-1.6-0.9-3-2-4.1-3.5c-1.1-1.5-1.8-3.1-2.3-5c-0.5-1.9-0.8-3.8-0.8-5.7c0-2.1,0.2-4,0.6-6
			c0.4-1.9,1.1-3.7,2.1-5.2c1-1.5,2.3-2.7,3.9-3.6c1.6-0.9,3.6-1.4,5.9-1.4c2.4,0,4.4,0.4,6.1,1.3s3,2.1,4.1,3.5
			c1.1,1.5,1.8,3.1,2.3,5.1c0.5,1.9,0.7,3.9,0.7,6C253,159.3,252.7,161.2,252.3,163.1z"/>
		<path fill="#FF7070" d="M291.1,172.2c-1.5,0.6-3.4,1-5.5,1c-2.6,0-4.7-0.8-6.2-2.3c-1.5-1.5-2.3-3.6-2.3-6.2v-28.3h-6.9v27.5
			c0,2.3,0.2,4.3,0.7,6.2s1.3,3.5,2.4,4.8c1.1,1.4,2.6,2.4,4.5,3.1c1.8,0.7,4.1,1.1,6.9,1.1c3.1,0,5.8-0.6,8-1.8
			c1.2-0.7,2.4-1.5,3.4-2.6v-6.8c-0.3,0.5-0.7,1-1.1,1.5C293.9,170.6,292.6,171.5,291.1,172.2z"/>
	</g>
</g>
</svg>
