<?xml version="1.0" encoding="utf-8"?>
<!-- Generator: Adobe Illustrator 16.0.4, SVG Export Plug-In . SVG Version: 6.00 Build 0)  -->
<!DOCTYPE svg PUBLIC "-//W3C//DTD SVG 1.1//EN" "http://www.w3.org/Graphics/SVG/1.1/DTD/svg11.dtd">
<svg version="1.1" id="Layer_1" xmlns="http://www.w3.org/2000/svg" xmlns:xlink="http://www.w3.org/1999/xlink" x="0px" y="0px"
	 width="296px" height="236px" viewBox="0 0 296 236" enable-background="new 0 0 296 236" xml:space="preserve">
<g>
	<defs>
		<rect id="SVGID_1_" width="296" height="236"/>
	</defs>
	<clipPath id="SVGID_2_">
		<use xlink:href="#SVGID_1_"  overflow="visible"/>
	</clipPath>
	<rect clip-path="url(#SVGID_2_)" fill="#FFFF00" width="296" height="236"/>
	<g opacity="0.25" clip-path="url(#SVGID_2_)">
		<path d="M255.3,0h-0.8v82.3h-10.6V0h-0.8v82.3h-89V0h-0.8v82.3h-10.6V0h-0.8v82.3h-89V0h-0.8v82.3H41.5V0h-0.8v82.3H0v0.8h40.7
			v10.6H0v0.8h40.7v89H0v0.8h40.7v10.6H0v0.8h40.7V236h0.8v-40.3h10.6V236h0.8v-40.3h89V236h0.8v-40.3h10.6V236h0.8v-40.3h89V236
			h0.8v-40.3h10.6V236h0.8v-40.3H296v-0.8h-40.7v-10.6H296v-0.8h-40.7v-89H296v-0.8h-40.7V83.1H296v-0.8h-40.7V0z M52.1,194.9H41.5
			v-10.6h10.6V194.9z M52.1,183.5H41.5v-89h10.6V183.5z M52.1,93.7H41.5V83.1h10.6V93.7z M141.9,194.9h-89v-10.6h89V194.9z
			 M141.9,183.5h-89v-89h89V183.5z M141.9,93.7h-89V83.1h89V93.7z M153.3,194.9h-10.6v-10.6h10.6V194.9z M153.3,183.5h-10.6v-89
			h10.6V183.5z M153.3,93.7h-10.6V83.1h10.6V93.7z M243.1,194.9h-89v-10.6h89V194.9z M243.1,183.5h-89v-89h89V183.5z M243.1,93.7
			h-89V83.1h89V93.7z M254.5,194.9h-10.6v-10.6h10.6V194.9z M254.5,183.5h-10.6v-89h10.6V183.5z M254.5,93.7h-10.6V83.1h10.6V93.7z"
			/>
	</g>
	<g id="Heading" clip-path="url(#SVGID_2_)">
		<g opacity="0.8">
			<path fill="#FF7070" d="M2.8,195.6v16.3H0.6v-16.3H2.8z"/>
			<path fill="#FF7070" d="M7.9,200.1v1.9h0c0.8-1.4,2.1-2.1,3.8-2.1c0.8,0,1.4,0.1,1.9,0.3c0.5,0.2,0.9,0.5,1.3,0.9
				c0.3,0.4,0.5,0.8,0.7,1.4s0.2,1.1,0.2,1.7v7.7h-1.9v-8c0-0.7-0.2-1.3-0.6-1.7c-0.4-0.4-1-0.6-1.8-0.6c-0.6,0-1.1,0.1-1.5,0.3
				c-0.4,0.2-0.8,0.4-1.1,0.8s-0.5,0.7-0.6,1.2c-0.1,0.4-0.2,0.9-0.2,1.5v6.6H6.1v-11.8H7.9z"/>
			<path fill="#FF7070" d="M34.7,211.9l-2.4-9.4h0l-2.4,9.4h-2.1L24,200.1h2.1l2.7,9.6h0l2.4-9.6h2.1l2.5,9.6h0l2.6-9.6h2l-3.8,11.8
				H34.7z"/>
			<path fill="#FF7070" d="M50.7,211.1c-0.9,0.7-2,1-3.3,1c-0.9,0-1.8-0.2-2.4-0.5s-1.3-0.7-1.7-1.3c-0.5-0.5-0.8-1.2-1.1-2
				c-0.2-0.8-0.4-1.6-0.4-2.5c0-0.9,0.1-1.7,0.4-2.5s0.7-1.4,1.1-1.9s1.1-1,1.8-1.3c0.7-0.3,1.4-0.5,2.2-0.5c1,0,1.9,0.2,2.6,0.6
				c0.7,0.4,1.2,1,1.7,1.7c0.4,0.7,0.7,1.4,0.9,2.2c0.2,0.8,0.2,1.5,0.2,2.3h-8.8c0,0.5,0,1,0.2,1.5c0.1,0.5,0.4,0.9,0.7,1.2
				c0.3,0.4,0.7,0.6,1.2,0.9c0.5,0.2,1,0.3,1.7,0.3c0.8,0,1.5-0.2,2-0.6c0.5-0.4,0.9-1,1-1.7h1.9C52.1,209.4,51.6,210.4,50.7,211.1z
				 M50.2,203.5c-0.2-0.4-0.4-0.8-0.7-1.1c-0.3-0.3-0.6-0.5-1-0.7s-0.8-0.3-1.3-0.3c-0.5,0-1,0.1-1.4,0.3s-0.7,0.4-1,0.7
				s-0.5,0.7-0.7,1.1c-0.2,0.4-0.3,0.8-0.3,1.3h6.8C50.5,204.4,50.4,204,50.2,203.5z"/>
			<path fill="#FF7070" d="M56.6,195.6v6.1h0c0.3-0.7,0.8-1.1,1.5-1.4c0.7-0.3,1.4-0.4,2.3-0.4c0.9,0,1.7,0.2,2.4,0.5
				s1.2,0.8,1.7,1.4c0.4,0.6,0.8,1.2,1,2c0.2,0.7,0.3,1.5,0.3,2.4s-0.1,1.6-0.3,2.4c-0.2,0.7-0.6,1.4-1,1.9c-0.4,0.6-1,1-1.7,1.3
				c-0.7,0.3-1.5,0.5-2.4,0.5c-0.3,0-0.6,0-1-0.1s-0.7-0.2-1.1-0.3s-0.7-0.3-1-0.6c-0.3-0.2-0.6-0.5-0.8-0.9h0v1.6h-1.9v-16.3H56.6z
				 M63.5,204.3c-0.1-0.5-0.4-1-0.7-1.4c-0.3-0.4-0.7-0.7-1.1-1s-1-0.4-1.6-0.4c-0.7,0-1.2,0.1-1.7,0.4c-0.5,0.3-0.8,0.6-1.1,1
				c-0.3,0.4-0.5,0.9-0.6,1.4s-0.2,1.1-0.2,1.6c0,0.6,0.1,1.1,0.2,1.7s0.4,1,0.6,1.4s0.7,0.7,1.2,1c0.5,0.3,1,0.4,1.7,0.4
				s1.2-0.1,1.7-0.4s0.8-0.6,1.1-1c0.3-0.4,0.5-0.9,0.6-1.5c0.1-0.5,0.2-1.1,0.2-1.7C63.7,205.3,63.7,204.8,63.5,204.3z"/>
			<path fill="#FF7070" d="M83,211.9v-1.6h0c-0.3,0.7-0.8,1.1-1.5,1.4c-0.7,0.3-1.4,0.4-2.3,0.4c-0.9,0-1.7-0.2-2.4-0.5
				c-0.7-0.3-1.2-0.8-1.7-1.3c-0.4-0.6-0.8-1.2-1-2s-0.3-1.5-0.3-2.4s0.1-1.6,0.3-2.4c0.2-0.7,0.6-1.4,1-1.9c0.4-0.6,1-1,1.7-1.3
				c0.7-0.3,1.5-0.5,2.4-0.5c0.3,0,0.6,0,1,0.1c0.3,0.1,0.7,0.2,1,0.3c0.3,0.1,0.7,0.3,1,0.6s0.6,0.5,0.8,0.9h0v-6.1h1.9v16.3H83z
				 M76,207.7c0.1,0.5,0.4,1,0.7,1.4c0.3,0.4,0.7,0.7,1.1,1c0.5,0.2,1,0.4,1.6,0.4c0.7,0,1.2-0.1,1.7-0.4c0.5-0.3,0.8-0.6,1.1-1
				c0.3-0.4,0.5-0.9,0.6-1.4s0.2-1.1,0.2-1.6c0-0.6-0.1-1.1-0.2-1.7s-0.4-1-0.6-1.4c-0.3-0.4-0.7-0.7-1.2-1c-0.5-0.2-1-0.4-1.7-0.4
				c-0.7,0-1.2,0.1-1.7,0.4c-0.5,0.3-0.8,0.6-1.1,1c-0.3,0.4-0.5,0.9-0.6,1.5c-0.1,0.5-0.2,1.1-0.2,1.7
				C75.8,206.6,75.9,207.2,76,207.7z"/>
			<path fill="#FF7070" d="M96.2,211.1c-0.9,0.7-2,1-3.3,1c-0.9,0-1.8-0.2-2.4-0.5s-1.3-0.7-1.7-1.3c-0.5-0.5-0.8-1.2-1.1-2
				c-0.2-0.8-0.4-1.6-0.4-2.5c0-0.9,0.1-1.7,0.4-2.5s0.7-1.4,1.1-1.9s1.1-1,1.8-1.3c0.7-0.3,1.4-0.5,2.2-0.5c1,0,1.9,0.2,2.6,0.6
				c0.7,0.4,1.2,1,1.7,1.7c0.4,0.7,0.7,1.4,0.9,2.2c0.2,0.8,0.2,1.5,0.2,2.3h-8.8c0,0.5,0,1,0.2,1.5c0.1,0.5,0.4,0.9,0.7,1.2
				c0.3,0.4,0.7,0.6,1.2,0.9c0.5,0.2,1,0.3,1.7,0.3c0.8,0,1.5-0.2,2-0.6c0.5-0.4,0.9-1,1-1.7h1.9C97.7,209.4,97.1,210.4,96.2,211.1z
				 M95.8,203.5c-0.2-0.4-0.4-0.8-0.7-1.1c-0.3-0.3-0.6-0.5-1-0.7s-0.8-0.3-1.3-0.3c-0.5,0-1,0.1-1.4,0.3s-0.7,0.4-1,0.7
				s-0.5,0.7-0.7,1.1c-0.2,0.4-0.3,0.8-0.3,1.3h6.8C96,204.4,95.9,204,95.8,203.5z"/>
			<path fill="#FF7070" d="M101.6,209.2c0.2,0.3,0.4,0.5,0.7,0.7s0.6,0.3,1,0.4c0.4,0.1,0.8,0.1,1.2,0.1c0.3,0,0.6,0,1-0.1
				c0.3,0,0.6-0.1,0.9-0.2c0.3-0.1,0.5-0.3,0.7-0.5c0.2-0.2,0.3-0.5,0.3-0.9c0-0.5-0.2-0.9-0.6-1.1c-0.4-0.3-0.9-0.5-1.4-0.6
				s-1.2-0.3-1.9-0.4c-0.7-0.1-1.3-0.3-1.9-0.5s-1-0.6-1.4-1s-0.6-1-0.6-1.8c0-0.6,0.1-1.1,0.4-1.5c0.3-0.4,0.6-0.8,1-1
				c0.4-0.3,0.9-0.5,1.4-0.6s1-0.2,1.6-0.2c0.7,0,1.3,0.1,1.8,0.2c0.6,0.1,1.1,0.3,1.5,0.6c0.4,0.3,0.8,0.7,1,1.1
				c0.3,0.5,0.4,1.1,0.5,1.8h-1.9c0-0.4-0.1-0.7-0.3-0.9c-0.2-0.3-0.4-0.5-0.6-0.6c-0.3-0.2-0.5-0.3-0.9-0.3
				c-0.3-0.1-0.6-0.1-0.9-0.1c-0.3,0-0.6,0-0.9,0.1c-0.3,0-0.6,0.1-0.8,0.2c-0.2,0.1-0.4,0.3-0.6,0.5c-0.2,0.2-0.2,0.4-0.2,0.7
				c0,0.3,0.1,0.6,0.4,0.8c0.2,0.2,0.5,0.4,0.9,0.5c0.4,0.1,0.8,0.3,1.2,0.4s0.9,0.2,1.4,0.3c0.5,0.1,1,0.2,1.4,0.4
				c0.5,0.2,0.9,0.4,1.2,0.6c0.4,0.3,0.6,0.6,0.9,0.9c0.2,0.4,0.3,0.8,0.3,1.4c0,0.7-0.1,1.3-0.4,1.8s-0.7,0.9-1.2,1.1
				c-0.5,0.3-1,0.5-1.6,0.6c-0.6,0.1-1.2,0.2-1.8,0.2c-0.7,0-1.3-0.1-1.9-0.2s-1.1-0.4-1.6-0.7c-0.5-0.3-0.8-0.7-1.1-1.2
				s-0.4-1.1-0.5-1.9h1.9C101.3,208.6,101.4,208.9,101.6,209.2z"/>
			<path fill="#FF7070" d="M111.6,198v-2.4h1.9v2.4H111.6z M113.6,200.1v11.8h-1.9v-11.8H113.6z"/>
			<path fill="#FF7070" d="M125.4,215.2c-0.9,1-2.3,1.4-4.1,1.4c-0.5,0-1.1-0.1-1.7-0.2c-0.6-0.1-1.1-0.3-1.5-0.6s-0.8-0.6-1.1-1.1
				c-0.3-0.4-0.5-1-0.5-1.6h1.9c0,0.3,0.1,0.6,0.3,0.9c0.2,0.2,0.5,0.4,0.8,0.6c0.3,0.2,0.6,0.3,1,0.3c0.3,0.1,0.7,0.1,1,0.1
				c0.6,0,1.2-0.1,1.6-0.3c0.4-0.2,0.8-0.5,1.1-0.9c0.3-0.4,0.5-0.9,0.6-1.4c0.1-0.5,0.2-1.1,0.2-1.8v-0.8h0
				c-0.3,0.7-0.8,1.3-1.5,1.6c-0.7,0.3-1.4,0.5-2.2,0.5c-0.9,0-1.6-0.2-2.3-0.5c-0.7-0.3-1.2-0.7-1.6-1.3c-0.4-0.5-0.8-1.2-1-1.9
				c-0.2-0.7-0.3-1.5-0.3-2.3c0-0.7,0.1-1.4,0.3-2.2c0.2-0.7,0.5-1.4,0.9-2c0.4-0.6,1-1.1,1.7-1.5c0.7-0.4,1.6-0.6,2.6-0.6
				c0.7,0,1.4,0.2,2,0.5c0.6,0.3,1.1,0.8,1.5,1.5h0v-1.7h1.8v10.8C126.7,212.8,126.3,214.2,125.4,215.2z M122.9,209.9
				c0.4-0.3,0.8-0.6,1.1-1c0.3-0.4,0.5-0.9,0.6-1.5c0.1-0.5,0.2-1.1,0.2-1.6c0-0.5-0.1-1-0.2-1.5c-0.1-0.5-0.3-1-0.6-1.4
				s-0.6-0.7-1-1c-0.4-0.2-0.9-0.4-1.5-0.4c-0.6,0-1.2,0.1-1.6,0.4s-0.8,0.6-1.1,0.9c-0.3,0.4-0.5,0.8-0.6,1.4
				c-0.1,0.5-0.2,1.1-0.2,1.6c0,0.5,0.1,1.1,0.2,1.6s0.3,1,0.5,1.4c0.3,0.4,0.6,0.8,1,1c0.4,0.3,1,0.4,1.6,0.4
				S122.5,210.2,122.9,209.9z"/>
			<path fill="#FF7070" d="M131.5,200.1v1.9h0c0.8-1.4,2.1-2.1,3.8-2.1c0.8,0,1.4,0.1,1.9,0.3c0.5,0.2,0.9,0.5,1.3,0.9
				c0.3,0.4,0.5,0.8,0.7,1.4s0.2,1.1,0.2,1.7v7.7h-1.9v-8c0-0.7-0.2-1.3-0.6-1.7c-0.4-0.4-1-0.6-1.8-0.6c-0.6,0-1.1,0.1-1.5,0.3
				c-0.4,0.2-0.8,0.4-1.1,0.8s-0.5,0.7-0.6,1.2c-0.1,0.4-0.2,0.9-0.2,1.5v6.6h-1.9v-11.8H131.5z"/>
		</g>
		<g opacity="0.7">
			<path fill="none" d="M293.9,147.1c-1.4-0.2-2.7-0.6-3.8-1.3c-1.1-0.6-2-1.5-2.6-2.7s-0.9-2.7-0.9-4.6v-22.2h-6.3v-6.9h6.3V98.1
				h9.3V54.7H0v64.4c0.2-3.1,0.7-6,1.7-8.7c1.2-3.3,2.8-6.2,5-8.7s4.9-4.4,8-5.8c3.2-1.4,6.8-2.1,10.7-2.1c2.7,0,5.2,0.4,7.7,1.2
				c2.5,0.8,4.8,2,6.8,3.5c2,1.6,3.7,3.5,5,5.7c1.3,2.3,2.1,4.9,2.4,7.9H36.4c-0.7-2.9-2-5.1-3.9-6.5c-1.9-1.5-4.3-2.2-7.1-2.2
				c-2.6,0-4.8,0.5-6.5,1.5c-1.8,1-3.2,2.3-4.4,4c-1.1,1.7-1.9,3.6-2.4,5.7c-0.5,2.1-0.8,4.3-0.8,6.6c0,2.2,0.3,4.3,0.8,6.4
				c0.5,2.1,1.3,3.9,2.4,5.6c1.1,1.6,2.6,3,4.4,4c1.8,1,4,1.5,6.5,1.5c3.8,0,6.7-1,8.8-2.9c2.1-1.9,3.3-4.7,3.6-8.3H26.3v-8.5h21.8
				V147h-7.3l-1.2-5.9c-2,2.6-4.3,4.4-6.8,5.5c-2.5,1-5,1.6-7.5,1.6c-4,0-7.6-0.7-10.7-2.1c-3.2-1.4-5.9-3.3-8-5.7
				c-2.2-2.4-3.9-5.3-5-8.5c-0.9-2.7-1.5-5.5-1.7-8.5v46.3h296v-22.4C295.3,147.2,294.6,147.2,293.9,147.1z M80.5,118.4
				c-0.5-0.1-1.1-0.2-1.7-0.3c-0.7-0.1-1.3-0.1-2-0.1c-1.9,0-3.5,0.3-4.8,0.9c-1.3,0.6-2.4,1.5-3.2,2.6c-0.8,1.1-1.4,2.4-1.7,3.8
				c-0.3,1.5-0.5,3-0.5,4.7V147H56.3v-37.6h9.8v7h0.1c0.5-1.2,1.1-2.2,2-3.2c0.8-1,1.8-1.8,2.8-2.5c1.1-0.7,2.2-1.2,3.4-1.6
				c1.2-0.4,2.5-0.6,3.8-0.6c0.7,0,1.4,0.1,2.3,0.4V118.4z M95.2,147H84.9v-37.6h10.3V147z M95.2,103.6H84.9v-8.5h10.3V103.6z
				 M140,147h-9.8v-4.8H130c-1.2,2-2.8,3.5-4.8,4.4c-2,0.9-4.2,1.3-6.7,1.3c-2.8,0-5.3-0.5-7.4-1.6c-2.1-1.1-3.9-2.6-5.3-4.4
				c-1.4-1.9-2.4-4-3.1-6.4s-1.1-4.9-1.1-7.6c0-2.5,0.4-5,1.1-7.3c0.7-2.4,1.7-4.4,3.1-6.2c1.4-1.8,3.1-3.2,5.2-4.3
				c2.1-1.1,4.5-1.6,7.3-1.6c2.2,0,4.4,0.5,6.4,1.4c2,0.9,3.6,2.3,4.8,4.2h0.1V95.1H140V147z M199.5,141.2c-1,1.7-2.3,3-3.9,4
				c-1.6,1-3.4,1.7-5.5,2.1c-2.1,0.4-4.2,0.6-6.3,0.6c-2.2,0-4.3-0.2-6.4-0.7s-3.9-1.2-5.6-2.2c-1.6-1-3-2.4-4-4
				c-1-1.7-1.6-3.8-1.7-6.3h9.8c0,1.1,0.2,2.1,0.7,2.9c0.5,0.8,1.1,1.5,1.8,2c0.7,0.5,1.6,0.9,2.5,1.1c0.9,0.2,1.9,0.4,2.9,0.4
				c0.7,0,1.5-0.1,2.3-0.3c0.8-0.2,1.5-0.4,2.2-0.8c0.7-0.4,1.2-0.8,1.6-1.5c0.4-0.6,0.7-1.4,0.7-2.3c0-1.6-1-2.7-3.1-3.5
				c-2.1-0.8-4.9-1.6-8.6-2.3c-1.5-0.3-3-0.7-4.4-1.2c-1.4-0.5-2.7-1.1-3.8-1.8c-1.1-0.8-2-1.7-2.7-2.8c-0.7-1.1-1-2.5-1-4.2
				c0-2.4,0.5-4.4,1.4-6c0.9-1.6,2.2-2.8,3.7-3.7c1.6-0.9,3.3-1.5,5.2-1.9c1.9-0.4,3.9-0.5,6-0.5c2,0,4,0.2,5.9,0.6
				c1.9,0.4,3.6,1,5.1,2c1.5,0.9,2.8,2.1,3.7,3.7c1,1.5,1.6,3.5,1.8,5.8h-9.8c-0.1-2-0.9-3.3-2.3-4c-1.4-0.7-3-1.1-4.8-1.1
				c-0.6,0-1.2,0-1.9,0.1c-0.7,0.1-1.3,0.2-1.9,0.5c-0.6,0.2-1,0.6-1.4,1.1c-0.4,0.5-0.6,1.1-0.6,1.9c0,0.9,0.3,1.7,1,2.3
				c0.7,0.6,1.6,1.1,2.7,1.4c1.1,0.4,2.3,0.7,3.7,1c1.4,0.3,2.8,0.6,4.3,0.9c1.5,0.3,3,0.8,4.4,1.2c1.4,0.5,2.7,1.1,3.8,1.9
				c1.1,0.8,2,1.8,2.7,3c0.7,1.2,1,2.7,1,4.4C201,137.4,200.5,139.5,199.5,141.2z M225.6,151.7c-1.1,3.1-2.7,5.2-4.7,6.5
				c-2,1.3-4.8,2-8.3,2c-1.1,0-2.1,0-3.2-0.1c-1-0.1-2.1-0.2-3.2-0.3v-8.5c1,0.1,2,0.2,3,0.3c1,0.1,2,0.1,3.1,0.1
				c1.4-0.1,2.4-0.7,3-1.6c0.7-0.9,1-1.9,1-3.1c0-0.8-0.1-1.6-0.4-2.3l-13.2-35.3h11l8.5,25.7h0.1l8.2-25.7h10.7L225.6,151.7z
				 M276.3,141.2c-1,1.7-2.3,3-3.9,4c-1.6,1-3.4,1.7-5.5,2.1c-2.1,0.4-4.2,0.6-6.3,0.6c-2.2,0-4.3-0.2-6.4-0.7s-3.9-1.2-5.6-2.2
				c-1.6-1-3-2.4-4-4c-1-1.7-1.6-3.8-1.7-6.3h9.8c0,1.1,0.2,2.1,0.7,2.9c0.5,0.8,1.1,1.5,1.8,2c0.7,0.5,1.6,0.9,2.5,1.1
				c0.9,0.2,1.9,0.4,2.9,0.4c0.7,0,1.5-0.1,2.3-0.3c0.8-0.2,1.5-0.4,2.2-0.8c0.7-0.4,1.2-0.8,1.6-1.5c0.4-0.6,0.7-1.4,0.7-2.3
				c0-1.6-1-2.7-3.1-3.5c-2.1-0.8-4.9-1.6-8.6-2.3c-1.5-0.3-3-0.7-4.4-1.2c-1.4-0.5-2.7-1.1-3.8-1.8c-1.1-0.8-2-1.7-2.7-2.8
				c-0.7-1.1-1-2.5-1-4.2c0-2.4,0.5-4.4,1.4-6c0.9-1.6,2.2-2.8,3.7-3.7c1.6-0.9,3.3-1.5,5.2-1.9c1.9-0.4,3.9-0.5,6-0.5
				c2,0,4,0.2,5.9,0.6c1.9,0.4,3.6,1,5.1,2c1.5,0.9,2.8,2.1,3.7,3.7c1,1.5,1.6,3.5,1.8,5.8H267c-0.1-2-0.9-3.3-2.3-4
				c-1.4-0.7-3-1.1-4.8-1.1c-0.6,0-1.2,0-1.9,0.1c-0.7,0.1-1.3,0.2-1.9,0.5c-0.6,0.2-1,0.6-1.4,1.1c-0.4,0.5-0.6,1.1-0.6,1.9
				c0,0.9,0.3,1.7,1,2.3c0.7,0.6,1.6,1.1,2.7,1.4c1.1,0.4,2.3,0.7,3.7,1c1.4,0.3,2.8,0.6,4.3,0.9c1.5,0.3,3,0.8,4.4,1.2
				c1.4,0.5,2.7,1.1,3.8,1.9c1.1,0.8,2,1.8,2.7,3c0.7,1.2,1,2.7,1,4.4C277.8,137.4,277.3,139.5,276.3,141.2z"/>
			<path fill="none" d="M128.1,119.8c-0.7-1.1-1.6-2-2.7-2.7c-1.1-0.7-2.5-1-4.2-1c-1.7,0-3.1,0.3-4.3,1c-1.2,0.7-2.1,1.6-2.8,2.7
				c-0.7,1.1-1.2,2.4-1.5,3.8c-0.3,1.4-0.5,2.9-0.5,4.5c0,1.5,0.2,2.9,0.5,4.4c0.3,1.5,0.9,2.8,1.6,3.9c0.8,1.1,1.7,2.1,2.8,2.8
				c1.1,0.7,2.5,1.1,4.1,1.1c1.7,0,3.1-0.3,4.3-1c1.1-0.7,2-1.6,2.7-2.7c0.7-1.1,1.2-2.4,1.5-3.9c0.3-1.5,0.4-3,0.4-4.5
				c0-1.6-0.1-3-0.4-4.5C129.3,122.2,128.8,120.9,128.1,119.8z"/>
			<path fill="#FF7070" d="M6.7,140.4c2.2,2.4,4.9,4.3,8,5.7c3.2,1.4,6.8,2.1,10.7,2.1c2.5,0,5-0.5,7.5-1.6c2.5-1,4.7-2.9,6.8-5.5
				l1.2,5.9h7.3v-28.1H26.3v8.5h11.5c-0.3,3.6-1.5,6.4-3.6,8.3c-2.1,1.9-5,2.9-8.8,2.9c-2.6,0-4.8-0.5-6.5-1.5c-1.8-1-3.2-2.3-4.4-4
				c-1.1-1.6-1.9-3.5-2.4-5.6c-0.5-2.1-0.8-4.2-0.8-6.4c0-2.3,0.3-4.5,0.8-6.6c0.5-2.1,1.3-4,2.4-5.7c1.1-1.7,2.6-3,4.4-4
				c1.8-1,4-1.5,6.5-1.5c2.8,0,5.1,0.7,7.1,2.2c1.9,1.5,3.2,3.6,3.9,6.5h10.9c-0.3-3-1.1-5.6-2.4-7.9c-1.3-2.3-3-4.2-5-5.7
				c-2-1.6-4.3-2.7-6.8-3.5c-2.5-0.8-5.1-1.2-7.7-1.2c-4,0-7.6,0.7-10.7,2.1c-3.2,1.4-5.9,3.3-8,5.8s-3.9,5.4-5,8.7
				c-0.9,2.7-1.5,5.6-1.7,8.7v4.2c0.2,3,0.7,5.8,1.7,8.5C2.8,135.1,4.5,138,6.7,140.4z"/>
			<path fill="#FF7070" d="M74.5,109c-1.2,0.4-2.4,0.9-3.4,1.6c-1.1,0.7-2,1.6-2.8,2.5c-0.8,1-1.5,2.1-2,3.2h-0.1v-7h-9.8V147h10.3
				v-16.9c0-1.7,0.2-3.3,0.5-4.7c0.3-1.5,0.9-2.7,1.7-3.8c0.8-1.1,1.9-2,3.2-2.6c1.3-0.6,2.9-0.9,4.8-0.9c0.6,0,1.3,0,2,0.1
				c0.7,0.1,1.3,0.2,1.7,0.3v-9.6c-0.8-0.2-1.6-0.4-2.3-0.4C76.9,108.4,75.7,108.6,74.5,109z"/>
			<rect x="84.9" y="109.4" fill="#FF7070" width="10.3" height="37.6"/>
			<rect x="84.9" y="95.1" fill="#FF7070" width="10.3" height="8.5"/>
			<path fill="#FF7070" d="M129.7,114h-0.1c-1.2-1.8-2.8-3.2-4.8-4.2c-2-0.9-4.1-1.4-6.4-1.4c-2.8,0-5.2,0.5-7.3,1.6
				c-2.1,1.1-3.8,2.5-5.2,4.3c-1.4,1.8-2.4,3.9-3.1,6.2c-0.7,2.4-1.1,4.8-1.1,7.3c0,2.6,0.4,5.1,1.1,7.6s1.7,4.6,3.1,6.4
				c1.4,1.9,3.1,3.3,5.3,4.4c2.1,1.1,4.6,1.6,7.4,1.6c2.5,0,4.7-0.4,6.7-1.3c2-0.9,3.6-2.4,4.8-4.4h0.1v4.8h9.8V95.1h-10.3V114z
				 M129.6,132.6c-0.3,1.5-0.8,2.8-1.5,3.9c-0.7,1.1-1.6,2-2.7,2.7c-1.1,0.7-2.6,1-4.3,1c-1.6,0-3-0.4-4.1-1.1
				c-1.1-0.7-2.1-1.6-2.8-2.8c-0.8-1.1-1.3-2.4-1.6-3.9c-0.3-1.5-0.5-2.9-0.5-4.4c0-1.6,0.2-3,0.5-4.5c0.3-1.4,0.8-2.7,1.5-3.8
				c0.7-1.1,1.6-2,2.8-2.7c1.2-0.7,2.6-1,4.3-1c1.7,0,3.1,0.3,4.2,1c1.1,0.7,2,1.6,2.7,2.7c0.7,1.1,1.2,2.4,1.5,3.8
				c0.3,1.4,0.4,2.9,0.4,4.5C130,129.7,129.9,131.2,129.6,132.6z"/>
			<path fill="#FF7070" d="M197.3,127.6c-1.1-0.8-2.4-1.4-3.8-1.9c-1.4-0.5-2.9-0.9-4.4-1.2c-1.5-0.3-2.9-0.7-4.3-0.9
				c-1.4-0.3-2.7-0.6-3.7-1c-1.1-0.4-2-0.8-2.7-1.4c-0.7-0.6-1-1.3-1-2.3c0-0.8,0.2-1.4,0.6-1.9c0.4-0.5,0.9-0.8,1.4-1.1
				c0.6-0.2,1.2-0.4,1.9-0.5c0.7-0.1,1.3-0.1,1.9-0.1c1.8,0,3.4,0.4,4.8,1.1c1.4,0.7,2.1,2,2.3,4h9.8c-0.2-2.3-0.8-4.3-1.8-5.8
				c-1-1.5-2.2-2.8-3.7-3.7c-1.5-0.9-3.2-1.6-5.1-2c-1.9-0.4-3.9-0.6-5.9-0.6c-2,0-4,0.2-6,0.5c-1.9,0.4-3.7,1-5.2,1.9
				c-1.6,0.9-2.8,2.1-3.7,3.7c-0.9,1.6-1.4,3.5-1.4,6c0,1.6,0.3,3,1,4.2c0.7,1.1,1.6,2.1,2.7,2.8c1.1,0.8,2.4,1.4,3.8,1.8
				c1.4,0.5,2.9,0.9,4.4,1.2c3.7,0.8,6.6,1.6,8.6,2.3c2.1,0.8,3.1,1.9,3.1,3.5c0,0.9-0.2,1.7-0.7,2.3c-0.4,0.6-1,1.1-1.6,1.5
				c-0.7,0.4-1.4,0.6-2.2,0.8c-0.8,0.2-1.6,0.3-2.3,0.3c-1,0-2-0.1-2.9-0.4c-0.9-0.2-1.8-0.6-2.5-1.1c-0.7-0.5-1.3-1.2-1.8-2
				c-0.5-0.8-0.7-1.8-0.7-2.9h-9.8c0.1,2.5,0.7,4.6,1.7,6.3c1,1.7,2.4,3,4,4c1.6,1,3.5,1.7,5.6,2.2s4.2,0.7,6.4,0.7
				c2.1,0,4.2-0.2,6.3-0.6c2.1-0.4,3.9-1.1,5.5-2.1c1.6-1,2.9-2.4,3.9-4c1-1.7,1.5-3.7,1.5-6.2c0-1.7-0.3-3.2-1-4.4
				C199.3,129.4,198.4,128.4,197.3,127.6z"/>
			<path fill="#FF7070" d="M222.4,135.2h-0.1l-8.5-25.7h-11l13.2,35.3c0.3,0.7,0.4,1.5,0.4,2.3c0,1.1-0.3,2.1-1,3.1
				c-0.7,0.9-1.7,1.5-3,1.6c-1,0-2,0-3.1-0.1c-1-0.1-2-0.2-3-0.3v8.5c1.1,0.1,2.1,0.2,3.2,0.3c1,0.1,2.1,0.1,3.2,0.1
				c3.5,0,6.3-0.7,8.3-2c2-1.3,3.5-3.5,4.7-6.5l15.7-42.3h-10.7L222.4,135.2z"/>
			<path fill="#FF7070" d="M274.1,127.6c-1.1-0.8-2.4-1.4-3.8-1.9c-1.4-0.5-2.9-0.9-4.4-1.2c-1.5-0.3-2.9-0.7-4.3-0.9
				c-1.4-0.3-2.7-0.6-3.7-1c-1.1-0.4-2-0.8-2.7-1.4c-0.7-0.6-1-1.3-1-2.3c0-0.8,0.2-1.4,0.6-1.9c0.4-0.5,0.9-0.8,1.4-1.1
				c0.6-0.2,1.2-0.4,1.9-0.5c0.7-0.1,1.3-0.1,1.9-0.1c1.8,0,3.4,0.4,4.8,1.1c1.4,0.7,2.1,2,2.3,4h9.8c-0.2-2.3-0.8-4.3-1.8-5.8
				c-1-1.5-2.2-2.8-3.7-3.7c-1.5-0.9-3.2-1.6-5.1-2c-1.9-0.4-3.9-0.6-5.9-0.6c-2,0-4,0.2-6,0.5c-1.9,0.4-3.7,1-5.2,1.9
				c-1.6,0.9-2.8,2.1-3.7,3.7c-0.9,1.6-1.4,3.5-1.4,6c0,1.6,0.3,3,1,4.2c0.7,1.1,1.6,2.1,2.7,2.8c1.1,0.8,2.4,1.4,3.8,1.8
				c1.4,0.5,2.9,0.9,4.4,1.2c3.7,0.8,6.6,1.6,8.6,2.3c2.1,0.8,3.1,1.9,3.1,3.5c0,0.9-0.2,1.7-0.7,2.3c-0.4,0.6-1,1.1-1.6,1.5
				c-0.7,0.4-1.4,0.6-2.2,0.8c-0.8,0.2-1.6,0.3-2.3,0.3c-1,0-2-0.1-2.9-0.4c-0.9-0.2-1.8-0.6-2.5-1.1c-0.7-0.5-1.3-1.2-1.8-2
				c-0.5-0.8-0.7-1.8-0.7-2.9H243c0.1,2.5,0.7,4.6,1.7,6.3c1,1.7,2.4,3,4,4c1.6,1,3.5,1.7,5.6,2.2s4.2,0.7,6.4,0.7
				c2.1,0,4.2-0.2,6.3-0.6c2.1-0.4,3.9-1.1,5.5-2.1c1.6-1,2.9-2.4,3.9-4c1-1.7,1.5-3.7,1.5-6.2c0-1.7-0.3-3.2-1-4.4
				C276.1,129.4,275.2,128.4,274.1,127.6z"/>
			<path fill="#FF7070" d="M286.6,109.4h-6.3v6.9h6.3v22.2c0,1.9,0.3,3.4,0.9,4.6s1.5,2.1,2.6,2.7c1.1,0.6,2.4,1.1,3.8,1.3
				c0.7,0.1,1.3,0.2,2,0.2V98.1h-9.3V109.4z"/>
		</g>
	</g>
</g>
</svg>
