<?xml version="1.0" encoding="utf-8"?>
<!-- Generator: Adobe Illustrator 16.0.4, SVG Export Plug-In . SVG Version: 6.00 Build 0)  -->
<!DOCTYPE svg PUBLIC "-//W3C//DTD SVG 1.1//EN" "http://www.w3.org/Graphics/SVG/1.1/DTD/svg11.dtd">
<svg version="1.1" id="Layer_1" xmlns="http://www.w3.org/2000/svg" xmlns:xlink="http://www.w3.org/1999/xlink" x="0px" y="0px"
	 width="296px" height="236px" viewBox="0 0 296 236" enable-background="new 0 0 296 236" xml:space="preserve">
<g>
	<rect y="98.6" fill="#F6C992" width="296" height="39.3"/>
	<rect y="138.4" fill="#C5D8AE" width="296" height="8.3"/>
	<rect y="206.4" fill="#F6C992" width="296" height="10"/>
	<rect y="146.6" fill="#A3BFE6" width="296" height="59.7"/>
	<g>
		<path fill="none" d="M54.1,191.2c0.4,0.3,0.9,0.5,1.5,0.6c0.6,0.1,1.2,0.2,1.8,0.2c1.5,0,2.7-0.3,3.5-0.8c0.8-0.5,1.4-1.1,1.8-1.8
			c0.4-0.7,0.6-1.4,0.7-2.1c0.1-0.7,0.1-1.3,0.1-1.7v-2.9c-0.3,0.3-0.7,0.5-1.2,0.7s-1,0.3-1.6,0.4c-0.6,0.1-1.1,0.2-1.8,0.3
			s-1.2,0.2-1.8,0.3c-0.6,0.1-1.1,0.3-1.7,0.4c-0.6,0.2-1,0.4-1.5,0.7c-0.4,0.3-0.7,0.7-1,1.2c-0.3,0.5-0.4,1.1-0.4,1.8
			c0,0.7,0.1,1.3,0.4,1.7C53.4,190.5,53.7,190.9,54.1,191.2z"/>
		<path fill="none" d="M251.3,187c0.5,0.8,1.1,1.4,1.9,1.9c0.8,0.5,1.8,0.8,3,0.8c1.1,0,2-0.2,2.9-0.6c0.8-0.4,1.5-1,2.1-1.7
			c0.5-0.7,0.9-1.5,1.2-2.5c0.3-0.9,0.4-1.9,0.4-2.9c0-1.2-0.1-2.2-0.3-3.3c-0.2-1-0.6-1.9-1.1-2.7s-1.2-1.4-2-1.9
			c-0.8-0.5-1.9-0.7-3.1-0.7c-1.1,0-2,0.2-2.8,0.6c-0.8,0.4-1.4,1-1.9,1.8c-0.5,0.7-0.9,1.6-1.1,2.5c-0.2,1-0.4,2-0.4,3
			c0,1,0.1,2,0.3,3S250.8,186.2,251.3,187z"/>
		<path fill="none" d="M29.8,172.2c1-0.7,1.5-1.9,1.5-3.5c0-0.9-0.2-1.6-0.5-2.2c-0.3-0.6-0.8-1-1.3-1.3c-0.5-0.3-1.2-0.5-1.9-0.7
			c-0.7-0.1-1.4-0.2-2.2-0.2h-7.9v9h8.6C27.6,173.3,28.9,172.9,29.8,172.2z"/>
		<path fill="none" d="M123.1,174.9c-0.9-1-2.3-1.5-4.2-1.5c-1.2,0-2.2,0.2-3.1,0.6c-0.8,0.4-1.5,0.9-1.9,1.5
			c-0.5,0.6-0.8,1.3-1,1.9c-0.2,0.7-0.3,1.3-0.4,1.8H125C124.7,177.4,124,175.9,123.1,174.9z"/>
		<path fill="none" d="M276.1,168.3h7.3v5.2h0.1c0.4-0.9,0.8-1.7,1.5-2.4c0.6-0.7,1.3-1.4,2.1-1.9c0.8-0.5,1.6-0.9,2.5-1.2
			c0.9-0.3,1.8-0.4,2.8-0.4c0.5,0,1.1,0.1,1.7,0.3v7.1c-0.4-0.1-0.8-0.1-1.3-0.2s-1-0.1-1.5-0.1c-1.4,0-2.6,0.2-3.6,0.7
			s-1.8,1.1-2.3,1.9c-0.6,0.8-1,1.8-1.3,2.8s-0.4,2.2-0.4,3.5v12.6h-7.7V168.3z M243,176.2c0.5-1.7,1.3-3.2,2.3-4.4
			c1-1.3,2.3-2.3,3.8-3.1c1.5-0.8,3.2-1.1,5.2-1.1c1.8,0,3.4,0.3,4.8,1c1.4,0.7,2.5,1.8,3.5,3.5h0.1v-3.7h7.3v26.1
			c0,1.1-0.2,2.4-0.5,3.8c-0.3,1.4-1,2.8-2,4c-1,1.2-2.5,2.3-4.4,3.2c-1.9,0.9-4.5,1.3-7.7,1.3c-1.4,0-2.8-0.2-4.2-0.5
			s-2.7-0.9-3.9-1.6c-1.2-0.7-2.1-1.6-2.9-2.8c-0.8-1.1-1.2-2.5-1.3-4.1h7.6c0.4,1.4,1.1,2.4,2.1,3c1,0.6,2.2,0.8,3.6,0.8
			c2.2,0,3.7-0.6,4.7-1.9c1-1.3,1.5-2.9,1.4-4.9v-3.7h-0.1c-0.8,1.5-2,2.6-3.5,3.3c-1.5,0.7-3.1,1.1-4.8,1.1c-2.1,0-3.9-0.4-5.4-1.1
			c-1.5-0.7-2.8-1.7-3.7-3c-1-1.3-1.7-2.8-2.1-4.5s-0.7-3.5-0.7-5.4C242.3,179.6,242.5,177.9,243,176.2z M196.8,176.5
			c0.7-1.8,1.7-3.4,2.9-4.7c1.3-1.3,2.8-2.3,4.5-3.1s3.7-1.1,5.8-1.1c2.4,0,4.4,0.5,6.2,1.4c1.8,0.9,3.2,2.2,4.3,3.7s2,3.3,2.5,5.3
			c0.5,2,0.7,4,0.5,6.2h-20.1c0.1,2.5,0.7,4.3,1.9,5.4c1.2,1.1,2.8,1.7,5,1.7c1.5,0,2.9-0.4,4-1.2c1.1-0.8,1.8-1.6,2.1-2.5h6.8
			c-1.1,3.3-2.7,5.7-5,7.2c-2.2,1.4-4.9,2.2-8.1,2.2c-2.2,0-4.2-0.4-5.9-1.1c-1.8-0.7-3.3-1.7-4.5-3c-1.2-1.3-2.2-2.8-2.8-4.6
			c-0.7-1.8-1-3.8-1-5.9C195.8,180.2,196.1,178.3,196.8,176.5z M165.1,168.3h7.3v3.9h0.2c1-1.6,2.2-2.8,3.8-3.5
			c1.5-0.7,3.1-1.1,4.8-1.1c2.1,0,3.7,0.3,5,0.8c1.3,0.6,2.3,1.3,3.1,2.3s1.3,2.2,1.6,3.6c0.3,1.4,0.5,3,0.5,4.7v17.2h-7.7v-15.8
			c0-2.3-0.4-4-1.1-5.2c-0.7-1.1-2-1.7-3.8-1.7c-2.1,0-3.6,0.6-4.5,1.9c-0.9,1.2-1.4,3.3-1.4,6.1v14.6h-7.7V168.3z M151.4,157.7h7.7
			v6.3h-7.7V157.7z M151.4,168.3h7.7v27.9h-7.7V168.3z M137.5,157.7h7.7v38.6h-7.7V157.7z M105.9,176.5c0.7-1.8,1.7-3.4,2.9-4.7
			c1.3-1.3,2.8-2.3,4.5-3.1s3.7-1.1,5.8-1.1c2.4,0,4.4,0.5,6.2,1.4c1.8,0.9,3.2,2.2,4.3,3.7s2,3.3,2.5,5.3c0.5,2,0.7,4,0.5,6.2
			h-20.1c0.1,2.5,0.7,4.3,1.9,5.4c1.2,1.1,2.8,1.7,5,1.7c1.5,0,2.9-0.4,4-1.2c1.1-0.8,1.8-1.6,2.1-2.5h6.8c-1.1,3.3-2.7,5.7-5,7.2
			c-2.2,1.4-4.9,2.2-8.1,2.2c-2.2,0-4.2-0.4-5.9-1.1c-1.8-0.7-3.3-1.7-4.5-3c-1.2-1.3-2.2-2.8-2.8-4.6c-0.7-1.8-1-3.8-1-5.9
			C104.9,180.2,105.2,178.3,105.9,176.5z M91.8,185.7c-1.5-0.6-3.7-1.2-6.4-1.7c-1.1-0.3-2.2-0.5-3.3-0.9c-1.1-0.3-2-0.8-2.8-1.3
			c-0.8-0.6-1.5-1.3-2-2.1c-0.5-0.8-0.8-1.9-0.8-3.1c0-1.8,0.4-3.3,1.1-4.4c0.7-1.2,1.6-2.1,2.8-2.7c1.2-0.7,2.4-1.1,3.9-1.4
			c1.4-0.3,2.9-0.4,4.4-0.4c1.5,0,3,0.1,4.4,0.4c1.4,0.3,2.7,0.8,3.8,1.5c1.1,0.7,2,1.6,2.8,2.7c0.7,1.1,1.2,2.6,1.3,4.3h-7.3
			c-0.1-1.5-0.7-2.5-1.7-3c-1-0.5-2.2-0.8-3.6-0.8c-0.4,0-0.9,0-1.4,0.1c-0.5,0.1-1,0.2-1.4,0.4c-0.4,0.2-0.8,0.4-1.1,0.8
			c-0.3,0.3-0.4,0.8-0.4,1.4c0,0.7,0.3,1.2,0.8,1.7c0.5,0.4,1.2,0.8,2,1.1c0.8,0.3,1.7,0.5,2.8,0.7s2.1,0.5,3.2,0.7
			c1.1,0.3,2.2,0.6,3.3,0.9c1.1,0.4,2,0.8,2.8,1.4c0.8,0.6,1.5,1.3,2,2.2c0.5,0.9,0.8,2,0.8,3.3c0,1.8-0.4,3.4-1.1,4.6
			c-0.7,1.2-1.7,2.2-2.9,3c-1.2,0.8-2.5,1.3-4.1,1.6c-1.5,0.3-3.1,0.5-4.7,0.5c-1.6,0-3.2-0.2-4.8-0.5s-2.9-0.9-4.1-1.6
			s-2.2-1.8-3-3c-0.8-1.2-1.2-2.8-1.3-4.7h7.3c0,0.8,0.2,1.5,0.5,2.1c0.3,0.6,0.8,1.1,1.3,1.5c0.5,0.4,1.2,0.7,1.9,0.8
			s1.4,0.3,2.2,0.3c0.5,0,1.1-0.1,1.7-0.2c0.6-0.1,1.1-0.3,1.6-0.6c0.5-0.3,0.9-0.6,1.2-1.1c0.3-0.4,0.5-1,0.5-1.7
			C94.1,187.2,93.3,186.3,91.8,185.7z M45.9,184.7c0.6-1,1.3-1.8,2.2-2.5c0.9-0.6,1.9-1.1,3-1.4c1.1-0.3,2.3-0.5,3.4-0.7
			c1.2-0.2,2.3-0.3,3.4-0.4c1.1-0.1,2.1-0.3,3-0.5s1.5-0.5,2.1-0.9c0.5-0.4,0.7-1,0.7-1.8c0-0.8-0.1-1.5-0.4-2
			c-0.3-0.5-0.6-0.9-1.1-1.1c-0.5-0.3-1-0.4-1.6-0.5c-0.6-0.1-1.2-0.1-1.9-0.1c-1.5,0-2.7,0.3-3.6,1c-0.9,0.6-1.4,1.7-1.5,3.2h-7.7
			c0.1-1.8,0.6-3.3,1.4-4.5c0.8-1.2,1.8-2.1,3-2.9c1.2-0.7,2.6-1.2,4.1-1.5s3.1-0.5,4.6-0.5c1.4,0,2.8,0.1,4.3,0.3
			c1.4,0.2,2.8,0.6,3.9,1.2c1.2,0.6,2.2,1.4,2.9,2.4c0.8,1,1.1,2.4,1.1,4.1V190c0,1.3,0.1,2.5,0.2,3.6c0.1,1.2,0.4,2,0.8,2.6h-7.8
			c-0.1-0.4-0.3-0.9-0.4-1.3c-0.1-0.4-0.2-0.9-0.2-1.4c-1.2,1.3-2.7,2.1-4.3,2.6s-3.3,0.8-5.1,0.8c-1.3,0-2.6-0.2-3.7-0.5
			s-2.2-0.8-3-1.5c-0.9-0.7-1.5-1.5-2-2.6s-0.7-2.3-0.7-3.7C45.1,187.1,45.3,185.8,45.9,184.7z M9,157.7h18.1c1.8,0,3.5,0.2,5,0.5
			c1.5,0.3,2.8,0.9,3.9,1.6s1.9,1.7,2.5,2.9c0.6,1.2,0.9,2.7,0.9,4.5c0,1.9-0.4,3.6-1.3,4.9c-0.9,1.3-2.2,2.4-3.9,3.2
			c2.4,0.7,4.1,1.9,5.3,3.6c1.2,1.7,1.8,3.8,1.8,6.2c0,1.9-0.4,3.6-1.1,5c-0.8,1.4-1.8,2.6-3.1,3.5c-1.3,0.9-2.7,1.6-4.4,2
			c-1.6,0.4-3.3,0.6-5,0.6H9V157.7z"/>
		<path fill="none" d="M214,174.9c-0.9-1-2.3-1.5-4.2-1.5c-1.2,0-2.2,0.2-3.1,0.6c-0.8,0.4-1.5,0.9-1.9,1.5c-0.5,0.6-0.8,1.3-1,1.9
			c-0.2,0.7-0.3,1.3-0.4,1.8h12.5C215.6,177.4,214.9,175.9,214,174.9z"/>
		<path fill="none" d="M31,188.6c0.6-0.4,1-0.9,1.4-1.5c0.3-0.6,0.5-1.5,0.5-2.5c0-2-0.6-3.4-1.7-4.2c-1.1-0.8-2.6-1.3-4.4-1.3h-9.2
			v10.6h9.1c0.8,0,1.6-0.1,2.4-0.2S30.4,189,31,188.6z"/>
		<path fill="#4D6D94" d="M32.8,195.6c1.6-0.4,3.1-1.1,4.4-2c1.3-0.9,2.3-2.1,3.1-3.5c0.8-1.4,1.1-3.1,1.1-5c0-2.4-0.6-4.5-1.8-6.2
			c-1.2-1.7-2.9-2.9-5.3-3.6c1.7-0.8,3-1.9,3.9-3.2c0.9-1.3,1.3-2.9,1.3-4.9c0-1.8-0.3-3.3-0.9-4.5c-0.6-1.2-1.4-2.2-2.5-2.9
			s-2.4-1.3-3.9-1.6c-1.5-0.3-3.2-0.5-5-0.5H9v38.6h18.7C29.5,196.3,31.1,196,32.8,195.6z M17.5,164.3h7.9c0.8,0,1.5,0.1,2.2,0.2
			c0.7,0.1,1.3,0.4,1.9,0.7c0.5,0.3,1,0.8,1.3,1.3c0.3,0.6,0.5,1.3,0.5,2.2c0,1.6-0.5,2.8-1.5,3.5c-1,0.7-2.2,1.1-3.7,1.1h-8.6
			V164.3z M17.5,189.7v-10.6h9.2c1.8,0,3.3,0.4,4.4,1.3c1.1,0.8,1.7,2.3,1.7,4.2c0,1-0.2,1.8-0.5,2.5c-0.3,0.6-0.8,1.2-1.4,1.5
			c-0.6,0.4-1.2,0.6-2,0.8s-1.5,0.2-2.4,0.2H17.5z"/>
		<path fill="#4D6D94" d="M47.8,195c0.9,0.7,1.9,1.2,3,1.5s2.4,0.5,3.7,0.5c1.7,0,3.4-0.3,5.1-0.8s3.1-1.4,4.3-2.6
			c0,0.5,0.1,0.9,0.2,1.4c0.1,0.5,0.2,0.9,0.4,1.3h7.8c-0.4-0.6-0.6-1.4-0.8-2.6c-0.1-1.2-0.2-2.4-0.2-3.6v-14.5
			c0-1.7-0.4-3.1-1.1-4.1c-0.8-1-1.7-1.8-2.9-2.4c-1.2-0.6-2.5-1-3.9-1.2c-1.4-0.2-2.9-0.3-4.3-0.3c-1.5,0-3.1,0.2-4.6,0.5
			s-2.9,0.8-4.1,1.5c-1.2,0.7-2.2,1.7-3,2.9c-0.8,1.2-1.2,2.7-1.4,4.5h7.7c0.1-1.5,0.6-2.6,1.5-3.2c0.9-0.6,2.1-1,3.6-1
			c0.7,0,1.3,0,1.9,0.1c0.6,0.1,1.1,0.3,1.6,0.5c0.4,0.3,0.8,0.6,1.1,1.1c0.3,0.5,0.4,1.1,0.4,2c0,0.8-0.2,1.4-0.7,1.8
			c-0.5,0.4-1.2,0.7-2.1,0.9s-1.9,0.4-3,0.5c-1.1,0.1-2.2,0.3-3.4,0.4c-1.2,0.2-2.3,0.4-3.4,0.7c-1.1,0.3-2.1,0.8-3,1.4
			c-0.9,0.6-1.6,1.4-2.2,2.5c-0.6,1-0.8,2.3-0.8,3.9c0,1.4,0.2,2.7,0.7,3.7S47,194.3,47.8,195z M53.1,186.5c0.3-0.5,0.6-0.9,1-1.2
			c0.4-0.3,0.9-0.5,1.5-0.7c0.6-0.2,1.1-0.3,1.7-0.4c0.6-0.1,1.2-0.2,1.8-0.3s1.2-0.2,1.8-0.3c0.6-0.1,1.1-0.2,1.6-0.4
			s0.9-0.4,1.2-0.7v2.9c0,0.4,0,1-0.1,1.7c-0.1,0.7-0.3,1.4-0.7,2.1c-0.4,0.7-1,1.3-1.8,1.8c-0.8,0.5-2,0.8-3.5,0.8
			c-0.6,0-1.2-0.1-1.8-0.2c-0.6-0.1-1.1-0.3-1.5-0.6c-0.4-0.3-0.8-0.6-1-1.1c-0.3-0.5-0.4-1-0.4-1.7C52.7,187.6,52.9,187,53.1,186.5
			z"/>
		<path fill="#4D6D94" d="M92.4,191.1c-0.5,0.3-1,0.5-1.6,0.6c-0.6,0.1-1.2,0.2-1.7,0.2c-0.8,0-1.5-0.1-2.2-0.3s-1.3-0.5-1.9-0.8
			c-0.5-0.4-1-0.9-1.3-1.5c-0.3-0.6-0.5-1.3-0.5-2.1h-7.3c0.1,1.9,0.5,3.4,1.3,4.7c0.8,1.2,1.8,2.2,3,3s2.6,1.3,4.1,1.6
			s3.1,0.5,4.8,0.5c1.6,0,3.1-0.2,4.7-0.5c1.5-0.3,2.9-0.8,4.1-1.6c1.2-0.8,2.2-1.8,2.9-3c0.7-1.2,1.1-2.8,1.1-4.6
			c0-1.3-0.3-2.4-0.8-3.3c-0.5-0.9-1.2-1.6-2-2.2c-0.8-0.6-1.8-1.1-2.8-1.4c-1.1-0.4-2.2-0.7-3.3-0.9c-1.1-0.3-2.1-0.5-3.2-0.7
			s-2-0.5-2.8-0.7c-0.8-0.3-1.5-0.6-2-1.1c-0.5-0.4-0.8-1-0.8-1.7c0-0.6,0.1-1,0.4-1.4c0.3-0.3,0.6-0.6,1.1-0.8
			c0.4-0.2,0.9-0.3,1.4-0.4c0.5-0.1,1-0.1,1.4-0.1c1.4,0,2.6,0.3,3.6,0.8c1,0.5,1.6,1.5,1.7,3h7.3c-0.1-1.7-0.6-3.2-1.3-4.3
			c-0.7-1.1-1.7-2-2.8-2.7c-1.1-0.7-2.4-1.2-3.8-1.5c-1.4-0.3-2.9-0.4-4.4-0.4c-1.5,0-3,0.1-4.4,0.4c-1.4,0.3-2.7,0.7-3.9,1.4
			c-1.2,0.7-2.1,1.6-2.8,2.7c-0.7,1.2-1.1,2.6-1.1,4.4c0,1.2,0.3,2.3,0.8,3.1c0.5,0.8,1.2,1.5,2,2.1c0.8,0.6,1.8,1,2.8,1.3
			c1.1,0.3,2.2,0.6,3.3,0.9c2.7,0.6,4.9,1.2,6.4,1.7c1.5,0.6,2.3,1.4,2.3,2.6c0,0.7-0.2,1.3-0.5,1.7
			C93.3,190.5,92.9,190.8,92.4,191.1z"/>
		<path fill="#4D6D94" d="M108.7,192.9c1.2,1.3,2.7,2.3,4.5,3c1.8,0.7,3.7,1.1,5.9,1.1c3.2,0,5.9-0.7,8.1-2.2c2.2-1.4,3.9-3.8,5-7.2
			h-6.8c-0.3,0.9-0.9,1.7-2.1,2.5c-1.1,0.8-2.4,1.2-4,1.2c-2.2,0-3.8-0.6-5-1.7c-1.2-1.1-1.8-2.9-1.9-5.4h20.1
			c0.1-2.2,0-4.2-0.5-6.2c-0.5-2-1.3-3.7-2.5-5.3s-2.6-2.8-4.3-3.7c-1.8-0.9-3.8-1.4-6.2-1.4c-2.1,0-4.1,0.4-5.8,1.1
			s-3.2,1.8-4.5,3.1c-1.3,1.3-2.2,2.9-2.9,4.7s-1,3.7-1,5.8c0,2.2,0.3,4.1,1,5.9C106.6,190.1,107.5,191.6,108.7,192.9z M112.9,177.5
			c0.2-0.7,0.5-1.3,1-1.9c0.5-0.6,1.1-1.1,1.9-1.5c0.8-0.4,1.8-0.6,3.1-0.6c1.9,0,3.3,0.5,4.2,1.5s1.6,2.5,1.9,4.4h-12.5
			C112.6,178.8,112.7,178.2,112.9,177.5z"/>
		<rect x="137.5" y="157.7" fill="#4D6D94" width="7.7" height="38.6"/>
		<rect x="151.4" y="157.7" fill="#4D6D94" width="7.7" height="6.3"/>
		<rect x="151.4" y="168.3" fill="#4D6D94" width="7.7" height="27.9"/>
		<path fill="#4D6D94" d="M172.8,181.6c0-2.8,0.5-4.9,1.4-6.1c0.9-1.2,2.4-1.9,4.5-1.9c1.8,0,3.1,0.6,3.8,1.7
			c0.7,1.1,1.1,2.9,1.1,5.2v15.8h7.7v-17.2c0-1.7-0.2-3.3-0.5-4.7c-0.3-1.4-0.8-2.6-1.6-3.6s-1.8-1.8-3.1-2.3c-1.3-0.6-3-0.8-5-0.8
			c-1.6,0-3.2,0.4-4.8,1.1c-1.5,0.7-2.8,1.9-3.8,3.5h-0.2v-3.9h-7.3v27.9h7.7V181.6z"/>
		<path fill="#4D6D94" d="M199.6,192.9c1.2,1.3,2.7,2.3,4.5,3c1.8,0.7,3.7,1.1,5.9,1.1c3.2,0,5.9-0.7,8.1-2.2c2.2-1.4,3.9-3.8,5-7.2
			h-6.8c-0.3,0.9-0.9,1.7-2.1,2.5c-1.1,0.8-2.4,1.2-4,1.2c-2.2,0-3.8-0.6-5-1.7c-1.2-1.1-1.8-2.9-1.9-5.4h20.1
			c0.1-2.2,0-4.2-0.5-6.2c-0.5-2-1.3-3.7-2.5-5.3s-2.6-2.8-4.3-3.7c-1.8-0.9-3.8-1.4-6.2-1.4c-2.1,0-4.1,0.4-5.8,1.1
			s-3.2,1.8-4.5,3.1c-1.3,1.3-2.2,2.9-2.9,4.7s-1,3.7-1,5.8c0,2.2,0.3,4.1,1,5.9C197.4,190.1,198.4,191.6,199.6,192.9z M203.8,177.5
			c0.2-0.7,0.5-1.3,1-1.9c0.5-0.6,1.1-1.1,1.9-1.5c0.8-0.4,1.8-0.6,3.1-0.6c1.9,0,3.3,0.5,4.2,1.5s1.6,2.5,1.9,4.4h-12.5
			C203.5,178.8,203.6,178.2,203.8,177.5z"/>
		<path fill="#4D6D94" d="M245.1,191.3c1,1.3,2.2,2.3,3.7,3c1.5,0.7,3.3,1.1,5.4,1.1c1.7,0,3.3-0.4,4.8-1.1c1.5-0.7,2.7-1.8,3.5-3.3
			h0.1v3.7c0,2-0.4,3.6-1.4,4.9c-1,1.3-2.6,1.9-4.7,1.9c-1.4,0-2.6-0.3-3.6-0.8c-1-0.6-1.7-1.6-2.1-3h-7.6c0.1,1.6,0.5,2.9,1.3,4.1
			c0.8,1.1,1.7,2.1,2.9,2.8c1.2,0.7,2.5,1.3,3.9,1.6s2.8,0.5,4.2,0.5c3.2,0,5.8-0.4,7.7-1.3c1.9-0.9,3.4-1.9,4.4-3.2
			c1-1.2,1.7-2.6,2-4c0.3-1.4,0.5-2.7,0.5-3.8v-26.1h-7.3v3.7h-0.1c-0.9-1.6-2.1-2.8-3.5-3.5c-1.4-0.7-3-1-4.8-1
			c-1.9,0-3.7,0.4-5.2,1.1c-1.5,0.8-2.7,1.8-3.8,3.1c-1,1.3-1.8,2.8-2.3,4.4c-0.5,1.7-0.8,3.4-0.8,5.2c0,1.9,0.2,3.7,0.7,5.4
			S244.1,190,245.1,191.3z M250.3,178.3c0.2-1,0.6-1.8,1.1-2.5c0.5-0.7,1.2-1.3,1.9-1.8c0.8-0.4,1.7-0.6,2.8-0.6
			c1.3,0,2.3,0.2,3.1,0.7c0.8,0.5,1.5,1.1,2,1.9s0.9,1.7,1.1,2.7c0.2,1,0.3,2.1,0.3,3.3c0,1-0.1,2-0.4,2.9c-0.3,0.9-0.7,1.7-1.2,2.5
			c-0.5,0.7-1.2,1.3-2.1,1.7c-0.8,0.4-1.8,0.6-2.9,0.6c-1.2,0-2.2-0.3-3-0.8c-0.8-0.5-1.4-1.2-1.9-1.9c-0.5-0.8-0.8-1.7-1-2.7
			s-0.3-2-0.3-3C249.9,180.3,250,179.3,250.3,178.3z"/>
		<path fill="#4D6D94" d="M283.8,183.7c0-1.3,0.1-2.4,0.4-3.5s0.7-2,1.3-2.8c0.6-0.8,1.4-1.4,2.3-1.9s2.2-0.7,3.6-0.7
			c0.5,0,1,0,1.5,0.1s0.9,0.1,1.3,0.2v-7.1c-0.6-0.2-1.2-0.3-1.7-0.3c-1,0-1.9,0.1-2.8,0.4c-0.9,0.3-1.7,0.7-2.5,1.2
			c-0.8,0.5-1.5,1.2-2.1,1.9c-0.6,0.7-1.1,1.5-1.5,2.4h-0.1v-5.2h-7.3v27.9h7.7V183.7z"/>
	</g>
	<polygon fill="#FF7070" points="155.9,213.3 155.9,199.7 157.7,202.4 158.5,201.8 155.3,197.2 152.1,201.8 153,202.4 154.9,199.7 
		154.9,213.3 153,210.6 152.1,211.2 155.3,215.8 158.5,211.2 157.7,210.6 	"/>
	<polygon fill="#FF7070" points="47.1,154.5 47.1,101.5 52.2,108.7 53,108.2 46.6,99.1 40.3,108.2 41.1,108.7 46.1,101.5 
		46.1,154.5 41.1,147.3 40.3,147.9 46.6,157 53,147.9 52.2,147.3 	"/>
	<g id="Baseline">
		<rect y="235" fill="#FF7070" width="296" height="1"/>
		<rect y="215.8" fill="#FF7070" width="296" height="1"/>
		<rect y="196.2" fill="#FF7070" width="296" height="1"/>
		<rect y="176.6" fill="#FF7070" width="296" height="1"/>
		<rect y="157" fill="#FF7070" width="296" height="1"/>
		<rect y="137.3" fill="#FF7070" width="296" height="1"/>
		<rect y="117.7" fill="#FF7070" width="296" height="1"/>
		<rect y="98.1" fill="#FF7070" width="296" height="1"/>
		<rect y="78.5" fill="#FF7070" width="296" height="1"/>
		<rect y="58.9" fill="#FF7070" width="296" height="1"/>
		<rect y="39.2" fill="#FF7070" width="296" height="1"/>
		<rect y="19.6" fill="#FF7070" width="296" height="1"/>
		<rect fill="#FF7070" width="296" height="1"/>
	</g>
</g>
</svg>
