<?xml version="1.0" encoding="utf-8"?>
<!-- Generator: Adobe Illustrator 16.0.4, SVG Export Plug-In . SVG Version: 6.00 Build 0)  -->
<!DOCTYPE svg PUBLIC "-//W3C//DTD SVG 1.1//EN" "http://www.w3.org/Graphics/SVG/1.1/DTD/svg11.dtd">
<svg version="1.1" id="Layer_1" xmlns="http://www.w3.org/2000/svg" xmlns:xlink="http://www.w3.org/1999/xlink" x="0px" y="0px"
	 width="296px" height="234px" viewBox="0 0 296 234" enable-background="new 0 0 296 234" xml:space="preserve">
<g>
	<rect fill="#F2F2F2" width="296" height="234"/>
	<g>
		<rect x="94.6" y="14.8" fill="#CCCCCC" width="149.7" height="98.1"/>
		<rect x="43" y="66.4" fill="#E6E6E6" width="46.4" height="46.4"/>
		<rect x="146.3" y="118" fill="#B3B3B3" width="46.4" height="46.4"/>
		<rect x="197.9" y="118" fill="#E6E6E6" width="46.4" height="46.4"/>
		<rect x="249.6" y="66.4" fill="#B3B3B3" width="46.4" height="46.4"/>
		<rect x="146.3" y="169.7" fill="#E6E6E6" width="46.4" height="46.4"/>
		<rect x="197.9" y="169.7" fill="#B3B3B3" width="46.4" height="46.4"/>
		<g>
			<rect x="94.6" y="118" fill="#CCCCCC" width="46.4" height="1.7"/>
			<rect x="94.6" y="123" fill="#CCCCCC" width="37.3" height="1.7"/>
			<rect x="94.6" y="128" fill="#CCCCCC" width="46.4" height="1.7"/>
			<rect x="94.6" y="132.9" fill="#CCCCCC" width="37.3" height="1.7"/>
			<rect x="94.6" y="137.9" fill="#CCCCCC" width="46.4" height="1.7"/>
			<rect x="94.6" y="142.9" fill="#CCCCCC" width="37.3" height="1.7"/>
			<rect x="94.6" y="147.8" fill="#CCCCCC" width="46.4" height="1.7"/>
			<rect x="94.6" y="152.8" fill="#CCCCCC" width="37.3" height="1.7"/>
			<rect x="94.6" y="157.8" fill="#CCCCCC" width="46.4" height="1.7"/>
			<rect x="94.6" y="162.8" fill="#CCCCCC" width="37.3" height="1.7"/>
		</g>
		<g>
			<rect x="43" y="118" fill="#CCCCCC" width="46.4" height="1.7"/>
			<rect x="43" y="123" fill="#CCCCCC" width="37.3" height="1.7"/>
			<rect x="43" y="128" fill="#CCCCCC" width="46.4" height="1.7"/>
			<rect x="43" y="132.9" fill="#CCCCCC" width="37.3" height="1.7"/>
			<rect x="43" y="137.9" fill="#CCCCCC" width="46.4" height="1.7"/>
			<rect x="43" y="142.9" fill="#CCCCCC" width="37.3" height="1.7"/>
			<rect x="43" y="147.8" fill="#CCCCCC" width="46.4" height="1.7"/>
			<rect x="43" y="152.8" fill="#CCCCCC" width="37.3" height="1.7"/>
			<rect x="43" y="157.8" fill="#CCCCCC" width="46.4" height="1.7"/>
			<rect x="43" y="162.8" fill="#CCCCCC" width="37.3" height="1.7"/>
		</g>
		<g>
			<rect x="43" y="169.7" fill="#CCCCCC" width="46.4" height="1.7"/>
			<rect x="43" y="174.6" fill="#CCCCCC" width="37.3" height="1.7"/>
			<rect x="43" y="179.6" fill="#CCCCCC" width="46.4" height="1.7"/>
			<rect x="43" y="184.6" fill="#CCCCCC" width="37.3" height="1.7"/>
			<rect x="43" y="189.5" fill="#CCCCCC" width="46.4" height="1.7"/>
			<rect x="43" y="194.5" fill="#CCCCCC" width="37.3" height="1.7"/>
			<rect x="43" y="199.5" fill="#CCCCCC" width="46.4" height="1.7"/>
			<rect x="43" y="204.5" fill="#CCCCCC" width="37.3" height="1.7"/>
			<rect x="43" y="209.4" fill="#CCCCCC" width="46.4" height="1.7"/>
			<rect x="43" y="214.4" fill="#CCCCCC" width="37.3" height="1.7"/>
		</g>
		<rect x="43" y="14.8" fill="#CCCCCC" width="46.4" height="6.2"/>
		<rect x="43" y="24.8" fill="#CCCCCC" width="46.4" height="6.2"/>
		<rect x="43" y="34.9" fill="#CCCCCC" width="23.2" height="6.2"/>
		
			<rect x="87" y="63.5" transform="matrix(0.8365 0.548 -0.548 0.8365 62.6664 -82.4512)" fill="#E6E6E6" width="165" height="0.7"/>
		
			<rect x="169.2" y="-18.7" transform="matrix(0.5474 0.8369 -0.8369 0.5474 130.095 -112.9791)" fill="#E6E6E6" width="0.7" height="165"/>
	</g>
</g>
</svg>
