<svg xmlns="http://www.w3.org/2000/svg" viewBox="0 0 660 400"><title>Interior-graphics</title><polyline points="153 399.49 153 32.08 507 32.08 507 399.49" style="fill:#fff;stroke:#000;stroke-miterlimit:10;stroke-width:2px"/><rect y="49.93" width="659.95" height="96.54" style="fill:#e6e6e6"/><rect x="170.99" y="281.15" width="318.01" height="96.54" style="fill:#e6e6e6"/><rect x="338.47" y="165.92" width="150.53" height="96.54" style="fill:#e6e6e6"/><line x1="171.43" y1="170.94" x2="321" y2="170.94" style="fill:none;stroke:#e6e6e6;stroke-miterlimit:10;stroke-width:6px"/><line x1="171.43" y1="189.3" x2="274.11" y2="189.3" style="fill:none;stroke:#e6e6e6;stroke-miterlimit:10;stroke-width:6px"/><line x1="171.43" y1="226.04" x2="246.22" y2="226.04" style="fill:none;stroke:#e6e6e6;stroke-miterlimit:10;stroke-width:6px"/><line x1="171.43" y1="207.67" x2="321" y2="207.67" style="fill:none;stroke:#e6e6e6;stroke-miterlimit:10;stroke-width:6px"/><line x1="153.5" y1="399.49" x2="153.5" style="fill:none;stroke:#f7931e"/><line x1="171.5" x2="171.5" y2="399.49" style="fill:none;stroke:#f7931e"/><line x1="209.33" y1="399.49" x2="209.33" style="fill:none;stroke:#f7931e"/><line x1="227.33" x2="227.33" y2="399.49" style="fill:none;stroke:#f7931e"/><line x1="265.17" y1="399.49" x2="265.17" style="fill:none;stroke:#f7931e"/><line x1="283.17" x2="283.17" y2="399.49" style="fill:none;stroke:#f7931e"/><line x1="321" y1="399.49" x2="321" style="fill:none;stroke:#f7931e"/><line x1="339" x2="339" y2="399.49" style="fill:none;stroke:#f7931e"/><line x1="376.83" y1="399.49" x2="376.83" style="fill:none;stroke:#f7931e"/><line x1="394.83" x2="394.83" y2="399.49" style="fill:none;stroke:#f7931e"/><line x1="432.67" y1="399.49" x2="432.67" style="fill:none;stroke:#f7931e"/><line x1="450.67" x2="450.67" y2="399.49" style="fill:none;stroke:#f7931e"/><line x1="488.5" y1="399.49" x2="488.5" style="fill:none;stroke:#f7931e"/><line x1="506.5" x2="506.5" y2="399.49" style="fill:none;stroke:#f7931e"/></svg>