<svg xmlns="http://www.w3.org/2000/svg" viewBox="0 0 103.83 246.67"><title>Interior graphics</title><path d="M1.39,7.74h0a1.65,1.65,0,0,0,.41.46,2.26,2.26,0,0,0,.52.3,2.91,2.91,0,0,0,.56.15,3.36,3.36,0,0,0,.51,0,2.83,2.83,0,0,0,1.24-.25,2.54,2.54,0,0,0,.89-.69,3,3,0,0,0,.53-1,4.6,4.6,0,0,0,.17-1.25,4.18,4.18,0,0,0-.18-1.24,3.19,3.19,0,0,0-.53-1,2.62,2.62,0,0,0-.89-.72A2.88,2.88,0,0,0,3.4,2.22a3,3,0,0,0-1.19.23,1.52,1.52,0,0,0-.79.75h0V2.36h-1v8.57h1Zm.07-3.13a2.32,2.32,0,0,1,.33-.75,1.8,1.8,0,0,1,.59-.54,1.8,1.8,0,0,1,.87-.2,1.79,1.79,0,0,1,.86.19,1.77,1.77,0,0,1,.6.52,2.2,2.2,0,0,1,.35.74,3.34,3.34,0,0,1,.11.84,4.33,4.33,0,0,1-.09.89,2.41,2.41,0,0,1-.32.77,1.64,1.64,0,0,1-.57.54,1.79,1.79,0,0,1-.88.2,1.81,1.81,0,0,1-.9-.2,1.6,1.6,0,0,1-.6-.52,2.16,2.16,0,0,1-.35-.75,3.65,3.65,0,0,1-.1-.88A3.47,3.47,0,0,1,1.46,4.61Z"/><path d="M7.88,7.77a2.71,2.71,0,0,0,1,.68,3.14,3.14,0,0,0,1.3.25,3.11,3.11,0,0,0,1.3-.25,2.59,2.59,0,0,0,.94-.68,2.82,2.82,0,0,0,.58-1,4,4,0,0,0,.19-1.27A4.13,4.13,0,0,0,13,4.19a2.9,2.9,0,0,0-.58-1,2.73,2.73,0,0,0-.94-.69,3.11,3.11,0,0,0-1.3-.25,3.14,3.14,0,0,0-1.3.25,2.87,2.87,0,0,0-1,.69,3,3,0,0,0-.57,1,4.13,4.13,0,0,0-.19,1.28,4,4,0,0,0,.19,1.27A3,3,0,0,0,7.88,7.77Zm.47-3.3a2.12,2.12,0,0,1,.41-.74,1.85,1.85,0,0,1,1.37-.61,1.78,1.78,0,0,1,.75.16,1.79,1.79,0,0,1,.62.45,2.29,2.29,0,0,1,.41.74,3.09,3.09,0,0,1,.15,1,3,3,0,0,1-.15,1,2.19,2.19,0,0,1-.41.74,2.1,2.1,0,0,1-.62.45,1.93,1.93,0,0,1-.75.15,1.86,1.86,0,0,1-.75-.15,2,2,0,0,1-.62-.45,2,2,0,0,1-.41-.74,3,3,0,0,1-.15-1A3.09,3.09,0,0,1,8.35,4.47Z"/><rect x="14.4" y="2.36" width="1.02" height="6.2"/><rect x="14.4" width="1.02" height="1.25"/><path d="M18,5.06a2.39,2.39,0,0,1,.12-.77,1.7,1.7,0,0,1,.34-.62,1.61,1.61,0,0,1,.57-.41,2.21,2.21,0,0,1,.81-.14,1.21,1.21,0,0,1,.92.34,1.19,1.19,0,0,1,.34.91v4.2h1V4.49a3.76,3.76,0,0,0-.1-.92,1.71,1.71,0,0,0-.36-.71A1.56,1.56,0,0,0,21,2.39a2.71,2.71,0,0,0-1-.17,2.14,2.14,0,0,0-2,1.13h0v-1H17V8.57h1Z"/><path d="M24.07,7.21a2.25,2.25,0,0,0,.09.7.89.89,0,0,0,.25.41,1,1,0,0,0,.46.19,3.3,3.3,0,0,0,.68.06h.78v-.9h-.47l-.39,0a.44.44,0,0,1-.23-.08.27.27,0,0,1-.12-.17,1,1,0,0,1,0-.28V3.26h1.24v-.9H25.09V.5h-1V2.36H23v.9h1.05Z"/><path d="M1.49,31.46h0a1.94,1.94,0,0,0,.55.62,2.65,2.65,0,0,0,.69.39,3.51,3.51,0,0,0,.75.21,4.37,4.37,0,0,0,.68.06,3.86,3.86,0,0,0,1.65-.33A3.4,3.4,0,0,0,7,31.49a4,4,0,0,0,.7-1.37A5.64,5.64,0,0,0,8,28.46a5.71,5.71,0,0,0-.24-1.67A4.11,4.11,0,0,0,7,25.41a3.33,3.33,0,0,0-1.18-.95,3.67,3.67,0,0,0-1.67-.36,3.93,3.93,0,0,0-1.59.32,2,2,0,0,0-1,1h0V24.3H.13V35.72H1.49Zm.09-4.17a3,3,0,0,1,.44-1,2.35,2.35,0,0,1,.79-.71A2.32,2.32,0,0,1,4,25.3a2.47,2.47,0,0,1,1.15.26,2.32,2.32,0,0,1,.8.69,3,3,0,0,1,.46,1,4.33,4.33,0,0,1,.15,1.13,5.69,5.69,0,0,1-.12,1.18,3.28,3.28,0,0,1-.42,1,2.19,2.19,0,0,1-.76.72,2.34,2.34,0,0,1-1.18.27,2.59,2.59,0,0,1-1.2-.26,2.27,2.27,0,0,1-.8-.7,3,3,0,0,1-.46-1,4.6,4.6,0,0,1-.14-1.18A4.78,4.78,0,0,1,1.58,27.29Z"/><path d="M10.15,25.36a3.88,3.88,0,0,0-.77,1.38,5.9,5.9,0,0,0,0,3.4,3.79,3.79,0,0,0,.77,1.36,3.55,3.55,0,0,0,1.26.92,4.48,4.48,0,0,0,1.73.32,4.46,4.46,0,0,0,1.74-.32,3.6,3.6,0,0,0,1.25-.92,3.79,3.79,0,0,0,.77-1.36,5.69,5.69,0,0,0,0-3.4,3.88,3.88,0,0,0-.77-1.38,3.6,3.6,0,0,0-1.25-.92,4.6,4.6,0,0,0-3.47,0A3.55,3.55,0,0,0,10.15,25.36Zm3-.06a2.42,2.42,0,0,1,1,.21,2.35,2.35,0,0,1,.83.61,3.09,3.09,0,0,1,.55,1,4.59,4.59,0,0,1,0,2.68,2.93,2.93,0,0,1-.55,1,2.45,2.45,0,0,1-.83.6,2.42,2.42,0,0,1-1,.21,2.46,2.46,0,0,1-1-.21,2.42,2.42,0,0,1-.82-.6,2.78,2.78,0,0,1-.56-1,4.82,4.82,0,0,1,0-2.68,2.93,2.93,0,0,1,.56-1,2.32,2.32,0,0,1,.82-.61A2.46,2.46,0,0,1,13.14,25.3Z"/><rect x="18.84" y="21.14" width="1.36" height="1.66"/><rect x="18.84" y="24.3" width="1.36" height="8.27"/><path d="M23.67,27.9a3.44,3.44,0,0,1,.15-1,2.29,2.29,0,0,1,.46-.82A1.92,1.92,0,0,1,25,25.5a2.7,2.7,0,0,1,1.08-.2A1.55,1.55,0,0,1,27.8,27v5.6h1.36V27.13A5.2,5.2,0,0,0,29,25.9a2.42,2.42,0,0,0-.47-.95,2.29,2.29,0,0,0-.88-.62,3.57,3.57,0,0,0-1.36-.23,2.88,2.88,0,0,0-2.69,1.51h0V24.3H22.31v8.27h1.36Z"/><path d="M31.73,30.76a3.38,3.38,0,0,0,.11.93,1.16,1.16,0,0,0,.35.54,1.32,1.32,0,0,0,.61.27,5.67,5.67,0,0,0,.9.07h1v-1.2h-.62a3.54,3.54,0,0,1-.52,0,.67.67,0,0,1-.32-.1.44.44,0,0,1-.15-.22,2,2,0,0,1,0-.39V25.5h1.65V24.3H33.09V21.82H31.73V24.3h-1.4v1.2h1.4Z"/><path d="M1.91,62.05H2a3,3,0,0,0,.76.85,4.73,4.73,0,0,0,.95.54,5.42,5.42,0,0,0,1,.28,5.39,5.39,0,0,0,.93.09,5.24,5.24,0,0,0,2.28-.46,4.64,4.64,0,0,0,1.63-1.27,5.31,5.31,0,0,0,1-1.88,7.78,7.78,0,0,0,.32-2.29,7.71,7.71,0,0,0-.33-2.28,5.67,5.67,0,0,0-1-1.91,4.73,4.73,0,0,0-1.62-1.31,5.19,5.19,0,0,0-2.3-.48,5.37,5.37,0,0,0-2.18.43A2.81,2.81,0,0,0,2,53.73H1.91V52.19H0V67.9H1.91ZM2,56.31a4.21,4.21,0,0,1,.61-1.38,3.28,3.28,0,0,1,1.08-1,3.29,3.29,0,0,1,1.6-.37,3.44,3.44,0,0,1,1.58.35,3.25,3.25,0,0,1,1.1,1,4.09,4.09,0,0,1,.63,1.35,5.79,5.79,0,0,1,.21,1.55,7.33,7.33,0,0,1-.17,1.63,4.44,4.44,0,0,1-.57,1.41,3.11,3.11,0,0,1-1,1,3.18,3.18,0,0,1-1.62.37,3.53,3.53,0,0,1-1.65-.36,3.22,3.22,0,0,1-1.11-1,4,4,0,0,1-.62-1.37,6.2,6.2,0,0,1-.2-1.62A6.79,6.79,0,0,1,2,56.31Z"/><path d="M15.55,52.39a4.92,4.92,0,0,0-1.73,1.27,5.15,5.15,0,0,0-1.06,1.89,7.44,7.44,0,0,0-.35,2.34,7.25,7.25,0,0,0,.35,2.33,5.32,5.32,0,0,0,1.06,1.89,4.87,4.87,0,0,0,1.73,1.25,5.94,5.94,0,0,0,2.38.45,5.92,5.92,0,0,0,2.39-.45A4.93,4.93,0,0,0,22,62.11a5.48,5.48,0,0,0,1.06-1.89,7.54,7.54,0,0,0,.35-2.33,7.74,7.74,0,0,0-.35-2.34A5.3,5.3,0,0,0,22,53.66a5,5,0,0,0-1.72-1.27,5.76,5.76,0,0,0-2.39-.46A5.78,5.78,0,0,0,15.55,52.39Zm4.89,2.31a4.15,4.15,0,0,1,.76,1.36,5.68,5.68,0,0,1,.27,1.83,5.79,5.79,0,0,1-.27,1.84,4,4,0,0,1-.76,1.34,3.32,3.32,0,0,1-1.14.83,3.36,3.36,0,0,1-1.37.28,3.44,3.44,0,0,1-1.38-.28,3.28,3.28,0,0,1-1.13-.83,4,4,0,0,1-.76-1.34,5.79,5.79,0,0,1-.27-1.84,5.68,5.68,0,0,1,.27-1.83,4.15,4.15,0,0,1,.76-1.36,3.28,3.28,0,0,1,1.13-.83,3.45,3.45,0,0,1,1.38-.29,3.37,3.37,0,0,1,1.37.29A3.32,3.32,0,0,1,20.44,54.7Z"/><rect x="25.76" y="47.86" width="1.87" height="2.29"/><rect x="25.76" y="52.19" width="1.87" height="11.37"/><path d="M32.34,54h-.05V52.19H30.54V63.57H32.4V57.14a4.53,4.53,0,0,1,.21-1.41,3.25,3.25,0,0,1,.63-1.14,2.88,2.88,0,0,1,1-.75,3.88,3.88,0,0,1,1.48-.26,2.28,2.28,0,0,1,1.69.62,2.21,2.21,0,0,1,.62,1.67v7.7H40V56.09a6.69,6.69,0,0,0-.19-1.68,3.05,3.05,0,0,0-.65-1.31,2.93,2.93,0,0,0-1.21-.86A4.79,4.79,0,0,0,36,51.93,3.94,3.94,0,0,0,32.34,54Z"/><path d="M43.49,61.08a4.08,4.08,0,0,0,.16,1.28,1.59,1.59,0,0,0,.47.75,1.91,1.91,0,0,0,.84.36,6.27,6.27,0,0,0,1.24.1h1.43V61.92h-.86a6.75,6.75,0,0,1-.71,0,.9.9,0,0,1-.43-.15.46.46,0,0,1-.21-.31,1.81,1.81,0,0,1-.06-.52V53.84h2.27V52.19H45.36V48.78H43.49v3.41H41.56v1.65h1.93Z"/><path d="M.09,190H3.15v-9.58h.07a4.89,4.89,0,0,0,1.24,1.39,6.42,6.42,0,0,0,1.57.88,8.51,8.51,0,0,0,1.67.47,8.86,8.86,0,0,0,1.53.14,8.71,8.71,0,0,0,3.73-.75,7.59,7.59,0,0,0,2.66-2.07,8.84,8.84,0,0,0,1.59-3.08,13.41,13.41,0,0,0,.52-3.74,12.78,12.78,0,0,0-.54-3.75,9.65,9.65,0,0,0-1.6-3.11,7.58,7.58,0,0,0-2.67-2.14,8.37,8.37,0,0,0-3.76-.8,8.81,8.81,0,0,0-3.56.71,4.51,4.51,0,0,0-2.38,2.25H3.15v-2.52H.09Zm3.26-19a6.54,6.54,0,0,1,1-2.25,5.11,5.11,0,0,1,1.76-1.6,5.25,5.25,0,0,1,2.63-.62,5.5,5.5,0,0,1,2.57.58,5.1,5.1,0,0,1,1.8,1.55,6.84,6.84,0,0,1,1.05,2.21,9.9,9.9,0,0,1,.34,2.54,12.32,12.32,0,0,1-.29,2.66,6.81,6.81,0,0,1-.94,2.31A4.92,4.92,0,0,1,11.55,180a5.18,5.18,0,0,1-2.64.61,5.73,5.73,0,0,1-2.7-.59,5.24,5.24,0,0,1-1.82-1.57,6.63,6.63,0,0,1-1-2.25A11,11,0,0,1,3,173.54,10.47,10.47,0,0,1,3.35,171Z"/><path d="M33.26,182.53a8.05,8.05,0,0,0,2.83-2.06,8.74,8.74,0,0,0,1.73-3.07,13.12,13.12,0,0,0,0-7.65,8.79,8.79,0,0,0-1.73-3.1,8.08,8.08,0,0,0-2.83-2.07,9.45,9.45,0,0,0-3.9-.76,9.47,9.47,0,0,0-3.89.76,8.06,8.06,0,0,0-2.85,2.07,8.61,8.61,0,0,0-1.72,3.1,12.9,12.9,0,0,0,0,7.65,8.57,8.57,0,0,0,1.72,3.07,8,8,0,0,0,2.85,2.06,9.64,9.64,0,0,0,3.89.73A9.62,9.62,0,0,0,33.26,182.53Zm-8-3.75A6.3,6.3,0,0,1,24,176.59a10.29,10.29,0,0,1,0-6,6.49,6.49,0,0,1,1.24-2.21A5.29,5.29,0,0,1,27.11,167a5.5,5.5,0,0,1,2.25-.47,5.57,5.57,0,0,1,2.25.47,5.35,5.35,0,0,1,1.85,1.37,6.49,6.49,0,0,1,1.24,2.21,10.29,10.29,0,0,1,0,6,6.3,6.3,0,0,1-1.24,2.19,5.42,5.42,0,0,1-1.85,1.35,5.57,5.57,0,0,1-2.25.47,5.5,5.5,0,0,1-2.25-.47A5.36,5.36,0,0,1,25.25,178.78Z"/><rect x="42.17" y="164.26" width="3.06" height="18.61"/><rect x="42.17" y="157.16" width="3.06" height="3.74"/><path d="M64,165.73a4.91,4.91,0,0,0-2-1.4,8,8,0,0,0-3.06-.51,6.45,6.45,0,0,0-6,3.39h-.07v-3H50v18.61H53V172.36a7.85,7.85,0,0,1,.34-2.33,5.32,5.32,0,0,1,1-1.85A4.5,4.5,0,0,1,56.12,167a6.17,6.17,0,0,1,2.43-.44,3.49,3.49,0,0,1,3.78,3.75v12.6h3.06V170.63a11.26,11.26,0,0,0-.31-2.76A5.13,5.13,0,0,0,64,165.73Z"/><path d="M68,167h3.17V178.8a7.06,7.06,0,0,0,.25,2.09,2.52,2.52,0,0,0,.77,1.22,3,3,0,0,0,1.37.6,11.68,11.68,0,0,0,2,.16H78v-2.7h-1.4a9.19,9.19,0,0,1-1.17-.06,1.45,1.45,0,0,1-.7-.23.89.89,0,0,1-.34-.5,3.41,3.41,0,0,1-.09-.87V167H78v-2.7h-3.7v-5.58H71.19v5.58H68Z"/><path d="M20.68,215.73a10.17,10.17,0,0,0-3.56-2.85,11.08,11.08,0,0,0-5-1.06,11.71,11.71,0,0,0-4.75.94,6.07,6.07,0,0,0-3.17,3h-.1V212.4H0v34.27H4.09V233.9h.1a6.69,6.69,0,0,0,1.65,1.85,8.88,8.88,0,0,0,2.09,1.18,12.25,12.25,0,0,0,4.27.81,11.4,11.4,0,0,0,5-1A9.82,9.82,0,0,0,20.72,234a11.75,11.75,0,0,0,2.12-4.1,17.64,17.64,0,0,0,.69-5,16.91,16.91,0,0,0-.72-5A12.7,12.7,0,0,0,20.68,215.73Zm-1.85,12.41a9.35,9.35,0,0,1-1.25,3.07,6.56,6.56,0,0,1-2.28,2.16,6.91,6.91,0,0,1-3.53.82,7.54,7.54,0,0,1-3.6-.79,7,7,0,0,1-2.42-2.09,8.59,8.59,0,0,1-1.37-3A14.22,14.22,0,0,1,4,224.78a14,14,0,0,1,.41-3.41,8.85,8.85,0,0,1,1.32-3,6.76,6.76,0,0,1,5.85-3,7.29,7.29,0,0,1,3.43.77,6.76,6.76,0,0,1,2.4,2.06,9.19,9.19,0,0,1,1.4,3,12.81,12.81,0,0,1,.45,3.38A16.64,16.64,0,0,1,18.83,228.14Z"/><path d="M48,215.59a10.81,10.81,0,0,0-3.77-2.76,12.53,12.53,0,0,0-5.2-1,12.65,12.65,0,0,0-5.19,1,10.8,10.8,0,0,0-3.79,2.76,11.58,11.58,0,0,0-2.3,4.13,16.28,16.28,0,0,0-.77,5.11,16.11,16.11,0,0,0,.77,5.09,11.62,11.62,0,0,0,2.3,4.1,10.63,10.63,0,0,0,3.79,2.74,13,13,0,0,0,5.19,1,12.86,12.86,0,0,0,5.2-1A10.64,10.64,0,0,0,48,234a11.64,11.64,0,0,0,2.31-4.1,16.4,16.4,0,0,0,.76-5.09,16.57,16.57,0,0,0-.76-5.11A11.6,11.6,0,0,0,48,215.59Zm-1.85,13.25a8.35,8.35,0,0,1-1.65,2.92,7.12,7.12,0,0,1-2.47,1.8,7.46,7.46,0,0,1-6,0,7.06,7.06,0,0,1-2.48-1.8,8.35,8.35,0,0,1-1.65-2.92,13.7,13.7,0,0,1,0-8,8.68,8.68,0,0,1,1.65-2.95A7,7,0,0,1,36,216.05a7.46,7.46,0,0,1,6,0,7.05,7.05,0,0,1,2.47,1.82,8.68,8.68,0,0,1,1.65,2.95,13.7,13.7,0,0,1,0,8Z"/><rect x="56.12" y="202.94" width="4.08" height="4.99"/><rect x="56.12" y="212.4" width="4.08" height="24.82"/><path d="M85.26,214.37a6.71,6.71,0,0,0-2.64-1.88,11,11,0,0,0-4.08-.67,8.62,8.62,0,0,0-8.07,4.51h-.09V212.4H66.54v24.81h4.08v-14a10.23,10.23,0,0,1,.45-3.1,7.09,7.09,0,0,1,1.37-2.47A6.1,6.1,0,0,1,74.72,216a8.19,8.19,0,0,1,3.24-.58,5,5,0,0,1,3.7,1.34A5,5,0,0,1,83,220.41v16.8h4.08V220.89a15,15,0,0,0-.41-3.67A7,7,0,0,0,85.26,214.37Z"/><path d="M103.83,216v-3.6H98.89V205H94.81v7.44H90.59V216h4.22v15.79a9.18,9.18,0,0,0,.34,2.78,3.34,3.34,0,0,0,1,1.64A4.06,4.06,0,0,0,98,237a15.07,15.07,0,0,0,2.71.21h3.12v-3.6H102a13.23,13.23,0,0,1-1.56-.07,2,2,0,0,1-.93-.31,1.18,1.18,0,0,1-.46-.67,4.45,4.45,0,0,1-.12-1.15V216Z"/><path d="M.27,122.42v22.85H3v-8.51h.06A4.37,4.37,0,0,0,4.16,138a6,6,0,0,0,1.39.79,7.34,7.34,0,0,0,1.49.41,7.67,7.67,0,0,0,1.36.13,7.67,7.67,0,0,0,3.31-.67,6.65,6.65,0,0,0,2.37-1.84,7.81,7.81,0,0,0,1.4-2.74,11.58,11.58,0,0,0,.47-3.32,11.26,11.26,0,0,0-.48-3.33A8.37,8.37,0,0,0,14,124.65a6.66,6.66,0,0,0-2.36-1.9A7.48,7.48,0,0,0,8.33,122a7.83,7.83,0,0,0-3.17.63,4,4,0,0,0-2.11,2H3v-2.25Zm2.89,6a6.25,6.25,0,0,1,.88-2A4.79,4.79,0,0,1,5.61,125,4.71,4.71,0,0,1,8,124.44a4.92,4.92,0,0,1,2.29.51,4.54,4.54,0,0,1,1.6,1.38,6.06,6.06,0,0,1,.92,2,8.15,8.15,0,0,1,.31,2.25,11,11,0,0,1-.26,2.37A6.35,6.35,0,0,1,12,135a4.29,4.29,0,0,1-1.52,1.44,4.67,4.67,0,0,1-2.35.54,5,5,0,0,1-2.4-.53A4.65,4.65,0,0,1,4.09,135a5.82,5.82,0,0,1-.91-2,9.67,9.67,0,0,1,0-4.62Z"/><path d="M29.76,122.71a8.38,8.38,0,0,0-3.48-.67,8.33,8.33,0,0,0-3.45.67,7.25,7.25,0,0,0-2.53,1.84,7.8,7.8,0,0,0-1.54,2.75,11.12,11.12,0,0,0-.51,3.41,10.85,10.85,0,0,0,.51,3.39,7.76,7.76,0,0,0,1.54,2.74,7.1,7.1,0,0,0,2.53,1.83,8.66,8.66,0,0,0,3.45.65,8.71,8.71,0,0,0,3.48-.65,7.21,7.21,0,0,0,2.51-1.83,7.74,7.74,0,0,0,1.53-2.74,10.85,10.85,0,0,0,.52-3.39,11.12,11.12,0,0,0-.52-3.41,7.78,7.78,0,0,0-1.53-2.75A7.36,7.36,0,0,0,29.76,122.71ZM31,133.38a5.74,5.74,0,0,1-1.11,2,4.87,4.87,0,0,1-1.65,1.2,5.08,5.08,0,0,1-4,0,4.74,4.74,0,0,1-1.64-1.2,5.74,5.74,0,0,1-1.11-2,8.06,8.06,0,0,1-.4-2.67,8.15,8.15,0,0,1,.4-2.67,5.88,5.88,0,0,1,1.11-2,4.52,4.52,0,0,1,1.64-1.21,5,5,0,0,1,4,0,4.64,4.64,0,0,1,1.65,1.21A5.88,5.88,0,0,1,31,128a8.42,8.42,0,0,1,.4,2.67A8.33,8.33,0,0,1,31,133.38Z"/><rect x="37.68" y="116.12" width="2.72" height="3.33"/><rect x="37.68" y="122.42" width="2.72" height="16.54"/><path d="M47.24,125.05h-.06v-2.63H44.62V139h2.72v-9.35a6.79,6.79,0,0,1,.3-2.06,4.9,4.9,0,0,1,.91-1.65,4,4,0,0,1,1.53-1.08,5.41,5.41,0,0,1,2.16-.39,3.32,3.32,0,0,1,2.46.9,3.26,3.26,0,0,1,.89,2.43V139h2.73V128.09a10.31,10.31,0,0,0-.28-2.45,4.53,4.53,0,0,0-.94-1.9,4.48,4.48,0,0,0-1.76-1.25,7.16,7.16,0,0,0-2.72-.45A5.73,5.73,0,0,0,47.24,125.05Z"/><path d="M69.48,139v-2.4H68.24a9.35,9.35,0,0,1-1,0,1.3,1.3,0,0,1-.63-.21.73.73,0,0,1-.3-.44,2.75,2.75,0,0,1-.08-.77V124.83h3.29v-2.41H66.19v-5H63.47v5H60.65v2.41h2.82v10.52a6.3,6.3,0,0,0,.22,1.86,2.28,2.28,0,0,0,.69,1.09,2.75,2.75,0,0,0,1.21.53,10.48,10.48,0,0,0,1.81.14Z"/><path d="M2.38,96.64h.06a3.8,3.8,0,0,0,1,1.07,5.1,5.1,0,0,0,1.22.69,6.14,6.14,0,0,0,1.3.36A6.94,6.94,0,0,0,10,98.29a5.79,5.79,0,0,0,2.07-1.61,6.82,6.82,0,0,0,1.23-2.4,10.18,10.18,0,0,0,.41-2.91,9.94,9.94,0,0,0-.42-2.91A7.42,7.42,0,0,0,12.05,86,6,6,0,0,0,10,84.37a6.51,6.51,0,0,0-2.92-.61,7,7,0,0,0-2.78.54,3.57,3.57,0,0,0-1.84,1.75H2.38v-2H0v20H2.38Zm.15-7.31a5.24,5.24,0,0,1,.77-1.75,4.25,4.25,0,0,1,1.38-1.25,4.16,4.16,0,0,1,2-.47,4.34,4.34,0,0,1,2,.44,3.91,3.91,0,0,1,1.4,1.21,5.05,5.05,0,0,1,.81,1.72,7.26,7.26,0,0,1,.27,2A10.27,10.27,0,0,1,11,93.28a5.62,5.62,0,0,1-.73,1.79,3.92,3.92,0,0,1-1.33,1.26,4.05,4.05,0,0,1-2.06.47,4.4,4.4,0,0,1-2.1-.46,4,4,0,0,1-1.41-1.22,4.93,4.93,0,0,1-.8-1.75,8.16,8.16,0,0,1-.25-2.05A8.8,8.8,0,0,1,2.53,89.33Z"/><path d="M25.8,84.34a7.36,7.36,0,0,0-3-.58,7.36,7.36,0,0,0-3,.58A6.35,6.35,0,0,0,17.53,86a6.87,6.87,0,0,0-1.35,2.41,9.63,9.63,0,0,0-.44,3,9.44,9.44,0,0,0,.44,3,6.74,6.74,0,0,0,1.35,2.4,6.06,6.06,0,0,0,2.21,1.59,7.53,7.53,0,0,0,3,.58,7.53,7.53,0,0,0,3-.58A6.19,6.19,0,0,0,28,96.71a6.72,6.72,0,0,0,1.34-2.4,9.43,9.43,0,0,0,.45-3,9.63,9.63,0,0,0-.45-3A6.85,6.85,0,0,0,28,86,6.5,6.5,0,0,0,25.8,84.34Zm1.12,9.34a4.89,4.89,0,0,1-1,1.71,4.25,4.25,0,0,1-1.45,1,4.43,4.43,0,0,1-3.5,0,4.12,4.12,0,0,1-1.44-1,4.89,4.89,0,0,1-1-1.71,8,8,0,0,1,0-4.67,5.07,5.07,0,0,1,1-1.73A4.14,4.14,0,0,1,21,86.22a4.43,4.43,0,0,1,3.5,0A4.28,4.28,0,0,1,26,87.28a5.07,5.07,0,0,1,1,1.73,8,8,0,0,1,0,4.67Z"/><rect x="32.73" y="84.09" width="2.38" height="14.48"/><rect x="32.73" y="78.58" width="2.38" height="2.91"/><path d="M38.81,84.09V98.57h2.38V90.39a6.07,6.07,0,0,1,.26-1.8,4.26,4.26,0,0,1,.8-1.45,3.68,3.68,0,0,1,1.33-1,4.91,4.91,0,0,1,1.89-.33,2.93,2.93,0,0,1,2.16.78,2.88,2.88,0,0,1,.78,2.13v9.8h2.38V89.05a8.81,8.81,0,0,0-.24-2.14,4.09,4.09,0,0,0-.82-1.67,4,4,0,0,0-1.54-1.09,6.34,6.34,0,0,0-2.38-.39,5,5,0,0,0-4.71,2.63h-.05v-2.3Z"/><path d="M55.3,95.4A5.2,5.2,0,0,0,55.5,97a2,2,0,0,0,.6,1,2.3,2.3,0,0,0,1.06.46,8.06,8.06,0,0,0,1.58.13h1.82v-2.1H59.47c-.37,0-.68,0-.91,0a1.11,1.11,0,0,1-.54-.19.65.65,0,0,1-.27-.39,2.45,2.45,0,0,1-.07-.67v-9h2.88v-2.1H57.68V79.75H55.3v4.34H52.83v2.1H55.3Z"/></svg>