<svg xmlns="http://www.w3.org/2000/svg" viewBox="0 0 50.93 237.68"><title>Interior graphics</title><path d="M2.72,8.51h1V0H3a1.82,1.82,0,0,1-.31.79,1.64,1.64,0,0,1-.56.49,2.18,2.18,0,0,1-.73.25,6,6,0,0,1-.84.07v.81h2.2Z"/><path d="M10.45,3.84a4.53,4.53,0,0,1-.68.57c-.27.19-.59.39-.95.62A8.32,8.32,0,0,0,8,5.59a3.72,3.72,0,0,0-.73.7,3.25,3.25,0,0,0-.54.93,4.43,4.43,0,0,0-.27,1.29H12v-.9H7.62a1.54,1.54,0,0,1,.31-.7,2.74,2.74,0,0,1,.56-.57,4.93,4.93,0,0,1,.73-.5L10,5.36c.26-.16.52-.34.77-.52a4.84,4.84,0,0,0,.66-.62,3,3,0,0,0,.46-.78,2.74,2.74,0,0,0,.17-1,2.54,2.54,0,0,0-.21-1.06,2.17,2.17,0,0,0-.57-.76,2.65,2.65,0,0,0-.84-.47,3.24,3.24,0,0,0-1-.16,3,3,0,0,0-1.2.23,2.36,2.36,0,0,0-.88.63,2.6,2.6,0,0,0-.53,1A3.6,3.6,0,0,0,6.67,3h1a2.81,2.81,0,0,1,.08-.76,2.18,2.18,0,0,1,.29-.68,1.53,1.53,0,0,1,.53-.48A1.41,1.41,0,0,1,9.35.9,1.9,1.9,0,0,1,10,1a1.48,1.48,0,0,1,.53.31,1.75,1.75,0,0,1,.35.49,1.39,1.39,0,0,1,.13.63,1.94,1.94,0,0,1-.14.78A2,2,0,0,1,10.45,3.84Z"/><path d="M3,22.88a2.88,2.88,0,0,1-1,.32,6.77,6.77,0,0,1-1.12.09v1.09h3v8.13H5.17V21.16h-1a2.62,2.62,0,0,1-.42,1.06A2.22,2.22,0,0,1,3,22.88Z"/><path d="M9.86,23A6,6,0,0,0,9.18,25,12,12,0,0,0,9,27.24a13.33,13.33,0,0,0,.13,1.86,5.57,5.57,0,0,0,.55,1.76,3.56,3.56,0,0,0,1.19,1.31,3.61,3.61,0,0,0,2,.51,4.07,4.07,0,0,0,1.8-.36,3.38,3.38,0,0,0,1.17-.91,3.55,3.55,0,0,0,.63-1.22,4.65,4.65,0,0,0,.19-1.3,4.24,4.24,0,0,0-.24-1.45,3.57,3.57,0,0,0-.68-1.17,3,3,0,0,0-1.09-.78,3.76,3.76,0,0,0-1.46-.28,3.7,3.7,0,0,0-1.64.35,3,3,0,0,0-1.19,1.14l0,0a12.2,12.2,0,0,1,.12-1.41,5.28,5.28,0,0,1,.41-1.4,2.84,2.84,0,0,1,.83-1.07,2.1,2.1,0,0,1,1.39-.43,1.84,1.84,0,0,1,1.31.47A1.94,1.94,0,0,1,15,24.06h1.36a3.08,3.08,0,0,0-1-2.15,3.21,3.21,0,0,0-2.24-.75,3.58,3.58,0,0,0-2,.52A3.72,3.72,0,0,0,9.86,23ZM10.74,28a2.31,2.31,0,0,1,.46-.81,2.27,2.27,0,0,1,.74-.55,2.38,2.38,0,0,1,1-.2,2.28,2.28,0,0,1,1,.21,2.09,2.09,0,0,1,.72.55,2.37,2.37,0,0,1,.43.82,3.61,3.61,0,0,1,.13,1,3,3,0,0,1-.15,1,2.65,2.65,0,0,1-.44.81,2,2,0,0,1-.71.55,2.33,2.33,0,0,1-1,.2,2.48,2.48,0,0,1-1-.2,2.08,2.08,0,0,1-.73-.54,2.33,2.33,0,0,1-.46-.8,3.21,3.21,0,0,1-.16-1A3.32,3.32,0,0,1,10.74,28Z"/><path d="M7.36,55a8.5,8.5,0,0,1-1.24,1c-.5.34-1.08.72-1.74,1.13a15.59,15.59,0,0,0-1.56,1,7.43,7.43,0,0,0-1.35,1.28,6.24,6.24,0,0,0-1,1.7A8.1,8.1,0,0,0,0,63.51H10.19V61.86h-8a2.89,2.89,0,0,1,.56-1.29,6.32,6.32,0,0,1,1-1,12,12,0,0,1,1.33-.92c.49-.28,1-.57,1.46-.87s1-.63,1.4-1a6.92,6.92,0,0,0,1.21-1.14A5,5,0,0,0,10,54.22a4.85,4.85,0,0,0,.32-1.82A4.73,4.73,0,0,0,10,50.46a4.1,4.1,0,0,0-1.05-1.4,4.75,4.75,0,0,0-1.55-.85,6,6,0,0,0-1.9-.3,5.43,5.43,0,0,0-2.2.42,4.46,4.46,0,0,0-1.62,1.15,4.8,4.8,0,0,0-1,1.75,6.56,6.56,0,0,0-.24,2.2H2.31A5,5,0,0,1,2.45,52,3.7,3.7,0,0,1,3,50.79a3,3,0,0,1,1-.89,2.69,2.69,0,0,1,1.4-.34,3.41,3.41,0,0,1,1.16.2,2.72,2.72,0,0,1,1,.57,2.88,2.88,0,0,1,.65.89,2.74,2.74,0,0,1,.24,1.16,3.47,3.47,0,0,1-1,2.57Z"/><path d="M13.87,49.48a4.8,4.8,0,0,0-1,1.75,6.56,6.56,0,0,0-.24,2.2h1.87A5.91,5.91,0,0,1,14.68,52a3.7,3.7,0,0,1,.54-1.25,3,3,0,0,1,1-.89,2.72,2.72,0,0,1,1.4-.34,3.41,3.41,0,0,1,1.16.2,2.72,2.72,0,0,1,1,.57,2.88,2.88,0,0,1,.65.89,2.74,2.74,0,0,1,.24,1.16,3.47,3.47,0,0,1-1,2.57,8,8,0,0,1-1.24,1c-.5.34-1.08.72-1.74,1.13a18.28,18.28,0,0,0-1.56,1,7.06,7.06,0,0,0-1.34,1.28,6,6,0,0,0-1,1.7,8.1,8.1,0,0,0-.5,2.37H22.42V61.86h-8A2.89,2.89,0,0,1,15,60.57a6.32,6.32,0,0,1,1-1,11.26,11.26,0,0,1,1.34-.92l1.45-.87c.48-.3.95-.63,1.41-1a7.7,7.7,0,0,0,1.21-1.14,5.17,5.17,0,0,0,.84-1.42,4.85,4.85,0,0,0,.32-1.82,4.73,4.73,0,0,0-.38-1.94,4.1,4.1,0,0,0-1.05-1.4,4.75,4.75,0,0,0-1.55-.85,5.91,5.91,0,0,0-1.9-.3,5.46,5.46,0,0,0-2.2.42A4.46,4.46,0,0,0,13.87,49.48Z"/><path d="M2.82,181.06a7.16,7.16,0,0,0,2.7,1.6,10.9,10.9,0,0,0,3.53.54,11.79,11.79,0,0,0,3.4-.48,8.07,8.07,0,0,0,2.79-1.46,7.12,7.12,0,0,0,1.89-2.43,7.63,7.63,0,0,0,.7-3.37,7.05,7.05,0,0,0-1.13-4,5.35,5.35,0,0,0-3.48-2.2v-.07a6.45,6.45,0,0,0,2.52-2,4.86,4.86,0,0,0,1-3.06,7.42,7.42,0,0,0-.59-3.06,5.69,5.69,0,0,0-1.64-2.12,7.09,7.09,0,0,0-2.47-1.24A10.75,10.75,0,0,0,9,157.28a8.59,8.59,0,0,0-3.37.62,6.64,6.64,0,0,0-2.43,1.69,7.27,7.27,0,0,0-1.49,2.59,11.6,11.6,0,0,0-.6,3.35H4.15a7.83,7.83,0,0,1,.29-2.13,5.11,5.11,0,0,1,.88-1.76,4.4,4.4,0,0,1,1.51-1.21A4.86,4.86,0,0,1,9,160a5.11,5.11,0,0,1,3.24,1,3.69,3.69,0,0,1,1.29,3.08,4,4,0,0,1-.39,1.8,3.81,3.81,0,0,1-1.07,1.31,4.68,4.68,0,0,1-1.54.79,6.34,6.34,0,0,1-1.86.27h-1l-.32,0v2.59a15.3,15.3,0,0,1,1.84-.11,7.05,7.05,0,0,1,2.14.31A4.57,4.57,0,0,1,13,172a4.72,4.72,0,0,1,1.15,1.55,4.88,4.88,0,0,1,.43,2.11,4.63,4.63,0,0,1-.45,2.07,4.72,4.72,0,0,1-1.2,1.55,5.62,5.62,0,0,1-1.77,1,6.5,6.5,0,0,1-2.12.34,5,5,0,0,1-4-1.57,6.23,6.23,0,0,1-1.44-4.05H.55a9.32,9.32,0,0,0,.56,3.53A7.14,7.14,0,0,0,2.82,181.06Z"/><path d="M33.69,182.39a7.6,7.6,0,0,0,2.63-2,7.84,7.84,0,0,0,1.42-2.75,10.54,10.54,0,0,0,.43-2.92,9.63,9.63,0,0,0-.54-3.27,7.88,7.88,0,0,0-1.53-2.63A6.73,6.73,0,0,0,33.65,167a8.21,8.21,0,0,0-3.29-.63,8.34,8.34,0,0,0-3.69.79A6.56,6.56,0,0,0,24,169.74l-.07-.07a26.54,26.54,0,0,1,.28-3.17,11.86,11.86,0,0,1,.92-3.15A6.46,6.46,0,0,1,27,160.94a4.81,4.81,0,0,1,3.13-1,4.13,4.13,0,0,1,3,1.05,4.39,4.39,0,0,1,1.33,2.77h3.06A7,7,0,0,0,35.29,159a7.27,7.27,0,0,0-5-1.68,8.24,8.24,0,0,0-4.53,1.16,8.47,8.47,0,0,0-2.88,3.06,13.86,13.86,0,0,0-1.53,4.37,28.26,28.26,0,0,0-.45,5.09,30.35,30.35,0,0,0,.3,4.18,12.48,12.48,0,0,0,1.24,4,8,8,0,0,0,2.67,3,8.08,8.08,0,0,0,4.57,1.15A9.08,9.08,0,0,0,33.69,182.39Zm-7.81-3.51a5.14,5.14,0,0,1-1-1.8,6.77,6.77,0,0,1-.36-2.23,7.56,7.56,0,0,1,.34-2.25,5,5,0,0,1,2.69-3.06,5.3,5.3,0,0,1,2.26-.45,5.2,5.2,0,0,1,2.27.47,4.8,4.8,0,0,1,1.62,1.24,5.12,5.12,0,0,1,1,1.84,8.26,8.26,0,0,1,.3,2.25,6.66,6.66,0,0,1-.34,2.14,5.83,5.83,0,0,1-1,1.82,4.55,4.55,0,0,1-1.6,1.24,5.18,5.18,0,0,1-2.22.45,5.38,5.38,0,0,1-2.25-.45A4.71,4.71,0,0,1,25.88,178.88Z"/><path d="M19.58,203.12H16.32L.82,225.25v3.93H15.74v8h3.84v-8h4.61v-3.6H19.58Zm-3.84,22.46H4.32l11.33-16.65h.09Z"/><path d="M49.44,222a8.28,8.28,0,0,0-4.56-3.15A7.92,7.92,0,0,0,48.31,216a7.39,7.39,0,0,0,1.27-4.2,9.21,9.21,0,0,0-.57-3.19,7.87,7.87,0,0,0-1.8-2.79,9.06,9.06,0,0,0-3.19-2,13.68,13.68,0,0,0-4.76-.74,12.07,12.07,0,0,0-3.76.58,9.88,9.88,0,0,0-3.2,1.68,7.92,7.92,0,0,0-3,6.43,7.49,7.49,0,0,0,1.3,4.25,7.29,7.29,0,0,0,3.45,2.8,8.69,8.69,0,0,0-4.41,3.24,9,9,0,0,0-1.54,5.26A10.88,10.88,0,0,0,29,231.9a9.1,9.1,0,0,0,2.45,3.24,10.29,10.29,0,0,0,3.67,1.92,16.27,16.27,0,0,0,4.56.62,14,14,0,0,0,4.41-.67,10.16,10.16,0,0,0,3.58-2,9.52,9.52,0,0,0,2.4-3.24,10.47,10.47,0,0,0,.89-4.42A9.3,9.3,0,0,0,49.44,222ZM33.6,212a5,5,0,0,1,.48-2.25,5.13,5.13,0,0,1,1.27-1.64,5.3,5.3,0,0,1,1.9-1,7.62,7.62,0,0,1,2.3-.34A6.28,6.28,0,0,1,43.66,208a4.76,4.76,0,0,1,1.6,3.91,5.15,5.15,0,0,1-1.58,4,5.78,5.78,0,0,1-4,1.45,8.14,8.14,0,0,1-2.35-.34,5.34,5.34,0,0,1-1.92-1,4.79,4.79,0,0,1-1.3-1.7A5.73,5.73,0,0,1,33.6,212Zm12.5,18.19a5.93,5.93,0,0,1-1.44,2.09,6.59,6.59,0,0,1-2.2,1.39,7.51,7.51,0,0,1-2.81.51,7.71,7.71,0,0,1-5.21-1.75,6,6,0,0,1-2-4.83,6.37,6.37,0,0,1,.55-2.69,6.13,6.13,0,0,1,1.54-2.06,6.79,6.79,0,0,1,2.3-1.32A8.67,8.67,0,0,1,39.6,221a7.22,7.22,0,0,1,2.71.51,7.13,7.13,0,0,1,2.23,1.37,6.27,6.27,0,0,1,1.52,2,6.06,6.06,0,0,1,.55,2.56A6.68,6.68,0,0,1,46.1,230.14Z"/><path d="M11.44,135.72a4.71,4.71,0,0,1-1.57.87,5.94,5.94,0,0,1-1.89.3,4.46,4.46,0,0,1-3.55-1.39,5.53,5.53,0,0,1-1.28-3.6H.43A8.39,8.39,0,0,0,.93,135a6.29,6.29,0,0,0,1.52,2.32,6.41,6.41,0,0,0,2.4,1.42,9.65,9.65,0,0,0,3.13.48,10.32,10.32,0,0,0,3-.43,7.16,7.16,0,0,0,2.48-1.3,6.23,6.23,0,0,0,1.68-2.16,6.88,6.88,0,0,0,.62-3,6.17,6.17,0,0,0-1-3.55,4.7,4.7,0,0,0-3.08-2v-.07A5.73,5.73,0,0,0,13.94,125a4.44,4.44,0,0,0,.89-2.72,6.35,6.35,0,0,0-.53-2.72,5,5,0,0,0-1.45-1.89,6.27,6.27,0,0,0-2.19-1.1,9.65,9.65,0,0,0-2.74-.37,7.71,7.71,0,0,0-3,.54,6,6,0,0,0-2.16,1.51,6.62,6.62,0,0,0-1.33,2.3,10.25,10.25,0,0,0-.53,3H3.63a6.9,6.9,0,0,1,.26-1.89,4.53,4.53,0,0,1,.78-1.57A3.78,3.78,0,0,1,6,119a4.19,4.19,0,0,1,1.9-.4,4.49,4.49,0,0,1,2.88.91A3.28,3.28,0,0,1,12,122.27a3.58,3.58,0,0,1-.35,1.6,3.38,3.38,0,0,1-.94,1.17,4.28,4.28,0,0,1-1.38.7,5.58,5.58,0,0,1-1.65.24H6.74l-.29,0v2.3a13.93,13.93,0,0,1,1.63-.09,6.42,6.42,0,0,1,1.9.27,4,4,0,0,1,2.55,2.21,4.4,4.4,0,0,1,.38,1.87,4.11,4.11,0,0,1-.4,1.84A4,4,0,0,1,11.44,135.72Z"/><path d="M26,116.22a7.91,7.91,0,0,0-3.2.61,6.31,6.31,0,0,0-2.35,1.68,6.76,6.76,0,0,0-1.4,2.54,9.24,9.24,0,0,0-.35,3.2h2.72a7.74,7.74,0,0,1,.21-2,5.55,5.55,0,0,1,.78-1.81,4.33,4.33,0,0,1,1.4-1.29,3.94,3.94,0,0,1,2-.5,5,5,0,0,1,1.69.29,4.1,4.1,0,0,1,1.4.83,4.25,4.25,0,0,1,.94,1.3,4,4,0,0,1,.35,1.68,5.14,5.14,0,0,1-1.45,3.74A11.49,11.49,0,0,1,26.93,128c-.73.5-1.57,1-2.53,1.65-.79.47-1.55,1-2.27,1.5A10.41,10.41,0,0,0,20.18,133a9,9,0,0,0-1.43,2.48,12.24,12.24,0,0,0-.72,3.44H32.85v-2.4H21.2a4.22,4.22,0,0,1,.82-1.87,8.28,8.28,0,0,1,1.5-1.52,15.73,15.73,0,0,1,1.94-1.33l2.11-1.27c.7-.44,1.38-.91,2.05-1.4a10.62,10.62,0,0,0,1.76-1.65,7.67,7.67,0,0,0,1.23-2.07,7,7,0,0,0,.46-2.65,6.73,6.73,0,0,0-.56-2.82,5.74,5.74,0,0,0-1.52-2,6.85,6.85,0,0,0-2.25-1.25A8.69,8.69,0,0,0,26,116.22Z"/><path d="M9.51,87.62A10.5,10.5,0,0,1,7.93,89c-.64.43-1.37.92-2.21,1.44-.69.41-1.36.85-2,1.31A9.11,9.11,0,0,0,2,93.33,8.17,8.17,0,0,0,.77,95.5a11,11,0,0,0-.63,3h13v-2.1H2.92a3.79,3.79,0,0,1,.71-1.64A7.21,7.21,0,0,1,5,93.44a13.55,13.55,0,0,1,1.69-1.16l1.85-1.11c.61-.39,1.21-.8,1.79-1.23a9.19,9.19,0,0,0,1.54-1.44,6.59,6.59,0,0,0,1.08-1.81,6.16,6.16,0,0,0,.4-2.32,5.79,5.79,0,0,0-.49-2.47,4.92,4.92,0,0,0-1.33-1.77,5.91,5.91,0,0,0-2-1.1,7.66,7.66,0,0,0-2.42-.37,6.89,6.89,0,0,0-2.8.53,5.62,5.62,0,0,0-2.06,1.47A5.93,5.93,0,0,0,1,82.88a8.23,8.23,0,0,0-.31,2.8H3.08a7.06,7.06,0,0,1,.19-1.77A4.73,4.73,0,0,1,4,82.32a3.78,3.78,0,0,1,1.22-1.13A3.45,3.45,0,0,1,7,80.76,4.3,4.3,0,0,1,8.43,81a3.57,3.57,0,0,1,1.22.73,3.38,3.38,0,0,1,1.13,2.6,4.66,4.66,0,0,1-.32,1.82A4.76,4.76,0,0,1,9.51,87.62Z"/><path d="M18.62,80a4.64,4.64,0,0,0-1.76,3.75,4.32,4.32,0,0,0,.76,2.48,4.25,4.25,0,0,0,2,1.64,5,5,0,0,0-2.57,1.89,5.27,5.27,0,0,0-.9,3.07,6.22,6.22,0,0,0,.52,2.64,5.1,5.1,0,0,0,1.43,1.89,5.76,5.76,0,0,0,2.14,1.12,9.45,9.45,0,0,0,2.66.37,8.28,8.28,0,0,0,2.57-.4,5.76,5.76,0,0,0,2.09-1.16A5.55,5.55,0,0,0,29,95.37a6,6,0,0,0,.52-2.57,5.42,5.42,0,0,0-.87-3.13A4.81,4.81,0,0,0,26,87.84a4.55,4.55,0,0,0,2-1.67,4.24,4.24,0,0,0,.74-2.45,5.45,5.45,0,0,0-.33-1.86,4.62,4.62,0,0,0-1.05-1.62,5.21,5.21,0,0,0-1.86-1.15,7.88,7.88,0,0,0-2.78-.43,7.26,7.26,0,0,0-2.19.33A6.07,6.07,0,0,0,18.62,80Zm8,11.41a3.57,3.57,0,0,1,.32,1.5,3.88,3.88,0,0,1-.3,1.54,3.42,3.42,0,0,1-.84,1.22,4.11,4.11,0,0,1-1.28.81,4.39,4.39,0,0,1-1.64.29,4.51,4.51,0,0,1-3-1,3.52,3.52,0,0,1-1.19-2.81A3.8,3.8,0,0,1,19,91.34a3.45,3.45,0,0,1,.9-1.2,3.79,3.79,0,0,1,1.34-.77,4.91,4.91,0,0,1,1.64-.27,4.26,4.26,0,0,1,2.88,1.09A3.72,3.72,0,0,1,26.65,91.38Zm-3.8-10.62a3.64,3.64,0,0,1,2.4.77,2.78,2.78,0,0,1,.93,2.28,3,3,0,0,1-.92,2.35,3.37,3.37,0,0,1-2.35.84,4.63,4.63,0,0,1-1.37-.2,3.14,3.14,0,0,1-1.12-.58,2.83,2.83,0,0,1-.76-1,3.26,3.26,0,0,1-.28-1.41,2.88,2.88,0,0,1,.28-1.32,3,3,0,0,1,.74-.95A3.11,3.11,0,0,1,21.51,81,4.57,4.57,0,0,1,22.85,80.76Z"/></svg>