<svg xmlns="http://www.w3.org/2000/svg" xmlns:xlink="http://www.w3.org/1999/xlink" viewBox="0 0 594 400"><defs><pattern id="a" width="71.91" height="54.09" patternTransform="translate(107.45)" patternUnits="userSpaceOnUse" viewBox="0 0 71.91 54.09"><rect width="71.91" height="54.09" fill="none"/><path d="M1.19,49.59A.29.29,0,0,1,1,49.5a.31.31,0,0,1-.09-.21A.27.27,0,0,1,1,49.08a.3.3,0,0,1,.42,0,.33.33,0,0,1,.09.22.32.32,0,0,1-.08.21A.31.31,0,0,1,1.19,49.59Z" fill="#1d1d1b"/><path d="M2.4,50.79a.3.3,0,0,1-.21-.08.3.3,0,0,1-.1-.22.31.31,0,0,1,.61,0,.33.33,0,0,1-.09.21A.3.3,0,0,1,2.4,50.79Z" fill="#1d1d1b"/><path d="M3.6,52a.29.29,0,0,1-.22-.09.3.3,0,0,1-.08-.21.27.27,0,0,1,.09-.21.32.32,0,0,1,.42,0,.29.29,0,0,1,0,.42A.27.27,0,0,1,3.6,52Z" fill="#1d1d1b"/><path d="M4.8,53.2a.33.33,0,0,1-.21-.09.31.31,0,0,1-.09-.22.3.3,0,0,1,.08-.2.3.3,0,0,1,.43,0,.29.29,0,0,1,.09.21.28.28,0,0,1-.09.22A.31.31,0,0,1,4.8,53.2Z" fill="#1d1d1b"/><path d="M1.18,43.58a.31.31,0,0,1-.3-.3A.31.31,0,0,1,1,43.07a.3.3,0,0,1,.51.21.29.29,0,0,1-.09.21A.25.25,0,0,1,1.18,43.58Z" fill="#1d1d1b"/><path d="M2.39,44.78a.32.32,0,0,1-.21-.08.3.3,0,0,1-.1-.22.31.31,0,1,1,.52.21A.3.3,0,0,1,2.39,44.78Z" fill="#1d1d1b"/><path d="M3.59,46a.31.31,0,0,1-.22-.09.32.32,0,0,1-.08-.21.34.34,0,0,1,.08-.21.31.31,0,0,1,.43,0,.29.29,0,0,1,.09.21.28.28,0,0,1-.1.22A.26.26,0,0,1,3.59,46Z" fill="#1d1d1b"/><path d="M4.79,47.18a.3.3,0,0,1-.21-.08.33.33,0,0,1-.09-.22.34.34,0,0,1,.08-.21.32.32,0,0,1,.44,0,.26.26,0,0,1,.08.2A.31.31,0,0,1,5,47.1.3.3,0,0,1,4.79,47.18Z" fill="#1d1d1b"/><path d="M6,48.39a.31.31,0,0,1-.3-.3.31.31,0,0,1,.09-.22.32.32,0,0,1,.43,0,.3.3,0,0,1,.08.21.34.34,0,0,1-.08.21A.31.31,0,0,1,6,48.39Z" fill="#1d1d1b"/><path d="M7.19,49.59A.27.27,0,0,1,7,49.5a.29.29,0,0,1-.09-.21.32.32,0,0,1,.1-.22.31.31,0,0,1,.42,0,.3.3,0,0,1,.08.21.29.29,0,0,1-.09.21A.28.28,0,0,1,7.19,49.59Z" fill="#1d1d1b"/><path d="M8.4,50.79a.32.32,0,0,1-.21-.08.3.3,0,0,1-.1-.22.31.31,0,0,1,.52-.21.3.3,0,0,1-.21.51Z" fill="#1d1d1b"/><path d="M9.6,52a.31.31,0,0,1-.22-.09.29.29,0,0,1-.08-.21.27.27,0,0,1,.09-.21.32.32,0,0,1,.42,0,.29.29,0,0,1,.09.21.31.31,0,0,1-.3.3Z" fill="#1d1d1b"/><path d="M10.8,53.2a.28.28,0,0,1-.21-.1.26.26,0,0,1-.09-.21.3.3,0,0,1,.09-.21.31.31,0,0,1,.42,0,.32.32,0,0,1,.09.21.3.3,0,0,1-.08.21A.34.34,0,0,1,10.8,53.2Z" fill="#1d1d1b"/><path d="M1.17,37.57A.3.3,0,0,1,1,37.48a.29.29,0,0,1-.09-.21A.27.27,0,0,1,1,37.06a.31.31,0,0,1,.43,0,.3.3,0,0,1,.08.21.29.29,0,0,1-.09.21A.27.27,0,0,1,1.17,37.57Z" fill="#1d1d1b"/><path d="M2.38,38.77a.29.29,0,0,1-.22-.09.31.31,0,0,1-.09-.21.33.33,0,0,1,.09-.21.31.31,0,0,1,.43,0,.29.29,0,0,1,.09.21.28.28,0,0,1-.1.21A.25.25,0,0,1,2.38,38.77Z" fill="#1d1d1b"/><path d="M3.58,40a.31.31,0,0,1-.22-.09.3.3,0,0,1-.08-.21.3.3,0,0,1,.51-.21.29.29,0,0,1,.09.21.31.31,0,0,1-.3.3Z" fill="#1d1d1b"/><path d="M4.78,41.17a.3.3,0,0,1-.21-.08.33.33,0,0,1-.09-.22.27.27,0,0,1,.09-.2.3.3,0,0,1,.51.2.31.31,0,0,1-.09.22A.3.3,0,0,1,4.78,41.17Z" fill="#1d1d1b"/><path d="M6,42.38a.31.31,0,0,1-.3-.3.27.27,0,0,1,.09-.21.3.3,0,0,1,.51.21.31.31,0,0,1-.3.3Z" fill="#1d1d1b"/><path d="M7.18,43.58A.3.3,0,0,1,7,43.07a.3.3,0,0,1,.42,0,.34.34,0,0,1,.1.22.3.3,0,0,1-.1.21A.26.26,0,0,1,7.18,43.58Z" fill="#1d1d1b"/><path d="M8.39,44.78a.29.29,0,0,1-.22-.09.29.29,0,0,1-.09-.21.31.31,0,0,1,.61,0,.29.29,0,0,1-.09.21A.27.27,0,0,1,8.39,44.78Z" fill="#1d1d1b"/><path d="M9.59,46a.29.29,0,0,1-.22-.09.32.32,0,0,1-.08-.21.27.27,0,0,1,.09-.21.3.3,0,0,1,.42,0,.27.27,0,0,1,.09.2.31.31,0,0,1-.3.3Z" fill="#1d1d1b"/><path d="M10.79,47.18a.32.32,0,0,1-.21-.08.33.33,0,0,1-.09-.22.34.34,0,0,1,.08-.21.3.3,0,0,1,.43,0,.25.25,0,0,1,.09.2.31.31,0,0,1-.09.22A.32.32,0,0,1,10.79,47.18Z" fill="#1d1d1b"/><path d="M12,48.39a.31.31,0,0,1-.3-.3.32.32,0,0,1,.09-.22.32.32,0,0,1,.43,0,.3.3,0,0,1,.08.21.34.34,0,0,1-.08.21A.33.33,0,0,1,12,48.39Z" fill="#1d1d1b"/><path d="M13.19,49.59a.31.31,0,0,1-.3-.3.32.32,0,0,1,.1-.22.31.31,0,0,1,.42,0,.3.3,0,0,1,.08.21.29.29,0,0,1-.08.21A.31.31,0,0,1,13.19,49.59Z" fill="#1d1d1b"/><path d="M14.4,50.79a.31.31,0,0,1-.22-.09.29.29,0,0,1-.09-.21.28.28,0,0,1,.1-.21.31.31,0,0,1,.42,0,.31.31,0,0,1,.09.21.33.33,0,0,1-.09.21A.3.3,0,0,1,14.4,50.79Z" fill="#1d1d1b"/><path d="M15.6,52a.3.3,0,0,1-.21-.08.31.31,0,0,1-.09-.22.27.27,0,0,1,.09-.21.31.31,0,0,1,.42,0,.27.27,0,0,1,.09.2.27.27,0,0,1-.09.21A.29.29,0,0,1,15.6,52Z" fill="#1d1d1b"/><path d="M16.8,53.19a.3.3,0,0,1-.21-.08.31.31,0,0,1-.09-.22.27.27,0,0,1,.09-.2.3.3,0,0,1,.42,0,.29.29,0,0,1,.09.21.29.29,0,0,1-.09.22A.3.3,0,0,1,16.8,53.19Z" fill="#1d1d1b"/><path d="M1.16,31.56a.31.31,0,0,1-.3-.3A.29.29,0,0,1,1,31.05a.3.3,0,0,1,.42,0,.31.31,0,0,1,.09.22.32.32,0,0,1-.08.21A.31.31,0,0,1,1.16,31.56Z" fill="#1d1d1b"/><path d="M2.37,32.76a.28.28,0,0,1-.22-.09.33.33,0,0,1-.09-.21.3.3,0,0,1,.52-.21.31.31,0,0,1,.09.21.31.31,0,0,1-.3.3Z" fill="#1d1d1b"/><path d="M3.57,34a.31.31,0,0,1-.22-.09.3.3,0,0,1-.08-.21.32.32,0,0,1,.08-.21.31.31,0,0,1,.43,0,.29.29,0,0,1,.09.21.36.36,0,0,1-.09.22A.3.3,0,0,1,3.57,34Z" fill="#1d1d1b"/><path d="M4.77,35.17a.31.31,0,0,1-.21-.09.29.29,0,0,1-.09-.21.29.29,0,0,1,.09-.22.3.3,0,0,1,.51.22.32.32,0,0,1-.08.2A.3.3,0,0,1,4.77,35.17Z" fill="#1d1d1b"/><path d="M6,36.37a.28.28,0,0,1-.21-.1.25.25,0,0,1-.09-.2.3.3,0,0,1,.51-.21.27.27,0,0,1,.09.21.29.29,0,0,1-.09.21A.31.31,0,0,1,6,36.37Z" fill="#1d1d1b"/><path d="M7.17,37.57a.31.31,0,0,1-.3-.3A.31.31,0,0,1,7,37.05a.32.32,0,0,1,.43,0,.3.3,0,0,1,.08.21.34.34,0,0,1-.08.21A.33.33,0,0,1,7.17,37.57Z" fill="#1d1d1b"/><path d="M8.38,38.77a.31.31,0,0,1-.22-.09.33.33,0,0,1-.09-.21.28.28,0,0,1,.1-.21.3.3,0,0,1,.42,0,.29.29,0,0,1,0,.42A.29.29,0,0,1,8.38,38.77Z" fill="#1d1d1b"/><path d="M9.58,40a.29.29,0,0,1-.22-.09.3.3,0,0,1-.08-.21.27.27,0,0,1,.09-.21.32.32,0,0,1,.42,0,.29.29,0,0,1,0,.42A.27.27,0,0,1,9.58,40Z" fill="#1d1d1b"/><path d="M10.78,41.17a.27.27,0,0,1-.21-.09.26.26,0,0,1-.09-.21.3.3,0,0,1,.09-.21.31.31,0,0,1,.42,0,.32.32,0,0,1,.09.21.31.31,0,0,1-.3.3Z" fill="#1d1d1b"/><path d="M12,42.38a.29.29,0,0,1-.21-.09.3.3,0,0,1-.09-.21.3.3,0,0,1,.52-.21.27.27,0,0,1,.08.21.29.29,0,0,1-.09.21A.27.27,0,0,1,12,42.38Z" fill="#1d1d1b"/><path d="M13.18,43.58a.29.29,0,0,1-.21-.09.31.31,0,0,1-.09-.21.32.32,0,0,1,.1-.22.31.31,0,0,1,.42,0,.3.3,0,0,1,.08.21.32.32,0,0,1-.08.21A.31.31,0,0,1,13.18,43.58Z" fill="#1d1d1b"/><path d="M14.39,44.78a.29.29,0,0,1-.22-.09.32.32,0,0,1,0-.42.33.33,0,0,1,.43,0,.33.33,0,0,1,.09.22.33.33,0,0,1-.09.21A.29.29,0,0,1,14.39,44.78Z" fill="#1d1d1b"/><path d="M15.59,46a.31.31,0,0,1-.22-.09.3.3,0,0,1-.08-.21.34.34,0,0,1,.08-.21.31.31,0,0,1,.43,0,.27.27,0,0,1,.09.21.3.3,0,0,1-.1.22A.26.26,0,0,1,15.59,46Z" fill="#1d1d1b"/><path d="M16.79,47.18a.32.32,0,0,1-.21-.08.31.31,0,0,1-.09-.22.29.29,0,0,1,.09-.21.3.3,0,0,1,.42,0,.25.25,0,0,1,.09.2.31.31,0,0,1-.09.22A.32.32,0,0,1,16.79,47.18Z" fill="#1d1d1b"/><path d="M18,48.39a.28.28,0,0,1-.21-.1.27.27,0,0,1-.09-.2.3.3,0,0,1,.51-.22.33.33,0,0,1,.09.22.29.29,0,0,1-.09.21A.31.31,0,0,1,18,48.39Z" fill="#1d1d1b"/><path d="M19.19,49.59A.29.29,0,0,1,19,49.5a.31.31,0,0,1-.09-.21.32.32,0,0,1,.1-.22.31.31,0,0,1,.42,0,.3.3,0,0,1,.08.21.32.32,0,0,1-.08.21A.31.31,0,0,1,19.19,49.59Z" fill="#1d1d1b"/><path d="M20.4,50.79a.29.29,0,0,1-.22-.09.32.32,0,0,1,0-.42.31.31,0,0,1,.42,0,.32.32,0,0,1,.1.22.31.31,0,0,1-.3.3Z" fill="#1d1d1b"/><path d="M21.6,52a.31.31,0,0,1-.22-.09.29.29,0,0,1-.08-.21.27.27,0,0,1,.09-.21.31.31,0,0,1,.42,0,.25.25,0,0,1,.09.2.27.27,0,0,1-.09.21A.29.29,0,0,1,21.6,52Z" fill="#1d1d1b"/><path d="M22.8,53.19a.27.27,0,0,1-.21-.09.26.26,0,0,1-.09-.21.29.29,0,0,1,.09-.21.31.31,0,0,1,.42,0,.3.3,0,0,1,.09.21.31.31,0,0,1-.09.22A.3.3,0,0,1,22.8,53.19Z" fill="#1d1d1b"/><path d="M1.15,25.55A.3.3,0,0,1,.94,25a.3.3,0,0,1,.42,0,.31.31,0,0,1,.09.22.27.27,0,0,1-.09.21A.31.31,0,0,1,1.15,25.55Z" fill="#1d1d1b"/><path d="M2.36,26.75a.31.31,0,0,1-.22-.09.29.29,0,0,1-.09-.21.31.31,0,0,1,.09-.21.3.3,0,0,1,.51.21.32.32,0,0,1-.08.21A.3.3,0,0,1,2.36,26.75Z" fill="#1d1d1b"/><path d="M3.56,28a.3.3,0,0,1-.21-.08.33.33,0,0,1-.09-.22.27.27,0,0,1,.09-.21.3.3,0,0,1,.42,0,.31.31,0,0,1,.09.21.29.29,0,0,1-.09.21A.3.3,0,0,1,3.56,28Z" fill="#1d1d1b"/><path d="M4.76,29.15a.32.32,0,0,1-.21-.08.33.33,0,0,1-.09-.22.29.29,0,0,1,.09-.21.3.3,0,0,1,.42,0,.27.27,0,0,1,.09.21.31.31,0,0,1-.09.22A.32.32,0,0,1,4.76,29.15Z" fill="#1d1d1b"/><path d="M6,30.36a.31.31,0,0,1-.3-.3.3.3,0,0,1,.52-.21.29.29,0,0,1,.08.21.3.3,0,0,1-.09.21A.33.33,0,0,1,6,30.36Z" fill="#1d1d1b"/><path d="M7.16,31.56A.31.31,0,0,1,7,31.47a.29.29,0,0,1,0-.42.3.3,0,0,1,.42,0,.31.31,0,0,1,.09.22.27.27,0,0,1-.09.21A.29.29,0,0,1,7.16,31.56Z" fill="#1d1d1b"/><path d="M8.37,32.76a.29.29,0,0,1-.22-.09.29.29,0,0,1-.09-.21.31.31,0,0,1,.61,0,.33.33,0,0,1-.09.21A.27.27,0,0,1,8.37,32.76Z" fill="#1d1d1b"/><path d="M9.57,34a.27.27,0,0,1-.21-.09.29.29,0,0,1-.09-.21.27.27,0,0,1,.09-.21.3.3,0,0,1,.42,0,.27.27,0,0,1,.09.2.27.27,0,0,1-.09.21A.29.29,0,0,1,9.57,34Z" fill="#1d1d1b"/><path d="M10.77,35.17a.32.32,0,0,1-.22-.1.26.26,0,0,1-.08-.2.29.29,0,0,1,.09-.22.31.31,0,0,1,.42,0,.27.27,0,0,1,.09.21.33.33,0,0,1-.09.21A.31.31,0,0,1,10.77,35.17Z" fill="#1d1d1b"/><path d="M12,36.37a.33.33,0,0,1-.21-.09.3.3,0,0,1-.09-.21.31.31,0,0,1,.09-.22.32.32,0,0,1,.43,0,.3.3,0,0,1,0,.42A.31.31,0,0,1,12,36.37Z" fill="#1d1d1b"/><path d="M13.17,37.57a.29.29,0,0,1-.21-.09.27.27,0,0,1-.09-.21.32.32,0,0,1,.1-.22.31.31,0,0,1,.42,0,.3.3,0,0,1,.08.21.32.32,0,0,1-.08.21A.31.31,0,0,1,13.17,37.57Z" fill="#1d1d1b"/><path d="M14.38,38.77a.31.31,0,0,1-.22-.09.33.33,0,0,1-.09-.21.28.28,0,0,1,.1-.21.3.3,0,0,1,.42,0,.31.31,0,0,1,.09.21.29.29,0,0,1-.09.21A.3.3,0,0,1,14.38,38.77Z" fill="#1d1d1b"/><path d="M15.58,40a.31.31,0,0,1-.22-.09.3.3,0,0,1-.08-.21.29.29,0,0,1,.09-.21.31.31,0,0,1,.42,0,.27.27,0,0,1,.09.21.36.36,0,0,1-.09.22A.3.3,0,0,1,15.58,40Z" fill="#1d1d1b"/><path d="M16.78,41.17a.31.31,0,0,1-.3-.3.27.27,0,0,1,.09-.2.3.3,0,0,1,.42,0,.29.29,0,0,1,.09.21.29.29,0,0,1-.09.22A.3.3,0,0,1,16.78,41.17Z" fill="#1d1d1b"/><path d="M18,42.38a.31.31,0,0,1-.21-.09.3.3,0,0,1-.09-.21.29.29,0,0,1,.09-.21.3.3,0,0,1,.42,0,.31.31,0,0,1,.09.22.27.27,0,0,1-.09.21A.29.29,0,0,1,18,42.38Z" fill="#1d1d1b"/><path d="M19.18,43.58a.27.27,0,0,1-.21-.09.31.31,0,0,1-.09-.21.27.27,0,0,1,.09-.21.31.31,0,0,1,.42,0,.33.33,0,0,1,.09.22.3.3,0,0,1-.08.21A.29.29,0,0,1,19.18,43.58Z" fill="#1d1d1b"/><path d="M20.39,44.78a.29.29,0,0,1-.22-.09.3.3,0,0,1-.08-.21.3.3,0,1,1,.51.21A.3.3,0,0,1,20.39,44.78Z" fill="#1d1d1b"/><path d="M21.59,46a.29.29,0,0,1-.22-.09.3.3,0,0,1-.08-.21.29.29,0,0,1,.09-.21.31.31,0,0,1,.42,0,.3.3,0,0,1,.09.21.29.29,0,0,1-.09.21A.27.27,0,0,1,21.59,46Z" fill="#1d1d1b"/><path d="M22.79,47.18a.3.3,0,0,1-.21-.08.29.29,0,0,1-.09-.22.27.27,0,0,1,.09-.21.32.32,0,0,1,.42,0,.3.3,0,0,1,.09.21.27.27,0,0,1-.09.21A.29.29,0,0,1,22.79,47.18Z" fill="#1d1d1b"/><path d="M24,48.39a.31.31,0,0,1-.3-.3.34.34,0,0,1,.09-.22.32.32,0,0,1,.43,0,.3.3,0,0,1,.08.21.34.34,0,0,1-.08.21A.33.33,0,0,1,24,48.39Z" fill="#1d1d1b"/><path d="M25.19,49.59A.29.29,0,0,1,25,49.5a.31.31,0,0,1-.09-.21.36.36,0,0,1,.09-.22.33.33,0,0,1,.43,0,.32.32,0,0,1,0,.42A.29.29,0,0,1,25.19,49.59Z" fill="#1d1d1b"/><path d="M26.4,50.79a.29.29,0,0,1-.22-.09.32.32,0,0,1,0-.42.32.32,0,0,1,.43,0,.33.33,0,0,1,.09.21.32.32,0,0,1-.1.22A.26.26,0,0,1,26.4,50.79Z" fill="#1d1d1b"/><path d="M27.6,52a.3.3,0,0,1-.21-.08.31.31,0,0,1-.09-.22.29.29,0,0,1,.09-.21.31.31,0,0,1,.42,0,.3.3,0,0,1,.09.21.31.31,0,0,1-.3.3Z" fill="#1d1d1b"/><path d="M28.8,53.19a.27.27,0,0,1-.21-.09.26.26,0,0,1-.09-.21.29.29,0,0,1,.09-.21.31.31,0,0,1,.42,0,.3.3,0,0,1,.09.21.31.31,0,0,1-.09.22A.3.3,0,0,1,28.8,53.19Z" fill="#1d1d1b"/><path d="M1.14,19.54a.31.31,0,0,1-.3-.3A.27.27,0,0,1,.93,19a.3.3,0,0,1,.51.21.29.29,0,0,1-.09.21A.27.27,0,0,1,1.14,19.54Z" fill="#1d1d1b"/><path d="M2.34,20.74a.29.29,0,0,1-.21-.09A.31.31,0,0,1,2,20.44a.29.29,0,0,1,.09-.21.3.3,0,0,1,.42,0,.33.33,0,0,1,.09.22.32.32,0,0,1-.08.21A.31.31,0,0,1,2.34,20.74Z" fill="#1d1d1b"/><path d="M3.55,21.94a.31.31,0,0,1-.31-.3.33.33,0,0,1,.09-.21.31.31,0,0,1,.43,0,.33.33,0,0,1,.09.21.3.3,0,0,1-.1.22A.26.26,0,0,1,3.55,21.94Z" fill="#1d1d1b"/><path d="M4.75,23.14a.3.3,0,0,1-.21-.51.3.3,0,0,1,.42,0,.27.27,0,0,1,.09.2.31.31,0,0,1-.09.22A.32.32,0,0,1,4.75,23.14Z" fill="#1d1d1b"/><path d="M6,24.35a.28.28,0,0,1-.21-.1A.26.26,0,0,1,5.65,24a.3.3,0,0,1,.09-.21.31.31,0,0,1,.42,0,.3.3,0,0,1,.09.21.31.31,0,0,1-.3.31Z" fill="#1d1d1b"/><path d="M7.15,25.55a.31.31,0,0,1-.3-.3A.32.32,0,0,1,7,25a.31.31,0,0,1,.42,0,.3.3,0,0,1,.08.21.29.29,0,0,1-.09.21A.27.27,0,0,1,7.15,25.55Z" fill="#1d1d1b"/><path d="M8.36,26.75a.31.31,0,0,1-.22-.09.29.29,0,0,1-.09-.21.31.31,0,0,1,.52-.21.32.32,0,0,1,0,.42A.29.29,0,0,1,8.36,26.75Z" fill="#1d1d1b"/><path d="M9.56,28a.31.31,0,0,1-.22-.09.29.29,0,0,1-.08-.21.27.27,0,0,1,.09-.21.3.3,0,0,1,.42,0,.29.29,0,0,1,.09.21.27.27,0,0,1-.09.21A.29.29,0,0,1,9.56,28Z" fill="#1d1d1b"/><path d="M10.76,29.15a.31.31,0,0,1-.22-.09.3.3,0,0,1-.08-.21.29.29,0,0,1,.09-.21.31.31,0,0,1,.42,0,.3.3,0,0,1,.09.21.29.29,0,0,1-.09.21A.27.27,0,0,1,10.76,29.15Z" fill="#1d1d1b"/><path d="M12,30.35a.3.3,0,0,1-.21-.08.31.31,0,0,1-.09-.22.29.29,0,0,1,.09-.21.31.31,0,0,1,.43,0,.26.26,0,0,1,.08.2.29.29,0,0,1-.09.22A.3.3,0,0,1,12,30.35Z" fill="#1d1d1b"/><path d="M13.16,31.56a.28.28,0,0,1-.21-.1.27.27,0,0,1-.09-.2A.36.36,0,0,1,13,31a.32.32,0,0,1,.43,0,.3.3,0,0,1,.08.21.29.29,0,0,1-.09.21A.27.27,0,0,1,13.16,31.56Z" fill="#1d1d1b"/><path d="M14.37,32.76a.31.31,0,0,1-.22-.09.3.3,0,0,1-.08-.21.3.3,0,0,1,.6,0,.29.29,0,0,1-.09.21A.3.3,0,0,1,14.37,32.76Z" fill="#1d1d1b"/><path d="M15.57,34a.31.31,0,0,1-.22-.09.32.32,0,0,1-.08-.21.34.34,0,0,1,.08-.21.31.31,0,0,1,.52.21.34.34,0,0,1-.09.22A.3.3,0,0,1,15.57,34Z" fill="#1d1d1b"/><path d="M16.77,35.17a.31.31,0,0,1-.21-.09.29.29,0,0,1-.09-.21.28.28,0,0,1,.09-.22.31.31,0,0,1,.42,0,.28.28,0,0,1,.09.21.3.3,0,0,1-.09.21A.33.33,0,0,1,16.77,35.17Z" fill="#1d1d1b"/><path d="M18,36.36a.3.3,0,0,1-.21-.08.29.29,0,0,1-.09-.21.3.3,0,1,1,.6,0,.29.29,0,0,1-.09.21A.3.3,0,0,1,18,36.36Z" fill="#1d1d1b"/><path d="M19.17,37.57a.31.31,0,0,1-.3-.3.34.34,0,0,1,.09-.22.32.32,0,0,1,.43,0,.3.3,0,0,1,.08.21.27.27,0,0,1-.09.21A.29.29,0,0,1,19.17,37.57Z" fill="#1d1d1b"/><path d="M20.38,38.77a.29.29,0,0,1-.22-.09.32.32,0,0,1,0-.42.31.31,0,0,1,.42,0,.3.3,0,0,1,.1.22.31.31,0,0,1-.3.3Z" fill="#1d1d1b"/><path d="M21.58,40a.29.29,0,0,1-.22-.09.3.3,0,0,1,0-.42.31.31,0,0,1,.42,0,.29.29,0,0,1,.09.21.36.36,0,0,1-.09.22A.3.3,0,0,1,21.58,40Z" fill="#1d1d1b"/><path d="M22.78,41.17a.27.27,0,0,1-.21-.09.25.25,0,0,1-.09-.21.29.29,0,0,1,.09-.21.31.31,0,0,1,.42,0,.29.29,0,0,1,.09.21.29.29,0,0,1-.09.22A.3.3,0,0,1,22.78,41.17Z" fill="#1d1d1b"/><path d="M24,42.38a.31.31,0,0,1-.21-.09.29.29,0,0,1-.09-.21.31.31,0,0,1,.09-.22.32.32,0,0,1,.42,0,.33.33,0,0,1,.09.22.34.34,0,0,1-.08.21A.31.31,0,0,1,24,42.38Z" fill="#1d1d1b"/><path d="M25.18,43.58a.27.27,0,0,1-.21-.09.29.29,0,0,1-.09-.21.31.31,0,0,1,.51-.22.33.33,0,0,1,.09.22.34.34,0,0,1-.08.21A.29.29,0,0,1,25.18,43.58Z" fill="#1d1d1b"/><path d="M26.39,44.78a.29.29,0,0,1-.22-.09.3.3,0,0,1-.08-.21.3.3,0,0,1,.6,0,.32.32,0,0,1-.1.22A.26.26,0,0,1,26.39,44.78Z" fill="#1d1d1b"/><path d="M27.59,46a.3.3,0,0,1-.21-.51.32.32,0,0,1,.42,0,.29.29,0,0,1,0,.42A.29.29,0,0,1,27.59,46Z" fill="#1d1d1b"/><path d="M28.79,47.18a.3.3,0,0,1-.21-.08.29.29,0,0,1-.09-.22.27.27,0,0,1,.09-.21.31.31,0,0,1,.42,0,.27.27,0,0,1,.09.2.29.29,0,0,1-.09.22A.32.32,0,0,1,28.79,47.18Z" fill="#1d1d1b"/><path d="M30,48.39a.31.31,0,0,1-.3-.3.32.32,0,0,1,.09-.22.32.32,0,0,1,.43,0,.3.3,0,0,1,0,.42A.27.27,0,0,1,30,48.39Z" fill="#1d1d1b"/><path d="M31.19,49.59A.29.29,0,0,1,31,49.5a.33.33,0,0,1-.09-.21.31.31,0,0,1,.51-.22.33.33,0,0,1,.09.22.34.34,0,0,1-.08.21A.31.31,0,0,1,31.19,49.59Z" fill="#1d1d1b"/><path d="M32.4,50.79a.28.28,0,0,1-.22-.09.3.3,0,0,1-.08-.21.27.27,0,0,1,.09-.21.31.31,0,0,1,.42,0,.29.29,0,0,1,0,.42A.29.29,0,0,1,32.4,50.79Z" fill="#1d1d1b"/><path d="M33.6,52a.31.31,0,0,1-.22-.09.29.29,0,0,1-.08-.21.27.27,0,0,1,.09-.21.3.3,0,0,1,.51.21.27.27,0,0,1-.09.21A.29.29,0,0,1,33.6,52Z" fill="#1d1d1b"/><path d="M34.8,53.19a.32.32,0,0,1-.21-.08.28.28,0,0,1-.09-.22.27.27,0,0,1,.09-.21.32.32,0,0,1,.43,0,.3.3,0,0,1,.08.2.31.31,0,0,1-.09.22A.3.3,0,0,1,34.8,53.19Z" fill="#1d1d1b"/><path d="M1.13,13.53a.31.31,0,0,1-.3-.3A.31.31,0,0,1,.92,13a.32.32,0,0,1,.43,0,.3.3,0,0,1,0,.42A.31.31,0,0,1,1.13,13.53Z" fill="#1d1d1b"/><path d="M2.33,14.73a.3.3,0,0,1-.21-.51.3.3,0,0,1,.51.21.27.27,0,0,1-.09.21A.26.26,0,0,1,2.33,14.73Z" fill="#1d1d1b"/><path d="M3.54,15.93a.32.32,0,0,1-.21-.08.33.33,0,0,1-.09-.22.3.3,0,0,1,.08-.21.31.31,0,0,1,.43,0,.32.32,0,0,1,0,.42A.29.29,0,0,1,3.54,15.93Z" fill="#1d1d1b"/><path d="M4.74,17.13a.31.31,0,0,1-.3-.3.32.32,0,0,1,.08-.21.31.31,0,0,1,.43,0,.27.27,0,0,1,.09.21.3.3,0,0,1-.1.22A.26.26,0,0,1,4.74,17.13Z" fill="#1d1d1b"/><path d="M5.94,18.34a.31.31,0,0,1-.21-.09A.32.32,0,0,1,5.64,18a.3.3,0,0,1,.51-.21.27.27,0,0,1,.09.21.3.3,0,0,1-.09.21A.31.31,0,0,1,5.94,18.34Z" fill="#1d1d1b"/><path d="M7.14,19.54a.31.31,0,0,1-.3-.3A.27.27,0,0,1,6.93,19a.3.3,0,0,1,.51.21.29.29,0,0,1-.09.21A.27.27,0,0,1,7.14,19.54Z" fill="#1d1d1b"/><path d="M8.34,20.74a.3.3,0,0,1-.21-.09A.29.29,0,0,1,8,20.44a.31.31,0,0,1,.09-.21.3.3,0,0,1,.51.21.32.32,0,0,1-.08.21A.31.31,0,0,1,8.34,20.74Z" fill="#1d1d1b"/><path d="M9.55,21.94a.29.29,0,0,1-.22-.09.31.31,0,0,1-.09-.21.33.33,0,0,1,.09-.21.32.32,0,0,1,.43,0,.33.33,0,0,1,.09.22.27.27,0,0,1-.09.21A.29.29,0,0,1,9.55,21.94Z" fill="#1d1d1b"/><path d="M10.75,23.14a.31.31,0,0,1-.22-.09.3.3,0,0,1-.08-.21.27.27,0,0,1,.09-.21.32.32,0,0,1,.42,0,.31.31,0,0,1,.09.21.27.27,0,0,1-.09.21A.29.29,0,0,1,10.75,23.14Z" fill="#1d1d1b"/><path d="M12,24.34a.27.27,0,0,1-.21-.09.27.27,0,0,1-.09-.2.28.28,0,0,1,.09-.22.31.31,0,0,1,.42,0,.27.27,0,0,1,.09.21.29.29,0,0,1-.3.29Z" fill="#1d1d1b"/><path d="M13.15,25.55a.29.29,0,0,1-.21-.09.31.31,0,0,1-.09-.21A.3.3,0,0,1,13,25a.31.31,0,0,1,.42,0,.3.3,0,0,1,.08.21.34.34,0,0,1-.08.21A.33.33,0,0,1,13.15,25.55Z" fill="#1d1d1b"/><path d="M14.36,26.75a.31.31,0,0,1-.22-.09.27.27,0,0,1-.09-.21.32.32,0,0,1,.1-.22.31.31,0,0,1,.42,0,.3.3,0,0,1,.08.21.27.27,0,0,1-.09.21A.27.27,0,0,1,14.36,26.75Z" fill="#1d1d1b"/><path d="M15.56,28a.29.29,0,0,1-.22-.09.29.29,0,0,1-.08-.21.3.3,0,0,1,.51-.21.33.33,0,0,1,.09.21.32.32,0,0,1-.1.22A.26.26,0,0,1,15.56,28Z" fill="#1d1d1b"/><path d="M16.76,29.15a.29.29,0,0,1-.22-.09.3.3,0,0,1-.08-.21.29.29,0,0,1,.09-.21.31.31,0,0,1,.42,0,.29.29,0,0,1,.09.21.31.31,0,0,1-.09.22A.3.3,0,0,1,16.76,29.15Z" fill="#1d1d1b"/><path d="M18,30.36a.29.29,0,0,1-.21-.09.3.3,0,0,1-.09-.21.3.3,0,0,1,.52-.21.27.27,0,0,1,.08.21.29.29,0,0,1-.09.21A.33.33,0,0,1,18,30.36Z" fill="#1d1d1b"/><path d="M19.16,31.56a.31.31,0,0,1-.3-.3A.3.3,0,0,1,19,31a.31.31,0,0,1,.42,0,.3.3,0,0,1,.08.21.29.29,0,0,1-.09.21A.29.29,0,0,1,19.16,31.56Z" fill="#1d1d1b"/><path d="M20.36,32.76a.27.27,0,0,1-.21-.09.32.32,0,0,1-.08-.21.3.3,0,0,1,.08-.21.32.32,0,0,1,.43,0,.29.29,0,0,1,0,.42A.31.31,0,0,1,20.36,32.76Z" fill="#1d1d1b"/><path d="M21.57,34a.31.31,0,0,1-.22-.09.29.29,0,0,1-.08-.21.27.27,0,0,1,.09-.21.31.31,0,0,1,.42,0,.31.31,0,0,1,.09.21.27.27,0,0,1-.09.21A.29.29,0,0,1,21.57,34Z" fill="#1d1d1b"/><path d="M22.77,35.16a.3.3,0,0,1-.21-.08.29.29,0,0,1-.09-.22.29.29,0,0,1,.09-.21.31.31,0,0,1,.42,0,.3.3,0,0,1,.09.21.31.31,0,0,1-.3.3Z" fill="#1d1d1b"/><path d="M24,36.37a.33.33,0,0,1-.21-.09.29.29,0,0,1-.09-.21.28.28,0,0,1,.09-.22.32.32,0,0,1,.42,0,.31.31,0,0,1,.09.22.31.31,0,0,1-.3.3Z" fill="#1d1d1b"/><path d="M25.17,37.57a.31.31,0,0,1-.3-.3.34.34,0,0,1,.09-.22.32.32,0,0,1,.43,0,.3.3,0,0,1,.08.21.27.27,0,0,1-.09.21A.29.29,0,0,1,25.17,37.57Z" fill="#1d1d1b"/><path d="M26.38,38.77a.29.29,0,0,1-.22-.09.3.3,0,0,1-.08-.21.27.27,0,0,1,.09-.21.3.3,0,0,1,.42,0,.31.31,0,0,1,.09.21.28.28,0,0,1-.1.21A.24.24,0,0,1,26.38,38.77Z" fill="#1d1d1b"/><path d="M27.58,40a.3.3,0,0,1-.21-.08.31.31,0,0,1-.09-.22.27.27,0,0,1,.09-.21.32.32,0,0,1,.42,0,.31.31,0,0,1,.09.21.27.27,0,0,1-.09.21A.29.29,0,0,1,27.58,40Z" fill="#1d1d1b"/><path d="M28.78,41.17a.27.27,0,0,1-.21-.09.25.25,0,0,1-.09-.2.28.28,0,0,1,.09-.22.3.3,0,0,1,.51.22.3.3,0,0,1-.08.2A.31.31,0,0,1,28.78,41.17Z" fill="#1d1d1b"/><path d="M30,42.38a.29.29,0,0,1-.21-.09.27.27,0,0,1-.09-.21.32.32,0,0,1,.09-.22.31.31,0,0,1,.42,0,.27.27,0,0,1,.09.21.29.29,0,0,1-.09.21A.31.31,0,0,1,30,42.38Z" fill="#1d1d1b"/><path d="M31.18,43.58a.31.31,0,0,1-.3-.3.27.27,0,0,1,.09-.21.3.3,0,0,1,.43,0,.32.32,0,0,1,.08.21.34.34,0,0,1-.08.21A.31.31,0,0,1,31.18,43.58Z" fill="#1d1d1b"/><path d="M32.39,44.78a.31.31,0,0,1-.22-.09.3.3,0,0,1-.08-.21.3.3,0,0,1,.6,0,.29.29,0,0,1-.09.21A.3.3,0,0,1,32.39,44.78Z" fill="#1d1d1b"/><path d="M33.59,46a.29.29,0,0,1-.22-.09.29.29,0,0,1-.08-.21.27.27,0,0,1,.09-.21.31.31,0,0,1,.42,0,.27.27,0,0,1,.09.21.31.31,0,0,1-.09.22A.3.3,0,0,1,33.59,46Z" fill="#1d1d1b"/><path d="M34.79,47.18a.32.32,0,0,1-.21-.08.29.29,0,0,1-.09-.22.29.29,0,0,1,.09-.21.32.32,0,0,1,.42,0,.3.3,0,0,1,.09.21.27.27,0,0,1-.09.21A.29.29,0,0,1,34.79,47.18Z" fill="#1d1d1b"/><path d="M36,48.39a.29.29,0,0,1-.21-.09.31.31,0,0,1-.09-.21.34.34,0,0,1,.09-.22.32.32,0,0,1,.43,0,.3.3,0,0,1,.08.21.29.29,0,0,1-.09.21A.31.31,0,0,1,36,48.39Z" fill="#1d1d1b"/><path d="M37.19,49.59a.32.32,0,0,1-.2-.08.3.3,0,0,1-.1-.22.36.36,0,0,1,.09-.22.32.32,0,0,1,.42,0,.31.31,0,0,1,.09.22.34.34,0,0,1-.08.21A.33.33,0,0,1,37.19,49.59Z" fill="#1d1d1b"/><path d="M38.4,50.79a.32.32,0,0,1-.21-.08.31.31,0,0,1,0-.44.32.32,0,0,1,.42,0,.33.33,0,0,1,.09.21.29.29,0,0,1-.09.21A.3.3,0,0,1,38.4,50.79Z" fill="#1d1d1b"/><path d="M39.6,52a.29.29,0,0,1-.22-.09.3.3,0,0,1-.08-.21.29.29,0,0,1,.09-.21.31.31,0,0,1,.42,0,.3.3,0,0,1,.09.21.31.31,0,0,1-.3.3Z" fill="#1d1d1b"/><path d="M40.8,53.19a.3.3,0,0,1-.21-.08.29.29,0,0,1-.09-.22.29.29,0,0,1,.09-.21.31.31,0,0,1,.42,0,.3.3,0,0,1,0,.42A.31.31,0,0,1,40.8,53.19Z" fill="#1d1d1b"/><path d="M1.12,7.52a.31.31,0,0,1-.21-.09.29.29,0,0,1-.09-.21A.27.27,0,0,1,.91,7a.3.3,0,0,1,.51.21.27.27,0,0,1-.09.21A.31.31,0,0,1,1.12,7.52Z" fill="#1d1d1b"/><path d="M2.32,8.72a.28.28,0,0,1-.21-.1A.27.27,0,0,1,2,8.42a.27.27,0,0,1,.09-.21.31.31,0,0,1,.42,0,.33.33,0,0,1,.09.22.29.29,0,0,1-.09.21A.26.26,0,0,1,2.32,8.72Z" fill="#1d1d1b"/><path d="M3.53,9.92a.29.29,0,0,1-.22-.09.31.31,0,0,1-.09-.21.29.29,0,0,1,.09-.21.31.31,0,0,1,.43,0,.33.33,0,0,1,.09.21.28.28,0,0,1-.1.21A.24.24,0,0,1,3.53,9.92Z" fill="#1d1d1b"/><path d="M4.73,11.12A.31.31,0,0,1,4.51,11a.3.3,0,0,1-.08-.21.3.3,0,0,1,.08-.2.3.3,0,0,1,.43,0,.29.29,0,0,1,.09.21.3.3,0,0,1-.1.22A.26.26,0,0,1,4.73,11.12Z" fill="#1d1d1b"/><path d="M5.93,12.32a.3.3,0,0,1-.21-.08A.31.31,0,0,1,5.63,12a.3.3,0,0,1,.08-.2.3.3,0,0,1,.43,0,.29.29,0,0,1,.09.21.32.32,0,0,1-.09.22A.3.3,0,0,1,5.93,12.32Z" fill="#1d1d1b"/><path d="M7.13,13.53a.33.33,0,0,1-.21-.09.3.3,0,0,1-.09-.21A.31.31,0,0,1,6.92,13a.32.32,0,0,1,.43,0,.27.27,0,0,1,.08.21.29.29,0,0,1-.09.21A.31.31,0,0,1,7.13,13.53Z" fill="#1d1d1b"/><path d="M8.34,14.73a.31.31,0,0,1-.22-.09A.29.29,0,0,1,8,14.43a.31.31,0,0,1,.52-.21.3.3,0,0,1,.08.21.27.27,0,0,1-.09.21A.27.27,0,0,1,8.34,14.73Z" fill="#1d1d1b"/><path d="M9.54,15.93a.29.29,0,0,1-.22-.09.3.3,0,0,1-.08-.21.3.3,0,0,1,.6,0,.31.31,0,0,1-.3.3Z" fill="#1d1d1b"/><path d="M10.74,17.13a.3.3,0,0,1-.21-.08.31.31,0,0,1-.09-.22.27.27,0,0,1,.09-.21.32.32,0,0,1,.42,0,.3.3,0,0,1-.21.51Z" fill="#1d1d1b"/><path d="M11.94,18.34a.29.29,0,0,1-.21-.09.3.3,0,0,1-.09-.21.31.31,0,0,1,.09-.22.3.3,0,0,1,.42,0,.28.28,0,0,1,.09.21.29.29,0,0,1-.09.21A.33.33,0,0,1,11.94,18.34Z" fill="#1d1d1b"/><path d="M13.14,19.54a.27.27,0,0,1-.21-.09.29.29,0,0,1-.09-.21.34.34,0,0,1,.09-.22.32.32,0,0,1,.43,0,.3.3,0,0,1,.08.21.34.34,0,0,1-.08.21A.31.31,0,0,1,13.14,19.54Z" fill="#1d1d1b"/><path d="M14.34,20.74a.27.27,0,0,1-.21-.09.31.31,0,0,1-.09-.21.27.27,0,0,1,.09-.21.31.31,0,0,1,.42,0,.33.33,0,0,1,.09.22.32.32,0,0,1-.08.21A.31.31,0,0,1,14.34,20.74Z" fill="#1d1d1b"/><path d="M15.55,21.94a.29.29,0,0,1-.22-.09.29.29,0,0,1,0-.42.32.32,0,0,1,.43,0,.29.29,0,0,1,0,.42A.27.27,0,0,1,15.55,21.94Z" fill="#1d1d1b"/><path d="M16.75,23.14a.29.29,0,0,1-.22-.09.3.3,0,0,1,0-.42.31.31,0,0,1,.42,0,.3.3,0,0,1,.09.21.27.27,0,0,1-.09.21A.29.29,0,0,1,16.75,23.14Z" fill="#1d1d1b"/><path d="M18,24.35a.33.33,0,0,1-.21-.09.3.3,0,0,1-.09-.21.31.31,0,0,1,.09-.22.32.32,0,0,1,.43,0,.3.3,0,0,1,0,.42A.31.31,0,0,1,18,24.35Z" fill="#1d1d1b"/><path d="M19.15,25.55a.31.31,0,0,1-.21-.09.33.33,0,0,1-.09-.21A.3.3,0,0,1,19,25a.31.31,0,0,1,.42,0,.3.3,0,0,1,.08.21.34.34,0,0,1-.08.21A.33.33,0,0,1,19.15,25.55Z" fill="#1d1d1b"/><path d="M20.36,26.75a.28.28,0,0,1-.22-.09.29.29,0,0,1,0-.42.32.32,0,0,1,.42,0,.33.33,0,0,1,.09.22.32.32,0,0,1-.08.21A.29.29,0,0,1,20.36,26.75Z" fill="#1d1d1b"/><path d="M21.56,28a.29.29,0,0,1-.22-.09.3.3,0,0,1-.08-.21.27.27,0,0,1,.09-.21.31.31,0,0,1,.42,0,.3.3,0,0,1,.09.21.32.32,0,0,1-.08.21A.33.33,0,0,1,21.56,28Z" fill="#1d1d1b"/><path d="M22.76,29.15a.31.31,0,0,1-.22-.09.29.29,0,0,1-.08-.21.27.27,0,0,1,.09-.21.32.32,0,0,1,.42,0,.29.29,0,0,1,.09.21.31.31,0,0,1-.3.3Z" fill="#1d1d1b"/><path d="M24,30.36a.32.32,0,0,1-.22-.1.26.26,0,0,1-.08-.2.28.28,0,0,1,.09-.22.32.32,0,0,1,.43,0,.3.3,0,0,1,0,.42A.33.33,0,0,1,24,30.36Z" fill="#1d1d1b"/><path d="M25.16,31.56a.31.31,0,0,1-.3-.3A.36.36,0,0,1,25,31a.3.3,0,0,1,.51.22.27.27,0,0,1-.09.21A.29.29,0,0,1,25.16,31.56Z" fill="#1d1d1b"/><path d="M26.37,32.76a.28.28,0,0,1-.22-.09.32.32,0,0,1,0-.42.32.32,0,0,1,.43,0,.32.32,0,0,1,0,.42A.27.27,0,0,1,26.37,32.76Z" fill="#1d1d1b"/><path d="M27.57,34a.29.29,0,0,1-.22-.09.3.3,0,0,1-.08-.21.29.29,0,0,1,.09-.21.31.31,0,0,1,.42,0,.29.29,0,0,1,.09.21.31.31,0,0,1-.3.3Z" fill="#1d1d1b"/><path d="M28.77,35.16a.3.3,0,0,1-.21-.08.29.29,0,0,1-.09-.22.29.29,0,0,1,.09-.21.31.31,0,0,1,.42,0,.29.29,0,0,1,.09.21.31.31,0,0,1-.09.22A.32.32,0,0,1,28.77,35.16Z" fill="#1d1d1b"/><path d="M30,36.36a.27.27,0,0,1-.21-.09.24.24,0,0,1-.09-.2.28.28,0,0,1,.09-.22.32.32,0,0,1,.42,0,.31.31,0,0,1,.09.22.34.34,0,0,1-.08.21A.35.35,0,0,1,30,36.36Z" fill="#1d1d1b"/><path d="M31.17,37.57a.29.29,0,0,1-.21-.09.31.31,0,0,1-.09-.21.32.32,0,0,1,.1-.22.31.31,0,0,1,.42,0,.3.3,0,0,1,.08.21.32.32,0,0,1-.08.21A.31.31,0,0,1,31.17,37.57Z" fill="#1d1d1b"/><path d="M32.38,38.77a.29.29,0,0,1-.22-.09.3.3,0,0,1-.08-.21.3.3,0,0,1,.6,0,.32.32,0,0,1-.1.22A.28.28,0,0,1,32.38,38.77Z" fill="#1d1d1b"/><path d="M33.58,40a.32.32,0,0,1-.21-.08.31.31,0,0,1-.09-.22.27.27,0,0,1,.09-.21.31.31,0,0,1,.42,0,.29.29,0,0,1,0,.42A.3.3,0,0,1,33.58,40Z" fill="#1d1d1b"/><path d="M34.78,41.18a.28.28,0,0,1-.21-.1.25.25,0,0,1-.09-.2.28.28,0,0,1,.09-.22.31.31,0,0,1,.42,0,.25.25,0,0,1,.09.21.29.29,0,0,1-.09.21A.31.31,0,0,1,34.78,41.18Z" fill="#1d1d1b"/><path d="M36,42.38a.31.31,0,0,1-.3-.3.31.31,0,0,1,.09-.22.3.3,0,0,1,.42,0,.27.27,0,0,1,.09.21.29.29,0,0,1-.09.21A.31.31,0,0,1,36,42.38Z" fill="#1d1d1b"/><path d="M37.18,43.58a.32.32,0,0,1-.2-.08.3.3,0,0,1-.1-.22.32.32,0,0,1,.1-.22.31.31,0,0,1,.41,0,.31.31,0,0,1,.09.22.34.34,0,0,1-.08.21A.33.33,0,0,1,37.18,43.58Z" fill="#1d1d1b"/><path d="M38.39,44.78a.29.29,0,0,1-.22-.09.32.32,0,0,1,0-.42.31.31,0,0,1,.43,0,.32.32,0,0,1,0,.42A.27.27,0,0,1,38.39,44.78Z" fill="#1d1d1b"/><path d="M39.59,46a.31.31,0,0,1-.22-.09.32.32,0,0,1-.08-.21.34.34,0,0,1,.08-.21.31.31,0,0,1,.43,0,.3.3,0,0,1,.09.21.31.31,0,0,1-.3.3Z" fill="#1d1d1b"/><path d="M40.79,47.18a.3.3,0,0,1-.21-.08.29.29,0,0,1-.09-.22.27.27,0,0,1,.09-.21.32.32,0,0,1,.42,0,.27.27,0,0,1,.09.21.31.31,0,0,1-.09.22A.32.32,0,0,1,40.79,47.18Z" fill="#1d1d1b"/><path d="M42,48.39a.3.3,0,0,1-.21-.09.29.29,0,0,1-.09-.21.3.3,0,0,1,.51-.22.31.31,0,0,1,.09.22.34.34,0,0,1-.08.21A.33.33,0,0,1,42,48.39Z" fill="#1d1d1b"/><path d="M43.19,49.59a.32.32,0,0,1-.2-.08.28.28,0,0,1-.1-.22.32.32,0,0,1,.1-.22.31.31,0,0,1,.42,0,.3.3,0,0,1,.08.21.32.32,0,0,1-.08.21A.31.31,0,0,1,43.19,49.59Z" fill="#1d1d1b"/><path d="M44.4,50.79a.3.3,0,0,1-.21-.08.3.3,0,0,1-.1-.22.29.29,0,0,1,.09-.21.31.31,0,0,1,.43,0,.29.29,0,0,1,0,.42A.3.3,0,0,1,44.4,50.79Z" fill="#1d1d1b"/><path d="M45.6,52a.28.28,0,0,1-.21-.08.31.31,0,0,1-.09-.22.27.27,0,0,1,.09-.21.31.31,0,0,1,.42,0,.3.3,0,0,1,.09.21.32.32,0,0,1-.08.21A.33.33,0,0,1,45.6,52Z" fill="#1d1d1b"/><path d="M46.8,53.2a.33.33,0,0,1-.21-.09.29.29,0,0,1-.09-.22.29.29,0,0,1,.09-.21.31.31,0,0,1,.42,0,.3.3,0,0,1-.21.52Z" fill="#1d1d1b"/><path d="M1.11,1.51A.29.29,0,0,1,.9,1.42a.3.3,0,0,1-.09-.21A.31.31,0,0,1,.9,1a.31.31,0,0,1,.42,0,.26.26,0,0,1,.09.21.29.29,0,0,1-.09.21A.31.31,0,0,1,1.11,1.51Z" fill="#1d1d1b"/><path d="M2.31,2.71a.27.27,0,0,1-.21-.09A.29.29,0,0,1,2,2.41.27.27,0,0,1,2.1,2.2a.31.31,0,0,1,.43,0,.3.3,0,0,1,.08.21.32.32,0,0,1-.08.21A.29.29,0,0,1,2.31,2.71Z" fill="#1d1d1b"/><path d="M3.52,3.91a.31.31,0,0,1-.22-.09.27.27,0,0,1-.09-.21A.29.29,0,0,1,3.3,3.4a.31.31,0,0,1,.43,0,.3.3,0,0,1,.08.21.31.31,0,0,1-.09.22A.28.28,0,0,1,3.52,3.91Z" fill="#1d1d1b"/><path d="M4.72,5.11A.3.3,0,0,1,4.51,5a.34.34,0,0,1-.1-.22.28.28,0,0,1,.1-.21.3.3,0,0,1,.42,0A.31.31,0,0,1,5,4.81.29.29,0,0,1,4.93,5,.3.3,0,0,1,4.72,5.11Z" fill="#1d1d1b"/><path d="M5.92,6.31a.3.3,0,0,1-.21-.08A.33.33,0,0,1,5.62,6,.34.34,0,0,1,5.7,5.8a.31.31,0,0,1,.43,0,.24.24,0,0,1,.09.2.31.31,0,0,1-.3.3Z" fill="#1d1d1b"/><path d="M7.12,7.52a.31.31,0,0,1-.21-.09.29.29,0,0,1-.09-.21A.32.32,0,0,1,6.9,7a.3.3,0,0,1,.43,0,.31.31,0,0,1,.09.22.29.29,0,0,1-.09.21A.31.31,0,0,1,7.12,7.52Z" fill="#1d1d1b"/><path d="M8.32,8.72a.31.31,0,0,1-.3-.3.27.27,0,0,1,.09-.21.3.3,0,0,1,.51.21.32.32,0,0,1-.08.21A.31.31,0,0,1,8.32,8.72Z" fill="#1d1d1b"/><path d="M9.53,9.92a.28.28,0,0,1-.22-.09.31.31,0,0,1-.09-.21.33.33,0,0,1,.09-.21.31.31,0,0,1,.42,0,.32.32,0,0,1,.1.22.33.33,0,0,1-.09.21A.29.29,0,0,1,9.53,9.92Z" fill="#1d1d1b"/><path d="M10.73,11.12a.31.31,0,0,1-.22-.09.3.3,0,0,1-.08-.21.27.27,0,0,1,.09-.21.31.31,0,0,1,.42,0,.31.31,0,0,1,.09.21.27.27,0,0,1-.09.21A.29.29,0,0,1,10.73,11.12Z" fill="#1d1d1b"/><path d="M11.93,12.32a.31.31,0,0,1-.22-.09.3.3,0,0,1,0-.42.31.31,0,0,1,.42,0,.3.3,0,0,1,.09.21.31.31,0,0,1-.09.22A.3.3,0,0,1,11.93,12.32Z" fill="#1d1d1b"/><path d="M13.13,13.53a.28.28,0,0,1-.21-.1.25.25,0,0,1-.09-.2.29.29,0,0,1,.09-.22.3.3,0,0,1,.51.22.3.3,0,0,1-.08.2A.32.32,0,0,1,13.13,13.53Z" fill="#1d1d1b"/><path d="M14.33,14.73a.27.27,0,0,1-.21-.09.31.31,0,0,1-.09-.21.32.32,0,0,1,.1-.22.31.31,0,0,1,.42,0,.3.3,0,0,1,.08.21.27.27,0,0,1-.09.21A.29.29,0,0,1,14.33,14.73Z" fill="#1d1d1b"/><path d="M15.54,15.93a.31.31,0,0,1-.22-.09.3.3,0,0,1-.08-.21.31.31,0,0,1,.09-.22.32.32,0,0,1,.42,0,.29.29,0,0,1,0,.42A.3.3,0,0,1,15.54,15.93Z" fill="#1d1d1b"/><path d="M16.74,17.13a.29.29,0,0,1-.22-.09.3.3,0,0,1-.08-.21.29.29,0,0,1,.09-.21.31.31,0,0,1,.42,0,.29.29,0,0,1,.09.21.31.31,0,0,1-.09.22A.3.3,0,0,1,16.74,17.13Z" fill="#1d1d1b"/><path d="M17.94,18.33a.29.29,0,0,1-.22-.09.27.27,0,0,1-.08-.21.3.3,0,0,1,.09-.21.31.31,0,0,1,.42,0,.29.29,0,0,1,.09.21.28.28,0,0,1-.09.22A.3.3,0,0,1,17.94,18.33Z" fill="#1d1d1b"/><path d="M19.14,19.54a.31.31,0,0,1-.3-.3.31.31,0,0,1,.09-.22.32.32,0,0,1,.43,0,.27.27,0,0,1,.08.21.31.31,0,0,1-.3.3Z" fill="#1d1d1b"/><path d="M20.34,20.74a.31.31,0,0,1-.3-.3.32.32,0,0,1,.1-.22.31.31,0,0,1,.42,0,.3.3,0,0,1,.08.21.29.29,0,0,1-.09.21A.27.27,0,0,1,20.34,20.74Z" fill="#1d1d1b"/><path d="M21.55,21.94a.29.29,0,0,1-.22-.09.32.32,0,0,1,0-.42.32.32,0,0,1,.43,0,.3.3,0,0,1-.21.51Z" fill="#1d1d1b"/><path d="M22.75,23.14a.29.29,0,0,1-.22-.09.29.29,0,0,1-.08-.21.27.27,0,0,1,.09-.21.31.31,0,0,1,.42,0,.27.27,0,0,1,.09.2.31.31,0,0,1-.09.22A.3.3,0,0,1,22.75,23.14Z" fill="#1d1d1b"/><path d="M24,24.34a.27.27,0,0,1-.21-.09.25.25,0,0,1-.09-.21.29.29,0,0,1,.09-.21.32.32,0,0,1,.42,0,.3.3,0,0,1,.09.21.28.28,0,0,1-.3.3Z" fill="#1d1d1b"/><path d="M25.15,25.55a.31.31,0,0,1-.3-.3A.3.3,0,0,1,25,25a.31.31,0,0,1,.42,0,.3.3,0,0,1,.08.21.32.32,0,0,1-.08.21A.31.31,0,0,1,25.15,25.55Z" fill="#1d1d1b"/><path d="M26.36,26.75a.28.28,0,0,1-.22-.09.31.31,0,0,1-.09-.21.32.32,0,0,1,.1-.22.31.31,0,0,1,.42,0,.3.3,0,0,1-.21.51Z" fill="#1d1d1b"/><path d="M27.56,28a.3.3,0,0,1-.21-.08.31.31,0,0,1-.09-.22.27.27,0,0,1,.09-.21.32.32,0,0,1,.42,0,.29.29,0,0,1,0,.42A.29.29,0,0,1,27.56,28Z" fill="#1d1d1b"/><path d="M28.76,29.15a.32.32,0,0,1-.21-.08.31.31,0,0,1-.09-.22.27.27,0,0,1,.09-.21.31.31,0,0,1,.42,0,.29.29,0,0,1,0,.42A.3.3,0,0,1,28.76,29.15Z" fill="#1d1d1b"/><path d="M30,30.35a.3.3,0,0,1-.21-.08.28.28,0,0,1-.09-.22.29.29,0,0,1,.09-.21.32.32,0,0,1,.43,0,.34.34,0,0,1,.08.21.31.31,0,0,1-.09.22A.3.3,0,0,1,30,30.35Z" fill="#1d1d1b"/><path d="M31.16,31.56a.31.31,0,0,1-.3-.3A.34.34,0,0,1,31,31a.32.32,0,0,1,.43,0,.3.3,0,0,1,.08.21.32.32,0,0,1-.08.21A.31.31,0,0,1,31.16,31.56Z" fill="#1d1d1b"/><path d="M32.37,32.76a.31.31,0,0,1-.22-.09.3.3,0,0,1-.08-.21.3.3,0,0,1,.6,0,.28.28,0,0,1-.1.21A.27.27,0,0,1,32.37,32.76Z" fill="#1d1d1b"/><path d="M33.57,34a.31.31,0,0,1-.22-.09.3.3,0,0,1-.08-.21.29.29,0,0,1,.09-.21.31.31,0,0,1,.42,0,.35.35,0,0,1,.09.22.32.32,0,0,1-.08.21A.35.35,0,0,1,33.57,34Z" fill="#1d1d1b"/><path d="M34.77,35.16a.3.3,0,0,1-.21-.08.28.28,0,0,1-.09-.22.27.27,0,0,1,.09-.21.31.31,0,0,1,.42,0,.27.27,0,0,1,.09.2.29.29,0,0,1-.09.22A.32.32,0,0,1,34.77,35.16Z" fill="#1d1d1b"/><path d="M36,36.37a.33.33,0,0,1-.21-.09.29.29,0,0,1-.09-.21.29.29,0,0,1,.09-.22.31.31,0,0,1,.42,0,.29.29,0,0,1,.09.22.29.29,0,0,1-.09.21A.31.31,0,0,1,36,36.37Z" fill="#1d1d1b"/><path d="M37.17,37.57a.31.31,0,0,1-.3-.3.27.27,0,0,1,.09-.21.31.31,0,0,1,.43,0,.3.3,0,0,1,.08.21.32.32,0,0,1-.08.21A.31.31,0,0,1,37.17,37.57Z" fill="#1d1d1b"/><path d="M38.38,38.77a.29.29,0,0,1-.22-.09.3.3,0,0,1-.08-.21.27.27,0,0,1,.09-.21.31.31,0,0,1,.42,0,.29.29,0,0,1,0,.42A.29.29,0,0,1,38.38,38.77Z" fill="#1d1d1b"/><path d="M39.58,40a.31.31,0,0,1-.22-.09.29.29,0,0,1-.08-.21.27.27,0,0,1,.09-.21.3.3,0,0,1,.51.21.31.31,0,0,1-.3.3Z" fill="#1d1d1b"/><path d="M40.78,41.17a.27.27,0,0,1-.21-.09.25.25,0,0,1-.09-.2.28.28,0,0,1,.09-.22.31.31,0,0,1,.42,0,.25.25,0,0,1,.09.21.29.29,0,0,1-.09.21A.3.3,0,0,1,40.78,41.17Z" fill="#1d1d1b"/><path d="M42,42.38a.31.31,0,0,1-.21-.09.27.27,0,0,1-.09-.21.34.34,0,0,1,.09-.22.32.32,0,0,1,.42,0,.31.31,0,0,1,.09.22.34.34,0,0,1-.08.21A.36.36,0,0,1,42,42.38Z" fill="#1d1d1b"/><path d="M43.18,43.58a.3.3,0,0,1-.21-.09.31.31,0,0,1-.09-.21.32.32,0,0,1,.1-.22.31.31,0,0,1,.42,0,.3.3,0,0,1,.08.21.29.29,0,0,1-.09.21A.27.27,0,0,1,43.18,43.58Z" fill="#1d1d1b"/><path d="M44.39,44.78a.29.29,0,0,1-.22-.09.29.29,0,0,1,0-.42.3.3,0,1,1,.43.42A.29.29,0,0,1,44.39,44.78Z" fill="#1d1d1b"/><path d="M45.59,46a.32.32,0,0,1-.21-.08.31.31,0,0,1-.09-.22.27.27,0,0,1,.09-.21.31.31,0,0,1,.42,0,.29.29,0,0,1,0,.42A.29.29,0,0,1,45.59,46Z" fill="#1d1d1b"/><path d="M46.79,47.18a.32.32,0,0,1-.21-.08.29.29,0,0,1-.09-.22.29.29,0,0,1,.09-.21.31.31,0,0,1,.42,0,.29.29,0,0,1,.09.21.31.31,0,0,1-.09.22A.32.32,0,0,1,46.79,47.18Z" fill="#1d1d1b"/><path d="M48,48.39a.29.29,0,0,1-.21-.09.3.3,0,0,1-.09-.21.27.27,0,0,1,.09-.21.3.3,0,0,1,.51.21.32.32,0,0,1-.08.21A.36.36,0,0,1,48,48.39Z" fill="#1d1d1b"/><path d="M49.19,49.59A.29.29,0,0,1,49,49.5a.3.3,0,1,1,.43-.42.32.32,0,0,1,0,.42A.31.31,0,0,1,49.19,49.59Z" fill="#1d1d1b"/><path d="M50.4,50.79a.31.31,0,0,1-.31-.3.28.28,0,0,1,.1-.21.29.29,0,0,1,.42,0,.27.27,0,0,1,.09.2.33.33,0,0,1-.09.21A.3.3,0,0,1,50.4,50.79Z" fill="#1d1d1b"/><path d="M51.6,52a.29.29,0,0,1-.3-.29.3.3,0,1,1,.6,0,.27.27,0,0,1-.09.2A.29.29,0,0,1,51.6,52Z" fill="#1d1d1b"/><path d="M52.8,53.2a.29.29,0,0,1-.21-.09.29.29,0,0,1-.09-.22.29.29,0,0,1,.09-.21.31.31,0,0,1,.42,0,.29.29,0,0,1,.09.21.29.29,0,0,1-.09.22A.31.31,0,0,1,52.8,53.2Z" fill="#1d1d1b"/><path d="M7.11,1.51a.31.31,0,0,1-.3-.3A.3.3,0,0,1,7.33,1a.3.3,0,0,1,.08.21.29.29,0,0,1-.09.21A.31.31,0,0,1,7.11,1.51Z" fill="#1d1d1b"/><path d="M8.31,2.71a.27.27,0,0,1-.21-.09A.29.29,0,0,1,8,2.41a.36.36,0,0,1,.09-.22.32.32,0,0,1,.43,0,.3.3,0,0,1,.08.21.32.32,0,0,1-.08.21A.29.29,0,0,1,8.31,2.71Z" fill="#1d1d1b"/><path d="M9.52,3.91a.31.31,0,0,1-.31-.3.3.3,0,0,1,.52-.21.31.31,0,0,1,.09.21.33.33,0,0,1-.09.21A.32.32,0,0,1,9.52,3.91Z" fill="#1d1d1b"/><path d="M10.72,5.11A.29.29,0,0,1,10.5,5a.3.3,0,0,1-.08-.21.27.27,0,0,1,.09-.21.31.31,0,0,1,.42,0,.3.3,0,0,1-.21.51Z" fill="#1d1d1b"/><path d="M11.92,6.31a.32.32,0,0,1-.21-.08A.33.33,0,0,1,11.62,6a.3.3,0,0,1,.09-.21.3.3,0,0,1,.42,0,.27.27,0,0,1,.09.2.29.29,0,0,1-.09.22A.32.32,0,0,1,11.92,6.31Z" fill="#1d1d1b"/><path d="M13.12,7.52a.29.29,0,0,1-.21-.09.3.3,0,0,1-.09-.21A.3.3,0,0,1,13.34,7a.3.3,0,0,1,0,.42A.29.29,0,0,1,13.12,7.52Z" fill="#1d1d1b"/><path d="M14.32,8.72a.31.31,0,0,1-.3-.3.32.32,0,0,1,.1-.22.31.31,0,0,1,.42,0,.3.3,0,0,1,.08.21.32.32,0,0,1-.08.21A.33.33,0,0,1,14.32,8.72Z" fill="#1d1d1b"/><path d="M15.53,9.92a.29.29,0,0,1-.22-.09.31.31,0,0,1-.09-.21.33.33,0,0,1,.09-.21.32.32,0,0,1,.43,0,.29.29,0,0,1,.09.21.31.31,0,0,1-.09.21A.29.29,0,0,1,15.53,9.92Z" fill="#1d1d1b"/><path d="M16.73,11.12a.29.29,0,0,1-.22-.09.3.3,0,0,1-.08-.21.29.29,0,0,1,.09-.21.31.31,0,0,1,.42,0,.3.3,0,0,1,.09.21A.32.32,0,0,1,17,11,.33.33,0,0,1,16.73,11.12Z" fill="#1d1d1b"/><path d="M17.93,12.32a.3.3,0,0,1-.21-.08.29.29,0,0,1-.09-.21.28.28,0,0,1,.09-.22.31.31,0,0,1,.42,0,.26.26,0,0,1,.09.21.3.3,0,0,1-.09.21A.32.32,0,0,1,17.93,12.32Z" fill="#1d1d1b"/><path d="M19.13,13.53a.31.31,0,0,1-.21-.09.27.27,0,0,1-.09-.21.31.31,0,0,1,.09-.22.3.3,0,0,1,.42,0,.27.27,0,0,1,.09.21.29.29,0,0,1-.09.21A.31.31,0,0,1,19.13,13.53Z" fill="#1d1d1b"/><path d="M20.33,14.73a.3.3,0,0,1-.21-.09.29.29,0,0,1-.09-.21.36.36,0,0,1,.09-.22.32.32,0,0,1,.43,0,.3.3,0,0,1,.08.21.31.31,0,0,1-.3.3Z" fill="#1d1d1b"/><path d="M21.54,15.93a.31.31,0,0,1-.22-.09.3.3,0,0,1-.08-.21.3.3,0,0,1,.6,0,.29.29,0,0,1-.09.21A.3.3,0,0,1,21.54,15.93Z" fill="#1d1d1b"/><path d="M22.74,17.13a.3.3,0,0,1-.21-.08.31.31,0,0,1-.09-.22.27.27,0,0,1,.09-.21.3.3,0,0,1,.42,0,.3.3,0,0,1-.21.51Z" fill="#1d1d1b"/><path d="M23.94,18.33a.27.27,0,0,1-.21-.09.25.25,0,0,1-.09-.21.29.29,0,0,1,.09-.21.31.31,0,0,1,.42,0,.3.3,0,0,1,.09.21.29.29,0,0,1-.09.22A.3.3,0,0,1,23.94,18.33Z" fill="#1d1d1b"/><path d="M25.14,19.54a.31.31,0,0,1-.3-.3.27.27,0,0,1,.09-.21.3.3,0,0,1,.51.21.3.3,0,0,1-.09.21A.27.27,0,0,1,25.14,19.54Z" fill="#1d1d1b"/><path d="M26.34,20.74a.27.27,0,0,1-.21-.09.31.31,0,0,1-.09-.21.27.27,0,0,1,.09-.21.3.3,0,0,1,.42,0,.33.33,0,0,1,.09.22.27.27,0,0,1-.09.21A.26.26,0,0,1,26.34,20.74Z" fill="#1d1d1b"/><path d="M27.55,21.94a.29.29,0,0,1-.22-.09.3.3,0,0,1-.08-.21.32.32,0,0,1,.08-.21.31.31,0,0,1,.43,0,.3.3,0,0,1-.21.51Z" fill="#1d1d1b"/><path d="M28.75,23.14a.3.3,0,0,1-.21-.08.31.31,0,0,1-.09-.22.27.27,0,0,1,.09-.21.32.32,0,0,1,.42,0,.3.3,0,0,1,.09.21.32.32,0,0,1-.08.21A.35.35,0,0,1,28.75,23.14Z" fill="#1d1d1b"/><path d="M30,24.34a.27.27,0,0,1-.21-.09.25.25,0,0,1-.09-.2.29.29,0,0,1,.09-.22.31.31,0,0,1,.42,0,.33.33,0,0,1,.09.22.32.32,0,0,1-.08.2A.31.31,0,0,1,30,24.34Z" fill="#1d1d1b"/><path d="M31.15,25.55a.3.3,0,0,1-.21-.09.29.29,0,0,1-.09-.21.3.3,0,0,1,.52-.21.32.32,0,0,1,.08.21.34.34,0,0,1-.08.21A.33.33,0,0,1,31.15,25.55Z" fill="#1d1d1b"/><path d="M32.36,26.75a.3.3,0,1,1,.21-.51.3.3,0,0,1-.21.51Z" fill="#1d1d1b"/><path d="M33.56,28a.31.31,0,0,1-.22-.09.3.3,0,0,1-.08-.21.27.27,0,0,1,.09-.21.32.32,0,0,1,.42,0,.31.31,0,0,1,.09.21.31.31,0,0,1-.3.3Z" fill="#1d1d1b"/><path d="M34.76,29.15a.31.31,0,0,1-.3-.3.29.29,0,0,1,.09-.21.31.31,0,0,1,.42,0,.3.3,0,0,1,.09.21.29.29,0,0,1-.09.21A.27.27,0,0,1,34.76,29.15Z" fill="#1d1d1b"/><path d="M36,30.36a.31.31,0,0,1-.3-.3.28.28,0,0,1,.09-.22.32.32,0,0,1,.42,0,.31.31,0,0,1,.09.22.3.3,0,0,1-.08.2A.34.34,0,0,1,36,30.36Z" fill="#1d1d1b"/><path d="M37.16,31.56a.29.29,0,0,1-.21-.09.31.31,0,0,1-.09-.21A.36.36,0,0,1,37,31a.32.32,0,0,1,.42,0,.31.31,0,0,1,.09.22.32.32,0,0,1-.08.21A.31.31,0,0,1,37.16,31.56Z" fill="#1d1d1b"/><path d="M38.37,32.76a.28.28,0,0,1-.22-.09.32.32,0,0,1-.08-.21.3.3,0,0,1,.08-.21.31.31,0,0,1,.52.21.33.33,0,0,1-.09.21A.27.27,0,0,1,38.37,32.76Z" fill="#1d1d1b"/><path d="M39.57,34a.3.3,0,0,1-.21-.51.31.31,0,0,1,.42,0,.31.31,0,0,1,.09.21.31.31,0,0,1-.3.3Z" fill="#1d1d1b"/><path d="M40.77,35.16a.3.3,0,0,1-.21-.08.29.29,0,0,1-.09-.21.29.29,0,0,1,.09-.22.32.32,0,0,1,.42,0,.31.31,0,0,1,.09.22.29.29,0,0,1-.3.29Z" fill="#1d1d1b"/><path d="M42,36.37a.31.31,0,0,1-.3-.3.32.32,0,0,1,.08-.21.31.31,0,0,1,.43,0,.33.33,0,0,1,.09.22.34.34,0,0,1-.08.21A.33.33,0,0,1,42,36.37Z" fill="#1d1d1b"/><path d="M43.17,37.57a.28.28,0,0,1-.21-.1.27.27,0,0,1-.09-.2.34.34,0,0,1,.09-.22.32.32,0,0,1,.43,0,.29.29,0,0,1,.08.21.27.27,0,0,1-.09.21A.29.29,0,0,1,43.17,37.57Z" fill="#1d1d1b"/><path d="M44.38,38.77a.32.32,0,0,1-.21-.08.34.34,0,0,1-.1-.22.31.31,0,0,1,.09-.21.32.32,0,0,1,.43,0,.31.31,0,0,1,.09.21.29.29,0,0,1-.09.21A.3.3,0,0,1,44.38,38.77Z" fill="#1d1d1b"/><path d="M45.58,40a.31.31,0,0,1-.22-.09.3.3,0,0,1-.08-.21.29.29,0,0,1,.09-.21.31.31,0,0,1,.43,0,.28.28,0,0,1,.08.2.27.27,0,0,1-.09.21A.29.29,0,0,1,45.58,40Z" fill="#1d1d1b"/><path d="M46.78,41.17a.28.28,0,0,1-.21-.08.33.33,0,0,1-.09-.22.3.3,0,0,1,.08-.2.3.3,0,0,1,.52.2.32.32,0,0,1-.08.21A.33.33,0,0,1,46.78,41.17Z" fill="#1d1d1b"/><path d="M48,42.38a.31.31,0,0,1-.3-.3.27.27,0,0,1,.09-.21.3.3,0,0,1,.42,0,.31.31,0,0,1,.09.22.3.3,0,0,1-.09.21A.31.31,0,0,1,48,42.38Z" fill="#1d1d1b"/><path d="M49.18,43.58A.34.34,0,0,1,49,43.5a.33.33,0,0,1-.09-.22.27.27,0,0,1,.09-.21.3.3,0,0,1,.51.21.32.32,0,0,1-.08.21A.33.33,0,0,1,49.18,43.58Z" fill="#1d1d1b"/><path d="M50.39,44.78a.32.32,0,0,1-.21-.08.3.3,0,0,1-.1-.22.29.29,0,0,1,.09-.21.3.3,0,0,1,.43,0,.29.29,0,0,1,0,.42A.32.32,0,0,1,50.39,44.78Z" fill="#1d1d1b"/><path d="M51.59,46a.27.27,0,0,1-.21-.09.26.26,0,0,1-.09-.21.27.27,0,0,1,.09-.21.32.32,0,0,1,.42,0,.31.31,0,0,1,.09.21.36.36,0,0,1-.09.22A.3.3,0,0,1,51.59,46Z" fill="#1d1d1b"/><path d="M52.79,47.18a.3.3,0,0,1-.21-.08.33.33,0,0,1-.09-.22.3.3,0,0,1,.09-.21.31.31,0,0,1,.43,0,.3.3,0,0,1,.08.2.32.32,0,0,1-.08.21A.31.31,0,0,1,52.79,47.18Z" fill="#1d1d1b"/><path d="M54,48.39a.31.31,0,0,1-.3-.3.36.36,0,0,1,.09-.22.32.32,0,0,1,.43,0,.29.29,0,0,1,.08.21.27.27,0,0,1-.09.21A.31.31,0,0,1,54,48.39Z" fill="#1d1d1b"/><path d="M55.19,49.59a.31.31,0,0,1-.3-.3.31.31,0,0,1,.61,0,.28.28,0,0,1-.1.21A.28.28,0,0,1,55.19,49.59Z" fill="#1d1d1b"/><path d="M56.4,50.79a.29.29,0,0,1-.22-.09.3.3,0,1,1,.43-.42.32.32,0,0,1,0,.42A.27.27,0,0,1,56.4,50.79Z" fill="#1d1d1b"/><path d="M57.6,52a.28.28,0,0,1-.21-.08.33.33,0,0,1-.09-.22.34.34,0,0,1,.08-.21.32.32,0,0,1,.43,0,.29.29,0,0,1,.09.21.31.31,0,0,1-.09.22A.32.32,0,0,1,57.6,52Z" fill="#1d1d1b"/><path d="M58.8,53.2a.31.31,0,0,1-.3-.31.3.3,0,0,1,.09-.21.31.31,0,0,1,.42,0,.3.3,0,0,1,0,.42A.32.32,0,0,1,58.8,53.2Z" fill="#1d1d1b"/><path d="M13.11,1.51a.31.31,0,0,1-.21-.09.29.29,0,0,1-.09-.21A.34.34,0,0,1,12.9,1a.31.31,0,0,1,.42,0,.27.27,0,0,1,.09.21.34.34,0,0,1-.08.21A.36.36,0,0,1,13.11,1.51Z" fill="#1d1d1b"/><path d="M14.31,2.71a.29.29,0,0,1-.21-.09A.27.27,0,0,1,14,2.41a.32.32,0,0,1,.1-.22.31.31,0,0,1,.42,0,.3.3,0,0,1,.08.21.32.32,0,0,1-.08.21A.31.31,0,0,1,14.31,2.71Z" fill="#1d1d1b"/><path d="M15.52,3.91a.31.31,0,0,1-.31-.3.32.32,0,0,1,.1-.22.31.31,0,0,1,.42,0,.31.31,0,0,1,.09.21.33.33,0,0,1-.09.21A.3.3,0,0,1,15.52,3.91Z" fill="#1d1d1b"/><path d="M16.72,5.11A.31.31,0,0,1,16.5,5a.3.3,0,0,1-.08-.21.27.27,0,0,1,.09-.21.3.3,0,0,1,.42,0,.31.31,0,0,1,.09.21.36.36,0,0,1-.09.22A.32.32,0,0,1,16.72,5.11Z" fill="#1d1d1b"/><path d="M17.92,6.31a.3.3,0,0,1-.21-.51.31.31,0,0,1,.42,0,.27.27,0,0,1,.09.2.31.31,0,0,1-.09.22A.32.32,0,0,1,17.92,6.31Z" fill="#1d1d1b"/><path d="M19.12,7.52a.29.29,0,0,1-.21-.09.3.3,0,0,1-.09-.21A.3.3,0,0,1,19.33,7a.25.25,0,0,1,.09.21.29.29,0,0,1-.09.21A.27.27,0,0,1,19.12,7.52Z" fill="#1d1d1b"/><path d="M20.32,8.72a.27.27,0,0,1-.21-.09A.31.31,0,0,1,20,8.42a.27.27,0,0,1,.09-.21.29.29,0,0,1,.42,0,.29.29,0,0,1,0,.42A.28.28,0,0,1,20.32,8.72Z" fill="#1d1d1b"/><path d="M21.53,9.92a.28.28,0,0,1-.22-.09.3.3,0,0,1-.08-.21.27.27,0,0,1,.09-.21.3.3,0,0,1,.42,0,.31.31,0,0,1,.09.21.28.28,0,0,1-.1.21A.24.24,0,0,1,21.53,9.92Z" fill="#1d1d1b"/><path d="M22.73,11.12a.3.3,0,0,1-.21-.08.31.31,0,0,1-.09-.22.27.27,0,0,1,.09-.21.3.3,0,0,1,.42,0,.27.27,0,0,1,.09.2.31.31,0,0,1-.09.22A.32.32,0,0,1,22.73,11.12Z" fill="#1d1d1b"/><path d="M23.93,12.33a.31.31,0,0,1-.21-.09.3.3,0,0,1-.09-.21.31.31,0,0,1,.09-.22.3.3,0,0,1,.42,0,.28.28,0,0,1,.09.21.29.29,0,0,1-.09.21A.33.33,0,0,1,23.93,12.33Z" fill="#1d1d1b"/><path d="M25.13,13.53a.28.28,0,0,1-.21-.1.24.24,0,0,1-.09-.2.32.32,0,0,1,.09-.22.32.32,0,0,1,.43,0,.3.3,0,0,1,0,.42A.31.31,0,0,1,25.13,13.53Z" fill="#1d1d1b"/><path d="M26.33,14.73a.29.29,0,0,1-.21-.09.31.31,0,0,1-.09-.21.3.3,0,0,1,.1-.22.31.31,0,0,1,.42,0,.3.3,0,0,1,.08.21.27.27,0,0,1-.09.21A.26.26,0,0,1,26.33,14.73Z" fill="#1d1d1b"/><path d="M27.54,15.93a.31.31,0,0,1-.22-.09.3.3,0,0,1-.08-.21.31.31,0,0,1,.09-.22.32.32,0,0,1,.42,0,.31.31,0,0,1,.09.21.29.29,0,0,1-.09.21A.3.3,0,0,1,27.54,15.93Z" fill="#1d1d1b"/><path d="M28.74,17.13a.3.3,0,0,1-.21-.51.31.31,0,0,1,.42,0,.3.3,0,0,1,0,.43A.32.32,0,0,1,28.74,17.13Z" fill="#1d1d1b"/><path d="M29.94,18.34a.31.31,0,0,1-.21-.09.29.29,0,0,1-.09-.21.29.29,0,0,1,.09-.22.3.3,0,0,1,.51.22.3.3,0,0,1-.09.21A.31.31,0,0,1,29.94,18.34Z" fill="#1d1d1b"/><path d="M31.14,19.54a.27.27,0,0,1-.21-.09.29.29,0,0,1-.09-.21.27.27,0,0,1,.09-.21.3.3,0,0,1,.42,0,.31.31,0,0,1,.09.22.29.29,0,0,1-.09.21A.27.27,0,0,1,31.14,19.54Z" fill="#1d1d1b"/><path d="M32.34,20.74a.33.33,0,0,1-.3-.3.31.31,0,0,1,.09-.21.31.31,0,0,1,.42,0,.33.33,0,0,1,.09.22.34.34,0,0,1-.08.21A.31.31,0,0,1,32.34,20.74Z" fill="#1d1d1b"/><path d="M33.55,21.94a.29.29,0,0,1-.22-.09.32.32,0,0,1,0-.42.31.31,0,0,1,.42,0,.3.3,0,0,1,.1.22.31.31,0,0,1-.3.3Z" fill="#1d1d1b"/><path d="M34.75,23.14a.29.29,0,0,1-.22-.09.3.3,0,0,1-.08-.21.29.29,0,0,1,.09-.21.31.31,0,0,1,.42,0,.29.29,0,0,1,.09.21.31.31,0,0,1-.3.3Z" fill="#1d1d1b"/><path d="M36,24.35a.31.31,0,0,1-.3-.3.32.32,0,0,1,.09-.22.32.32,0,0,1,.43,0,.29.29,0,0,1,.08.21.3.3,0,0,1-.09.21A.31.31,0,0,1,36,24.35Z" fill="#1d1d1b"/><path d="M37.15,25.55a.31.31,0,0,1-.3-.3.31.31,0,0,1,.09-.22.3.3,0,0,1,.42,0,.27.27,0,0,1,.09.21.29.29,0,0,1-.09.21A.31.31,0,0,1,37.15,25.55Z" fill="#1d1d1b"/><path d="M38.36,26.75a.28.28,0,0,1-.22-.09.31.31,0,0,1-.09-.21.32.32,0,0,1,.1-.22.31.31,0,0,1,.42,0,.3.3,0,0,1,.08.21.31.31,0,0,1-.09.22A.26.26,0,0,1,38.36,26.75Z" fill="#1d1d1b"/><path d="M39.56,28a.32.32,0,0,1-.21-.08.29.29,0,0,1-.09-.22.32.32,0,0,1,.08-.21.31.31,0,0,1,.43,0,.33.33,0,0,1,.09.21.29.29,0,0,1-.09.21A.3.3,0,0,1,39.56,28Z" fill="#1d1d1b"/><path d="M40.76,29.15a.31.31,0,0,1-.22-.09.29.29,0,0,1-.08-.21.27.27,0,0,1,.09-.21.31.31,0,0,1,.42,0,.29.29,0,0,1,.09.21.29.29,0,0,1-.09.22A.3.3,0,0,1,40.76,29.15Z" fill="#1d1d1b"/><path d="M42,30.35a.32.32,0,0,1-.21-.08.27.27,0,0,1-.09-.21.28.28,0,0,1,.09-.22.32.32,0,0,1,.42,0,.31.31,0,0,1,.09.22.29.29,0,0,1-.3.29Z" fill="#1d1d1b"/><path d="M43.16,31.56a.29.29,0,0,1-.21-.09.31.31,0,0,1-.09-.21A.32.32,0,0,1,43,31a.32.32,0,0,1,.43,0,.3.3,0,0,1,.08.21.32.32,0,0,1-.08.21A.31.31,0,0,1,43.16,31.56Z" fill="#1d1d1b"/><path d="M44.36,32.76a.32.32,0,0,1-.2-.08.3.3,0,0,1-.1-.22.31.31,0,0,1,.61,0,.29.29,0,0,1-.09.21A.31.31,0,0,1,44.36,32.76Z" fill="#1d1d1b"/><path d="M45.57,34a.32.32,0,0,1-.21-.08.31.31,0,0,1-.09-.22.27.27,0,0,1,.09-.21.31.31,0,0,1,.42,0,.3.3,0,0,1-.21.51Z" fill="#1d1d1b"/><path d="M46.77,35.17a.29.29,0,0,1-.21-.09.31.31,0,0,1-.09-.22.3.3,0,0,1,.09-.21.31.31,0,0,1,.42,0,.3.3,0,0,1,.09.21.27.27,0,0,1-.09.21A.28.28,0,0,1,46.77,35.17Z" fill="#1d1d1b"/><path d="M48,36.37a.31.31,0,0,1-.3-.3.29.29,0,0,1,.09-.22.31.31,0,0,1,.42,0,.26.26,0,0,1,.09.21.29.29,0,0,1-.09.21A.31.31,0,0,1,48,36.37Z" fill="#1d1d1b"/><path d="M49.17,37.57a.31.31,0,0,1-.3-.3.27.27,0,0,1,.09-.21.3.3,0,0,1,.42,0,.27.27,0,0,1,.09.21.32.32,0,0,1-.08.21A.31.31,0,0,1,49.17,37.57Z" fill="#1d1d1b"/><path d="M50.38,38.77a.32.32,0,0,1-.21-.08.34.34,0,0,1-.1-.22.33.33,0,0,1,.09-.21.31.31,0,0,1,.43,0,.33.33,0,0,1,.09.22.29.29,0,0,1-.09.21A.3.3,0,0,1,50.38,38.77Z" fill="#1d1d1b"/><path d="M51.58,40a.32.32,0,0,1-.21-.08.33.33,0,0,1-.09-.22.29.29,0,0,1,.09-.21.31.31,0,0,1,.43,0,.28.28,0,0,1,.08.2.29.29,0,0,1-.09.21A.3.3,0,0,1,51.58,40Z" fill="#1d1d1b"/><path d="M52.78,41.17a.28.28,0,0,1-.21-.08.33.33,0,0,1-.09-.22.34.34,0,0,1,.08-.21.32.32,0,0,1,.43,0,.3.3,0,0,1,.09.21.32.32,0,0,1-.08.21A.33.33,0,0,1,52.78,41.17Z" fill="#1d1d1b"/><path d="M54,42.38a.31.31,0,0,1-.21-.09.29.29,0,0,1-.09-.21.3.3,0,0,1,.52-.21.3.3,0,0,1,.08.21.29.29,0,0,1-.09.21A.31.31,0,0,1,54,42.38Z" fill="#1d1d1b"/><path d="M55.18,43.58a.31.31,0,0,1-.3-.3.31.31,0,0,1,.52-.21.3.3,0,0,1,.08.21.27.27,0,0,1-.09.21A.29.29,0,0,1,55.18,43.58Z" fill="#1d1d1b"/><path d="M56.39,44.78a.32.32,0,0,1-.21-.08.31.31,0,0,1-.09-.22.3.3,0,0,1,.08-.21.3.3,0,1,1,.43.42A.3.3,0,0,1,56.39,44.78Z" fill="#1d1d1b"/><path d="M57.59,46a.32.32,0,0,1-.21-.08.33.33,0,0,1-.09-.22.34.34,0,0,1,.08-.21.31.31,0,0,1,.43,0,.29.29,0,0,1,.09.21.27.27,0,0,1-.09.21A.29.29,0,0,1,57.59,46Z" fill="#1d1d1b"/><path d="M58.79,47.18a.28.28,0,0,1-.21-.08.33.33,0,0,1-.09-.22.3.3,0,0,1,.09-.21.31.31,0,0,1,.43,0,.28.28,0,0,1,.08.2.31.31,0,0,1-.09.22A.3.3,0,0,1,58.79,47.18Z" fill="#1d1d1b"/><path d="M60,48.39a.29.29,0,0,1-.21-.09.3.3,0,0,1-.09-.21.27.27,0,0,1,.09-.21.3.3,0,0,1,.43,0,.3.3,0,0,1,0,.42A.31.31,0,0,1,60,48.39Z" fill="#1d1d1b"/><path d="M61.19,49.59a.31.31,0,0,1-.3-.3.31.31,0,0,1,.52-.21.3.3,0,0,1,0,.42A.27.27,0,0,1,61.19,49.59Z" fill="#1d1d1b"/><path d="M62.4,50.79a.3.3,0,0,1-.21-.08.3.3,0,0,1-.1-.22.29.29,0,0,1,.09-.21.31.31,0,0,1,.43,0,.29.29,0,0,1,0,.42A.3.3,0,0,1,62.4,50.79Z" fill="#1d1d1b"/><path d="M63.6,52a.31.31,0,0,1-.3-.3.29.29,0,0,1,.09-.21.31.31,0,0,1,.42,0,.29.29,0,0,1,.09.21.27.27,0,0,1-.09.21A.29.29,0,0,1,63.6,52Z" fill="#1d1d1b"/><path d="M64.8,53.19a.3.3,0,0,1-.21-.08.33.33,0,0,1-.09-.22.3.3,0,0,1,.09-.21.31.31,0,0,1,.43,0,.3.3,0,0,1,.08.2.32.32,0,0,1-.08.21A.31.31,0,0,1,64.8,53.19Z" fill="#1d1d1b"/><path d="M19.11,1.51a.28.28,0,0,1-.21-.1.24.24,0,0,1-.09-.2A.29.29,0,0,1,18.9,1a.3.3,0,0,1,.42,0,.27.27,0,0,1,.09.21.27.27,0,0,1-.09.21A.31.31,0,0,1,19.11,1.51Z" fill="#1d1d1b"/><path d="M20.31,2.71a.31.31,0,0,1-.3-.3.3.3,0,0,1,.51-.21.29.29,0,0,1,0,.42A.26.26,0,0,1,20.31,2.71Z" fill="#1d1d1b"/><path d="M21.52,3.91a.31.31,0,0,1-.22-.09.29.29,0,0,1-.09-.21.31.31,0,0,1,.09-.21.32.32,0,0,1,.43,0,.3.3,0,0,1-.21.51Z" fill="#1d1d1b"/><path d="M22.72,5.11A.29.29,0,0,1,22.5,5a.3.3,0,0,1-.08-.21.27.27,0,0,1,.09-.21.31.31,0,0,1,.42,0,.29.29,0,0,1,0,.42A.27.27,0,0,1,22.72,5.11Z" fill="#1d1d1b"/><path d="M23.92,6.31a.32.32,0,0,1-.21-.08A.31.31,0,0,1,23.62,6a.27.27,0,0,1,.09-.21.31.31,0,0,1,.42,0,.27.27,0,0,1,.09.2.31.31,0,0,1-.09.22A.32.32,0,0,1,23.92,6.31Z" fill="#1d1d1b"/><path d="M25.12,7.52a.31.31,0,0,1-.21-.09.27.27,0,0,1-.09-.21A.29.29,0,0,1,24.91,7a.3.3,0,0,1,.51.22.29.29,0,0,1-.09.21A.31.31,0,0,1,25.12,7.52Z" fill="#1d1d1b"/><path d="M26.32,8.72a.31.31,0,0,1-.3-.3.3.3,0,0,1,.1-.22.3.3,0,0,1,.41,0,.27.27,0,0,1,.09.21.29.29,0,0,1-.09.21A.27.27,0,0,1,26.32,8.72Z" fill="#1d1d1b"/><path d="M27.53,9.92a.29.29,0,0,1-.22-.09.3.3,0,0,1-.08-.21.31.31,0,0,1,.09-.22.32.32,0,0,1,.42,0,.31.31,0,0,1,.09.21.29.29,0,0,1-.09.21A.3.3,0,0,1,27.53,9.92Z" fill="#1d1d1b"/><path d="M28.73,11.12a.29.29,0,0,1-.22-.09.3.3,0,0,1-.08-.21.29.29,0,0,1,.09-.21.31.31,0,0,1,.42,0,.3.3,0,0,1,.09.21.29.29,0,0,1-.09.21A.27.27,0,0,1,28.73,11.12Z" fill="#1d1d1b"/><path d="M29.93,12.32a.28.28,0,0,1-.21-.08.29.29,0,0,1-.09-.21.28.28,0,0,1,.09-.22.32.32,0,0,1,.42,0,.31.31,0,0,1,.09.22.3.3,0,0,1-.08.2A.29.29,0,0,1,29.93,12.32Z" fill="#1d1d1b"/><path d="M31.13,13.53a.31.31,0,0,1-.3-.3.32.32,0,0,1,.09-.22.32.32,0,0,1,.43,0,.27.27,0,0,1,.08.21.29.29,0,0,1-.09.21A.31.31,0,0,1,31.13,13.53Z" fill="#1d1d1b"/><path d="M32.33,14.73a.27.27,0,0,1-.21-.09.31.31,0,0,1-.09-.21.3.3,0,0,1,.1-.22.31.31,0,0,1,.51.22.3.3,0,0,1-.1.21A.26.26,0,0,1,32.33,14.73Z" fill="#1d1d1b"/><path d="M33.54,15.93a.31.31,0,0,1-.22-.09.3.3,0,0,1-.08-.21.31.31,0,0,1,.09-.22.32.32,0,0,1,.42,0,.29.29,0,0,1,0,.42A.29.29,0,0,1,33.54,15.93Z" fill="#1d1d1b"/><path d="M34.74,17.13a.3.3,0,0,1-.21-.51.31.31,0,0,1,.43,0,.28.28,0,0,1,.08.2A.27.27,0,0,1,35,17,.29.29,0,0,1,34.74,17.13Z" fill="#1d1d1b"/><path d="M35.94,18.34a.27.27,0,0,1-.21-.09.3.3,0,0,1-.09-.21.3.3,0,1,1,.6,0,.27.27,0,0,1-.09.2A.28.28,0,0,1,35.94,18.34Z" fill="#1d1d1b"/><path d="M37.14,19.54a.32.32,0,0,1-.21-.08.35.35,0,0,1-.09-.22.27.27,0,0,1,.09-.21.31.31,0,0,1,.43,0,.3.3,0,0,1,.08.21.34.34,0,0,1-.08.21A.33.33,0,0,1,37.14,19.54Z" fill="#1d1d1b"/><path d="M38.34,20.74a.3.3,0,0,1-.21-.09.3.3,0,1,1,.43-.42.3.3,0,0,1,.08.21.32.32,0,0,1-.08.21A.31.31,0,0,1,38.34,20.74Z" fill="#1d1d1b"/><path d="M39.55,21.94a.29.29,0,0,1-.22-.09.32.32,0,0,1,0-.42.31.31,0,0,1,.43,0,.3.3,0,0,1-.21.51Z" fill="#1d1d1b"/><path d="M40.75,23.14a.29.29,0,0,1-.22-.09.29.29,0,0,1-.08-.21.27.27,0,0,1,.09-.21.31.31,0,0,1,.42,0,.27.27,0,0,1,.09.2.3.3,0,0,1-.1.22A.26.26,0,0,1,40.75,23.14Z" fill="#1d1d1b"/><path d="M42,24.35a.29.29,0,0,1-.21-.09.27.27,0,0,1-.09-.21.32.32,0,0,1,.09-.22.32.32,0,0,1,.43,0,.27.27,0,0,1,.08.21.29.29,0,0,1-.09.21A.31.31,0,0,1,42,24.35Z" fill="#1d1d1b"/><path d="M43.15,25.55a.31.31,0,0,1-.3-.3.31.31,0,0,1,.09-.22.32.32,0,0,1,.42,0,.33.33,0,0,1,.09.22.34.34,0,0,1-.08.21A.34.34,0,0,1,43.15,25.55Z" fill="#1d1d1b"/><path d="M44.36,26.75a.3.3,0,0,1-.22-.51.3.3,0,0,1,.43.42A.3.3,0,0,1,44.36,26.75Z" fill="#1d1d1b"/><path d="M45.56,28a.29.29,0,0,1-.22-.09.29.29,0,0,1-.08-.21.27.27,0,0,1,.09-.21.31.31,0,0,1,.42,0,.27.27,0,0,1,.09.2.32.32,0,0,1-.1.22A.26.26,0,0,1,45.56,28Z" fill="#1d1d1b"/><path d="M46.76,29.15a.27.27,0,0,1-.21-.09.26.26,0,0,1-.09-.21.27.27,0,0,1,.09-.21.31.31,0,0,1,.42,0,.27.27,0,0,1,.09.2.31.31,0,0,1-.09.22A.3.3,0,0,1,46.76,29.15Z" fill="#1d1d1b"/><path d="M48,30.35a.32.32,0,0,1-.21-.08.31.31,0,0,1-.09-.22.3.3,0,0,1,.09-.21.3.3,0,0,1,.42,0,.27.27,0,0,1,.09.2.3.3,0,0,1-.08.21A.31.31,0,0,1,48,30.35Z" fill="#1d1d1b"/><path d="M49.16,31.56a.31.31,0,0,1-.3-.3A.36.36,0,0,1,49,31a.31.31,0,0,1,.43,0,.3.3,0,0,1,.08.21.34.34,0,0,1-.08.21A.33.33,0,0,1,49.16,31.56Z" fill="#1d1d1b"/><path d="M50.36,32.76a.29.29,0,0,1-.21-.09.3.3,0,1,1,.21.09Z" fill="#1d1d1b"/><path d="M51.57,34a.31.31,0,0,1-.22-.09.3.3,0,0,1-.08-.21.27.27,0,0,1,.09-.21.31.31,0,0,1,.42,0,.31.31,0,0,1,.09.21.27.27,0,0,1-.09.21A.29.29,0,0,1,51.57,34Z" fill="#1d1d1b"/><path d="M52.77,35.17a.29.29,0,0,1-.21-.09.31.31,0,0,1-.09-.22.3.3,0,0,1,.08-.2.31.31,0,0,1,.43,0,.3.3,0,0,1,0,.42A.32.32,0,0,1,52.77,35.17Z" fill="#1d1d1b"/><path d="M54,36.37a.29.29,0,0,1-.21-.09.3.3,0,0,1-.09-.21.32.32,0,0,1,.08-.21.31.31,0,0,1,.43,0,.33.33,0,0,1,.09.22.34.34,0,0,1-.08.21A.33.33,0,0,1,54,36.37Z" fill="#1d1d1b"/><path d="M55.17,37.57a.29.29,0,0,1-.21-.09.29.29,0,0,1,0-.42.31.31,0,0,1,.43,0,.3.3,0,0,1,.08.21.31.31,0,0,1-.3.3Z" fill="#1d1d1b"/><path d="M56.38,38.77a.29.29,0,0,1-.22-.09.3.3,0,0,1,.43-.42.3.3,0,0,1-.21.51Z" fill="#1d1d1b"/><path d="M57.58,40a.32.32,0,0,1-.21-.08.33.33,0,0,1-.09-.22.34.34,0,0,1,.08-.21.31.31,0,0,1,.43,0,.3.3,0,0,1,.09.21.29.29,0,0,1-.09.21A.3.3,0,0,1,57.58,40Z" fill="#1d1d1b"/><path d="M58.78,41.17a.28.28,0,0,1-.21-.08.33.33,0,0,1-.09-.22.3.3,0,0,1,.09-.21.3.3,0,0,1,.42,0,.24.24,0,0,1,.09.2.31.31,0,0,1-.09.22A.3.3,0,0,1,58.78,41.17Z" fill="#1d1d1b"/><path d="M60,42.38a.27.27,0,0,1-.21-.09.3.3,0,0,1-.09-.21.27.27,0,0,1,.09-.21.3.3,0,0,1,.51.21.34.34,0,0,1-.08.21A.31.31,0,0,1,60,42.38Z" fill="#1d1d1b"/><path d="M61.18,43.58a.31.31,0,0,1-.3-.3.27.27,0,0,1,.09-.21.3.3,0,0,1,.51.21.32.32,0,0,1-.08.21A.31.31,0,0,1,61.18,43.58Z" fill="#1d1d1b"/><path d="M62.39,44.78a.31.31,0,1,1,.21-.09A.29.29,0,0,1,62.39,44.78Z" fill="#1d1d1b"/><path d="M63.59,46a.32.32,0,0,1-.21-.08.33.33,0,0,1-.09-.22.34.34,0,0,1,.08-.21.31.31,0,0,1,.43,0,.29.29,0,0,1,0,.42A.3.3,0,0,1,63.59,46Z" fill="#1d1d1b"/><path d="M64.79,47.18a.31.31,0,0,1-.22-.09.29.29,0,0,1-.08-.21.27.27,0,0,1,.09-.21.31.31,0,0,1,.42,0,.3.3,0,0,1,.09.21.31.31,0,0,1-.09.22A.32.32,0,0,1,64.79,47.18Z" fill="#1d1d1b"/><path d="M66,48.39a.31.31,0,0,1-.3-.3.3.3,0,0,1,.51-.22.29.29,0,0,1,.09.22.27.27,0,0,1-.09.21A.29.29,0,0,1,66,48.39Z" fill="#1d1d1b"/><path d="M67.19,49.59a.27.27,0,0,1-.2-.09.28.28,0,0,1-.1-.21.31.31,0,0,1,.52-.21.3.3,0,0,1,.08.21.34.34,0,0,1-.08.21A.33.33,0,0,1,67.19,49.59Z" fill="#1d1d1b"/><path d="M68.4,50.79a.31.31,0,0,1-.22-.09.3.3,0,0,1-.08-.21.27.27,0,0,1,.09-.21.31.31,0,0,1,.42,0,.33.33,0,0,1,.09.21.29.29,0,0,1-.09.21A.32.32,0,0,1,68.4,50.79Z" fill="#1d1d1b"/><path d="M69.6,52a.29.29,0,0,1-.3-.29.3.3,0,0,1,.51-.21.27.27,0,0,1,.09.21.3.3,0,0,1-.09.21A.32.32,0,0,1,69.6,52Z" fill="#1d1d1b"/><path d="M70.8,53.2a.31.31,0,0,1-.21-.09.33.33,0,0,1-.09-.22.3.3,0,0,1,.09-.21.31.31,0,0,1,.43,0,.3.3,0,0,1,.08.2.31.31,0,0,1-.3.31Z" fill="#1d1d1b"/><path d="M72,54.4a.29.29,0,0,1-.22-.1.26.26,0,0,1-.08-.2.28.28,0,0,1,.09-.22.31.31,0,0,1,.51.22.33.33,0,0,1-.09.21A.29.29,0,0,1,72,54.4Z" fill="#1d1d1b"/><path d="M25.11,1.51a.28.28,0,0,1-.21-.1.25.25,0,0,1-.09-.2A.31.31,0,0,1,24.9,1a.32.32,0,0,1,.43,0,.27.27,0,0,1,.08.21.27.27,0,0,1-.09.21A.31.31,0,0,1,25.11,1.51Z" fill="#1d1d1b"/><path d="M26.31,2.71a.31.31,0,0,1-.3-.3.27.27,0,0,1,.09-.21.29.29,0,0,1,.42,0,.29.29,0,0,1,0,.42A.26.26,0,0,1,26.31,2.71Z" fill="#1d1d1b"/><path d="M27.52,3.91a.28.28,0,0,1-.22-.09.29.29,0,0,1,0-.42.31.31,0,0,1,.42,0,.3.3,0,0,1,.1.22.31.31,0,0,1-.09.21A.29.29,0,0,1,27.52,3.91Z" fill="#1d1d1b"/><path d="M28.72,5.11A.31.31,0,0,1,28.5,5a.3.3,0,0,1-.08-.21.27.27,0,0,1,.09-.21.31.31,0,0,1,.42,0,.27.27,0,0,1,.09.2.27.27,0,0,1-.09.21A.29.29,0,0,1,28.72,5.11Z" fill="#1d1d1b"/><path d="M29.92,6.31a.3.3,0,0,1-.21-.08A.31.31,0,0,1,29.62,6a.27.27,0,0,1,.09-.21.32.32,0,0,1,.42,0,.3.3,0,0,1,.09.21.32.32,0,0,1-.08.21A.33.33,0,0,1,29.92,6.31Z" fill="#1d1d1b"/><path d="M31.12,7.52a.28.28,0,0,1-.21-.1.24.24,0,0,1-.09-.2A.34.34,0,0,1,30.91,7a.32.32,0,0,1,.43,0,.3.3,0,0,1,0,.42A.31.31,0,0,1,31.12,7.52Z" fill="#1d1d1b"/><path d="M32.32,8.72a.3.3,0,0,1-.21-.09A.29.29,0,0,1,32,8.42a.36.36,0,0,1,.09-.22.32.32,0,0,1,.42,0,.27.27,0,0,1,.09.21.34.34,0,0,1-.08.21A.33.33,0,0,1,32.32,8.72Z" fill="#1d1d1b"/><path d="M33.53,9.92a.32.32,0,0,1-.21-.08.33.33,0,0,1-.09-.22.3.3,0,0,1,.08-.21.32.32,0,0,1,.43,0,.31.31,0,0,1,.09.21.29.29,0,0,1-.09.21A.32.32,0,0,1,33.53,9.92Z" fill="#1d1d1b"/><path d="M34.73,11.12a.29.29,0,0,1-.22-.09.29.29,0,0,1-.08-.21.27.27,0,0,1,.09-.21.32.32,0,0,1,.42,0,.31.31,0,0,1,.09.21.3.3,0,0,1-.1.22A.26.26,0,0,1,34.73,11.12Z" fill="#1d1d1b"/><path d="M35.93,12.33a.32.32,0,0,1-.22-.1.26.26,0,0,1-.08-.2.28.28,0,0,1,.09-.22.32.32,0,0,1,.42,0,.31.31,0,0,1,.09.22.27.27,0,0,1-.09.2A.3.3,0,0,1,35.93,12.33Z" fill="#1d1d1b"/><path d="M37.13,13.53a.31.31,0,0,1-.21-.09.29.29,0,0,1-.09-.21.31.31,0,0,1,.09-.22.32.32,0,0,1,.42,0,.33.33,0,0,1,.09.22.3.3,0,0,1-.08.2A.32.32,0,0,1,37.13,13.53Z" fill="#1d1d1b"/><path d="M38.33,14.73a.29.29,0,0,1-.21-.09.33.33,0,0,1-.09-.21.31.31,0,0,1,.51-.22.34.34,0,0,1,.1.22.33.33,0,0,1-.09.21A.31.31,0,0,1,38.33,14.73Z" fill="#1d1d1b"/><path d="M39.54,15.93a.29.29,0,0,1-.22-.09.32.32,0,0,1,0-.42.31.31,0,0,1,.43,0,.3.3,0,0,1-.21.51Z" fill="#1d1d1b"/><path d="M40.74,17.13a.32.32,0,0,1-.21-.08.31.31,0,0,1-.09-.22.29.29,0,0,1,.09-.21.3.3,0,0,1,.42,0,.3.3,0,0,1,.09.21A.32.32,0,0,1,41,17,.33.33,0,0,1,40.74,17.13Z" fill="#1d1d1b"/><path d="M41.94,18.34a.29.29,0,0,1-.21-.09.3.3,0,0,1,0-.42.3.3,0,0,1,.52.21.33.33,0,0,1-.3.3Z" fill="#1d1d1b"/><path d="M43.14,19.54a.28.28,0,0,1-.21-.1.24.24,0,0,1-.09-.2.34.34,0,0,1,.09-.22.32.32,0,0,1,.43,0,.3.3,0,0,1,.08.21.27.27,0,0,1-.09.21A.31.31,0,0,1,43.14,19.54Z" fill="#1d1d1b"/><path d="M44.34,20.74a.31.31,0,0,1-.3-.3.27.27,0,0,1,.09-.21.3.3,0,0,1,.42,0,.33.33,0,0,1,.09.22.34.34,0,0,1-.08.21A.29.29,0,0,1,44.34,20.74Z" fill="#1d1d1b"/><path d="M45.55,21.94a.31.31,0,0,1-.22-.09.29.29,0,0,1,0-.42.31.31,0,0,1,.43,0,.33.33,0,0,1,.09.21.31.31,0,0,1-.3.3Z" fill="#1d1d1b"/><path d="M46.75,23.14a.32.32,0,0,1-.21-.08.33.33,0,0,1-.09-.22.34.34,0,0,1,.08-.21.32.32,0,0,1,.43,0,.3.3,0,0,1,.09.21.29.29,0,0,1-.09.21A.3.3,0,0,1,46.75,23.14Z" fill="#1d1d1b"/><path d="M48,24.34a.3.3,0,0,1-.21-.08.28.28,0,0,1-.09-.22.27.27,0,0,1,.09-.21.32.32,0,0,1,.43,0,.28.28,0,0,1,.08.2.29.29,0,0,1-.09.22A.3.3,0,0,1,48,24.34Z" fill="#1d1d1b"/><path d="M49.15,25.55a.31.31,0,0,1-.3-.3.27.27,0,0,1,.09-.21.3.3,0,0,1,.51.21.32.32,0,0,1-.08.21A.31.31,0,0,1,49.15,25.55Z" fill="#1d1d1b"/><path d="M50.35,26.75a.31.31,0,0,1-.3-.3.31.31,0,0,1,.09-.21.32.32,0,0,1,.43,0,.3.3,0,0,1,.08.21.32.32,0,0,1-.08.21A.33.33,0,0,1,50.35,26.75Z" fill="#1d1d1b"/><path d="M51.56,28a.31.31,0,0,1-.22-.09.3.3,0,0,1-.08-.21.3.3,0,0,1,.51-.21.3.3,0,0,1,.09.21.27.27,0,0,1-.09.21A.29.29,0,0,1,51.56,28Z" fill="#1d1d1b"/><path d="M52.76,29.15a.32.32,0,0,1-.21-.08.31.31,0,0,1-.09-.22.29.29,0,0,1,.09-.21.31.31,0,0,1,.42,0,.29.29,0,0,1,.09.21.31.31,0,0,1-.09.22A.32.32,0,0,1,52.76,29.15Z" fill="#1d1d1b"/><path d="M54,30.36a.29.29,0,0,1-.21-.09.32.32,0,0,1-.09-.21.3.3,0,0,1,.51-.22.28.28,0,0,1,.09.22.29.29,0,0,1-.09.21A.33.33,0,0,1,54,30.36Z" fill="#1d1d1b"/><path d="M55.16,31.56a.29.29,0,0,1-.21-.09.33.33,0,0,1-.09-.21.27.27,0,0,1,.09-.21.3.3,0,0,1,.42,0,.31.31,0,0,1,.09.22.29.29,0,0,1-.09.21A.31.31,0,0,1,55.16,31.56Z" fill="#1d1d1b"/><path d="M56.36,32.76a.29.29,0,0,1-.21-.09.3.3,0,1,1,.43-.42.3.3,0,0,1,.08.21.29.29,0,0,1-.3.3Z" fill="#1d1d1b"/><path d="M57.57,34a.31.31,0,0,1-.22-.09.3.3,0,0,1-.08-.21.32.32,0,0,1,.08-.21.31.31,0,0,1,.43,0,.27.27,0,0,1,.09.2.32.32,0,0,1-.1.22A.26.26,0,0,1,57.57,34Z" fill="#1d1d1b"/><path d="M58.77,35.16a.3.3,0,0,1-.21-.08.29.29,0,0,1-.09-.22.29.29,0,0,1,.09-.21.3.3,0,0,1,.42,0,.25.25,0,0,1,.09.2.29.29,0,0,1-.09.22A.32.32,0,0,1,58.77,35.16Z" fill="#1d1d1b"/><path d="M60,36.36a.29.29,0,0,1-.3-.29.3.3,0,1,1,.6,0,.29.29,0,0,1-.3.29Z" fill="#1d1d1b"/><path d="M61.17,37.57a.31.31,0,0,1-.3-.3.27.27,0,0,1,.09-.21.31.31,0,0,1,.43,0,.3.3,0,0,1,.08.21.32.32,0,0,1-.08.21A.31.31,0,0,1,61.17,37.57Z" fill="#1d1d1b"/><path d="M62.38,38.77a.32.32,0,0,1-.21-.08.34.34,0,0,1-.1-.22.33.33,0,0,1,.09-.21.3.3,0,0,1,.43,0,.29.29,0,0,1,0,.42A.3.3,0,0,1,62.38,38.77Z" fill="#1d1d1b"/><path d="M63.58,40a.31.31,0,0,1-.22-.09.3.3,0,0,1-.08-.21.27.27,0,0,1,.09-.21.31.31,0,0,1,.42,0,.29.29,0,0,1,0,.42A.29.29,0,0,1,63.58,40Z" fill="#1d1d1b"/><path d="M64.78,41.17a.29.29,0,0,1-.3-.29.35.35,0,0,1,.08-.22.31.31,0,0,1,.52.22.29.29,0,0,1-.3.29Z" fill="#1d1d1b"/><path d="M66,42.38a.31.31,0,0,1-.21-.09.29.29,0,0,1,0-.42.3.3,0,0,1,.42,0,.33.33,0,0,1,.09.22.29.29,0,0,1-.09.21A.31.31,0,0,1,66,42.38Z" fill="#1d1d1b"/><path d="M67.18,43.58a.29.29,0,0,1-.21-.09.31.31,0,0,1-.09-.21.27.27,0,0,1,.09-.21.31.31,0,0,1,.43,0,.32.32,0,0,1,0,.42A.31.31,0,0,1,67.18,43.58Z" fill="#1d1d1b"/><path d="M68.39,44.78a.32.32,0,0,1-.21-.08.32.32,0,0,1-.1-.22.3.3,0,0,1,.09-.21.3.3,0,0,1,.43,0,.29.29,0,0,1,0,.42A.3.3,0,0,1,68.39,44.78Z" fill="#1d1d1b"/><path d="M69.59,46a.31.31,0,0,1-.22-.09.3.3,0,0,1-.08-.21.3.3,0,0,1,.51-.21.29.29,0,0,1,.09.21.27.27,0,0,1-.09.21A.29.29,0,0,1,69.59,46Z" fill="#1d1d1b"/><path d="M70.79,47.18a.3.3,0,0,1-.21-.08.31.31,0,0,1-.09-.22.29.29,0,0,1,.09-.21.32.32,0,0,1,.42,0,.29.29,0,0,1,.09.21.31.31,0,0,1-.09.22A.3.3,0,0,1,70.79,47.18Z" fill="#1d1d1b"/><path d="M72,48.39a.31.31,0,0,1-.3-.3.3.3,0,0,1,.52-.21.3.3,0,0,1,.08.21.34.34,0,0,1-.08.21A.33.33,0,0,1,72,48.39Z" fill="#1d1d1b"/><path d="M31.11,1.51a.28.28,0,0,1-.21-.1.25.25,0,0,1-.09-.2A.29.29,0,0,1,30.9,1a.31.31,0,0,1,.42,0,.33.33,0,0,1,.09.22.32.32,0,0,1-.08.2A.32.32,0,0,1,31.11,1.51Z" fill="#1d1d1b"/><path d="M32.31,2.71a.27.27,0,0,1-.21-.09A.29.29,0,0,1,32,2.41a.27.27,0,0,1,.09-.21.31.31,0,0,1,.42,0,.33.33,0,0,1,.09.22.34.34,0,0,1-.08.21A.29.29,0,0,1,32.31,2.71Z" fill="#1d1d1b"/><path d="M33.51,3.91a.29.29,0,0,1-.21-.09.31.31,0,0,1-.09-.21.28.28,0,0,1,.1-.21.31.31,0,0,1,.42,0,.3.3,0,0,1-.22.51Z" fill="#1d1d1b"/><path d="M34.72,5.11A.29.29,0,0,1,34.5,5a.29.29,0,0,1-.08-.21.27.27,0,0,1,.09-.21.29.29,0,0,1,.42,0,.27.27,0,0,1,.09.2.32.32,0,0,1-.1.22A.26.26,0,0,1,34.72,5.11Z" fill="#1d1d1b"/><path d="M35.92,6.31a.3.3,0,0,1-.21-.08A.29.29,0,0,1,35.62,6a.27.27,0,0,1,.09-.21.31.31,0,0,1,.42,0,.25.25,0,0,1,.09.2.31.31,0,0,1-.09.22A.32.32,0,0,1,35.92,6.31Z" fill="#1d1d1b"/><path d="M37.12,7.52a.31.31,0,0,1-.21-.09.29.29,0,0,1-.09-.21A.27.27,0,0,1,36.91,7a.3.3,0,0,1,.51.21.29.29,0,0,1-.09.21A.31.31,0,0,1,37.12,7.52Z" fill="#1d1d1b"/><path d="M38.32,8.72a.27.27,0,0,1-.21-.09A.31.31,0,0,1,38,8.42a.34.34,0,0,1,.09-.22.32.32,0,0,1,.43,0,.29.29,0,0,1,.08.21.27.27,0,0,1-.09.21A.26.26,0,0,1,38.32,8.72Z" fill="#1d1d1b"/><path d="M39.53,9.92a.31.31,0,0,1-.31-.3.31.31,0,0,1,.09-.21.32.32,0,0,1,.43,0,.29.29,0,0,1,0,.42A.32.32,0,0,1,39.53,9.92Z" fill="#1d1d1b"/><path d="M40.73,11.12a.3.3,0,0,1-.21-.08.31.31,0,0,1-.09-.22.29.29,0,0,1,.09-.21.31.31,0,0,1,.42,0,.29.29,0,0,1,.09.21.27.27,0,0,1-.09.21A.29.29,0,0,1,40.73,11.12Z" fill="#1d1d1b"/><path d="M41.93,12.32a.3.3,0,0,1-.21-.08.29.29,0,0,1-.09-.21.28.28,0,0,1,.09-.22.32.32,0,0,1,.42,0,.31.31,0,0,1,.09.22.29.29,0,0,1-.3.29Z" fill="#1d1d1b"/><path d="M43.13,13.53a.33.33,0,0,1-.21-.09.27.27,0,0,1-.09-.21.28.28,0,0,1,.09-.22.32.32,0,0,1,.42,0,.31.31,0,0,1,.09.22.29.29,0,0,1-.09.21A.31.31,0,0,1,43.13,13.53Z" fill="#1d1d1b"/><path d="M44.33,14.73a.31.31,0,0,1-.3-.3.3.3,0,0,1,.1-.22.31.31,0,0,1,.42,0,.29.29,0,0,1,.08.21.27.27,0,0,1-.09.21A.29.29,0,0,1,44.33,14.73Z" fill="#1d1d1b"/><path d="M45.54,15.93a.32.32,0,0,1-.21-.08.3.3,0,0,1-.09-.22.29.29,0,0,1,.08-.21.3.3,0,0,1,.43,0,.29.29,0,0,1,0,.42A.3.3,0,0,1,45.54,15.93Z" fill="#1d1d1b"/><path d="M46.74,17.13a.3.3,0,0,1-.21-.08.33.33,0,0,1-.09-.22.34.34,0,0,1,.08-.21.31.31,0,0,1,.43,0,.29.29,0,0,1,.09.21.31.31,0,0,1-.3.3Z" fill="#1d1d1b"/><path d="M47.94,18.33a.3.3,0,0,1-.21-.08.27.27,0,0,1-.09-.21.28.28,0,0,1,.09-.22.31.31,0,0,1,.42,0,.28.28,0,0,1,.09.21.27.27,0,0,1-.09.21A.3.3,0,0,1,47.94,18.33Z" fill="#1d1d1b"/><path d="M49.14,19.54a.29.29,0,0,1-.21-.09.3.3,0,0,1-.09-.21.29.29,0,0,1,.09-.21.3.3,0,0,1,.43,0,.32.32,0,0,1,.08.21.34.34,0,0,1-.08.21A.33.33,0,0,1,49.14,19.54Z" fill="#1d1d1b"/><path d="M50.34,20.74a.34.34,0,0,1-.21-.08.33.33,0,0,1-.09-.22.29.29,0,0,1,.09-.21.31.31,0,0,1,.43,0,.32.32,0,0,1,0,.42A.33.33,0,0,1,50.34,20.74Z" fill="#1d1d1b"/><path d="M51.55,21.94a.31.31,0,0,1-.22-.09.29.29,0,0,1,0-.42.32.32,0,0,1,.43,0,.33.33,0,0,1,.09.21.31.31,0,0,1-.3.3Z" fill="#1d1d1b"/><path d="M52.75,23.14a.3.3,0,0,1-.21-.08.31.31,0,0,1-.09-.22.3.3,0,0,1,.51-.21.29.29,0,0,1,.09.21.27.27,0,0,1-.09.21A.29.29,0,0,1,52.75,23.14Z" fill="#1d1d1b"/><path d="M54,24.34a.3.3,0,0,1-.21-.08.31.31,0,0,1-.09-.22.3.3,0,0,1,.09-.21.31.31,0,0,1,.43,0,.3.3,0,0,1,.08.2.3.3,0,0,1-.08.21A.31.31,0,0,1,54,24.34Z" fill="#1d1d1b"/><path d="M55.15,25.55a.29.29,0,0,1-.21-.09.3.3,0,0,1-.09-.21.27.27,0,0,1,.09-.21.31.31,0,0,1,.43,0,.29.29,0,0,1,.08.21.27.27,0,0,1-.09.21A.29.29,0,0,1,55.15,25.55Z" fill="#1d1d1b"/><path d="M56.36,26.75a.3.3,0,0,1-.21-.08.32.32,0,0,1-.1-.22.29.29,0,0,1,.09-.21.3.3,0,0,1,.43.42A.3.3,0,0,1,56.36,26.75Z" fill="#1d1d1b"/><path d="M57.56,28a.31.31,0,0,1-.22-.09.3.3,0,0,1-.08-.21.3.3,0,0,1,.51-.21.31.31,0,0,1,.09.21.3.3,0,0,1-.1.22A.26.26,0,0,1,57.56,28Z" fill="#1d1d1b"/><path d="M58.76,29.15a.27.27,0,0,1-.21-.09.29.29,0,0,1,0-.42.3.3,0,0,1,.42,0,.3.3,0,0,1-.21.51Z" fill="#1d1d1b"/><path d="M60,30.35a.32.32,0,0,1-.21-.08.3.3,0,0,1-.09-.21.31.31,0,0,1,.09-.22.32.32,0,0,1,.42,0,.31.31,0,0,1,.09.22.3.3,0,0,1-.08.2A.31.31,0,0,1,60,30.35Z" fill="#1d1d1b"/><path d="M61.16,31.56a.31.31,0,0,1-.3-.3.29.29,0,0,1,.09-.21.3.3,0,0,1,.42,0,.33.33,0,0,1,.09.22.34.34,0,0,1-.08.21A.33.33,0,0,1,61.16,31.56Z" fill="#1d1d1b"/><path d="M62.36,32.76a.31.31,0,0,1-.3-.3.31.31,0,0,1,.61,0,.29.29,0,0,1-.09.21A.31.31,0,0,1,62.36,32.76Z" fill="#1d1d1b"/><path d="M63.57,34a.31.31,0,0,1-.22-.09.3.3,0,0,1-.08-.21.3.3,0,0,1,.51-.21.33.33,0,0,1,.09.21.31.31,0,0,1-.09.21A.29.29,0,0,1,63.57,34Z" fill="#1d1d1b"/><path d="M64.77,35.16a.3.3,0,0,1-.21-.08.31.31,0,0,1-.09-.22.3.3,0,0,1,.09-.21.3.3,0,0,1,.42,0,.27.27,0,0,1,.09.2.29.29,0,0,1-.1.22A.26.26,0,0,1,64.77,35.16Z" fill="#1d1d1b"/><path d="M66,36.37a.29.29,0,0,1-.21-.09.3.3,0,0,1-.09-.21.3.3,0,0,1,.52-.21.3.3,0,0,1,.08.21.31.31,0,0,1-.3.3Z" fill="#1d1d1b"/><path d="M67.17,37.57a.31.31,0,0,1-.3-.3.27.27,0,0,1,.09-.21.32.32,0,0,1,.43,0,.3.3,0,0,1,.08.21.32.32,0,0,1-.08.21A.31.31,0,0,1,67.17,37.57Z" fill="#1d1d1b"/><path d="M68.38,38.77a.32.32,0,0,1-.21-.08.34.34,0,0,1-.1-.22.31.31,0,0,1,.61,0,.29.29,0,0,1-.09.21A.3.3,0,0,1,68.38,38.77Z" fill="#1d1d1b"/><path d="M69.58,40a.32.32,0,0,1-.21-.08.33.33,0,0,1-.09-.22.32.32,0,0,1,.08-.21.31.31,0,0,1,.43,0,.27.27,0,0,1,.09.2.27.27,0,0,1-.09.21A.29.29,0,0,1,69.58,40Z" fill="#1d1d1b"/><path d="M70.78,41.17a.29.29,0,0,1-.3-.29.3.3,0,1,1,.6,0,.27.27,0,0,1-.09.21A.3.3,0,0,1,70.78,41.17Z" fill="#1d1d1b"/><path d="M72,42.38a.28.28,0,0,1-.21-.1.24.24,0,0,1-.09-.2.32.32,0,0,1,.09-.22.32.32,0,0,1,.43,0,.3.3,0,0,1,.08.21.29.29,0,0,1-.09.21A.27.27,0,0,1,72,42.38Z" fill="#1d1d1b"/><path d="M37.11,1.51a.31.31,0,0,1-.3-.3A.28.28,0,0,1,36.9,1a.32.32,0,0,1,.43,0,.3.3,0,0,1,.08.21.34.34,0,0,1-.08.21A.33.33,0,0,1,37.11,1.51Z" fill="#1d1d1b"/><path d="M38.31,2.71a.3.3,0,0,1-.21-.09A.29.29,0,0,1,38,2.41a.27.27,0,0,1,.09-.21.31.31,0,0,1,.42,0,.33.33,0,0,1,.09.22.32.32,0,0,1-.08.21A.33.33,0,0,1,38.31,2.71Z" fill="#1d1d1b"/><path d="M39.51,3.91a.3.3,0,0,1-.2-.08.29.29,0,0,1,0-.44.32.32,0,0,1,.42,0,.31.31,0,0,1,.09.21.33.33,0,0,1-.09.21A.31.31,0,0,1,39.51,3.91Z" fill="#1d1d1b"/><path d="M40.72,5.11A.32.32,0,0,1,40.51,5a.29.29,0,0,1-.09-.22.26.26,0,0,1,.08-.2.3.3,0,0,1,.52.2.29.29,0,0,1-.09.21A.3.3,0,0,1,40.72,5.11Z" fill="#1d1d1b"/><path d="M41.92,6.31a.32.32,0,0,1-.21-.08A.31.31,0,0,1,41.62,6a.34.34,0,0,1,.08-.21.32.32,0,0,1,.43,0,.3.3,0,0,1,.09.21.27.27,0,0,1-.09.21A.3.3,0,0,1,41.92,6.31Z" fill="#1d1d1b"/><path d="M43.12,7.52a.31.31,0,0,1-.21-.09.27.27,0,0,1-.09-.21A.32.32,0,0,1,42.91,7a.3.3,0,0,1,.42,0,.27.27,0,0,1,.09.21.34.34,0,0,1-.08.21A.36.36,0,0,1,43.12,7.52Z" fill="#1d1d1b"/><path d="M44.32,8.72a.31.31,0,0,1-.3-.3.27.27,0,0,1,.09-.21.29.29,0,0,1,.42,0,.27.27,0,0,1,.09.21.29.29,0,0,1-.09.21A.27.27,0,0,1,44.32,8.72Z" fill="#1d1d1b"/><path d="M45.53,9.92a.29.29,0,0,1-.22-.09.29.29,0,0,1,0-.42.31.31,0,0,1,.43,0,.3.3,0,0,1-.21.51Z" fill="#1d1d1b"/><path d="M46.73,11.12a.3.3,0,0,1-.21-.51.31.31,0,0,1,.42,0,.27.27,0,0,1,.09.2.32.32,0,0,1-.1.22A.26.26,0,0,1,46.73,11.12Z" fill="#1d1d1b"/><path d="M47.93,12.32a.29.29,0,0,1-.3-.29.31.31,0,0,1,.09-.22.32.32,0,0,1,.42,0,.31.31,0,0,1,.09.22.29.29,0,0,1-.3.29Z" fill="#1d1d1b"/><path d="M49.13,13.53a.31.31,0,0,1-.3-.3.29.29,0,0,1,.09-.21.3.3,0,0,1,.42,0,.33.33,0,0,1,.09.22.34.34,0,0,1-.08.21A.33.33,0,0,1,49.13,13.53Z" fill="#1d1d1b"/><path d="M50.33,14.73a.31.31,0,0,1-.3-.3.31.31,0,0,1,.52-.21.3.3,0,0,1,.08.21.32.32,0,0,1-.08.21A.31.31,0,0,1,50.33,14.73Z" fill="#1d1d1b"/><path d="M51.54,15.93a.29.29,0,0,1-.22-.09.32.32,0,0,1-.08-.21.3.3,0,0,1,.08-.21.31.31,0,0,1,.52.21.31.31,0,0,1-.3.3Z" fill="#1d1d1b"/><path d="M52.74,17.13a.32.32,0,0,1-.21-.08.33.33,0,0,1-.09-.22.34.34,0,0,1,.08-.21.32.32,0,0,1,.43,0,.3.3,0,0,1,.09.21A.32.32,0,0,1,53,17,.33.33,0,0,1,52.74,17.13Z" fill="#1d1d1b"/><path d="M53.94,18.33a.3.3,0,0,1-.21-.08.29.29,0,0,1-.09-.21.3.3,0,0,1,.52-.21.3.3,0,0,1,.08.21.29.29,0,0,1-.09.21A.3.3,0,0,1,53.94,18.33Z" fill="#1d1d1b"/><path d="M55.14,19.54a.29.29,0,0,1-.21-.09.3.3,0,0,1,0-.42.3.3,0,0,1,.43,0,.27.27,0,0,1,.09.21.29.29,0,0,1-.09.21A.27.27,0,0,1,55.14,19.54Z" fill="#1d1d1b"/><path d="M56.34,20.74a.31.31,0,0,1-.3-.3.27.27,0,0,1,.09-.21.31.31,0,0,1,.43,0,.3.3,0,0,1,.08.21.32.32,0,0,1-.08.21A.31.31,0,0,1,56.34,20.74Z" fill="#1d1d1b"/><path d="M57.55,21.94a.32.32,0,0,1-.21-.08.34.34,0,0,1-.1-.22.33.33,0,0,1,.09-.21.32.32,0,0,1,.43,0,.33.33,0,0,1,.09.21.29.29,0,0,1-.09.21A.3.3,0,0,1,57.55,21.94Z" fill="#1d1d1b"/><path d="M58.75,23.14a.31.31,0,0,1-.22-.09.3.3,0,0,1-.08-.21.3.3,0,0,1,.51-.21.3.3,0,0,1,.09.21.27.27,0,0,1-.09.21A.29.29,0,0,1,58.75,23.14Z" fill="#1d1d1b"/><path d="M60,24.35a.29.29,0,0,1-.21-.09.3.3,0,0,1-.09-.21.27.27,0,0,1,.09-.21.3.3,0,0,1,.42,0,.31.31,0,0,1,.09.22.29.29,0,0,1-.09.21A.31.31,0,0,1,60,24.35Z" fill="#1d1d1b"/><path d="M61.15,25.55a.29.29,0,0,1-.21-.09.33.33,0,0,1-.09-.21.36.36,0,0,1,.09-.22.32.32,0,0,1,.43,0,.29.29,0,0,1,.08.21.27.27,0,0,1-.09.21A.29.29,0,0,1,61.15,25.55Z" fill="#1d1d1b"/><path d="M62.35,26.75a.31.31,0,0,1-.3-.3.29.29,0,0,1,.09-.21.31.31,0,0,1,.43,0,.32.32,0,0,1,0,.42A.33.33,0,0,1,62.35,26.75Z" fill="#1d1d1b"/><path d="M63.56,28a.31.31,0,0,1-.22-.09.3.3,0,0,1-.08-.21.32.32,0,0,1,.08-.21.31.31,0,0,1,.43,0,.29.29,0,0,1,.09.2.27.27,0,0,1-.09.21A.29.29,0,0,1,63.56,28Z" fill="#1d1d1b"/><path d="M64.76,29.15a.31.31,0,0,1-.3-.3.29.29,0,0,1,.09-.21.31.31,0,0,1,.42,0,.29.29,0,0,1,.09.21.27.27,0,0,1-.09.21A.29.29,0,0,1,64.76,29.15Z" fill="#1d1d1b"/><path d="M66,30.36a.29.29,0,0,1-.21-.09.31.31,0,0,1-.09-.22.3.3,0,0,1,.09-.21.31.31,0,0,1,.42,0,.3.3,0,0,1,.09.21.32.32,0,0,1-.08.21A.3.3,0,0,1,66,30.36Z" fill="#1d1d1b"/><path d="M67.16,31.56a.3.3,0,0,1-.21-.51.3.3,0,0,1,.51.21.27.27,0,0,1-.09.21A.29.29,0,0,1,67.16,31.56Z" fill="#1d1d1b"/><path d="M68.36,32.76a.27.27,0,0,1-.21-.09.3.3,0,0,1-.08-.21.31.31,0,0,1,.09-.22.32.32,0,0,1,.42,0,.31.31,0,0,1,.09.21.33.33,0,0,1-.09.21A.29.29,0,0,1,68.36,32.76Z" fill="#1d1d1b"/><path d="M69.57,34a.32.32,0,0,1-.21-.08.33.33,0,0,1-.09-.22.34.34,0,0,1,.08-.21.31.31,0,0,1,.43,0,.29.29,0,0,1,.09.21.27.27,0,0,1-.09.21A.29.29,0,0,1,69.57,34Z" fill="#1d1d1b"/><path d="M70.77,35.16a.29.29,0,0,1-.22-.09.3.3,0,0,1,0-.42.31.31,0,0,1,.42,0,.3.3,0,0,1,.09.21.31.31,0,0,1-.09.22A.32.32,0,0,1,70.77,35.16Z" fill="#1d1d1b"/><path d="M72,36.36a.29.29,0,0,1-.3-.29.32.32,0,0,1,.08-.21.31.31,0,0,1,.43,0,.33.33,0,0,1,.09.22.29.29,0,0,1-.3.29Z" fill="#1d1d1b"/><path d="M43.11,1.51a.29.29,0,0,1-.21-.09.3.3,0,0,1-.09-.21A.29.29,0,0,1,42.9,1a.3.3,0,0,1,.42,0,.33.33,0,0,1,.09.22.34.34,0,0,1-.08.21A.36.36,0,0,1,43.11,1.51Z" fill="#1d1d1b"/><path d="M44.31,2.71a.29.29,0,0,1-.21-.09A.27.27,0,0,1,44,2.41a.36.36,0,0,1,.09-.22.32.32,0,0,1,.43,0,.3.3,0,0,1,.08.21.32.32,0,0,1-.08.21A.31.31,0,0,1,44.31,2.71Z" fill="#1d1d1b"/><path d="M45.51,3.91a.31.31,0,0,1-.3-.3.29.29,0,0,1,.09-.21.31.31,0,0,1,.43,0,.33.33,0,0,1,.09.21.33.33,0,0,1-.09.21A.33.33,0,0,1,45.51,3.91Z" fill="#1d1d1b"/><path d="M46.72,5.11A.31.31,0,0,1,46.5,5a.3.3,0,0,1-.08-.21.3.3,0,0,1,.51-.21.29.29,0,0,1,.09.21.31.31,0,0,1-.09.21A.29.29,0,0,1,46.72,5.11Z" fill="#1d1d1b"/><path d="M47.92,6.31a.3.3,0,0,1-.21-.08A.29.29,0,0,1,47.62,6a.27.27,0,0,1,.09-.21.32.32,0,0,1,.42,0,.3.3,0,0,1,.09.21.27.27,0,0,1-.09.21A.29.29,0,0,1,47.92,6.31Z" fill="#1d1d1b"/><path d="M49.12,7.52a.31.31,0,0,1-.3-.3A.3.3,0,0,1,49.33,7a.28.28,0,0,1,.09.22.29.29,0,0,1-.09.21A.27.27,0,0,1,49.12,7.52Z" fill="#1d1d1b"/><path d="M50.32,8.72a.31.31,0,0,1-.3-.3.29.29,0,0,1,.09-.21.3.3,0,0,1,.43,0,.32.32,0,0,1,.08.21.34.34,0,0,1-.08.21A.33.33,0,0,1,50.32,8.72Z" fill="#1d1d1b"/><path d="M51.53,9.92a.32.32,0,0,1-.21-.08.3.3,0,0,1-.1-.22.29.29,0,0,1,.09-.21.3.3,0,0,1,.43,0,.29.29,0,0,1,0,.42A.3.3,0,0,1,51.53,9.92Z" fill="#1d1d1b"/><path d="M52.73,11.12a.32.32,0,0,1-.21-.08.33.33,0,0,1-.09-.22.34.34,0,0,1,.08-.21.31.31,0,0,1,.43,0,.27.27,0,0,1,.09.2.27.27,0,0,1-.09.21A.29.29,0,0,1,52.73,11.12Z" fill="#1d1d1b"/><path d="M53.93,12.32a.3.3,0,0,1-.21-.08.33.33,0,0,1-.09-.22.3.3,0,0,1,.09-.21.31.31,0,0,1,.43,0,.28.28,0,0,1,.08.2.31.31,0,0,1-.09.22A.3.3,0,0,1,53.93,12.32Z" fill="#1d1d1b"/><path d="M55.13,13.53a.31.31,0,0,1-.3-.3.29.29,0,0,1,.09-.21.3.3,0,0,1,.43,0,.32.32,0,0,1,.08.21.34.34,0,0,1-.08.21A.33.33,0,0,1,55.13,13.53Z" fill="#1d1d1b"/><path d="M56.33,14.73a.31.31,0,0,1-.3-.3.29.29,0,0,1,.09-.21.3.3,0,0,1,.42,0,.29.29,0,0,1,.09.22.26.26,0,0,1-.08.2A.28.28,0,0,1,56.33,14.73Z" fill="#1d1d1b"/><path d="M57.54,15.93a.32.32,0,0,1-.21-.08.33.33,0,0,1-.09-.22.3.3,0,0,1,.08-.21.31.31,0,0,1,.52.21.29.29,0,0,1-.09.21A.3.3,0,0,1,57.54,15.93Z" fill="#1d1d1b"/><path d="M58.74,17.13a.32.32,0,0,1-.21-.08.33.33,0,0,1-.09-.22.29.29,0,0,1,.09-.21.31.31,0,0,1,.42,0,.31.31,0,0,1,.09.21A.27.27,0,0,1,59,17,.29.29,0,0,1,58.74,17.13Z" fill="#1d1d1b"/><path d="M59.94,18.34a.31.31,0,0,1-.21-.09.29.29,0,0,1-.09-.22.3.3,0,0,1,.09-.21.3.3,0,0,1,.42,0,.27.27,0,0,1,.09.2.29.29,0,0,1-.09.22A.31.31,0,0,1,59.94,18.34Z" fill="#1d1d1b"/><path d="M61.14,19.54a.31.31,0,0,1-.3-.3.27.27,0,0,1,.09-.21.31.31,0,0,1,.43,0,.3.3,0,0,1,.08.21.29.29,0,0,1-.09.21A.27.27,0,0,1,61.14,19.54Z" fill="#1d1d1b"/><path d="M62.34,20.74a.34.34,0,0,1-.21-.08.33.33,0,0,1-.09-.22.29.29,0,0,1,.09-.21.31.31,0,0,1,.43,0,.32.32,0,0,1,0,.42A.33.33,0,0,1,62.34,20.74Z" fill="#1d1d1b"/><path d="M63.55,21.94a.31.31,0,0,1-.22-.09.3.3,0,0,1-.08-.21.27.27,0,0,1,.09-.21.3.3,0,0,1,.42,0,.33.33,0,0,1,.09.21.29.29,0,0,1-.09.21A.32.32,0,0,1,63.55,21.94Z" fill="#1d1d1b"/><path d="M64.75,23.14a.32.32,0,0,1-.21-.08.33.33,0,0,1-.09-.22.3.3,0,0,1,.52-.2.28.28,0,0,1,.08.2.29.29,0,0,1-.09.21A.3.3,0,0,1,64.75,23.14Z" fill="#1d1d1b"/><path d="M66,24.34a.32.32,0,0,1-.21-.08.29.29,0,0,1-.09-.21.3.3,0,0,1,.52-.21.3.3,0,0,1,0,.42A.3.3,0,0,1,66,24.34Z" fill="#1d1d1b"/><path d="M67.15,25.55a.34.34,0,0,1-.21-.08.35.35,0,0,1-.09-.22.29.29,0,0,1,.09-.21.3.3,0,0,1,.42,0,.33.33,0,0,1,.09.22.34.34,0,0,1-.08.21A.33.33,0,0,1,67.15,25.55Z" fill="#1d1d1b"/><path d="M68.35,26.75a.27.27,0,0,1-.21-.09.31.31,0,0,1-.09-.21.32.32,0,0,1,.1-.22.31.31,0,0,1,.42,0,.3.3,0,0,1,.08.21.32.32,0,0,1-.08.21A.29.29,0,0,1,68.35,26.75Z" fill="#1d1d1b"/><path d="M69.56,28a.32.32,0,0,1-.21-.08.33.33,0,0,1-.09-.22.3.3,0,0,1,.51-.21.29.29,0,0,1,0,.42A.3.3,0,0,1,69.56,28Z" fill="#1d1d1b"/><path d="M70.76,29.15a.32.32,0,0,1-.21-.08.33.33,0,0,1-.09-.22.3.3,0,0,1,.08-.2.3.3,0,0,1,.52.2.29.29,0,0,1-.09.21A.3.3,0,0,1,70.76,29.15Z" fill="#1d1d1b"/><path d="M72,30.36a.33.33,0,0,1-.21-.09.29.29,0,0,1-.09-.22.29.29,0,0,1,.09-.21.31.31,0,0,1,.42,0,.3.3,0,0,1,0,.42A.3.3,0,0,1,72,30.36Z" fill="#1d1d1b"/><path d="M49.11,1.51a.31.31,0,0,1-.3-.3A.31.31,0,0,1,48.9,1a.32.32,0,0,1,.42,0,.31.31,0,0,1,.09.22.29.29,0,0,1-.09.21A.31.31,0,0,1,49.11,1.51Z" fill="#1d1d1b"/><path d="M50.31,2.71a.31.31,0,0,1-.3-.3.27.27,0,0,1,.09-.21.31.31,0,0,1,.43,0,.3.3,0,0,1,.08.21.32.32,0,0,1-.08.21A.31.31,0,0,1,50.31,2.71Z" fill="#1d1d1b"/><path d="M51.51,3.91a.31.31,0,0,1-.3-.3.33.33,0,0,1,.09-.21.31.31,0,0,1,.43,0,.33.33,0,0,1,.09.21.33.33,0,0,1-.09.21A.31.31,0,0,1,51.51,3.91Z" fill="#1d1d1b"/><path d="M52.72,5.11A.35.35,0,0,1,52.5,5a.37.37,0,0,1-.08-.22.3.3,0,0,1,.51-.21.3.3,0,0,1-.21.51Z" fill="#1d1d1b"/><path d="M53.92,6.31a.32.32,0,0,1-.21-.08A.31.31,0,0,1,53.62,6a.3.3,0,0,1,.09-.21.31.31,0,0,1,.42,0,.3.3,0,0,1,.09.21.27.27,0,0,1-.09.21A.3.3,0,0,1,53.92,6.31Z" fill="#1d1d1b"/><path d="M55.12,7.52a.29.29,0,0,1-.21-.09.3.3,0,0,1-.09-.21A.27.27,0,0,1,54.91,7a.29.29,0,0,1,.42,0,.27.27,0,0,1,.09.21.34.34,0,0,1-.08.21A.33.33,0,0,1,55.12,7.52Z" fill="#1d1d1b"/><path d="M56.32,8.72a.31.31,0,0,1-.3-.3.27.27,0,0,1,.09-.21.31.31,0,0,1,.43,0,.3.3,0,0,1,.08.21.27.27,0,0,1-.09.21A.28.28,0,0,1,56.32,8.72Z" fill="#1d1d1b"/><path d="M57.53,9.92a.32.32,0,0,1-.21-.08.3.3,0,0,1-.1-.22.33.33,0,0,1,.09-.21.31.31,0,0,1,.43,0,.29.29,0,0,1,.09.21.31.31,0,0,1-.3.3Z" fill="#1d1d1b"/><path d="M58.73,11.12a.32.32,0,0,1-.21-.08.33.33,0,0,1-.09-.22.27.27,0,0,1,.09-.21.31.31,0,0,1,.42,0,.31.31,0,0,1,.09.21.29.29,0,0,1-.09.21A.3.3,0,0,1,58.73,11.12Z" fill="#1d1d1b"/><path d="M59.93,12.32a.28.28,0,0,1-.21-.08.31.31,0,0,1-.09-.22.3.3,0,0,1,.09-.21.31.31,0,0,1,.43,0,.3.3,0,0,1,.08.2.29.29,0,0,1-.3.3Z" fill="#1d1d1b"/><path d="M61.13,13.53a.33.33,0,0,1-.21-.09.3.3,0,0,1-.09-.21.3.3,0,0,1,.52-.21.3.3,0,0,1,.08.21.3.3,0,0,1-.08.2A.32.32,0,0,1,61.13,13.53Z" fill="#1d1d1b"/><path d="M62.33,14.73a.31.31,0,0,1-.3-.3.32.32,0,0,1,.08-.21.3.3,0,0,1,.44,0,.32.32,0,0,1,.08.21.34.34,0,0,1-.08.21A.33.33,0,0,1,62.33,14.73Z" fill="#1d1d1b"/><path d="M63.54,15.93a.31.31,0,0,1-.22-.09.32.32,0,0,1,0-.42.3.3,0,1,1,.43.42A.29.29,0,0,1,63.54,15.93Z" fill="#1d1d1b"/><path d="M64.74,17.13a.31.31,0,0,1-.3-.3.29.29,0,0,1,.09-.21.31.31,0,0,1,.42,0,.3.3,0,0,1,.09.21.31.31,0,0,1-.3.3Z" fill="#1d1d1b"/><path d="M65.94,18.34a.29.29,0,0,1-.21-.09.3.3,0,0,1,0-.42.3.3,0,0,1,.52.21.29.29,0,0,1-.09.21A.33.33,0,0,1,65.94,18.34Z" fill="#1d1d1b"/><path d="M67.14,19.54a.31.31,0,0,1-.3-.3.27.27,0,0,1,.09-.21.29.29,0,0,1,.42,0,.27.27,0,0,1,.09.21.29.29,0,0,1-.09.21A.27.27,0,0,1,67.14,19.54Z" fill="#1d1d1b"/><path d="M68.34,20.74a.28.28,0,0,1-.21-.1.27.27,0,0,1-.09-.2.32.32,0,0,1,.1-.22.31.31,0,0,1,.42,0,.3.3,0,0,1,.08.21.32.32,0,0,1-.08.21A.31.31,0,0,1,68.34,20.74Z" fill="#1d1d1b"/><path d="M69.55,21.94a.32.32,0,0,1-.21-.08.34.34,0,0,1-.1-.22.33.33,0,0,1,.09-.21.32.32,0,0,1,.43,0,.29.29,0,0,1,0,.42A.3.3,0,0,1,69.55,21.94Z" fill="#1d1d1b"/><path d="M70.75,23.14a.31.31,0,0,1-.22-.09.3.3,0,0,1-.08-.21.3.3,0,0,1,.51-.21.29.29,0,0,1,.09.21.27.27,0,0,1-.09.21A.29.29,0,0,1,70.75,23.14Z" fill="#1d1d1b"/><path d="M72,24.34a.3.3,0,0,1-.21-.08.29.29,0,0,1-.09-.21.27.27,0,0,1,.09-.21.3.3,0,0,1,.51.21.29.29,0,0,1-.3.29Z" fill="#1d1d1b"/><path d="M55.11,1.51a.29.29,0,0,1-.21-.09.32.32,0,0,1-.09-.21A.32.32,0,0,1,54.89,1a.3.3,0,0,1,.52.21.29.29,0,0,1-.09.21A.27.27,0,0,1,55.11,1.51Z" fill="#1d1d1b"/><path d="M56.31,2.71a.31.31,0,0,1-.3-.3.27.27,0,0,1,.09-.21.31.31,0,0,1,.43,0,.3.3,0,0,1,.08.21.32.32,0,0,1-.08.21A.31.31,0,0,1,56.31,2.71Z" fill="#1d1d1b"/><path d="M57.51,3.91a.31.31,0,0,1-.3-.3.31.31,0,0,1,.52-.21.32.32,0,0,1,0,.42A.31.31,0,0,1,57.51,3.91Z" fill="#1d1d1b"/><path d="M58.72,5.11A.31.31,0,0,1,58.5,5a.3.3,0,0,1-.08-.21.3.3,0,0,1,.51-.21.29.29,0,0,1,.09.21.27.27,0,0,1-.09.21A.29.29,0,0,1,58.72,5.11Z" fill="#1d1d1b"/><path d="M59.92,6.31a.3.3,0,0,1-.21-.08A.31.31,0,0,1,59.62,6a.29.29,0,0,1,.09-.21.32.32,0,0,1,.42,0,.3.3,0,0,1,.09.21.31.31,0,0,1-.3.3Z" fill="#1d1d1b"/><path d="M61.12,7.52a.31.31,0,0,1-.21-.09.29.29,0,0,1-.09-.21A.3.3,0,0,1,61.34,7a.3.3,0,0,1,.08.21.29.29,0,0,1-.09.21A.31.31,0,0,1,61.12,7.52Z" fill="#1d1d1b"/><path d="M62.32,8.72a.31.31,0,0,1-.3-.3.31.31,0,0,1,.52-.21.3.3,0,0,1,.08.21.32.32,0,0,1-.08.21A.31.31,0,0,1,62.32,8.72Z" fill="#1d1d1b"/><path d="M63.53,9.92a.29.29,0,0,1-.22-.09.29.29,0,0,1,0-.42.32.32,0,0,1,.43,0,.29.29,0,0,1,0,.42A.29.29,0,0,1,63.53,9.92Z" fill="#1d1d1b"/><path d="M64.73,11.12a.32.32,0,0,1-.21-.08.33.33,0,0,1-.09-.22.3.3,0,0,1,.51-.2.27.27,0,0,1,.09.2.36.36,0,0,1-.09.22A.32.32,0,0,1,64.73,11.12Z" fill="#1d1d1b"/><path d="M65.93,12.32a.28.28,0,0,1-.21-.08.31.31,0,0,1-.09-.22.3.3,0,0,1,.09-.21.31.31,0,0,1,.43,0,.3.3,0,0,1,.08.2.3.3,0,0,1-.08.21A.29.29,0,0,1,65.93,12.32Z" fill="#1d1d1b"/><path d="M67.13,13.53a.33.33,0,0,1-.21-.09.3.3,0,0,1-.09-.21.3.3,0,0,1,.52-.21.3.3,0,0,1,0,.42A.31.31,0,0,1,67.13,13.53Z" fill="#1d1d1b"/><path d="M68.33,14.73a.31.31,0,0,1-.3-.3.31.31,0,0,1,.52-.21.3.3,0,0,1,.08.21.32.32,0,0,1-.08.21A.31.31,0,0,1,68.33,14.73Z" fill="#1d1d1b"/><path d="M69.54,15.93a.32.32,0,0,1-.21-.08.33.33,0,0,1-.09-.22.3.3,0,0,1,.08-.21.31.31,0,0,1,.52.21.29.29,0,0,1-.09.21A.3.3,0,0,1,69.54,15.93Z" fill="#1d1d1b"/><path d="M70.74,17.13a.32.32,0,0,1-.21-.08.33.33,0,0,1-.09-.22.34.34,0,0,1,.08-.21.32.32,0,0,1,.43,0,.35.35,0,0,1,.09.22A.29.29,0,0,1,71,17,.3.3,0,0,1,70.74,17.13Z" fill="#1d1d1b"/><path d="M71.94,18.33a.29.29,0,0,1-.3-.29.3.3,0,0,1,.51-.22.32.32,0,0,1,.09.22.27.27,0,0,1-.09.21A.3.3,0,0,1,71.94,18.33Z" fill="#1d1d1b"/><path d="M61.11,1.51a.29.29,0,0,1-.21-.09.3.3,0,0,1-.09-.21A.27.27,0,0,1,60.9,1a.3.3,0,0,1,.43,0,.29.29,0,0,1,.08.21.29.29,0,0,1-.09.21A.31.31,0,0,1,61.11,1.51Z" fill="#1d1d1b"/><path d="M62.31,2.71a.31.31,0,0,1-.3-.3.27.27,0,0,1,.09-.21.31.31,0,0,1,.43,0,.3.3,0,0,1,.08.21.34.34,0,0,1-.08.21A.33.33,0,0,1,62.31,2.71Z" fill="#1d1d1b"/><path d="M63.51,3.91a.29.29,0,0,1-.21-.09.27.27,0,0,1-.09-.21.31.31,0,0,1,.09-.21.32.32,0,0,1,.43,0,.3.3,0,0,1-.22.51Z" fill="#1d1d1b"/><path d="M64.72,5.11A.32.32,0,0,1,64.51,5a.33.33,0,0,1-.09-.22.34.34,0,0,1,.08-.21.31.31,0,0,1,.43,0,.29.29,0,0,1,.09.21.27.27,0,0,1-.09.21A.3.3,0,0,1,64.72,5.11Z" fill="#1d1d1b"/><path d="M65.92,6.31a.3.3,0,0,1-.21-.08A.31.31,0,0,1,65.62,6a.3.3,0,0,1,.09-.21.31.31,0,0,1,.43,0,.3.3,0,0,1,.08.2.31.31,0,0,1-.09.22A.32.32,0,0,1,65.92,6.31Z" fill="#1d1d1b"/><path d="M67.12,7.52a.31.31,0,0,1-.21-.09.3.3,0,0,1-.09-.21A.32.32,0,0,1,66.9,7a.31.31,0,0,1,.43,0,.33.33,0,0,1,.09.22.3.3,0,0,1-.09.21A.31.31,0,0,1,67.12,7.52Z" fill="#1d1d1b"/><path d="M68.32,8.72a.34.34,0,0,1-.21-.08A.35.35,0,0,1,68,8.42a.27.27,0,0,1,.09-.21.31.31,0,0,1,.43,0,.3.3,0,0,1,.08.21.34.34,0,0,1-.08.21A.33.33,0,0,1,68.32,8.72Z" fill="#1d1d1b"/><path d="M69.53,9.92a.3.3,0,0,1-.21-.08.3.3,0,0,1-.1-.22.31.31,0,0,1,.52-.21.33.33,0,0,1,.09.21.31.31,0,0,1-.3.3Z" fill="#1d1d1b"/><path d="M70.73,11.12a.29.29,0,0,1-.22-.09.3.3,0,0,1,0-.42.31.31,0,0,1,.42,0,.3.3,0,0,1,.09.21.27.27,0,0,1-.09.21A.29.29,0,0,1,70.73,11.12Z" fill="#1d1d1b"/><path d="M71.93,12.32a.32.32,0,0,1-.21-.08.3.3,0,0,1,0-.42.3.3,0,0,1,.52.21.3.3,0,0,1-.08.2A.33.33,0,0,1,71.93,12.32Z" fill="#1d1d1b"/><path d="M67.11,1.51a.31.31,0,0,1-.21-.09.29.29,0,0,1-.09-.21A.32.32,0,0,1,66.89,1a.3.3,0,0,1,.43,0,.33.33,0,0,1,.09.22.3.3,0,0,1-.09.21A.31.31,0,0,1,67.11,1.51Z" fill="#1d1d1b"/><path d="M68.31,2.71a.3.3,0,0,1-.21-.51.31.31,0,0,1,.43,0,.32.32,0,0,1,0,.42A.31.31,0,0,1,68.31,2.71Z" fill="#1d1d1b"/><path d="M69.51,3.91a.29.29,0,0,1-.21-.09.29.29,0,0,1,0-.42.32.32,0,0,1,.43,0,.3.3,0,0,1,.08.21.31.31,0,0,1-.09.22A.27.27,0,0,1,69.51,3.91Z" fill="#1d1d1b"/><path d="M70.72,5.11A.29.29,0,0,1,70.5,5a.3.3,0,0,1-.08-.21.3.3,0,0,1,.51-.21.3.3,0,0,1,.09.21.31.31,0,0,1-.09.21A.29.29,0,0,1,70.72,5.11Z" fill="#1d1d1b"/><path d="M71.92,6.31a.32.32,0,0,1-.21-.08A.33.33,0,0,1,71.62,6a.3.3,0,0,1,.09-.21.31.31,0,0,1,.43,0,.3.3,0,0,1,.08.2.29.29,0,0,1-.09.21A.3.3,0,0,1,71.92,6.31Z" fill="#1d1d1b"/><path d="M6,54.4a.29.29,0,0,1-.22-.09.33.33,0,0,1-.09-.21.31.31,0,0,1,.09-.21.3.3,0,0,1,.43,0,.29.29,0,0,1,.09.21.28.28,0,0,1-.1.21A.29.29,0,0,1,6,54.4Z" fill="#1d1d1b"/><path d="M12,54.4a.31.31,0,0,1-.22-.09.33.33,0,0,1-.09-.21.32.32,0,0,1,.1-.22.31.31,0,0,1,.51.22.31.31,0,0,1-.3.3Z" fill="#1d1d1b"/><path d="M18,54.4a.34.34,0,0,1-.22-.09.32.32,0,0,1-.08-.21.29.29,0,0,1,.09-.22.31.31,0,0,1,.51.22.29.29,0,0,1-.09.21A.31.31,0,0,1,18,54.4Z" fill="#1d1d1b"/><path d="M24,54.4a.3.3,0,0,1-.22-.1.26.26,0,0,1-.08-.2.29.29,0,0,1,.09-.22.31.31,0,0,1,.51.22.31.31,0,0,1-.3.3Z" fill="#1d1d1b"/><path d="M30,54.4a.3.3,0,0,1-.22-.1.26.26,0,0,1-.08-.2.29.29,0,0,1,.09-.22.31.31,0,0,1,.42,0,.29.29,0,0,1,.09.21.28.28,0,0,1-.1.21A.27.27,0,0,1,30,54.4Z" fill="#1d1d1b"/><path d="M36,54.4a.31.31,0,0,1-.22-.09.32.32,0,0,1-.08-.21.28.28,0,0,1,.09-.22.31.31,0,0,1,.42,0,.29.29,0,0,1,.09.21.31.31,0,0,1-.3.3Z" fill="#1d1d1b"/><path d="M42,54.4a.29.29,0,0,1-.22-.09.3.3,0,0,1-.08-.21.33.33,0,0,1,.08-.22.32.32,0,0,1,.43,0,.31.31,0,0,1,.09.21.29.29,0,0,1-.09.21A.33.33,0,0,1,42,54.4Z" fill="#1d1d1b"/><path d="M48,54.4a.31.31,0,0,1-.31-.3.3.3,0,0,1,.1-.22.32.32,0,0,1,.42,0,.31.31,0,0,1,.09.22.31.31,0,0,1-.3.3Z" fill="#1d1d1b"/><path d="M54,54.4a.31.31,0,0,1-.22-.09.36.36,0,0,1-.09-.21.31.31,0,0,1,.09-.21.3.3,0,0,1,.43,0,.31.31,0,0,1,.09.21.3.3,0,0,1-.09.21A.29.29,0,0,1,54,54.4Z" fill="#1d1d1b"/><path d="M60,54.4a.36.36,0,0,1-.22-.09.33.33,0,0,1-.09-.21.36.36,0,0,1,.09-.22.33.33,0,0,1,.43,0,.36.36,0,0,1,.09.22.31.31,0,0,1-.3.3Z" fill="#1d1d1b"/><path d="M66,54.4a.29.29,0,0,1-.21-.09.3.3,0,0,1,0-.42.3.3,0,0,1,.43,0,.31.31,0,0,1,.09.21.31.31,0,0,1-.3.3Z" fill="#1d1d1b"/><path d="M.05,54.4a.29.29,0,0,1-.22-.1.26.26,0,0,1-.08-.2.28.28,0,0,1,.09-.22.31.31,0,0,1,.42,0,.31.31,0,0,1,.09.21.33.33,0,0,1-.09.21A.29.29,0,0,1,.05,54.4Z" fill="#1d1d1b"/><path d="M.08,48.39a.3.3,0,0,1-.21-.09.3.3,0,0,1-.09-.21.31.31,0,0,1,.09-.22.31.31,0,0,1,.43,0,.3.3,0,0,1,.08.21.34.34,0,0,1-.08.21A.33.33,0,0,1,.08,48.39Z" fill="#1d1d1b"/><path d="M.07,42.38a.28.28,0,0,1-.21-.1.24.24,0,0,1-.09-.2.32.32,0,0,1,.09-.22.32.32,0,0,1,.43,0,.3.3,0,0,1,.08.21.29.29,0,0,1-.09.21A.27.27,0,0,1,.07,42.38Z" fill="#1d1d1b"/><path d="M.06,36.36a.3.3,0,0,1-.21-.08.3.3,0,0,1-.09-.21.32.32,0,0,1,.08-.21.31.31,0,0,1,.43,0,.33.33,0,0,1,.09.22.3.3,0,0,1-.09.21A.3.3,0,0,1,.06,36.36Z" fill="#1d1d1b"/><path d="M.05,30.36a.33.33,0,0,1-.21-.09.29.29,0,0,1-.09-.22.29.29,0,0,1,.09-.21.31.31,0,0,1,.42,0,.3.3,0,0,1,.09.21.3.3,0,0,1-.08.21A.3.3,0,0,1,.05,30.36Z" fill="#1d1d1b"/><path d="M0,24.34a.3.3,0,0,1-.21-.08.29.29,0,0,1-.09-.21.27.27,0,0,1,.09-.21.3.3,0,0,1,.43,0,.3.3,0,0,1,.08.21.3.3,0,0,1-.09.21A.3.3,0,0,1,0,24.34Z" fill="#1d1d1b"/><path d="M0,18.33a.3.3,0,0,1-.21-.08A.3.3,0,0,1-.27,18a.31.31,0,0,1,.09-.22.31.31,0,0,1,.42,0A.32.32,0,0,1,.33,18a.27.27,0,0,1-.09.21A.3.3,0,0,1,0,18.33Z" fill="#1d1d1b"/><path d="M0,12.32a.32.32,0,0,1-.21-.08A.3.3,0,0,1-.28,12a.3.3,0,0,1,.08-.21.31.31,0,0,1,.43,0A.31.31,0,0,1,.32,12a.3.3,0,0,1-.08.2A.33.33,0,0,1,0,12.32Z" fill="#1d1d1b"/><path d="M0,6.31A.32.32,0,0,1-.2,6.23.33.33,0,0,1-.29,6,.3.3,0,0,1-.2,5.8a.31.31,0,0,1,.43,0A.3.3,0,0,1,.31,6a.29.29,0,0,1-.09.21A.3.3,0,0,1,0,6.31Z" fill="#1d1d1b"/><path d="M72,.3a.29.29,0,0,1-.22-.1.26.26,0,0,1-.08-.2.28.28,0,0,1,.09-.22.31.31,0,0,1,.42,0,.31.31,0,0,1,.09.21.33.33,0,0,1-.09.21A.29.29,0,0,1,72,.3Z" fill="#1d1d1b"/><path d="M6,.3A.29.29,0,0,1,5.74.21.33.33,0,0,1,5.65,0a.31.31,0,0,1,.09-.21.3.3,0,0,1,.43,0A.29.29,0,0,1,6.26,0a.28.28,0,0,1-.1.21A.29.29,0,0,1,6,.3Z" fill="#1d1d1b"/><path d="M12,.3a.31.31,0,0,1-.22-.09A.33.33,0,0,1,11.65,0a.32.32,0,0,1,.1-.22.31.31,0,0,1,.42,0,.31.31,0,0,1,.09.21.33.33,0,0,1-.09.21A.33.33,0,0,1,12,.3Z" fill="#1d1d1b"/><path d="M18,.3a.34.34,0,0,1-.22-.09A.32.32,0,0,1,17.66,0a.29.29,0,0,1,.09-.22.31.31,0,0,1,.42,0,.31.31,0,0,1,.09.21.29.29,0,0,1-.09.21A.31.31,0,0,1,18,.3Z" fill="#1d1d1b"/><path d="M24,.3a.3.3,0,0,1-.22-.1.26.26,0,0,1-.08-.2.29.29,0,0,1,.09-.22.31.31,0,0,1,.42,0,.31.31,0,0,1,.09.21.33.33,0,0,1-.09.21A.33.33,0,0,1,24,.3Z" fill="#1d1d1b"/><path d="M30,.3a.3.3,0,0,1-.22-.1.26.26,0,0,1-.08-.2.29.29,0,0,1,.09-.22.31.31,0,0,1,.42,0,.29.29,0,0,1,.09.21.28.28,0,0,1-.1.21A.27.27,0,0,1,30,.3Z" fill="#1d1d1b"/><path d="M36,.3a.31.31,0,0,1-.22-.09A.32.32,0,0,1,35.66,0a.28.28,0,0,1,.09-.22.31.31,0,0,1,.42,0,.29.29,0,0,1,.09.21.33.33,0,0,1-.09.21A.33.33,0,0,1,36,.3Z" fill="#1d1d1b"/><path d="M42,.3a.29.29,0,0,1-.22-.09A.3.3,0,0,1,41.66,0a.33.33,0,0,1,.08-.22.32.32,0,0,1,.43,0,.31.31,0,0,1,.09.21.29.29,0,0,1-.09.21A.33.33,0,0,1,42,.3Z" fill="#1d1d1b"/><path d="M48,.3a.31.31,0,0,1-.22-.09A.31.31,0,0,1,47.65,0a.3.3,0,0,1,.1-.22.32.32,0,0,1,.42,0,.31.31,0,0,1,.09.22.3.3,0,0,1-.09.21A.3.3,0,0,1,48,.3Z" fill="#1d1d1b"/><path d="M54,.3a.31.31,0,0,1-.22-.09A.36.36,0,0,1,53.65,0a.31.31,0,0,1,.09-.21.3.3,0,0,1,.43,0,.31.31,0,0,1,.09.21.3.3,0,0,1-.09.21A.29.29,0,0,1,54,.3Z" fill="#1d1d1b"/><path d="M60,.3a.36.36,0,0,1-.22-.09A.33.33,0,0,1,59.65,0a.36.36,0,0,1,.09-.22.33.33,0,0,1,.43,0,.36.36,0,0,1,.09.22.33.33,0,0,1-.09.21A.33.33,0,0,1,60,.3Z" fill="#1d1d1b"/><path d="M66,.3a.29.29,0,0,1-.21-.09A.3.3,0,0,1,65.66,0a.3.3,0,0,1,.08-.21.3.3,0,0,1,.43,0,.31.31,0,0,1,.09.21.3.3,0,0,1-.09.21A.3.3,0,0,1,66,.3Z" fill="#1d1d1b"/><path d="M.05.3A.29.29,0,0,1-.17.2.26.26,0,0,1-.25,0,.28.28,0,0,1-.16-.22a.31.31,0,0,1,.42,0A.31.31,0,0,1,.35,0,.33.33,0,0,1,.26.21.29.29,0,0,1,.05.3Z" fill="#1d1d1b"/></pattern></defs><title>Interior graphics</title><rect width="594" height="400" stroke-miterlimit="10" fill="url(#a)" stroke="url(#a)"/><rect x="78.75" width="296.5" height="340.03" fill="#f7931e"/><rect x="385.25" y="350.03" width="208.75" height="49.97" fill="#f7931e"/><rect x="251.5" y="-163.1" width="10" height="670.85" transform="translate(84.18 428.83) rotate(-90)"/><rect x="251.5" y="9.61" width="10" height="670.85" transform="translate(-88.53 601.54) rotate(-90)"/><rect x="375.25" y="-51.71" width="10" height="519.16"/><rect x="68.75" y="-51.71" width="10" height="519.16"/><line x1="92.66" y1="10.73" x2="356.16" y2="152.97" fill="none" stroke="#fff" stroke-miterlimit="10" stroke-width="2"/><line x1="360.02" y1="11.39" x2="97.84" y2="152.97" fill="none" stroke="#fff" stroke-miterlimit="10" stroke-width="2"/><line x1="92.66" y1="187.56" x2="356.16" y2="329.8" fill="none" stroke="#fff" stroke-miterlimit="10" stroke-width="2"/><line x1="360.02" y1="188.22" x2="97.84" y2="329.8" fill="none" stroke="#fff" stroke-miterlimit="10" stroke-width="2"/><line x1="404.25" y1="366.88" x2="667.75" y2="509.12" fill="none" stroke="#fff" stroke-miterlimit="10" stroke-width="2"/><line x1="671.61" y1="367.54" x2="409.44" y2="509.12" fill="none" stroke="#fff" stroke-miterlimit="10" stroke-width="2"/><text transform="translate(409.7 133.81)" font-size="52.63" font-family="SFProDisplay-Regular, SF Pro Display"><tspan letter-spacing="-0.01em">L</tspan><tspan x="26.83" y="0">o</tspan><tspan x="54.77" y="0" letter-spacing="-0.02em">r</tspan><tspan x="69.7" y="0">em ipsum dolor </tspan></text></svg>