<?xml version="1.0" encoding="utf-8"?>
<!-- Generator: Adobe Illustrator 16.0.4, SVG Export Plug-In . SVG Version: 6.00 Build 0)  -->
<!DOCTYPE svg PUBLIC "-//W3C//DTD SVG 1.1//EN" "http://www.w3.org/Graphics/SVG/1.1/DTD/svg11.dtd">
<svg version="1.1" id="Layer_1" xmlns="http://www.w3.org/2000/svg" xmlns:xlink="http://www.w3.org/1999/xlink" x="0px" y="0px"
	 width="616px" height="448px" viewBox="0 0 616 448" enable-background="new 0 0 616 448" xml:space="preserve">
<rect x="0" y="81.3" fill="#F6C992" width="616" height="162"/>
<rect x="0" y="407.5" fill="#F6C992" width="616" height="38.5"/>
<rect x="0" y="245.3" fill="#C5D8AE" width="616" height="79.1"/>
<rect x="0" y="326.4" fill="#A3BFE6" width="616" height="79.1"/>
<g>
	<line fill="none" stroke="#FF7070" stroke-width="2" stroke-miterlimit="10" x1="310.4" y1="443.7" x2="310.4" y2="408"/>
	<path fill="none" stroke="#FF7070" stroke-width="2" stroke-miterlimit="10" d="M316.3,435.2l-5.9,8.4l-5.9-8.4"/>
	<path fill="none" stroke="#FF7070" stroke-width="2" stroke-miterlimit="10" d="M304.4,416.5l5.9-8.4l5.9,8.4"/>
</g>
<g>
	<line fill="none" stroke="#FF7070" stroke-width="2" stroke-miterlimit="10" x1="86.9" y1="320.7" x2="86.9" y2="81.2"/>
	<path fill="none" stroke="#FF7070" stroke-width="2" stroke-miterlimit="10" d="M74.4,99l12.5-17.9L99.4,99"/>
	<path fill="none" stroke="#FF7070" stroke-width="2" stroke-miterlimit="10" d="M99.4,302.9l-12.5,17.9l-12.5-17.9"/>
</g>
<g id="Baseline_1_">
	<g>
		<rect x="0" y="324.4" fill="#FF7070" width="616" height="2"/>
	</g>
	<g>
		<rect x="0" y="283.8" fill="#FF7070" width="616" height="2"/>
	</g>
	<g>
		<rect x="0" y="243.3" fill="#FF7070" width="616" height="2"/>
	</g>
	<g>
		<rect x="0" y="446" fill="#FF7070" width="616" height="2"/>
	</g>
	<g>
		<rect x="0" y="405.5" fill="#FF7070" width="616" height="2"/>
	</g>
	<g>
		<rect x="0" y="364.9" fill="#FF7070" width="616" height="2"/>
	</g>
	<g>
		<rect x="0" y="202.7" fill="#FF7070" width="616" height="2"/>
	</g>
	<g>
		<rect x="0" y="162.2" fill="#FF7070" width="616" height="2"/>
	</g>
	<g>
		<rect x="0" y="121.6" fill="#FF7070" width="616" height="2"/>
	</g>
	<g>
		<rect x="0" y="81.1" fill="#FF7070" width="616" height="2"/>
	</g>
	<g>
		<rect x="0" y="40.5" fill="#FF7070" width="616" height="2"/>
	</g>
	<g>
		<rect x="0" fill="#FF7070" width="616" height="2"/>
	</g>
</g>
<g>
	<defs>
		<rect id="SVGID_17_" x="0" y="296.7" width="616" height="132.8"/>
	</defs>
	<clipPath id="SVGID_2_">
		<use xlink:href="#SVGID_17_"  overflow="visible"/>
	</clipPath>
	<g clip-path="url(#SVGID_2_)">

			<text transform="matrix(1 0 0 1 9.765625e-04 405.4434)" fill="#4D6D94" font-family='"Helvetica Neue", Helvetica, Arial, sans-serif' font-weight="bold" font-size="111.8057">Baseline grid</text>
	</g>
</g>
</svg>
