<?xml version="1.0" encoding="utf-8"?>
<!-- Generator: Adobe Illustrator 16.0.4, SVG Export Plug-In . SVG Version: 6.00 Build 0)  -->
<!DOCTYPE svg PUBLIC "-//W3C//DTD SVG 1.1//EN" "http://www.w3.org/Graphics/SVG/1.1/DTD/svg11.dtd">
<svg version="1.1" id="Layer_1" xmlns="http://www.w3.org/2000/svg" xmlns:xlink="http://www.w3.org/1999/xlink" x="0px" y="0px"
	 width="296px" height="268px" viewBox="0 0 296 268" enable-background="new 0 0 296 268" xml:space="preserve">
<g>
	<text transform="matrix(1 0 0 1 23.8779 40.4404)" font-family='"Helvetica Neue", Helvetica, Arial, sans-serif' font-size="12">12</text>
	<text transform="matrix(1 0 0 1 23.9404 54.165)" font-family='"Helvetica Neue", Helvetica, Arial, sans-serif' font-size="14">14</text>
	<text transform="matrix(1 0 0 1 23.8779 69.876)" font-family='"Helvetica Neue", Helvetica, Arial, sans-serif' font-size="16">16</text>
	<text transform="matrix(1 0 0 1 23.8779 87.5869)" font-family='"Helvetica Neue", Helvetica, Arial, sans-serif' font-size="18">18</text>
	<text transform="matrix(1 0 0 1 23.8779 107.2939)" font-family='"Helvetica Neue", Helvetica, Arial, sans-serif' font-size="20">20</text>
	<text transform="matrix(1 0 0 1 23.8779 130.7139)" font-family='"Helvetica Neue", Helvetica, Arial, sans-serif' font-size="24">24</text>
	<text transform="matrix(1 0 0 1 23.9609 159.8193)" font-family='"Helvetica Neue", Helvetica, Arial, sans-serif' font-size="30">30</text>
	<text transform="matrix(1 0 0 1 23.8779 200.167)" font-family='"Helvetica Neue", Helvetica, Arial, sans-serif' font-size="42">42</text>
	<text transform="matrix(1 0 0 1 23.8779 245.6318)" font-family='"Helvetica Neue", Helvetica, Arial, sans-serif' font-size="46">46</text>
	<text transform="matrix(1 0 0 1 23.8779 13.6367)" font-family='-apple-system, BlinkMacSystemFont, "Roboto", "Droid Sans", "Helvetica Neue", Helvetica, Arial, sans-serif' font-size="16" font-weight="bold">px</text>
	<line fill="none" stroke="#CCCACA" stroke-miterlimit="10" x1="0" y1="252.2" x2="295.9" y2="252.2"/>
	<line fill="none" stroke="#CCCACA" stroke-miterlimit="10" x1="0" y1="206.2" x2="295.9" y2="206.2"/>
	<line fill="none" stroke="#CCCACA" stroke-miterlimit="10" x1="0" y1="164.2" x2="295.9" y2="164.2"/>
	<line fill="none" stroke="#CCCACA" stroke-miterlimit="10" x1="0" y1="134.2" x2="295.9" y2="134.2"/>
	<line fill="none" stroke="#CCCACA" stroke-miterlimit="10" x1="0" y1="110.2" x2="295.9" y2="110.2"/>
	<line fill="none" stroke="#CCCACA" stroke-miterlimit="10" x1="0" y1="90.2" x2="295.9" y2="90.2"/>
	<line fill="none" stroke="#CCCACA" stroke-miterlimit="10" x1="0" y1="72.2" x2="295.9" y2="72.2"/>
	<line fill="none" stroke="#CCCACA" stroke-miterlimit="10" x1="0" y1="56.2" x2="295.9" y2="56.2"/>
	<line fill="none" stroke="#CCCACA" stroke-miterlimit="10" x1="0" y1="42.2" x2="295.9" y2="42.2"/>
	<line fill="none" stroke="#CCCACA" stroke-miterlimit="10" x1="0" y1="30.1" x2="295.9" y2="30.1"/>
</g>
<g>
	<g>
		<text transform="matrix(1 0 0 1 166.9414 41.5518)" font-family='"Helvetica Neue", Helvetica, Arial, sans-serif' font-size="12">0.687</text>
	</g>
	<g>
		<text transform="matrix(1 0 0 1 167.0039 55.2764)" font-family='"Helvetica Neue", Helvetica, Arial, sans-serif' font-size="14">1</text>
	</g>
	<g>
		<text transform="matrix(1 0 0 1 166.9414 70.9873)" font-family='"Helvetica Neue", Helvetica, Arial, sans-serif' font-size="16">1.143</text>
	</g>
	<g>
		<text transform="matrix(1 0 0 1 166.918 88.6982)" font-family='"Helvetica Neue", Helvetica, Arial, sans-serif' font-size="18">1.285711</text>
	</g>
	<g>
		<text transform="matrix(1 0 0 1 166.9414 108.4053)" font-family='"Helvetica Neue", Helvetica, Arial, sans-serif' font-size="20">1.429</text>
	</g>
	<g>
		<text transform="matrix(1 0 0 1 166.9414 131.8252)" font-family='"Helvetica Neue", Helvetica, Arial, sans-serif' font-size="24">1.867</text>
	</g>
	<g>
		<text transform="matrix(1 0 0 1 166.9209 160.9307)" font-family='"Helvetica Neue", Helvetica, Arial, sans-serif' font-size="30">2.143</text>
	</g>
	<g>
		<text transform="matrix(1 0 0 1 166.9414 201.2783)" font-family='"Helvetica Neue", Helvetica, Arial, sans-serif' font-size="42">3</text>
	</g>
	<g>
		<text transform="matrix(1 0 0 1 166.9414 246.6807)" font-family='"Helvetica Neue", Helvetica, Arial, sans-serif' font-size="46">3.286</text>
	</g>
	<text transform="matrix(1 0 0 1 166.9414 14.748)" font-family='-apple-system, BlinkMacSystemFont, "Roboto", "Droid Sans", "Helvetica Neue", Helvetica, Arial, sans-serif' font-size="16" font-weight="bold">rem</text>
</g>
</svg>
