<?xml version="1.0" encoding="utf-8"?>
<!-- Generator: Adobe Illustrator 16.0.0, SVG Export Plug-In . SVG Version: 6.00 Build 0)  -->
<!DOCTYPE svg PUBLIC "-//W3C//DTD SVG 1.1//EN" "http://www.w3.org/Graphics/SVG/1.1/DTD/svg11.dtd">
<svg version="1.1" id="Layer_1" xmlns="http://www.w3.org/2000/svg" xmlns:xlink="http://www.w3.org/1999/xlink" x="0px" y="0px"
	 width="616px" height="268px" viewBox="0 0 616 268" enable-background="new 0 0 616 268" xml:space="preserve">
<g>
	<text transform="matrix(1 0 0 1 23.8779 40.4395)" font-family='"Helvetica Neue", Helvetica, Arial, sans-serif' font-size="12">12</text>
	<text transform="matrix(1 0 0 1 23.9404 54.1641)" font-family='"Helvetica Neue", Helvetica, Arial, sans-serif' font-size="14">14</text>
	<text transform="matrix(1 0 0 1 23.8779 69.875)" font-family='"Helvetica Neue", Helvetica, Arial, sans-serif' font-size="16">16</text>
	<text transform="matrix(1 0 0 1 23.8779 87.5859)" font-family='"Helvetica Neue", Helvetica, Arial, sans-serif' font-size="18">18</text>
	<text transform="matrix(1 0 0 1 23.8779 107.293)" font-family='"Helvetica Neue", Helvetica, Arial, sans-serif' font-size="20">20</text>
	<text transform="matrix(1 0 0 1 23.8779 130.7129)" font-family='"Helvetica Neue", Helvetica, Arial, sans-serif' font-size="24">24</text>
	<text transform="matrix(1 0 0 1 23.9609 159.8184)" font-family='"Helvetica Neue", Helvetica, Arial, sans-serif' font-size="30">30</text>
	<text transform="matrix(1 0 0 1 23.8779 200.166)" font-family='"Helvetica Neue", Helvetica, Arial, sans-serif' font-size="42">42</text>
	<text transform="matrix(1 0 0 1 23.8779 245.6309)" font-family='"Helvetica Neue", Helvetica, Arial, sans-serif' font-size="46">46</text>
	<text transform="matrix(1 0 0 1 23.8779 13.6357)" font-family='-apple-system, BlinkMacSystemFont, "Roboto", "Droid Sans", "Helvetica Neue", Helvetica, Arial, sans-serif' font-size="16" font-weight="bold">px</text>
	<line fill="none" stroke="#CCCBCB" stroke-miterlimit="10" x1="0" y1="252.19" x2="613.75" y2="252.19"/>
	<line fill="none" stroke="#CCCBCB" stroke-miterlimit="10" x1="0" y1="206.19" x2="613.75" y2="206.19"/>
	<line fill="none" stroke="#CCCBCB" stroke-miterlimit="10" x1="0" y1="164.172" x2="613.75" y2="164.172"/>
	<line fill="none" stroke="#CCCBCB" stroke-miterlimit="10" x1="0" y1="134.172" x2="613.75" y2="134.172"/>
	<line fill="none" stroke="#CCCBCB" stroke-miterlimit="10" x1="0" y1="110.172" x2="613.75" y2="110.172"/>
	<line fill="none" stroke="#CCCBCB" stroke-miterlimit="10" x1="0" y1="90.172" x2="613.75" y2="90.172"/>
	<line fill="none" stroke="#CCCBCB" stroke-miterlimit="10" x1="0" y1="72.172" x2="613.75" y2="72.172"/>
	<line fill="none" stroke="#CCCBCB" stroke-miterlimit="10" x1="0" y1="56.172" x2="613.75" y2="56.172"/>
	<line fill="none" stroke="#CCCBCB" stroke-miterlimit="10" x1="0" y1="42.172" x2="613.75" y2="42.172"/>
	<line fill="none" stroke="#CCCBCB" stroke-miterlimit="10" x1="0" y1="30.12" x2="613.75" y2="30.12"/>
	<g>
		<text transform="matrix(1 0 0 1 343.543 40.4395)" font-family='"Helvetica Neue", Helvetica, Arial, sans-serif' font-size="12">0.687</text>
	</g>
	<g>
		<text transform="matrix(1 0 0 1 343.6055 54.1641)" font-family='"Helvetica Neue", Helvetica, Arial, sans-serif' font-size="14">1</text>
	</g>
	<g>
		<text transform="matrix(1 0 0 1 343.543 69.875)" font-family='"Helvetica Neue", Helvetica, Arial, sans-serif' font-size="16">1.143</text>
	</g>
	<g>
		<text transform="matrix(1 0 0 1 343.5195 87.5859)" font-family='"Helvetica Neue", Helvetica, Arial, sans-serif' font-size="18">1.285711</text>
	</g>
	<g>
		<text transform="matrix(1 0 0 1 343.543 107.293)" font-family='"Helvetica Neue", Helvetica, Arial, sans-serif' font-size="20">1.429</text>
	</g>
	<g>
		<text transform="matrix(1 0 0 1 343.543 130.7129)" font-family='"Helvetica Neue", Helvetica, Arial, sans-serif' font-size="24">1.867</text>
	</g>
	<g>
		<text transform="matrix(1 0 0 1 343.5215 159.8184)" font-family='"Helvetica Neue", Helvetica, Arial, sans-serif' font-size="30">2.143</text>
	</g>
	<g>
		<text transform="matrix(1 0 0 1 343.543 200.166)" font-family='"Helvetica Neue", Helvetica, Arial, sans-serif' font-size="42">3</text>
	</g>
	<g>
		<text transform="matrix(1 0 0 1 343.543 245.5684)" font-family='"Helvetica Neue", Helvetica, Arial, sans-serif' font-size="46">3.286</text>
	</g>
	<text transform="matrix(1 0 0 1 343.543 13.6357)" font-family='-apple-system, BlinkMacSystemFont, "Roboto", "Droid Sans", "Helvetica Neue", Helvetica, Arial, sans-serif' font-size="16" font-weight="bold">rem</text>
</g>
</svg>
