<?xml version="1.0" encoding="utf-8"?>
<!-- Generator: Adobe Illustrator 16.0.0, SVG Export Plug-In . SVG Version: 6.00 Build 0)  -->
<!DOCTYPE svg PUBLIC "-//W3C//DTD SVG 1.1//EN" "http://www.w3.org/Graphics/SVG/1.1/DTD/svg11.dtd">
<svg version="1.1" id="Layer_1" xmlns="http://www.w3.org/2000/svg" xmlns:xlink="http://www.w3.org/1999/xlink" x="0px" y="0px"
	 width="296px" height="547.9px" viewBox="0 0 296 547.9" enable-background="new 0 0 296 547.9" xml:space="preserve">
<g>
	<g>
		<text transform="matrix(1 0 0 1 23.8779 40.4404)" font-family='"Helvetica Neue", Helvetica, Arial, sans-serif' font-size="12">12</text>
		<text transform="matrix(1 0 0 1 23.9404 54.165)" font-family='"Helvetica Neue", Helvetica, Arial, sans-serif' font-size="14">14</text>
		<text transform="matrix(1 0 0 1 23.8779 69.876)" font-family='"Helvetica Neue", Helvetica, Arial, sans-serif' font-size="16">16</text>
		<text transform="matrix(1 0 0 1 23.8779 87.5869)" font-family='"Helvetica Neue", Helvetica, Arial, sans-serif' font-size="18">18</text>
		<text transform="matrix(1 0 0 1 23.8779 107.2939)" font-family='"Helvetica Neue", Helvetica, Arial, sans-serif' font-size="20">20</text>
		<text transform="matrix(1 0 0 1 23.8779 130.7139)" font-family='"Helvetica Neue", Helvetica, Arial, sans-serif' font-size="24">24</text>
		<text transform="matrix(1 0 0 1 23.9609 159.8193)" font-family='"Helvetica Neue", Helvetica, Arial, sans-serif' font-size="30">30</text>
		<text transform="matrix(1 0 0 1 23.8779 200.167)" font-family='"Helvetica Neue", Helvetica, Arial, sans-serif' font-size="42">42</text>
		<text transform="matrix(1 0 0 1 23.8779 245.6318)" font-family='"Helvetica Neue", Helvetica, Arial, sans-serif' font-size="46">46</text>
		<text transform="matrix(1 0 0 1 23.8779 13.6367)" font-family="'SFProDisplay-Bold'" font-size="16">px</text>
		<line fill="none" stroke="#CCCACA" stroke-miterlimit="10" x1="0" y1="252.191" x2="295.938" y2="252.191"/>
		<line fill="none" stroke="#CCCACA" stroke-miterlimit="10" x1="0" y1="206.191" x2="295.938" y2="206.191"/>
		<line fill="none" stroke="#CCCACA" stroke-miterlimit="10" x1="0" y1="164.173" x2="295.938" y2="164.173"/>
		<line fill="none" stroke="#CCCACA" stroke-miterlimit="10" x1="0" y1="134.174" x2="295.938" y2="134.174"/>
		<line fill="none" stroke="#CCCACA" stroke-miterlimit="10" x1="0" y1="110.174" x2="295.938" y2="110.174"/>
		<line fill="none" stroke="#CCCACA" stroke-miterlimit="10" x1="0" y1="90.174" x2="295.938" y2="90.174"/>
		<line fill="none" stroke="#CCCACA" stroke-miterlimit="10" x1="0" y1="72.174" x2="295.938" y2="72.174"/>
		<line fill="none" stroke="#CCCACA" stroke-miterlimit="10" x1="0" y1="56.174" x2="295.938" y2="56.174"/>
		<line fill="none" stroke="#CCCACA" stroke-miterlimit="10" x1="0" y1="42.174" x2="295.938" y2="42.174"/>
		<line fill="none" stroke="#CCCACA" stroke-miterlimit="10" x1="0" y1="30.121" x2="295.938" y2="30.121"/>
	</g>
	<g>
		<line fill="none" stroke="#CCCACA" stroke-miterlimit="10" x1="0" y1="532.396" x2="296" y2="532.396"/>
		<line fill="none" stroke="#CCCACA" stroke-miterlimit="10" x1="0" y1="486.396" x2="296" y2="486.396"/>
		<line fill="none" stroke="#CCCACA" stroke-miterlimit="10" x1="0" y1="444.377" x2="296" y2="444.377"/>
		<line fill="none" stroke="#CCCACA" stroke-miterlimit="10" x1="0" y1="414.378" x2="296" y2="414.378"/>
		<line fill="none" stroke="#CCCACA" stroke-miterlimit="10" x1="0" y1="390.378" x2="296" y2="390.378"/>
		<line fill="none" stroke="#CCCACA" stroke-miterlimit="10" x1="0" y1="370.378" x2="296" y2="370.378"/>
		<line fill="none" stroke="#CCCACA" stroke-miterlimit="10" x1="0" y1="352.378" x2="296" y2="352.378"/>
		<line fill="none" stroke="#CCCACA" stroke-miterlimit="10" x1="0" y1="336.378" x2="296" y2="336.378"/>
		<line fill="none" stroke="#CCCACA" stroke-miterlimit="10" x1="0" y1="322.378" x2="296" y2="322.378"/>
		<line fill="none" stroke="#CCCACA" stroke-miterlimit="10" x1="0" y1="310.326" x2="296" y2="310.326"/>
		<g>
			<text transform="matrix(1 0 0 1 23.9414 320.6455)" font-family='"Helvetica Neue", Helvetica, Arial, sans-serif' font-size="12">0.687</text>
		</g>
		<g>
			<text transform="matrix(1 0 0 1 24.0039 334.3701)" font-family='"Helvetica Neue", Helvetica, Arial, sans-serif' font-size="14">1</text>
		</g>
		<g>
			<text transform="matrix(1 0 0 1 23.9414 350.0811)" font-family='"Helvetica Neue", Helvetica, Arial, sans-serif' font-size="16">1.143</text>
		</g>
		<g>
			<text transform="matrix(1 0 0 1 23.918 367.792)" font-family='"Helvetica Neue", Helvetica, Arial, sans-serif' font-size="18">1.285711</text>
		</g>
		<g>
			<text transform="matrix(1 0 0 1 23.9414 387.499)" font-family='"Helvetica Neue", Helvetica, Arial, sans-serif' font-size="20">1.429</text>
		</g>
		<g>
			<text transform="matrix(1 0 0 1 23.9414 410.9189)" font-family='"Helvetica Neue", Helvetica, Arial, sans-serif' font-size="24">1.867</text>
		</g>
		<g>
			<text transform="matrix(1 0 0 1 23.9209 440.0244)" font-family='"Helvetica Neue", Helvetica, Arial, sans-serif' font-size="30">2.143</text>
		</g>
		<g>
			<text transform="matrix(1 0 0 1 23.9414 480.3721)" font-family='"Helvetica Neue", Helvetica, Arial, sans-serif' font-size="42">3</text>
		</g>
		<g>
			<text transform="matrix(1 0 0 1 23.9414 525.7744)" font-family='"Helvetica Neue", Helvetica, Arial, sans-serif' font-size="46">3.286</text>
		</g>
		<text transform="matrix(1 0 0 1 23.9414 293.8418)" font-family="'SFProDisplay-Bold'" font-size="16">rem</text>
	</g>
</g>
</svg>
